<?xml version="1.0" encoding="UTF-8" standalone="no"?>
<!-- Created with Inkscape (http://www.inkscape.org/) -->

<svg
   width="300"
   height="400"
   viewBox="0 0 79.374998 105.83333"
   version="1.1"
   id="svg1"
   inkscape:version="1.3 (0e150ed6c4, 2023-07-21)"
   sodipodi:docname="card_figured_2.svg"
   xmlns:inkscape="http://www.inkscape.org/namespaces/inkscape"
   xmlns:sodipodi="http://sodipodi.sourceforge.net/DTD/sodipodi-0.dtd"
   xmlns="http://www.w3.org/2000/svg"
   xmlns:svg="http://www.w3.org/2000/svg">
  <sodipodi:namedview
     id="namedview1"
     pagecolor="#ffffff"
     bordercolor="#000000"
     borderopacity="0.25"
     inkscape:showpageshadow="2"
     inkscape:pageopacity="0.0"
     inkscape:pagecheckerboard="true"
     inkscape:deskcolor="#d1d1d1"
     inkscape:document-units="px"
     inkscape:zoom="1.4342733"
     inkscape:cx="125.49909"
     inkscape:cy="203.23881"
     inkscape:window-width="1920"
     inkscape:window-height="1011"
     inkscape:window-x="0"
     inkscape:window-y="0"
     inkscape:window-maximized="1"
     inkscape:current-layer="layer2" />
  <defs
     id="defs1" />
  <g
     inkscape:label="background"
     inkscape:groupmode="layer"
     id="layer1">
    <rect
       style="fill:#fbc35c;fill-opacity:1;stroke:none;stroke-width:0.907573;stroke-dasharray:none"
       id="rect1"
       width="79.375"
       height="105.83334"
       x="-1.0658141e-14"
       y="-5.0862632e-06"
       rx="0"
       ry="7.6386557"
       inkscape:label="back"
       sodipodi:insensitive="true" />
    <rect
       style="fill:none;stroke:#3f1819;stroke-width:3.31249;stroke-dasharray:none;stroke-opacity:1"
       id="rect2"
       width="68.739899"
       height="95.750214"
       x="5.3175507"
       y="5.0415597"
       rx="0"
       ry="6.9108934"
       inkscape:label="border"
       sodipodi:insensitive="true" />
  </g>
  <g
     inkscape:groupmode="layer"
     id="layer2"
     inkscape:label="logo">
    <path
       style="fill:#3f1819;stroke-width:0.0280713;fill-opacity:1"
       d="m 39.195493,91.537286 c -0.51784,-0.371778 -1.652594,-1.476054 -4.88068,-4.749579 -1.383306,-1.402785 -2.589836,-2.547604 -2.904113,-2.755579 -0.161732,-0.107033 -0.365745,-0.123365 -0.493689,-0.03949 -0.04601,0.03016 -0.251958,0.202842 -0.45764,0.383734 -0.603171,0.530507 -0.793619,0.625595 -1.091987,0.545255 -0.228792,-0.06162 -0.601007,-0.404077 -1.778763,-1.636638 -1.550905,-1.62305 -2.473815,-2.650002 -3.492416,-3.886075 -0.707957,-0.859105 -0.869713,-1.028951 -1.061699,-1.114766 -0.154081,-0.06884 -0.248566,-0.07298 -1.553283,-0.06848 -1.801398,0.006 -2.103196,0.04199 -2.891186,0.341808 -0.566364,0.215497 -0.821908,0.255969 -1.997606,0.316322 -1.532764,0.07864 -2.1023,0.197059 -2.953538,0.613826 -0.644045,0.315328 -0.848402,0.262663 -1.1188,-0.288291 -0.110225,-0.224569 -0.166711,-0.296548 -0.277671,-0.353695 -0.129256,-0.06658 -0.152212,-0.06777 -0.318143,-0.0162 -0.0984,0.03051 -0.406217,0.16178 -0.684126,0.291591 -0.440006,0.205527 -0.534302,0.236231 -0.729859,0.237626 -0.219259,0.0013 -0.22619,-0.0013 -0.293047,-0.129386 -0.07736,-0.148096 -0.07676,-0.214398 0.02968,-2.863286 0.08444,-2.100193 0.143886,-2.770706 0.340414,-3.836414 0.137274,-0.744466 0.174871,-1.326337 0.14631,-2.264433 -0.02803,-0.922248 0.02117,-2.240246 0.136978,-3.667986 C 11.0304,64.627835 11.009738,64.226301 10.718406,63.640292 10.40904,63.017985 10.10102,62.730852 9.0726377,62.106097 8.700245,61.879861 8.395561,61.683334 8.395561,61.669367 c 0,-0.02366 2.313467,-0.955908 3.23756,-1.304635 0.584827,-0.220702 0.755347,-0.3213 0.866721,-0.511347 0.08882,-0.151585 0.09248,-0.179578 0.06859,-0.525882 -0.02377,-0.344126 -0.02011,-0.373528 0.06292,-0.496776 0.161767,-0.240216 0.246921,-0.259813 1.557245,-0.358449 0.65308,-0.0492 1.198512,-0.08966 1.212088,-0.09 0.01361,-3.67e-4 -0.0071,-0.06717 -0.04683,-0.148557 -0.04731,-0.09793 -0.07144,-0.22827 -0.07144,-0.385652 0,-0.28835 0.0971,-0.504746 0.372737,-0.830755 0.307226,-0.363356 0.29353,-0.516597 -0.0712,-0.795889 -0.101715,-0.07794 -0.425945,-0.326115 -0.720481,-0.55157 -0.587275,-0.44954 -0.981181,-0.818112 -1.040174,-0.973281 -0.06835,-0.179792 -0.04116,-0.419947 0.08823,-0.777132 0.143094,-0.395301 0.195853,-0.647096 0.142502,-0.680069 -0.01975,-0.01219 -0.210436,0.06091 -0.423709,0.162407 -0.534575,0.254527 -0.860394,0.340708 -1.379606,0.364953 -1.54032,0.07191 -2.7185493,-0.838264 -3.0565373,-2.361199 -0.08918,-0.401594 -0.07948,-1.161245 0.01939,-1.530907 0.129659,-0.484737 0.347982,-0.859932 0.714439,-1.227795 0.4689603,-0.470768 0.9747593,-0.724017 1.7870293,-0.89475 0.440858,-0.09272 1.311943,-0.133846 1.789547,-0.08456 0.40966,0.04223 0.568047,0.0083 0.622438,-0.133016 0.02957,-0.07699 0.0024,-0.374108 -0.113893,-1.260957 -0.77006,-5.855853 -1.164379,-10.851549 -1.1625,-14.728115 5.33e-4,-0.991814 0.01065,-1.184781 0.07333,-1.470956 0.154377,-0.698199 0.509715,-1.370083 1.196904,-2.263131 l 0.39556,-0.514044 0.167753,0.0036 c 0.109281,0.0024 0.311224,0.06339 0.57947,0.175877 0.598251,0.250908 1.068335,0.338557 1.68429,0.314052 0.549265,-0.02188 0.796446,-0.07877 1.239588,-0.285691 0.44288,-0.206745 0.738457,-0.418837 1.118763,-0.802748 1.324726,-1.33729 1.917597,-3.447985 1.840817,-6.553544 -0.02366,-0.95735 -0.08267,-1.507868 -0.256928,-2.395427 -0.142704,-0.727009 -0.132508,-0.883242 0.0725,-1.110106 0.359655,-0.398093 2.13144,-1.02792 3.920149,-1.393525 1.808198,-0.36959 5.645936,-0.777925 9.001551,-0.957752 2.931231,-0.157098 6.849722,-0.157001 9.824987,2.24e-4 2.330757,0.123165 4.992219,0.369578 7.279832,0.674014 1.981486,0.263692 2.621533,0.382859 3.828454,0.712805 0.794753,0.21726 1.003144,0.318746 1.142983,0.556609 l 0.100176,0.170307 0.0024,1.777852 c 0.0036,2.113864 0.05961,2.876272 0.302958,4.079704 0.412367,2.039189 1.289283,3.339056 2.618055,3.880799 0.686361,0.279811 1.466935,0.385805 2.326134,0.315848 0.729955,-0.05949 0.973056,-0.05333 1.150613,0.02886 0.220583,0.102064 0.315033,0.22218 0.695006,0.883468 0.41853,0.72837 0.638746,1.064324 1.072639,1.636496 0.786381,1.036969 1.029553,1.823668 1.096481,3.54734 0.107033,2.757958 -0.03737,7.629046 -0.357148,12.0419 -0.102659,1.416529 -0.112238,1.76055 -0.05275,1.891118 0.07911,0.17363 0.159165,0.192139 0.858193,0.198431 0.936877,0.0083 1.397546,0.106088 2.014424,0.427021 0.572066,0.297624 1.029612,0.760409 1.314877,1.329932 0.712463,1.422372 0.232386,3.556803 -0.988999,4.39715 -0.871688,0.599728 -2.01964,0.59961 -3.064922,-3.08e-4 -0.182395,-0.104667 -0.336204,-0.185184 -0.341786,-0.178881 -0.006,0.006 -0.06268,0.116258 -0.126867,0.244331 -0.171217,0.341584 -0.159615,0.462041 0.08918,0.925796 0.16579,0.309083 0.205858,0.417986 0.205858,0.559494 0,0.23701 -0.06079,0.338379 -0.361062,0.602414 -0.767293,0.674653 -0.930397,0.877755 -1.008241,1.255505 -0.07392,0.358474 0.02176,0.714734 0.315529,1.17532 0.172696,0.270787 0.162349,0.424678 -0.05038,0.748547 -0.09261,0.141034 -0.168427,0.296286 -0.168427,0.345001 0,0.131373 0.166132,0.213334 0.705662,0.348124 2.109584,0.52703 6.039962,1.649696 6.384846,1.823751 0.329189,0.166144 0.371575,0.367143 0.142549,0.675765 -0.230755,0.310928 -0.724882,0.907818 -0.751693,0.907996 -0.0628,4.26e-4 -0.498254,0.430723 -0.617114,0.609794 -0.149634,0.22542 -0.294773,0.573911 -0.377289,0.905891 -0.142208,0.572149 -0.246046,1.804166 -0.247621,2.938138 -0.0013,0.922343 -0.06115,2.246635 -0.129113,2.859112 -0.09994,0.900144 -0.134341,1.979003 -0.09414,2.957713 0.03596,0.877672 0.07202,1.403554 0.223647,3.25958 0.106795,1.307947 0.15738,2.283332 0.128405,2.476537 -0.03524,0.235449 -0.145779,0.352334 -0.353909,0.374451 -0.09804,0.01065 -0.56989,-0.04471 -1.140335,-0.133207 -0.535225,-0.08303 -2.093191,-0.311354 -3.462128,-0.507373 -1.368949,-0.196018 -2.561547,-0.375987 -2.650225,-0.399937 -0.112119,-0.03027 -0.247561,-0.121971 -0.444596,-0.300935 -0.319184,-0.289924 -0.626955,-0.473004 -0.984895,-0.585869 -0.423639,-0.133595 -0.668928,-0.167361 -1.684278,-0.231865 -0.319077,-0.02022 -0.718589,-0.05618 -0.887807,-0.07984 -0.378756,-0.05286 -0.439818,-0.02247 -0.402209,0.200182 0.0356,0.210921 -0.04412,0.485021 -0.209761,0.721593 -0.178787,0.255225 -1.446889,1.845714 -2.000008,2.508481 -1.485939,1.780477 -2.908667,3.252911 -4.191775,4.338204 -0.686079,0.58032 -0.852599,0.563787 -1.217519,-0.120836 -0.472281,-0.886056 -0.585253,-0.896098 -1.533484,-0.136222 -0.820915,0.657847 -1.615976,1.40274 -3.331121,3.120948 -0.998401,1.000198 -2.185819,2.172041 -2.638706,2.604099 -0.452887,0.432073 -1.076069,1.0316 -1.384856,1.332299 -0.308788,0.300686 -0.603076,0.574501 -0.653967,0.608457 -0.156753,0.104549 -0.412626,0.08065 -0.603631,-0.05653 z m 1.006431,-6.749031 c 1.228031,-0.583194 2.663045,-1.691219 3.850132,-2.972814 0.700719,-0.756495 0.832955,-1.051328 0.651176,-1.451726 -0.03915,-0.08622 -0.14184,-0.233475 -0.228175,-0.327131 L 44.31809,79.8663 43.307471,81.372418 c -0.555851,0.828366 -1.033527,1.530433 -1.061521,1.560154 -0.08598,0.09131 -0.205953,-0.06493 -0.71478,-0.931366 -0.527183,-0.897624 -0.710666,-1.197424 -1.136043,-1.856299 -0.337692,-0.523056 -0.429742,-0.761285 -0.397928,-1.02992 0.03252,-0.274904 0.135028,-0.473631 0.547514,-1.061935 0.411789,-0.587312 0.600723,-0.946434 0.600771,-1.141896 0,-0.301622 -0.234563,-0.578512 -1.029246,-1.21461 -0.507302,-0.406063 -0.594016,-0.435217 -0.652843,-0.219482 -0.0874,0.320318 -0.125944,1.749975 -0.141472,5.239979 -0.01065,2.35097 -0.02922,3.639922 -0.05299,3.639922 -0.0641,0 -1.707042,-0.999643 -2.427666,-1.477117 -0.380826,-0.252339 -0.968479,-0.667462 -1.305889,-0.922485 -0.715809,-0.54102 -0.715242,-0.540571 -0.715242,-0.567228 0,-0.01183 0.315801,-0.02625 0.701784,-0.03336 0.619491,-0.01183 0.719345,-0.02188 0.851498,-0.08988 0.189243,-0.09733 0.298558,-0.303182 0.358556,-0.675126 0.0246,-0.152424 0.05605,-0.277127 0.06989,-0.277127 0.0531,0 0.188921,0.155535 0.205137,0.234964 0.0094,0.04578 0.02472,0.200075 0.03418,0.342944 0.01963,0.297848 0.08161,0.376946 0.266579,0.340743 0.230067,-0.04506 0.405234,-0.31541 0.46217,-0.713419 0.03677,-0.256999 0.130994,-0.272977 0.234184,-0.03974 0.04163,0.09426 0.09295,0.171323 0.113892,0.171323 0.177605,0 0.314335,-0.302365 0.313117,-0.692427 -6.51e-4,-0.207443 -0.02306,-0.310409 -0.107388,-0.494481 -0.123189,-0.268754 -0.435241,-0.588234 -0.696496,-0.71309 -0.387036,-0.184972 -0.557425,-0.208023 -1.622577,-0.219495 -1.150696,-0.01241 -1.313173,-0.04022 -1.566754,-0.268068 -0.281928,-0.253355 -0.647828,-1.231226 -0.74074,-1.979665 -0.09248,-0.745412 -0.2695,-0.888328 -0.939883,-0.759013 -0.110817,0.02141 -0.58899,0.08031 -1.062454,0.130876 -1.335159,0.142656 -1.721769,0.220642 -1.902117,0.383734 -0.124158,0.112237 -0.207703,0.32544 -0.295045,0.75277 -0.09615,0.4702 -0.136458,0.514587 -0.33865,0.372415 -0.06694,-0.04707 -0.317872,-0.273603 -0.557732,-0.503492 -0.527385,-0.505447 -0.827397,-0.718933 -1.151323,-0.819272 -0.08966,-0.02779 -0.08941,-0.02638 0.03229,0.19169 0.210188,0.376744 0.502075,0.734496 1.038235,1.272536 0.580286,0.582297 0.875259,0.95664 1.281406,1.626136 0.562013,0.926434 1.013457,1.36403 1.774184,1.71971 0.374169,0.174955 0.780586,0.280569 1.293541,0.336168 0.515097,0.05582 0.706361,0.134081 1.108369,0.453477 0.658886,0.52347 1.519705,1.151773 2.158782,1.575683 1.123636,0.745307 2.815648,1.737722 3.193494,1.87307 0.263513,0.09439 0.520677,0.06409 0.871685,-0.102536 z m 8.410575,-3.838979 c 0.432143,-0.04944 0.582557,-0.0958 0.745164,-0.229821 0.20684,-0.170495 0.234349,-0.374911 0.109872,-0.816147 -0.02578,-0.09118 -0.02437,-0.0919 0.06375,-0.03347 0.04956,0.03288 0.186321,0.200654 0.303975,0.372819 0.117678,0.172163 0.258689,0.345652 0.313436,0.385532 0.23105,0.168308 0.751207,-4.25e-4 0.892361,-0.289509 0.06966,-0.142597 0.06954,-0.148428 -0.01065,-0.463756 -0.04447,-0.17563 -0.07463,-0.325594 -0.06694,-0.333247 0.0071,-0.0071 0.09071,0.0537 0.18451,0.136258 0.187658,0.165174 0.221743,0.176409 0.289121,0.0952 0.066,-0.0796 -0.01478,-0.517142 -0.146452,-0.792909 -0.149338,-0.312773 -0.367545,-0.539459 -0.790035,-0.820725 -0.470912,-0.313496 -0.868625,-0.480279 -1.467019,-0.615211 -0.82678,-0.186427 -1.177104,-0.420516 -1.48335,-0.991198 -0.400658,-0.746631 -0.855982,-1.11479 -1.605391,-1.298071 -0.251889,-0.06162 -0.464276,-0.08196 -0.92575,-0.08882 -0.329365,-0.0047 -0.969389,-0.02117 -1.422276,-0.0363 -1.020717,-0.03406 -2.925625,0.07616 -3.031606,0.175344 -0.05653,0.05299 0.601054,0.663926 1.454825,1.3516 2.003792,1.613966 2.654459,2.273208 3.130065,3.171305 0.214941,0.405887 0.435109,0.628327 0.789206,0.797369 0.597884,0.285417 1.768083,0.427127 2.672921,0.32369 z m -34.79702,-1.983781 c 0.656132,-0.210188 1.162464,-0.287441 2.683377,-0.409434 1.082537,-0.08681 1.594856,-0.158741 2.030379,-0.284945 0.297718,-0.08634 0.838975,-0.337386 1.076186,-0.499284 0.144065,-0.09829 0.202607,-0.09674 0.624223,0.01691 0.659301,0.177757 1.422514,0.188401 2.534665,0.03536 0.599942,-0.08255 0.814943,-0.210814 0.899635,-0.53668 0.02105,-0.08113 0.03784,-2.408828 0.04199,-5.805884 0.0071,-5.628422 0.006,-5.674712 -0.07427,-6.250563 -0.158798,-1.137508 -0.14547,-1.764451 0.05524,-2.598151 0.196101,-0.814671 0.288658,-1.670109 0.354688,-3.278115 0.02153,-0.524935 0.05499,-1.177684 0.07427,-1.450542 0.03844,-0.542664 0.0175,-0.663724 -0.123839,-0.717477 -0.06056,-0.02306 -0.565053,0.0363 -1.642068,0.19324 -0.921798,0.134293 -1.595941,0.216124 -1.656117,0.20102 -0.06694,-0.0168 -0.118149,-0.06647 -0.150484,-0.14579 -0.02697,-0.06611 -0.119688,-0.760338 -0.206084,-1.54259 -0.08646,-0.782253 -0.224935,-1.969672 -0.307831,-2.638707 -0.10585,-0.854644 -0.14127,-1.254322 -0.118942,-1.34384 0.04578,-0.183411 0.18049,-0.265631 0.503151,-0.307049 0.348348,-0.04471 2.29776,-0.271557 3.215337,-0.374155 0.760574,-0.08503 0.912881,-0.13336 1.022883,-0.324529 0.154305,-0.268163 0.116022,-1.671884 -0.066,-2.423919 -0.101714,-0.420055 -0.216752,-0.70545 -0.480372,-1.19177 -0.450521,-0.831122 -0.52347,-1.242875 -0.322874,-1.822511 0.06682,-0.193037 0.06906,-0.228683 0.022,-0.340412 -0.04612,-0.109517 -1.916805,-2.439518 -2.256308,-2.81029 -0.140396,-0.153323 -0.249901,-0.176172 -0.419546,-0.08751 -0.258513,0.13505 -0.433395,0.448167 -0.380743,0.681665 0.01561,0.06931 0.180159,0.382894 0.365641,0.696946 0.18548,0.314051 0.55902,0.964848 0.830092,1.446202 0.271072,0.481353 0.534291,0.940816 0.58491,1.021014 0.05062,0.08018 0.101233,0.19195 0.112592,0.248353 0.03098,0.154884 -1.320506,4.218942 -1.385152,4.165295 -0.02591,-0.02153 -0.551109,-0.644529 -1.167052,-1.384455 l -1.119887,-1.345319 -0.01065,0.193725 c -0.0094,0.174021 0.388276,3.651157 0.891522,7.786589 0.102423,0.841259 0.18613,1.61088 0.18613,1.710261 0,0.315364 -0.04742,0.344458 -1.011991,0.620107 -2.257748,0.645262 -2.987718,0.782431 -4.45257,0.836646 -0.905111,0.03348 -1.033255,0.05275 -1.265865,0.189975 -0.347084,0.204781 -0.416094,0.576678 -0.267903,1.443529 0.06825,0.399038 0.09544,0.477569 0.27721,0.79907 0.435548,0.770474 0.408594,1.162523 -0.106087,1.542687 -0.09225,0.06812 -0.185291,0.165965 -0.206794,0.217437 -0.05205,0.124584 -0.179885,1.182805 -0.207998,1.721709 -0.05428,1.040966 -0.08456,3.378925 -0.05428,4.191988 0.03264,0.877637 0.04341,1.010087 0.182631,2.24571 0.13349,1.185208 0.160952,1.895151 0.184677,4.773836 0.02176,2.638445 0.02826,2.853648 0.08988,2.947493 0.08622,0.131528 0.173843,0.129706 0.618829,-0.0129 z m 3.052222,-2.46575 c -0.188816,-0.08575 -0.373646,-0.323559 -0.6712,-0.863621 -0.840133,-1.524863 -1.476088,-3.356207 -1.774138,-5.108986 -0.173878,-1.022504 -0.206674,-1.465882 -0.206272,-2.788422 5.32e-4,-1.653125 0.107033,-2.59626 0.393209,-3.480851 0.273708,-0.846071 1.242187,-2.527308 1.79836,-3.121857 0.388441,-0.415242 0.915482,-0.720139 1.850337,-1.070403 0.632443,-0.236964 0.817404,-0.251558 1.102704,-0.08704 0.171265,0.09876 0.737937,0.586093 1.813071,1.55916 0.579895,0.524854 0.728062,0.603728 1.135865,0.604685 0.169822,4.26e-4 0.308776,0.0123 0.308776,0.02648 0,0.06647 -0.504452,0.687591 -0.841281,1.035951 -0.522642,0.540561 -1.041061,0.920865 -1.718032,1.26032 -0.513002,0.257246 -0.685994,0.323784 -0.653032,0.25118 0.0071,-0.01549 0.06694,-0.131978 0.133123,-0.258962 0.307097,-0.589002 0.189408,-1.146769 -0.381652,-1.808968 -0.133148,-0.154388 -0.32265,-0.38895 -0.421096,-0.521235 -0.266071,-0.357502 -0.486274,-0.588019 -0.61106,-0.639715 -0.06399,-0.02649 -0.198833,-0.03868 -0.318025,-0.02886 -0.26698,0.02212 -0.485635,0.170686 -0.623985,0.4239 -0.106087,0.194209 -0.376414,1.239693 -0.512517,1.982314 -0.247396,1.34986 -0.405521,3.324912 -0.42591,5.319503 l -0.0083,0.790662 0.187147,0.184973 c 0.2774,0.274182 0.380021,0.497711 0.560382,1.22057 0.383061,1.535246 0.875874,2.415248 1.788223,3.193149 0.441958,0.376827 0.50768,0.390819 0.756885,0.161117 0.09107,-0.08397 0.184806,-0.210672 0.208177,-0.281504 0.02755,-0.08361 0.04471,-0.551912 0.04873,-1.335064 l 0.006,-1.206282 -0.19527,-0.738247 c -0.191098,-0.722705 -0.272645,-1.180464 -0.272645,-1.53055 0,-0.120351 -0.01739,-0.181425 -0.05582,-0.196173 -0.03064,-0.01183 -0.286245,-0.0047 -0.567891,0.01515 -0.281645,0.02011 -0.542487,0.02697 -0.579635,0.01515 -0.08444,-0.02685 -0.15861,-0.287275 -0.130686,-0.45932 0.05477,-0.337385 0.229015,-0.420482 1.109455,-0.529028 0.360246,-0.04447 1.143729,-0.155205 1.741069,-0.2462 1.15564,-0.17602 1.273471,-0.17751 1.353775,-0.01715 0.05216,0.104313 0.03193,0.231936 -0.08764,0.55235 -0.220476,0.590469 -0.252528,1.357417 -0.109872,2.629564 0.04955,0.442124 0.101827,0.938593 0.116021,1.103281 0.03217,0.371364 0.08149,0.491928 0.337977,0.826889 0.233439,0.30479 0.316712,0.481009 0.316712,0.670252 0,0.281504 -0.170827,0.498952 -0.500052,0.636511 -0.07948,0.03323 -0.403545,0.08219 -0.746559,0.112946 -1.119852,0.100287 -1.846164,0.351389 -2.697545,0.932656 -0.755536,0.515852 -1.483185,0.884331 -1.739557,0.880914 -0.03382,-4.27e-4 -0.131372,-0.03252 -0.216715,-0.07132 z m 20.962414,-0.645652 c 0.0036,-0.197887 -0.07664,-0.333968 -0.276003,-0.469693 -0.360069,-0.245089 -0.851122,-0.06375 -0.978472,0.361288 -0.06623,0.220889 -0.01491,0.350347 0.377644,0.953174 l 0.314239,0.482585 0.279801,-0.576158 c 0.220322,-0.453679 0.28045,-0.613378 0.282791,-0.751196 z m 11.999394,1.210811 c 0.106323,-0.05571 0.165623,-0.13977 0.321383,-0.45563 0.209844,-0.425555 0.365462,-0.598854 0.537732,-0.598854 0.118269,0 0.131409,0.01408 0.374747,0.400269 0.209595,0.332631 0.421474,0.421498 0.685627,0.287559 0.06587,-0.03335 0.237673,-0.172402 0.381784,-0.308883 0.144099,-0.136483 0.354629,-0.327368 0.467847,-0.424194 l 0.205859,-0.176032 -0.130995,-0.0036 c -0.07202,-0.0024 -1.242627,-0.08385 -2.601285,-0.182086 -1.358649,-0.09817 -2.476016,-0.174458 -2.483017,-0.16942 -0.0071,0.0047 0.12773,0.2304 0.299421,0.500833 0.446512,0.703261 0.766594,1.007792 1.20245,1.144002 0.236064,0.0738 0.583502,0.06717 0.738447,-0.01408 z M 66.98704,76.004897 c 0.21254,-0.09686 0.216609,-0.497639 0.02069,-2.034341 -0.242627,-1.90272 -0.219944,-2.718431 0.09982,-3.589445 0.251274,-0.684504 0.276642,-0.778089 0.297291,-1.096611 0.01418,-0.219613 6.38e-4,-0.466546 -0.0408,-0.741072 -0.04127,-0.273639 -0.07261,-0.838502 -0.09332,-1.684277 -0.0291,-1.191959 -0.169906,-3.226572 -0.265265,-3.833563 -0.07924,-0.504085 -0.257022,-0.745306 -0.696284,-0.944482 -0.273129,-0.12384 -1.446592,-0.463307 -1.792682,-0.518597 -0.418683,-0.06682 -0.712676,0.02224 -1.051599,0.318711 -0.10585,0.09261 -0.223516,0.168367 -0.261457,0.168367 -0.03797,0 -0.212068,-0.139403 -0.386963,-0.309781 -0.72559,-0.706881 -1.378836,-0.828485 -2.424545,-0.451326 -0.323228,0.116613 -0.413811,0.09473 -0.526851,-0.126807 -0.194387,-0.381027 -0.440255,-0.496813 -1.501257,-0.706999 -1.850445,-0.366574 -3.679317,-0.553463 -6.364017,-0.650337 -1.315728,-0.04742 -5.583586,-0.04779 -7.429548,-6.14e-4 -1.670996,0.0427 -6.240639,0.174894 -7.635418,0.220831 -1.150199,0.03784 -1.264162,0.06587 -1.625072,0.400067 -0.17939,0.166073 -0.242912,0.202678 -0.351731,0.202678 -0.107743,0 -0.14851,-0.02295 -0.216148,-0.12164 -0.321325,-0.468983 -0.421001,-0.496149 -1.699604,-0.463259 -1.134399,0.02922 -1.790082,0.07226 -2.619997,0.1724 -0.329377,0.03975 -0.825267,0.09071 -1.101992,0.11342 -0.703653,0.05759 -1.01639,0.172459 -1.361593,0.500195 -0.07864,0.07463 -0.180904,0.135772 -0.227194,0.135772 -0.04625,0 -0.151467,-0.05759 -0.2337,-0.127991 -0.35043,-0.299953 -0.588777,-0.358578 -1.457923,-0.358578 -0.931448,0 -1.119839,0.06647 -1.286621,0.454187 -0.163991,0.381203 -0.502784,2.049053 -0.618569,3.045148 -0.06516,0.560961 -0.07226,1.714377 -0.0149,2.433083 0.02141,0.267608 0.05027,2.020008 0.0641,3.894225 0.02366,3.195822 0.02945,3.414051 0.09272,3.510618 0.112119,0.171158 0.20645,0.192873 0.635765,0.146452 0.2102,-0.02271 1.418007,-0.152507 2.684026,-0.288386 2.90778,-0.3121 3.802424,-0.416152 4.341706,-0.504936 0.67671,-0.111411 0.868696,-0.120541 1.646857,-0.0783 1.407422,0.07652 3.385112,0.109516 4.49944,0.0751 1.791463,-0.05524 2.921567,-0.17434 4.480184,-0.471941 0.348527,-0.06658 0.588895,-0.09178 0.785991,-0.08256 0.290267,0.01361 0.329213,0.02779 0.794092,0.288387 0.382398,0.214386 0.648242,0.256336 2.155885,0.340248 0.756932,0.0421 4.274824,0.236537 7.817553,0.432024 3.542727,0.195486 6.532255,0.372676 6.643391,0.393752 0.298499,0.05665 0.611911,0.226508 0.969685,0.525633 0.594703,0.497249 1.280178,0.756045 2.473781,0.933969 0.609983,0.09094 1.637041,0.293921 2.167347,0.428369 0.411621,0.104313 0.486238,0.110699 0.614724,0.05216 z M 28.08956,72.041711 c -0.308066,-0.206059 -0.744596,-0.634582 -0.923879,-0.90692 -0.07817,-0.118683 -0.134626,-0.223209 -0.125542,-0.232292 0.0094,-0.0094 0.234799,-0.03418 0.501601,-0.05571 0.749208,-0.06067 1.349328,-0.18826 2.010118,-0.427506 0.714238,-0.258606 1.116494,-0.507668 1.327887,-0.822192 0.309841,-0.460988 0.269523,-0.896417 -0.19046,-2.056883 -0.281019,-0.708986 -0.450876,-1.097806 -0.827822,-1.894962 -0.151514,-0.320435 -0.28634,-0.641737 -0.29961,-0.713999 -0.04731,-0.257541 0.107506,-0.438612 0.448687,-0.525007 0.349816,-0.08859 0.650183,-0.200051 1.254099,-0.465482 0.352476,-0.154932 0.659194,-0.281693 0.681584,-0.281693 0.02235,0 -0.05252,0.09781 -0.166488,0.217237 -0.51305,0.537875 -0.551736,0.968172 -0.156635,1.742158 0.348668,0.683036 0.43025,0.758694 0.69115,0.641052 0.234989,-0.105969 0.305312,-0.235023 0.33709,-0.618617 0.0544,-0.656782 0.295968,-0.905867 1.217672,-1.255588 0.237649,-0.09013 0.541304,-0.225019 0.674806,-0.299682 0.133501,-0.07463 0.252563,-0.125909 0.264578,-0.113892 0.01206,0.01206 -0.0071,0.06516 -0.04127,0.11815 -0.03465,0.05299 -0.5069,0.968456 -1.049328,2.034412 -1.107906,2.177221 -1.489394,2.898743 -1.734269,3.280042 -0.572196,0.890953 -1.393206,1.607202 -2.833412,2.471853 -0.626765,0.376283 -0.723107,0.391326 -1.060576,0.165575 z m 7.123541,-0.27527 c -0.595331,-0.145127 -1.177969,-0.73335 -1.086915,-1.097321 0.03761,-0.15032 0.341454,-0.422693 0.471539,-0.422693 0.09141,0 0.111527,0.02235 0.16528,0.184262 0.0906,0.27281 0.178752,0.317174 0.511974,0.257673 0.262592,-0.04684 0.490792,-0.182998 0.59922,-0.357396 l 0.08751,-0.140681 -0.0083,-1.740431 c -0.0047,-0.957232 -0.02366,-1.983449 -0.04163,-2.280482 -0.03051,-0.501945 -0.03902,-0.545088 -0.120858,-0.61139 -0.07676,-0.06209 -0.125178,-0.06801 -0.375315,-0.04588 -0.494966,0.04375 -0.595565,-0.102776 -0.226793,-0.330384 0.566178,-0.349449 0.860075,-0.961241 0.866366,-1.803385 0.0047,-0.589027 0.204795,-1.094779 0.608281,-1.535117 0.423768,-0.462467 0.926363,-0.751539 1.504,-0.865029 0.275731,-0.05417 0.359182,-0.05665 0.580865,-0.01703 0.293283,0.05239 0.542688,0.191761 0.684964,0.382717 0.216752,0.290918 0.159665,0.484725 -0.236832,0.80398 -0.39548,0.318426 -0.449978,0.350359 -0.598321,0.350631 -0.165388,3.2e-4 -0.255391,-0.08859 -0.407318,-0.402197 -0.120399,-0.24853 -0.221943,-0.333601 -0.329486,-0.27605 -0.218075,0.116731 -0.346563,0.492174 -0.343865,1.004823 0.0047,0.834185 0.06611,1.01335 0.332394,0.964067 0.129054,-0.02389 0.939609,-0.253971 1.067234,-0.302945 0.06292,-0.02413 0.06623,-0.0094 0.04246,0.194967 -0.05712,0.489358 -0.342281,0.831534 -0.760137,0.912241 -0.1188,0.02295 -0.256571,0.05051 -0.306162,0.06114 -0.04955,0.01065 -0.144808,0.07416 -0.211606,0.140882 -0.09816,0.09828 -0.126667,0.163317 -0.148794,0.340483 -0.01502,0.120468 -0.01384,1.003818 0.0024,1.96299 0.04482,2.593562 0.04353,2.663826 -0.0538,3.034126 -0.218477,0.83118 -0.760208,1.462393 -1.40165,1.633185 -0.233214,0.06209 -0.612242,0.06221 -0.866462,3.19e-4 z m 4.372489,-0.04447 c -0.127162,-0.03145 -0.404715,-0.144714 -0.616771,-0.2517 -0.501802,-0.253154 -0.52043,-0.294336 -0.311744,-0.689199 0.08172,-0.154695 0.198537,-0.32324 0.259493,-0.374533 0.116731,-0.09817 0.113775,-0.09805 0.623478,-0.0233 0.114247,0.0168 0.147043,0.0047 0.213699,-0.08031 0.09663,-0.122822 0.298214,-0.63709 0.342339,-0.873284 0.06623,-0.354559 -0.07948,-3.163075 -0.191168,-3.68373 -0.02295,-0.107032 -0.07948,-0.22885 -0.129161,-0.278582 -0.100534,-0.100524 -0.166109,-0.09379 -0.49337,0.05074 -0.245443,0.108452 -0.256915,0.108216 -0.285122,-0.0047 -0.03737,-0.148758 0.04576,-0.265181 0.285216,-0.399607 0.123958,-0.06954 0.306341,-0.215012 0.405284,-0.323156 0.306954,-0.335494 0.39077,-0.675138 0.442691,-1.793948 0.0414,-0.891237 0.05712,-0.926021 0.608835,-1.340565 0.49505,-0.371991 0.916772,-0.624506 1.336509,-0.800241 0.274678,-0.114958 0.365993,-0.135441 0.604282,-0.135276 0.236549,2.84e-4 0.318994,0.01844 0.524001,0.116376 0.278925,0.133195 0.397135,0.234409 0.545492,0.46702 0.13816,0.216621 0.193085,0.258535 0.338792,0.258535 0.315695,0 0.421924,0.132804 0.467729,0.584769 0.01797,0.176823 0.08314,0.547359 0.144808,0.823398 0.06174,0.276039 0.131527,0.659076 0.155145,0.851181 0.04494,0.365958 0.03087,0.500772 -0.142905,1.371219 -0.04991,0.250149 -0.06399,0.534138 -0.06553,1.328714 -0.0024,1.0687 0.02625,1.368311 0.222428,2.357995 0.129043,0.65094 0.132662,0.840016 0.01821,0.954428 -0.09402,0.09402 -0.207266,0.09414 -0.707696,0.0012 -0.218053,-0.04056 -0.629735,-0.08989 -0.914868,-0.109872 -0.285123,-0.01987 -0.524618,-0.04234 -0.532198,-0.04991 -0.0071,-0.0071 0.07084,-0.18133 0.174186,-0.386101 0.137049,-0.271439 0.20878,-0.473725 0.26478,-0.746607 0.07345,-0.35788 0.07522,-0.429232 0.03938,-1.628135 -0.0414,-1.384441 -0.05831,-1.491818 -0.289155,-1.83488 -0.07167,-0.10656 -0.130403,-0.215083 -0.130403,-0.241114 0,-0.09332 0.153123,-0.238678 0.494848,-0.469871 0.415845,-0.281338 0.590587,-0.438882 0.590587,-0.532468 0,-0.116378 -0.102299,-0.275815 -0.267761,-0.417478 -0.180099,-0.154152 -0.322117,-0.173216 -0.42702,-0.05736 -0.03855,0.04257 -0.196953,0.166464 -0.352016,0.275247 -0.582379,0.408594 -0.968219,0.937008 -1.12807,1.54491 -0.09154,0.348182 -0.105496,0.983298 -0.0324,1.470954 0.06848,0.456683 0.06031,1.674887 -0.01526,2.2582 -0.115312,0.890162 -0.311071,1.689612 -0.510153,2.083505 -0.318036,0.629225 -0.885371,0.893663 -1.559572,0.726928 z m 2.633774,-8.284868 c 0.397205,-0.187917 0.788451,-0.474281 0.87216,-0.638368 0.144785,-0.283785 0.06056,-0.643476 -0.195877,-0.836656 -0.150484,-0.113302 -0.412792,-0.203611 -0.684575,-0.235555 -0.262261,-0.03087 -0.328171,0.02329 -0.430012,0.353019 -0.144265,0.467091 -0.164643,1.256913 -0.03643,1.411432 0.07002,0.08432 0.218076,0.06754 0.474706,-0.05381 z m 21.645239,8.245425 c -0.609865,-0.17143 -1.163256,-0.243125 -2.04702,-0.265205 l -0.830601,-0.02069 0.168604,-0.33573 c 0.396886,-0.790237 0.552753,-1.483659 0.553262,-2.461232 3.19e-4,-0.699796 -0.05605,-1.183137 -0.225161,-1.927568 -0.10727,-0.4722 -0.118671,-0.698518 -0.04116,-0.815877 0.05547,-0.08397 1.190741,-0.787196 1.490152,-0.92304 0.317857,-0.144217 0.463719,-0.07652 0.506426,0.235165 0.01324,0.09627 0.0343,0.17486 0.04695,0.174635 0.01266,-3.19e-4 0.105613,-0.02543 0.20671,-0.05618 0.101828,-0.03086 0.327936,-0.05571 0.507289,-0.05571 0.272716,0 0.35399,0.01515 0.517179,0.09651 0.303098,0.151041 0.503291,0.441332 0.623039,0.903455 0.16327,0.630053 -0.02531,1.0428 -0.569429,1.246529 -0.25112,0.09402 -0.384692,0.09366 -0.50548,-0.0013 -0.115786,-0.09107 -0.162443,-0.232611 -0.190957,-0.579232 -0.0285,-0.346635 -0.100647,-0.445507 -0.336001,-0.460907 -0.150816,-0.0094 -0.189644,0.0036 -0.282781,0.09651 -0.05937,0.05937 -0.127257,0.173996 -0.150852,0.254728 -0.06482,0.221871 -0.09367,2.030745 -0.04269,2.673181 0.0583,0.734413 0.146003,1.309093 0.216977,1.422288 0.03229,0.05145 0.225101,0.253568 0.42851,0.449137 0.345204,0.331898 0.434757,0.45556 0.321952,0.444596 -0.02578,-0.0024 -0.18994,-0.04482 -0.364931,-0.09402 z m -5.905371,-0.307653 c -0.427803,-0.151809 -0.692819,-0.316345 -1.00363,-0.623123 -0.309343,-0.30531 -0.476339,-0.616664 -0.538087,-1.003226 -0.06529,-0.408345 0.02495,-1.669801 0.190472,-2.66476 0.190826,-1.146923 0.297339,-1.440596 0.640058,-1.764687 0.564036,-0.533393 1.412981,-0.652643 2.162568,-0.303786 0.186097,0.08657 0.322483,0.194079 0.580144,0.457157 0.644174,0.657728 0.889924,1.270241 0.878808,2.190383 -0.0036,0.27306 0.01633,0.527704 0.05323,0.693505 0.109281,0.489679 0.05038,0.941667 -0.184156,1.411443 -0.302709,0.606447 -0.969544,1.31063 -1.470447,1.55281 -0.259564,0.125482 -0.323192,0.140479 -0.643606,0.151738 -0.316546,0.01065 -0.389578,4.26e-4 -0.665391,-0.09745 z m 0.97529,-1.016318 c 0.275767,-0.216929 0.562321,-1.583665 0.497272,-2.371856 -0.0641,-0.777594 -0.192185,-1.304126 -0.433418,-1.782511 -0.225669,-0.447506 -0.405402,-0.554362 -0.56659,-0.336853 -0.08326,0.112473 -0.273757,0.962127 -0.32893,1.467597 -0.105731,0.969117 0.04601,2.495305 0.28427,2.858993 0.07912,0.120787 0.263669,0.239352 0.372808,0.239553 0.04352,0 0.122101,-0.03359 0.174588,-0.07487 z m -2.842661,0.706419 c -0.281017,-0.158137 -0.669661,-0.24464 -1.403671,-0.312383 -0.356711,-0.03288 -0.790545,-0.09473 -0.96408,-0.137382 -0.406702,-0.09994 -0.546556,-0.0816 -1.002446,0.131527 -0.663488,0.310149 -0.864332,0.235225 -1.113488,-0.415348 -0.316334,-0.826012 -0.46747,-1.642598 -0.468569,-2.531684 -7.45e-4,-0.640378 0.06694,-1.170092 0.227336,-1.777982 0.154328,-0.584909 0.286636,-0.85947 0.544297,-1.129607 0.370239,-0.388159 0.80483,-0.537981 1.508458,-0.520052 0.589321,0.01502 0.594028,0.01418 0.750829,-0.14268 0.193865,-0.193855 0.251309,-0.46398 0.192943,-0.90718 -0.05759,-0.437393 -0.204581,-0.715479 -0.595199,-1.126143 -0.169834,-0.178551 -0.308776,-0.334594 -0.308776,-0.346764 0,-0.03666 0.373717,-0.130486 0.685771,-0.172224 0.633753,-0.0848 1.929329,-0.02685 2.464578,0.11011 0.213923,0.05476 0.555142,0.190068 0.554775,0.220014 -3.08e-4,0.01301 -0.115667,0.02544 -0.256773,0.02745 -0.505718,0.0071 -0.73581,0.251523 -0.845315,0.897424 -0.07937,0.468345 -0.159745,1.321712 -0.211181,2.243215 -0.04565,0.817521 -0.02306,3.513907 0.03666,4.365429 0.02922,0.417383 0.03855,0.452876 0.221128,0.842145 0.192222,0.409813 0.300083,0.803436 0.217898,0.795227 -0.02295,-0.0024 -0.128735,-0.05323 -0.235154,-0.113064 z m -2.470337,-1.414365 c 0.09567,-0.09391 0.378874,-0.954144 0.469125,-1.42528 0.109635,-0.572621 0.168828,-1.42088 0.120019,-1.721708 -0.02176,-0.133809 -0.03962,-0.330916 -0.03974,-0.43802 -5.33e-4,-0.358839 -0.135478,-0.497687 -0.483696,-0.497687 -0.342707,0 -0.50904,0.2429 -0.760314,1.110342 -0.07474,0.257992 -0.08468,0.374155 -0.08303,0.96693 0.0013,0.592006 0.01455,0.732734 0.106442,1.160288 0.143235,0.666587 0.208046,0.849193 0.322057,0.907381 0.110818,0.05653 0.254054,0.03111 0.349177,-0.06221 z m -5.176434,0.717505 c 0.0036,-0.67878 0.07864,-1.721023 0.14838,-2.067917 0.106205,-0.52878 0.132567,-1.146687 0.07699,-1.808578 -0.02531,-0.301632 -0.05038,-0.650478 -0.05558,-0.775205 -0.0047,-0.124725 -0.02897,-0.246152 -0.05263,-0.269817 -0.0563,-0.0563 -0.31275,-0.03986 -0.490982,0.03145 -0.183528,0.07344 -0.225846,0.175855 -0.227264,0.55008 -6.39e-4,0.168864 -0.02591,0.509135 -0.05605,0.756163 -0.170473,1.39466 -0.160478,1.817495 0.05807,2.454005 0.06127,0.178527 0.11141,0.348846 0.11141,0.378497 0,0.137025 -0.113538,0.185657 -0.991861,0.425057 -0.494055,0.134649 -1.009577,0.277872 -1.145598,0.318273 -0.136032,0.04046 -0.267028,0.07344 -0.291119,0.07344 -0.02413,0 0.04046,-0.10999 0.143507,-0.244356 0.534693,-0.697607 0.678118,-1.366074 0.60511,-2.820106 -0.02342,-0.465742 -0.03158,-0.976356 -0.01809,-1.134695 0.02366,-0.27948 0.02094,-0.293377 -0.09663,-0.47654 -0.280617,-0.437286 -0.166049,-0.702516 0.435287,-1.007708 0.08598,-0.04364 0.254906,-0.161354 0.37528,-0.261527 0.120385,-0.100175 0.355728,-0.267028 0.522984,-0.370773 l 0.304116,-0.188616 0.01301,0.310124 c 0.01455,0.346316 0.07995,0.467648 0.252172,0.467648 0.0531,0 0.298924,-0.101243 0.546271,-0.224925 0.860429,-0.430331 1.367979,-0.445671 1.600662,-0.04837 0.124679,0.212872 0.146854,0.640153 0.129019,2.485348 -0.01337,1.381638 -0.03016,1.848634 -0.07592,2.110967 -0.08102,0.465102 -0.05476,0.544296 0.308787,0.93029 0.161248,0.171181 0.314039,0.350216 0.339526,0.397854 0.04494,0.08397 0.04257,0.08599 -0.07959,0.06422 -0.06931,-0.0123 -0.243858,-0.04825 -0.387957,-0.07984 -0.529276,-0.116022 -1.318354,-0.05216 -1.786013,0.14469 -0.20199,0.08503 -0.216514,0.07699 -0.215391,-0.119227 z m -23.318965,0.02165 c 0,-0.0094 0.04459,-0.126253 0.09911,-0.258466 0.263088,-0.638486 0.340353,-1.2725 0.278936,-2.288772 -0.02271,-0.37613 -0.04127,-0.916583 -0.04127,-1.200983 0,-0.286305 -0.01727,-0.549536 -0.03879,-0.589759 -0.02141,-0.03998 -0.152885,-0.130072 -0.292218,-0.200253 -0.433254,-0.218171 -0.444501,-0.176339 0.219128,-0.814883 0.895011,-0.86121 1.147384,-1.078138 1.254252,-1.078138 0.07357,0 0.123024,0.04648 0.229122,0.215213 0.253367,0.402919 0.362837,0.42902 0.745365,0.177782 0.206344,-0.135525 0.288753,-0.168426 0.421841,-0.168426 0.156518,0 0.182465,0.01656 0.48333,0.308787 0.36461,0.35412 0.479862,0.517367 0.533155,0.755123 0.08444,0.377063 -0.09816,0.743306 -0.497013,0.996331 -0.322708,0.204735 -0.411007,0.197946 -0.54102,-0.04152 -0.345156,-0.635908 -0.609238,-0.926848 -0.730877,-0.805221 -0.07687,0.07688 -0.110463,1.290845 -0.07853,2.843264 l 0.02625,1.274831 0.124916,0.235472 c 0.06872,0.129505 0.124916,0.251346 0.124916,0.270742 0,0.05014 -0.530081,0.211074 -0.921729,0.279752 -0.3235,0.05677 -1.398835,0.125283 -1.398835,0.08917 z m 0.282248,-11.970998 c 0.708678,-0.145814 0.911236,-0.375007 0.853107,-0.965263 -0.01277,-0.129658 -0.0036,-0.542309 0.02058,-0.916996 0.297788,-4.637731 0.332666,-8.300432 0.09461,-9.935509 -0.110818,-0.761262 -0.311093,-1.35335 -0.611118,-1.806804 -0.41238,-0.623264 -1.66209,-1.950984 -2.566942,-2.727171 -1.307968,-1.121979 -3.082201,-2.272356 -3.788372,-2.456288 -0.411126,-0.107033 -0.884188,-0.05192 -1.281477,0.149386 -0.308386,0.156268 -0.898831,0.626777 -1.27567,1.016531 -0.748808,0.774471 -1.198324,1.685022 -1.313353,2.660349 -0.07451,0.631306 0.06281,1.279313 0.386303,1.823857 0.377857,0.636026 1.131051,1.167538 1.939017,1.368288 0.09261,0.02306 0.195983,0.04979 0.229666,0.05949 0.04908,0.01418 0.02448,-0.09616 -0.123366,-0.554302 -0.32414,-1.00428 -0.358687,-1.274358 -0.212837,-1.664172 0.118647,-0.317125 0.359963,-0.534456 1.060953,-0.955552 0.920155,-0.552729 1.222734,-0.781213 1.78451,-1.347472 0.682517,-0.687968 0.677727,-0.687957 1.342114,-0.0047 1.772127,1.822687 2.719898,3.331879 3.037661,4.837027 0.213511,1.011362 0.09178,5.361346 -0.275777,9.85609 -0.137122,1.676732 -0.14067,1.638295 0.151277,1.638295 0.101119,0 0.34823,-0.03383 0.549168,-0.07522 z m 7.749666,-0.301195 c 0.701949,-0.244307 1.073691,-0.285053 3.232581,-0.354227 5.461685,-0.175001 8.282075,-0.282094 8.347218,-0.31696 0.127186,-0.06801 0.187953,-0.196161 0.187953,-0.396176 0,-0.411446 0.147917,-0.629711 0.762124,-1.124607 2.332472,-1.879372 3.361043,-3.159171 3.78661,-4.711495 0.05074,-0.185268 0.09237,-0.415361 0.09237,-0.511311 0,-0.287985 -0.189466,-0.399466 -0.939823,-0.552871 -1.063956,-0.21752 -1.722572,-0.205257 -3.907138,0.07273 -1.290773,0.164275 -2.28009,0.243491 -2.620007,0.209773 -0.1467,-0.01455 -0.295944,-0.0036 -0.430416,0.03299 -0.113182,0.03039 -0.225715,0.05547 -0.249973,0.05571 -0.09036,9.34e-4 -0.161755,-0.119333 -0.162324,-0.27358 -3.06e-4,-0.08598 -0.01313,-0.176138 -0.0285,-0.200276 -0.01928,-0.03027 -0.166474,0.03714 -0.476635,0.21843 -0.597966,0.349544 -1.067268,0.579045 -1.377073,0.673399 -0.140053,0.04269 -0.261185,0.07096 -0.26918,0.06304 -0.0083,-0.0083 0.0855,-0.34253 0.207847,-0.74338 0.122313,-0.400859 0.222392,-0.733361 0.222392,-0.738906 0,-0.04056 -0.415668,0.21513 -0.641064,0.394355 -0.334808,0.2662 -0.63754,0.603998 -1.17707,1.313433 -0.54205,0.712723 -0.52619,0.693812 -0.549619,0.655848 -0.05168,-0.08374 -0.102536,-0.512612 -0.102536,-0.865041 0,-0.567051 0.09295,-0.964223 0.483116,-2.062915 0.104787,-0.295234 0.190591,-0.55241 0.190591,-0.571498 0,-0.06268 -0.19874,0.0083 -0.692429,0.249228 -0.267607,0.13032 -0.549725,0.247146 -0.626918,0.259635 -0.134177,0.02165 -0.14035,0.01809 -0.140102,-0.08196 5.09e-4,-0.20198 0.152342,-0.736033 0.297056,-1.044857 0.196846,-0.420056 0.485351,-0.828685 0.832576,-1.179246 0.268306,-0.270884 0.574846,-0.511998 0.607594,-0.477925 0.0083,0.0083 -0.226425,0.427494 -0.520607,0.931839 -0.294169,0.504346 -0.529122,0.923208 -0.522097,0.930788 0.0071,0.0071 0.236739,-0.06257 0.510483,-0.155866 0.273757,-0.09332 0.588684,-0.181448 0.699832,-0.195865 l 0.202109,-0.02625 -0.02531,0.246662 c -0.0324,0.316724 -0.158267,0.748084 -0.418423,1.434529 -0.207172,0.546649 -0.390949,1.128579 -0.390949,1.237907 0,0.0317 0.231583,-0.168675 0.514634,-0.4452 0.832128,-0.812955 1.659454,-1.286834 1.873293,-1.072993 0.07037,0.07037 0.0531,0.322968 -0.04589,0.667852 -0.118658,0.413681 -0.153335,0.655587 -0.09887,0.689283 0.06056,0.03737 0.304683,-0.115786 0.812316,-0.509515 0.579576,-0.449551 0.893165,-0.650194 1.192055,-0.762691 0.259221,-0.09758 0.65593,-0.162335 0.654913,-0.106914 -3.43e-4,0.01833 -0.124229,0.260605 -0.275306,0.538512 -0.151088,0.277907 -0.271746,0.509277 -0.268128,0.51415 0.0036,0.0047 0.380153,-0.141059 0.836741,-0.324305 0.78508,-0.315091 0.830152,-0.328633 0.830152,-0.249464 0,0.046 -0.05004,0.149871 -0.111291,0.230743 -0.104669,0.138374 -0.150911,0.315447 -0.08232,0.315447 0.01703,0 0.425483,-0.05736 0.907641,-0.127531 1.249119,-0.181731 1.840523,-0.223043 2.835942,-0.198088 0.922225,0.02319 1.294179,0.06777 2.200024,0.26413 0.585336,0.126878 1.035632,0.205964 1.660789,0.291663 0.190129,0.02601 0.950703,0.04707 1.890147,0.05204 0.910564,0.0047 1.72948,0.02696 1.946278,0.05252 1.269675,0.149563 2.201336,0.474364 3.175611,1.107126 0.562132,0.365083 0.768463,0.442632 1.184805,0.445305 0.555331,0.0036 0.740716,-0.140019 0.974476,-0.754791 0.06456,-0.169704 0.132767,-0.318096 0.151631,-0.329757 0.06895,-0.04269 0.113775,0.187443 0.0887,0.455287 -0.01384,0.147103 -0.01324,0.304731 0.0013,0.350301 0.05595,0.176314 0.449966,0.240972 0.781023,0.128167 0.219721,-0.07486 0.557969,-0.37801 0.634098,-0.568281 0.147044,-0.367485 0.0984,-0.802797 -0.143472,-1.283003 l -0.13848,-0.274999 0.05902,-0.188734 c 0.101357,-0.324138 0.112119,-0.482145 0.04731,-0.698648 -0.08622,-0.288458 -0.263763,-0.505977 -0.732261,-0.897305 -0.618711,-0.516799 -0.63457,-0.572006 -0.50988,-1.774197 0.154411,-1.488602 0.346315,-4.046896 0.439404,-5.857555 0.05902,-1.148094 0.05925,-4.670446 4.26e-4,-5.614265 -0.07924,-1.269687 -0.156635,-2.10386 -0.227703,-2.452775 -0.162467,-0.797676 -0.536821,-1.17228 -1.306811,-1.307651 -0.337811,-0.05937 -0.57675,-0.166002 -0.6613,-0.295033 -0.05179,-0.07901 -0.05014,-0.108807 0.01821,-0.322543 0.09237,-0.289202 0.09248,-0.278783 -0.0024,-0.475002 -0.05524,-0.11413 -0.155475,-0.216692 -0.34622,-0.354286 -0.147646,-0.106443 -0.346526,-0.265786 -0.441958,-0.353955 -0.110226,-0.101828 -0.224522,-0.169893 -0.313435,-0.186569 -0.210354,-0.0395 -0.613212,0.006 -0.843258,0.09449 -0.451454,0.174269 -0.814492,0.134483 -1.219539,-0.133667 -0.276571,-0.183093 -0.961419,-0.841826 -1.259586,-1.211545 -1.244033,-1.54258 -2.105681,-3.85206 -2.572416,-6.894879 -0.17732,-1.156006 -0.177072,-1.155746 -1.403377,-1.4524 -2.91821,-0.70591 -5.653328,-1.01128 -8.608557,-0.961135 -1.326219,0.02247 -1.653161,0.05323 -1.916793,0.179757 -0.311781,0.149704 -0.379703,0.380424 -0.417383,1.417818 -0.02473,0.679028 -0.03299,0.741486 -0.118742,0.896784 -0.107624,0.194788 -0.39607,0.425827 -0.63224,0.506392 -0.239448,0.08172 -0.473348,0.07002 -0.849999,-0.04257 -0.182429,-0.05452 -0.449587,-0.129622 -0.593685,-0.166935 -0.307759,-0.07971 -0.411339,-0.175676 -0.376663,-0.349011 0.01242,-0.06186 0.113184,-0.273071 0.224109,-0.469256 0.23675,-0.418907 0.994687,-1.840167 0.994687,-1.865204 0,-0.03264 -4.286319,0.02496 -4.903127,0.06587 -2.33271,0.154659 -4.204312,0.375822 -6.063414,0.716484 -1.388995,0.254513 -1.664858,0.336297 -1.707505,0.506202 -0.0252,0.100411 0.04412,0.236714 0.549109,1.080786 0.221707,0.370537 0.758316,1.287947 1.192469,2.038682 0.706372,1.221492 0.78935,1.382573 0.78935,1.53236 0,0.136518 -0.09083,0.36111 -0.492247,1.217602 -0.270741,0.5776 -0.827278,1.774433 -1.236748,2.659628 -0.40947,0.885181 -0.775914,1.641108 -0.814339,1.679829 -0.133786,0.134862 -0.22542,0.05972 -0.792105,-0.649852 -0.296122,-0.37076 -0.546828,-0.673847 -0.557117,-0.673516 -0.01065,3.19e-4 -0.06919,0.08751 -0.131007,0.193654 -0.06174,0.106205 -0.243704,0.378045 -0.404325,0.604151 -0.779438,1.097179 -1.703389,1.962375 -2.766649,2.590712 -0.50457,0.29818 -0.553156,0.338179 -0.553156,0.455324 0,0.08421 1.013754,1.719758 1.731976,2.794372 0.373245,0.55844 0.437251,0.698837 0.437169,0.958875 -8.3e-5,0.238335 0.02601,0.172956 -0.748133,1.871425 -0.583408,1.279905 -0.655576,1.495272 -0.551073,1.644468 0.02957,0.04223 0.313673,0.25818 0.631389,0.479993 1.185869,0.827917 1.873023,1.399925 2.679911,2.230857 0.340863,0.350998 0.559281,0.54781 0.607984,0.54781 0.09107,0 0.146252,-0.07486 0.71276,-0.967061 0.236737,-0.372807 0.445576,-0.673234 0.464097,-0.667591 0.01845,0.006 0.216751,0.346254 0.440528,0.756954 0.51247,0.940497 0.606304,1.093135 1.011339,1.644977 0.590504,0.804559 0.815794,1.393738 0.815794,2.133427 0,0.627533 -0.17156,1.179778 -0.5844,1.881135 -0.54768,0.930396 -0.72176,1.46315 -0.748997,2.292143 -0.02046,0.623158 0.02295,0.867939 0.173642,0.978202 0.08728,0.06386 0.266377,0.07096 2.657416,0.10585 1.410119,0.02058 2.946466,0.04199 3.414111,0.04742 1.116399,0.01313 1.024775,0.09461 1.010714,-0.898831 -0.01183,-0.823304 -0.05535,-1.442855 -0.143034,-2.029279 -0.05996,-0.400694 -0.146666,-0.817911 -0.176161,-0.847418 -0.0094,-0.0094 -0.519602,0.615032 -1.134648,1.386747 -0.615057,0.771704 -1.126699,1.403945 -1.136989,1.404973 -0.01065,9.82e-4 -0.506166,-0.937089 -1.101957,-2.084711 -0.957019,-1.843466 -1.083093,-2.106213 -1.081969,-2.255018 9.82e-4,-0.137866 0.08835,-0.348407 0.481093,-1.160287 0.263905,-0.545515 0.709908,-1.471867 0.991116,-2.058562 0.556041,-1.16011 0.582674,-1.194869 0.756695,-0.987804 0.139983,0.166557 0.215107,0.239234 0.2473,0.239234 0.01667,0 0.01419,-0.122113 -0.006,-0.271357 -0.04056,-0.309249 -0.05192,-2.64502 -0.01419,-2.928771 l 0.02484,-0.187149 -0.150947,0.303856 c -0.09698,0.195109 -0.191949,0.476399 -0.265537,0.786003 -0.157546,0.662873 -0.252788,0.987425 -0.28977,0.987425 -0.03549,0 -0.152389,-0.26465 -0.239778,-0.542711 -0.198762,-0.632406 -0.179745,-1.360872 0.05417,-2.076752 0.114957,-0.351802 0.418483,-0.977467 0.812447,-1.674768 0.188781,-0.334145 0.343241,-0.618285 0.343241,-0.631438 0,-0.03808 -0.332881,0.23713 -0.611545,0.505695 -0.48113,0.463695 -0.953554,1.107965 -1.431797,1.952604 -0.115903,0.204642 -0.224605,0.380696 -0.241623,0.39121 -0.04789,0.02957 -0.255993,-0.29637 -0.341525,-0.535119 -0.05795,-0.161709 -0.08279,-0.350584 -0.100647,-0.76663 l -0.02377,-0.552054 -0.392995,0.261964 c -0.443744,0.295791 -0.66421,0.383771 -0.919989,0.367083 l -0.17654,-0.01183 0.348242,-0.430427 c 0.557118,-0.688584 1.15078,-1.338187 2.128993,-2.329575 l 0.913685,-0.926008 -0.202134,0.05937 c -0.531465,0.156103 -0.888447,0.451433 -1.733962,1.43453 -0.894454,1.039983 -1.413689,1.478429 -1.927733,1.62778 -0.289463,0.08409 -0.611272,0.07392 -0.900841,-0.02863 -0.246094,-0.08716 -0.561753,-0.264413 -0.561043,-0.315127 2.84e-4,-0.01515 0.0971,-0.0731 0.215213,-0.128806 0.758694,-0.357444 1.409634,-0.988845 2.203324,-2.137175 0.572917,-0.828911 1.097557,-1.510317 1.453712,-1.888113 0.17952,-0.190413 0.308976,-0.34621 0.287677,-0.34621 -0.08042,0 -0.597377,0.202335 -0.885313,0.346492 -0.164689,0.08243 -0.591002,0.326327 -0.947368,0.541932 -0.356355,0.215616 -0.656734,0.383238 -0.667486,0.372476 -0.02944,-0.02945 0.235699,-0.679821 0.407212,-0.998898 0.224592,-0.417844 0.503008,-0.833583 0.84639,-1.263843 l 0.306682,-0.384268 -0.09923,-0.03773 c -0.07368,-0.02803 -0.158255,-0.02129 -0.328278,0.02591 -0.328314,0.09118 -0.659502,0.110936 -0.659502,0.03926 0,-0.170674 0.587358,-1.326172 1.018483,-2.003615 0.308291,-0.484452 0.34907,-0.587548 0.276334,-0.698554 -0.03111,-0.04754 -0.133064,-0.115549 -0.226555,-0.151266 -0.09343,-0.03572 -0.169988,-0.07746 -0.169988,-0.09272 0,-0.01537 0.177983,-0.183683 0.395503,-0.374119 0.410866,-0.359715 0.646493,-0.635033 0.744773,-0.870258 0.03158,-0.07558 0.05748,-0.145647 0.05748,-0.15563 0,-0.03749 -0.287842,-0.09614 -0.473062,-0.09639 -0.127424,-1.07e-4 -0.219756,-0.02235 -0.273521,-0.06587 l -0.08113,-0.06576 0.152579,-0.236076 c 0.204747,-0.316771 0.445093,-0.567701 0.799721,-0.834918 0.448085,-0.337646 1.159968,-0.744111 1.47163,-0.840275 0.51467,-0.1588 0.642874,-0.30278 0.678047,-0.761545 0.02436,-0.317598 0.08243,-0.426181 0.294583,-0.550482 0.500893,-0.293543 1.377429,-0.346563 2.93316,-0.177403 l 0.20586,0.02235 -0.149706,-0.157049 c -0.205953,-0.216041 -0.392273,-0.318178 -0.875649,-0.480006 -0.227964,-0.07629 -0.417536,-0.155594 -0.421263,-0.176184 -0.01065,-0.05843 0.419358,-0.27313 0.683901,-0.341549 0.303916,-0.07864 0.860985,-0.0784 1.230575,4.26e-4 0.154388,0.03288 0.668101,0.179023 1.141565,0.324671 1.166,0.358673 1.503208,0.446713 1.711492,0.446819 0.147954,8.4e-5 0.187064,-0.01537 0.238866,-0.09449 0.05819,-0.08882 0.05736,-0.106915 -0.01348,-0.299421 l -0.07545,-0.2049 h 0.198254 c 0.268245,0 0.694238,0.08538 0.998188,0.200015 0.677857,0.255709 1.205572,0.783176 1.435557,1.434896 0.116259,0.329556 0.11555,0.440611 -0.0036,0.56005 l -0.09557,0.09557 -1.074873,-0.02721 c -1.281288,-0.0324 -1.249911,-0.04187 -1.059854,0.320639 0.139556,0.266246 0.14637,0.352913 0.03335,0.42456 -0.08775,0.05558 -0.69938,0.166453 -1.469073,0.2662 -0.247029,0.03205 -0.487032,0.06659 -0.533357,0.07676 -0.192447,0.04234 -0.04754,0.210211 0.337444,0.390843 0.23144,0.10857 0.364338,0.241835 0.364338,0.365273 0,0.01739 -0.197898,0.07936 -0.439782,0.137902 -1.061485,0.256655 -1.87825,0.650501 -2.356646,1.136385 -0.270339,0.274572 -0.409968,0.527726 -0.482242,0.874302 -0.08622,0.413408 0.01218,0.90291 0.260712,1.29652 0.277684,0.439878 0.88018,0.815948 1.502109,0.937611 l 0.336852,0.06587 0.01065,0.228874 c 0.01525,0.31683 0.04518,0.334901 0.429244,0.25992 0.16955,-0.03311 0.424561,-0.07167 0.566708,-0.08563 l 0.258441,-0.02543 -0.161295,0.295837 c -0.0887,0.162715 -0.173701,0.312678 -0.188875,0.33327 -0.01514,0.02058 -0.05476,0.11815 -0.08788,0.216845 -0.0544,0.161757 -0.05476,0.190329 -0.0036,0.290078 0.06942,0.134271 0.163577,0.141781 0.41679,0.03323 0.207136,-0.08882 0.547502,-0.113656 0.616287,-0.04506 0.05404,0.05393 0.05179,0.380803 -0.0036,0.571393 -0.02105,0.07191 -0.03821,0.258702 -0.03821,0.415076 0,1.266174 1.202544,2.748081 2.608274,3.214213 0.677443,0.22464 1.23993,0.186949 1.743116,-0.116731 0.455867,-0.275164 0.430345,-0.271118 1.843029,-0.292703 1.392296,-0.02129 1.423022,-0.02625 1.458171,-0.235106 0.30582,-1.817401 0.370962,-2.73183 0.202229,-2.838747 -0.0725,-0.04601 -0.154046,-0.04246 -0.988928,0.04247 -0.410476,0.04174 -0.956866,0.119286 -1.214183,0.172342 -0.833263,0.171809 -1.237423,0.100411 -1.580177,-0.278926 -0.301964,-0.334238 -0.440965,-0.70824 -0.440965,-1.18653 0,-0.853794 0.498409,-1.741342 1.063272,-1.893448 0.105259,-0.02839 0.35386,-0.02768 0.86167,0.0024 1.19138,0.07048 1.750153,0.178336 2.330213,0.450023 0.240441,0.112593 0.317954,0.134212 0.359857,0.100288 0.09237,-0.07474 0.609865,-0.782454 0.729647,-0.997691 0.203694,-0.366006 0.293259,-0.908304 0.184855,-1.119249 -0.08503,-0.165446 -0.220217,-0.229276 -0.597105,-0.281917 -0.412166,-0.05759 -0.629,-0.158977 -0.746536,-0.349153 -0.04246,-0.06883 -0.0712,-0.130178 -0.06362,-0.136459 0.0071,-0.006 0.245219,-0.165706 0.528272,-0.354262 0.283051,-0.188567 0.514634,-0.349034 0.514634,-0.356592 0,-0.05594 -0.268518,-0.159556 -0.686385,-0.264839 C 46.329158,25.59138 45.441894,25.166429 44.538947,24.5118 44.117615,24.206336 43.962008,24.121158 43.600993,23.998372 43.116706,23.833646 42.854149,23.619273 42.657304,23.22785 42.347522,22.611812 41.839746,22.004443 41.353509,21.6683 41.201723,21.563395 40.878766,21.381959 40.635818,21.265157 40.160213,21.036483 39.915302,20.84438 39.786377,20.598831 c -0.07202,-0.137097 -0.08018,-0.218549 -0.08704,-0.862535 -0.0047,-0.425128 0.0083,-0.753241 0.03182,-0.815828 0.07522,-0.200076 0.198501,-0.230826 0.983214,-0.245113 1.557149,-0.02839 3.98205,0.126642 6.100834,0.389957 1.288929,0.160182 3.278386,0.470838 3.831258,0.598262 0.433159,0.09981 0.575518,0.28362 0.621667,0.802583 0.158882,1.786981 0.735585,4.087084 1.39356,5.558123 0.505245,1.129561 1.246885,2.121753 2.069645,2.768849 0.490874,0.386064 0.598877,0.504096 0.598723,0.654297 -3.19e-4,0.164891 -0.06587,0.270316 -0.430758,0.691352 -1.008537,1.163717 -1.405198,2.056705 -1.354603,3.049524 0.01065,0.218088 0.03938,0.552305 0.06281,0.742681 0.07013,0.570008 -0.03761,1.249154 -0.298298,1.880851 -0.356521,0.863989 -1.030878,1.937752 -2.468161,3.929989 -0.438116,0.607274 -0.923586,1.294675 -1.078837,1.527547 -0.37749,0.566235 -0.383629,0.624151 -0.128298,1.210586 0.332701,0.764135 0.56439,1.602046 0.715893,2.58894 0.03962,0.258227 0.09071,0.504308 0.11342,0.546838 0.04897,0.09154 0.293886,0.219708 0.656261,0.34337 0.213806,0.07297 0.337716,0.08941 0.673706,0.08941 0.398353,0 0.421238,-0.0047 0.70487,-0.139982 0.541564,-0.258584 0.906542,-0.723249 1.300909,-1.656224 0.515392,-1.219246 0.869062,-2.590771 1.1212,-4.347903 0.130887,-0.912218 0.232302,-1.310535 0.451135,-1.77202 0.215451,-0.454318 0.506617,-0.814588 0.959219,-1.186851 0.486688,-0.40028 0.713729,-0.67645 0.947404,-1.152423 0.200785,-0.408996 0.288031,-0.729753 0.50393,-1.852715 0.142882,-0.743212 0.644945,-2.843122 0.691945,-2.894154 0.01562,-0.01703 0.186344,0.03572 0.379334,0.116968 0.385676,0.162548 0.50657,0.201624 0.830473,0.268411 0.257517,0.0531 0.44696,0.200925 0.519352,0.405247 0.06966,0.196705 0.07048,7.357275 9.58e-4,8.466328 -0.119132,1.899608 -0.236371,3.204562 -0.46068,5.127695 -0.152164,1.304635 -0.168604,1.378813 -0.32952,1.486721 -0.156931,0.10526 -0.333967,0.108571 -1.509429,0.0285 -3.71287,-0.253 -7.232537,-0.67658 -10.752226,-1.293991 -1.441365,-0.252834 -2.684795,-0.509134 -2.879502,-0.593532 -0.421497,-0.182688 -0.78243,-0.511098 -1.087019,-0.989056 -0.160017,-0.251086 -0.332359,-0.622319 -0.288895,-0.622319 0.01609,0 0.170981,0.11996 0.344281,0.266577 0.870718,0.73665 1.356009,0.983737 2.303756,1.172978 0.572373,0.114247 4.052065,0.693871 4.165875,0.693871 0.04317,0 0.105259,-0.04093 0.138007,-0.09083 0.05535,-0.08444 0.05263,-0.119594 -0.03737,-0.495924 -0.346964,-1.451112 -0.835912,-2.519847 -1.555246,-3.399364 -0.228472,-0.279351 -0.95845,-0.998874 -1.078671,-1.063212 -0.06587,-0.03524 -0.07368,-0.02247 -0.09,0.147765 -0.03288,0.341785 -0.190956,0.412284 -0.752874,0.335682 -1.335361,-0.182052 -2.496582,-0.68338 -3.397034,-1.466556 l -0.216079,-0.188018 -0.249181,0.06244 c -0.408571,0.102424 -0.591249,0.04541 -1.196254,-0.373576 -0.185278,-0.128309 -0.391126,-0.260924 -0.457439,-0.294689 -0.06634,-0.03383 -0.267157,-0.178999 -0.446287,-0.322732 -0.179141,-0.143732 -0.333281,-0.253745 -0.342542,-0.244485 -0.03099,0.03098 0.146286,0.331129 0.30874,0.522878 0.162928,0.192328 0.301834,0.426075 0.271309,0.456588 -0.02661,0.02661 -0.582663,-0.204392 -0.845242,-0.351234 -0.351495,-0.196563 -0.747718,-0.52522 -0.970028,-0.804583 -0.215332,-0.270622 -0.499212,-0.781886 -0.571781,-1.029813 -0.0602,-0.205575 -0.109163,-0.245987 -0.238325,-0.196858 -0.138906,0.05286 -0.292844,0.04778 -0.374864,-0.01218 -0.05252,-0.03844 -0.07581,-0.125341 -0.09805,-0.364929 -0.04482,-0.484547 -0.10384,-0.812921 -0.16858,-0.938061 l -0.0589,-0.113892 -0.315873,0.499732 c -0.360436,0.570245 -0.683214,1.187359 -1.044454,1.996873 -0.373848,0.837733 -0.688644,1.450638 -1.003511,1.953801 -0.378921,0.605511 -0.564638,0.984172 -0.740138,1.509073 -0.211215,0.631721 -0.291911,1.057228 -0.33347,1.758396 -0.04388,0.740882 -0.09131,1.027672 -0.199614,1.206531 -0.04471,0.0738 -0.12941,0.21196 -0.188331,0.307037 -0.230494,0.371967 -0.194197,0.612018 0.164487,1.087718 0.290091,0.384751 0.537379,0.888565 0.633792,1.291282 0.04234,0.1768 0.100883,0.642388 0.131869,1.047991 0.06281,0.822358 0.07048,0.895507 0.171229,1.637206 0.09864,0.725472 0.09745,1.576747 -0.0024,2.167428 -0.187042,1.100846 -0.569843,1.956 -1.378398,3.079305 -0.216006,0.300094 -0.530838,0.756163 -0.699643,1.01348 -0.349744,0.533144 -0.878323,1.53734 -0.878323,1.668654 0,0.104905 0.178597,0.317965 0.360968,0.430676 0.317883,0.196456 0.81162,0.240582 1.195816,0.106914 z m -7.3487,-18.212894 c -0.0706,-0.0285 -2.411145,-3.528738 -2.46789,-3.690695 -0.03442,-0.09828 -0.03926,-0.183305 -0.01585,-0.28071 0.01844,-0.07687 0.351543,-0.804996 0.740185,-1.61813 0.388643,-0.813134 0.874633,-1.836146 1.079983,-2.273362 0.205338,-0.437204 0.381759,-0.794375 0.392061,-0.793702 0.01537,9.82e-4 1.332983,2.067801 1.843348,2.89153 0.158149,0.255248 0.175783,0.401759 0.06801,0.56523 -0.179249,0.271888 -0.983949,0.866863 -1.572762,1.162842 -0.539494,0.271191 -0.567583,0.377939 -0.181601,0.690252 0.324517,0.262568 0.580238,0.388879 1.089752,0.538252 0.458905,0.134531 0.583312,0.210211 0.663405,0.403557 0.08657,0.209029 0.0169,0.41892 -0.282911,0.852079 -0.151739,0.219223 -0.430274,0.625973 -0.618983,0.903881 -0.188711,0.277908 -0.37781,0.543185 -0.420221,0.589499 -0.07238,0.07901 -0.205941,0.104195 -0.316558,0.05949 z M 36.324732,28.206807 c -0.06008,-0.06008 -0.05689,-0.265702 0.0071,-0.417512 0.07793,-0.186416 0.268742,-0.383687 0.46146,-0.476978 0.242072,-0.117204 0.63761,-0.116259 0.871936,0.0024 0.196386,0.09911 0.467376,0.372487 0.594182,0.599374 l 0.08894,0.15906 -0.145044,-0.02153 c -0.622661,-0.09248 -1.127113,-0.05618 -1.497992,0.107859 -0.234219,0.103604 -0.314157,0.113657 -0.379986,0.04778 z m 6.428024,-1.747622 c -0.164252,-0.05346 -0.267713,-0.120706 -0.454922,-0.295825 -0.191808,-0.179402 -0.466947,-0.593201 -0.423389,-0.636759 0.01418,-0.01419 0.306587,-0.02591 0.649685,-0.02591 0.679609,1.2e-5 0.932692,0.04565 1.613067,0.29113 l 0.315541,0.113893 -0.147114,0.124774 c -0.08089,0.06859 -0.289734,0.195853 -0.464051,0.282709 -0.293389,0.146205 -0.34208,0.158658 -0.655007,0.16754 -0.18593,0.0047 -0.381146,-0.0047 -0.43381,-0.02153 z M 29.153838,24.93754 c -0.301893,-0.301894 -0.419961,-0.638712 -0.357786,-1.020708 0.02093,-0.128345 0.181434,-0.515427 0.442891,-1.06786 0.347746,-0.734709 0.834268,-1.822439 1.547713,-3.460259 0.114129,-0.262013 0.177569,-0.361454 0.256666,-0.402351 0.212529,-0.109872 0.443911,-0.04399 0.537402,0.152993 0.03182,0.06717 0.13388,0.318556 0.226673,0.558678 0.208071,0.538336 0.252233,0.626434 0.433007,0.863587 0.317244,0.416199 0.430308,0.869724 0.332998,1.335643 -0.05453,0.260925 -0.662011,1.50167 -0.787115,1.607557 -0.04069,0.03442 -0.187433,0.100051 -0.326031,0.145624 -0.637706,0.209928 -1.249274,0.606956 -1.883821,1.22297 l -0.246968,0.239754 z m 26.917635,33.022313 c 0.06883,-0.06647 0.278664,-0.390393 0.466428,-0.719771 0.187763,-0.329367 0.5295,-0.918866 0.759416,-1.309992 0.229914,-0.391127 0.445766,-0.765045 0.479661,-0.830921 0.122232,-0.237519 0.08657,-0.399831 -0.27987,-1.273896 -0.187835,-0.448038 -0.490899,-1.19215 -0.67347,-1.653599 -0.182583,-0.461437 -0.357585,-0.878087 -0.388891,-0.925866 -0.08563,-0.130723 -0.344116,-0.24529 -0.599646,-0.265797 -0.216988,-0.01739 -0.232375,-0.0129 -0.321963,0.09355 -0.05179,0.0615 -0.234102,0.370927 -0.405213,0.687616 -0.171099,0.316687 -0.557093,1.022137 -0.857744,1.567651 l -0.546638,0.991862 0.0024,0.262 c 0.0024,0.236206 0.02721,0.320935 0.253936,0.860854 0.138326,0.329367 0.386904,0.960971 0.552397,1.403567 0.165494,0.442597 0.341016,0.874101 0.390038,0.958911 0.114012,0.197261 0.285017,0.28038 0.558406,0.271439 0.114366,-0.0036 0.220206,0.006 0.235261,0.02058 0.05381,0.0538 0.25255,-0.0194 0.375432,-0.138162 z m -6.088878,-0.286979 c 0.299338,-0.02046 0.513582,-0.05393 0.586058,-0.0913 0.09214,-0.04766 0.184605,-0.194847 0.478326,-0.761674 0.200241,-0.386431 0.555495,-1.058339 0.789443,-1.493131 0.312229,-0.580297 0.425353,-0.82561 0.425353,-0.92246 0,-0.101951 -0.09486,-0.288363 -0.416424,-0.818905 -0.229039,-0.377822 -0.711457,-1.175403 -1.072059,-1.772387 -0.360589,-0.596986 -0.659205,-1.090001 -0.663582,-1.095606 -0.0047,-0.006 -0.122088,0.280734 -0.26161,0.636286 -0.512057,1.305023 -0.821613,1.849214 -1.419828,2.496073 -0.49324,0.533345 -0.63405,0.814824 -0.652253,1.303913 -0.01596,0.428795 0.08149,0.781934 0.389732,1.412756 0.325534,0.666149 0.621111,0.981938 1.019523,1.089183 0.213536,0.05748 0.211028,0.05748 0.797321,0.01727 z M 30.646732,55.69956 c 0.417549,-0.589451 0.558537,-0.895507 0.573958,-1.245938 0.01183,-0.267878 0.0047,-0.298344 -0.139556,-0.582106 -0.144572,-0.284768 -0.692358,-1.067589 -0.745898,-1.065922 -0.01395,4.26e-4 -0.151586,0.161201 -0.305974,0.357255 -0.699168,0.887831 -0.80483,1.270904 -0.513049,1.860096 0.130297,0.263101 0.744963,1.075571 0.813712,1.075571 0.01881,0 0.161367,-0.179532 0.316807,-0.398956 z M 22.53624,55.422125 c 0.474541,-0.674227 0.538808,-0.787753 0.538808,-0.951744 0,-0.163613 -0.07511,-0.299125 -0.456339,-0.823434 -0.179616,-0.247028 -0.366847,-0.512092 -0.416082,-0.589037 -0.0492,-0.07699 -0.09793,-0.14009 -0.108216,-0.140326 -0.03323,-7.81e-4 -0.510483,0.609948 -0.668029,0.854906 -0.37432,0.582059 -0.396035,0.935848 -0.08669,1.413003 0.155594,0.240027 0.709601,0.847574 0.757026,0.8302 0.01609,-0.006 0.213925,-0.273024 0.439535,-0.593568 z m -3.363445,-9.925231 c 0.181376,-0.375692 0.490129,-1.014521 0.686125,-1.419627 0.237649,-0.491205 0.335811,-0.729459 0.294713,-0.715278 -0.03395,0.01183 -0.263751,0.117322 -0.510779,0.234834 -0.862486,0.410086 -1.177472,0.76074 -1.177259,1.310572 4.7e-5,0.13381 0.0168,0.315849 0.03726,0.404527 0.04127,0.178976 0.298427,0.868045 0.323938,0.868045 0.0094,0 0.164606,-0.307381 0.345983,-0.683073 z m 38.867426,-1.690013 c 0.121179,-0.166677 0.276713,-0.420955 0.345641,-0.565053 0.260723,-0.54503 0.244236,-0.859081 -0.07864,-1.49714 -0.184594,-0.364847 -0.606328,-1.018483 -0.635872,-0.985523 -0.108689,0.121309 -1.042468,1.687342 -1.055005,1.769361 -0.01466,0.09592 0.06587,0.252775 0.496847,0.968053 l 0.514328,0.853616 0.09615,-0.120125 c 0.05286,-0.06611 0.195321,-0.256501 0.316487,-0.423189 z M 18.797386,39.03236 c 0.411303,-0.05949 0.415526,-0.04199 -0.210377,-0.872575 -0.30447,-0.404065 -0.563183,-0.735432 -0.574916,-0.736365 -0.02638,-0.0024 -0.106678,0.585974 -0.135264,0.990133 -0.02424,0.343465 0.03949,0.558205 0.183009,0.61579 0.112356,0.04506 0.437264,0.04636 0.737548,0.0036 z m -0.802927,-2.986157 c 0.908529,-2.363221 1.33354,-3.499394 1.315704,-3.517229 -0.04151,-0.04151 -0.45084,-0.01845 -0.741805,0.04199 -0.158669,0.03288 -0.340566,0.05984 -0.404219,0.05984 -0.324908,0 -0.468982,0.223777 -0.43207,0.671056 0.02472,0.30012 0.132531,2.481706 0.13278,2.688155 2.13e-4,0.132933 0.08587,0.170035 0.12961,0.05618 z m 32.058565,-2.703434 c 0.126962,-0.205433 0.307309,-0.470709 0.400754,-0.589498 0.348668,-0.443188 0.419404,-0.736212 0.259955,-1.076849 -0.112001,-0.23914 -0.690832,-0.951414 -0.847728,-1.043049 -0.117085,-0.06835 -0.121828,-0.06835 -0.218749,0.0024 -0.05451,0.03949 -0.20852,0.232765 -0.342329,0.429505 -0.133809,0.19674 -0.310656,0.448109 -0.392995,0.558583 -0.12339,0.165552 -0.149633,0.23066 -0.149232,0.370264 4.26e-4,0.147197 0.03501,0.220832 0.263763,0.56238 0.144797,0.216149 0.371931,0.565633 0.504735,0.776635 0.132817,0.211003 0.252611,0.383641 0.266224,0.383641 0.01361,0 0.128629,-0.168072 0.255602,-0.373516 z M 47.81228,23.002378 c 0.631141,-0.959692 0.661632,-1.340954 0.155501,-1.943995 -0.09828,-0.117086 -0.264781,-0.289178 -0.369968,-0.382398 l -0.191254,-0.169467 -0.362374,0.615494 c -0.199308,0.338532 -0.388313,0.677549 -0.419996,0.753372 -0.107744,0.257955 -0.07534,0.317823 0.603454,1.11583 0.164689,0.193594 0.312372,0.353198 0.328197,0.354676 0.01585,0.0013 0.131218,-0.153099 0.25644,-0.343512 z"
       id="path1-5" />
  </g>
</svg>
