<?xml version="1.0" encoding="UTF-8" standalone="no"?>
<!-- Created with Inkscape (http://www.inkscape.org/) -->

<svg
   width="300"
   height="400"
   viewBox="0 0 79.374998 105.83333"
   version="1.1"
   id="svg1"
   inkscape:version="1.3 (0e150ed6c4, 2023-07-21)"
   sodipodi:docname="card_figured_3.svg"
   xmlns:inkscape="http://www.inkscape.org/namespaces/inkscape"
   xmlns:sodipodi="http://sodipodi.sourceforge.net/DTD/sodipodi-0.dtd"
   xmlns="http://www.w3.org/2000/svg"
   xmlns:svg="http://www.w3.org/2000/svg">
  <sodipodi:namedview
     id="namedview1"
     pagecolor="#ffffff"
     bordercolor="#000000"
     borderopacity="0.25"
     inkscape:showpageshadow="2"
     inkscape:pageopacity="0.0"
     inkscape:pagecheckerboard="true"
     inkscape:deskcolor="#d1d1d1"
     inkscape:document-units="px"
     inkscape:zoom="1.4342733"
     inkscape:cx="328.04069"
     inkscape:cy="184.41395"
     inkscape:window-width="1920"
     inkscape:window-height="1011"
     inkscape:window-x="0"
     inkscape:window-y="0"
     inkscape:window-maximized="1"
     inkscape:current-layer="layer2" />
  <defs
     id="defs1" />
  <g
     inkscape:label="background"
     inkscape:groupmode="layer"
     id="layer1">
    <rect
       style="fill:#fbc35c;fill-opacity:1;stroke:none;stroke-width:0.907573;stroke-dasharray:none"
       id="rect1"
       width="79.375"
       height="105.83334"
       x="-1.0658141e-14"
       y="-5.0862632e-06"
       rx="0"
       ry="7.6386557"
       inkscape:label="back"
       sodipodi:insensitive="true" />
    <rect
       style="fill:none;stroke:#3f1819;stroke-width:3.31249;stroke-dasharray:none;stroke-opacity:1"
       id="rect2"
       width="68.739899"
       height="95.750214"
       x="5.3175507"
       y="5.0415597"
       rx="0"
       ry="6.9108934"
       inkscape:label="border"
       sodipodi:insensitive="true" />
  </g>
  <g
     inkscape:groupmode="layer"
     id="layer2"
     inkscape:label="logo">
    <path
       style="fill:#3f1819;stroke-width:0.0676786;fill-opacity:1"
       d="m 38.908223,89.569369 c -1.170217,-1.444084 -2.06303,-2.357489 -2.919179,-2.986474 -0.381998,-0.280638 -0.717815,-0.510262 -0.746261,-0.510262 -0.02848,0 -0.203182,-0.09451 -0.388313,-0.209954 -0.473932,-0.295613 -1.732739,-0.817814 -2.637677,-1.094201 -0.813962,-0.248598 -0.946664,-0.288084 -1.94012,-0.577189 -3.733329,-1.086432 -5.240957,-1.666587 -7.112187,-2.736854 -1.817467,-1.039524 -3.930838,-2.879041 -4.829346,-4.203563 -0.470427,-0.69346 -1.134282,-1.937101 -1.360267,-2.548252 -0.242971,-0.657097 -0.605988,-2.087299 -0.687123,-2.707156 -0.03572,-0.272966 -0.110807,-0.526151 -0.166842,-0.562599 -0.05603,-0.03638 -1.124817,-0.06689 -2.375069,-0.06773 -1.377053,-5.17e-4 -2.29462,-0.03603 -2.327541,-0.08934 -0.02988,-0.04839 -0.01092,-0.586424 0.04219,-1.195666 0.05311,-0.609241 0.135064,-1.554386 0.182126,-2.100328 0.04704,-0.545941 0.129757,-1.371129 0.183774,-1.833764 0.06964,-0.596367 0.07018,-0.874892 0.002,-0.957178 -0.05629,-0.06785 -0.396375,-0.136639 -0.818213,-0.165545 -0.999806,-0.06857 -1.5691185,-0.386282 -1.9152976,-1.069006 -0.2776586,-0.547587 -0.3099574,-0.9808 -0.1237227,-1.659514 0.3891371,-1.418216 0.9709816,-2.192378 2.4149343,-3.213201 0.205211,-0.14508 0.205226,-0.145269 0.09513,-1.246349 -0.09549,-0.95493 -0.09037,-1.217394 0.03849,-1.975497 0.142275,-0.837136 0.140815,-0.927897 -0.03442,-2.137592 -0.108033,-0.745782 -0.150401,-1.30393 -0.103422,-1.362418 0.05251,-0.06537 0.382588,-0.0845 0.969709,-0.05623 1.06953,0.05152 1.997705,-0.09279 2.506925,-0.389731 0.213675,-0.1246 0.572707,-0.486583 0.839327,-0.846237 0.929142,-1.253347 1.676331,-1.694694 3.615023,-2.135301 0.521442,-0.118505 1.1532,-0.156347 2.752268,-0.164839 1.14152,-0.0061 2.123681,-0.04169 2.18258,-0.07917 0.142807,-0.09087 0.570383,-1.002864 0.56705,-1.209493 -0.0031,-0.174888 -2.786894,-3.096247 -2.950743,-3.096247 -0.110747,0 -0.08494,0.506063 0.115971,2.274762 0.07165,0.630732 0.130267,1.181764 0.130267,1.224519 0,0.04276 -0.335009,0.131798 -0.744462,0.19788 -0.409458,0.06607 -1.292667,0.280531 -1.962684,0.476565 -1.547197,0.452662 -1.899065,0.536415 -2.034818,0.484321 -0.06027,-0.02315 -0.152862,-0.238053 -0.20576,-0.477599 -0.204945,-0.928112 -0.385689,-1.838135 -0.606273,-3.052465 -0.126214,-0.694838 -0.284548,-1.547589 -0.351847,-1.895005 -0.509052,-2.627814 -1.082318,-6.257781 -1.311089,-8.301922 -0.05555,-0.496308 -0.167614,-1.423748 -0.249047,-2.060978 -0.103494,-0.809823 -0.120181,-1.202804 -0.05543,-1.30544 0.05094,-0.08076 0.332698,-0.21798 0.626121,-0.304933 0.884845,-0.262207 1.44317,-0.602915 2.220542,-1.355042 0.560955,-0.542742 0.886106,-1.059463 1.222112,-1.942122 0.20639,-0.542187 0.23299,-0.744459 0.234622,-1.784592 0.0015,-1.098426 -0.01628,-1.22114 -0.282498,-1.927773 -0.156381,-0.415068 -0.327781,-0.807025 -0.380891,-0.871014 -0.144244,-0.173804 0.22523,-0.389558 1.58033,-0.922826 2.390717,-0.940816 3.93367,-1.494238 5.099678,-1.829145 0.371563,-0.106724 0.878608,-0.253588 1.126762,-0.326369 1.898831,-0.5569 4.49784,-1.180469 5.945903,-1.426573 0.441283,-0.07499 0.817096,-0.151127 0.835134,-0.169174 0.01804,-0.01805 -0.0079,-0.247963 -0.05786,-0.510926 -0.04985,-0.262962 -0.09067,-0.528187 -0.09067,-0.58939 0,-0.08347 0.355225,-0.111492 1.421247,-0.112116 2.76737,-0.0017 4.448782,-0.598855 6.049842,-2.148829 0.745338,-0.721557 0.678742,-0.709983 1.236896,-0.214976 1.647828,1.461387 4.148152,2.33441 6.700194,2.339465 0.92929,0.0018 0.946811,0.01803 0.752545,0.695395 -0.127613,0.444966 0.02493,0.565552 0.898293,0.71014 1.026084,0.169869 2.596419,0.501268 5.139596,1.084645 3.812398,0.874523 7.732255,2.212751 8.226762,2.808594 0.08419,0.101417 0.04335,0.311794 -0.192684,0.993106 -0.576697,1.66457 -0.689318,3.004338 -0.36182,4.304135 0.323415,1.283641 0.98678,2.331029 2.146875,3.389768 l 0.693617,0.633006 -0.01081,0.65496 c -0.006,0.360226 -0.07505,1.162544 -0.154087,1.782934 -0.07902,0.620391 -0.208752,1.696481 -0.288361,2.391312 -0.07961,0.694837 -0.202843,1.750625 -0.273877,2.346196 -0.177481,1.487889 -0.433153,4.002755 -0.440371,4.331436 -0.006,0.25825 0.04804,0.297731 1.167156,0.857515 0.645184,0.322749 1.416727,0.743954 1.714516,0.936012 1.309978,0.844885 2.477339,2.022006 3.098553,3.124459 0.32548,0.57764 0.330464,0.601625 0.328458,1.579167 -0.0024,1.165451 -0.121374,1.570237 -1.021054,3.474173 -0.537272,1.137024 -0.677945,2.495686 -0.425503,4.109881 0.08503,0.543716 0.209857,1.354049 0.277396,1.800729 0.63374,4.191499 0.210025,6.555064 -1.297634,7.238413 -0.447924,0.203036 -1.911271,0.201295 -2.371011,-0.0036 -0.447061,-0.198461 -1.022652,-0.876021 -1.159531,-1.364921 -0.09031,-0.322406 -0.08995,-0.898802 0.0024,-2.890329 0.114807,-2.495484 0.08683,-2.935231 -0.186632,-2.935231 -0.05344,0 -0.278909,-0.0828 -0.5011,-0.184029 -0.222191,-0.101211 -0.449281,-0.156032 -0.504654,-0.121814 -0.11961,0.07392 -0.05344,3.359063 0.100511,4.998234 0.510887,5.435963 0.492393,7.432941 -0.09235,9.971334 -0.217292,0.943177 -0.610911,2.174016 -0.897566,2.806591 -0.50558,1.115698 -1.684625,2.575393 -2.559061,3.168146 -0.203793,0.138151 -0.390857,0.277481 -0.415656,0.309628 -0.07242,0.09379 -1.815693,0.95934 -2.258024,1.121101 -0.847462,0.309929 -2.390686,0.715618 -3.415866,0.897975 -0.427982,0.07614 -0.94058,0.17628 -1.139102,0.222538 -0.198526,0.04623 -0.706112,0.149069 -1.127977,0.228472 -3.898127,0.733607 -6.662211,1.952521 -8.572634,3.780365 -0.7635,0.730496 -1.17105,1.193576 -2.371631,2.694702 -0.386227,0.482907 -0.719615,0.878003 -0.740875,0.878003 -0.02128,0 -0.441753,-0.497437 -0.934425,-1.105417 z M 39.4141,77.70181 c 0.0158,-3.187576 -0.0067,-4.713717 -0.06953,-4.713717 -0.0511,0 -0.224041,0.190943 -0.384313,0.424326 -0.917219,1.335559 -1.740066,1.732372 -3.991781,1.924961 l -1.263929,0.108081 0.08692,0.576697 0.08693,0.576696 0.423761,-0.0562 c 0.375219,-0.04972 0.43599,-0.03338 0.530453,0.143124 0.158719,0.296575 0.04422,0.633727 -0.215165,0.633727 -0.117064,0 -0.263376,-0.06089 -0.325164,-0.135353 -0.288182,-0.347241 -0.558237,-0.02486 -0.435767,0.520242 0.06548,0.291399 0.05174,0.393451 -0.07138,0.529466 -0.171578,0.189598 -0.41047,0.214998 -0.6776,0.07205 -0.159083,-0.08515 -0.17308,-0.153896 -0.119166,-0.58544 0.05205,-0.41664 0.0378,-0.497918 -0.09648,-0.549436 -0.08667,-0.03326 -0.23286,-0.01345 -0.324871,0.04395 -0.287547,0.17957 -0.582065,0.126239 -0.697114,-0.126274 -0.163959,-0.359863 0.01726,-0.609375 0.437126,-0.601964 0.02482,5.15e-4 0.171213,0.0275 0.325321,0.06005 l 0.280213,0.05933 0.05074,-0.478055 c 0.02796,-0.262925 0.07659,-0.543516 0.108189,-0.623507 0.04887,-0.123838 -0.09863,-0.169052 -0.992188,-0.304129 -0.654135,-0.09884 -1.066592,-0.202928 -1.094682,-0.276111 -0.05358,-0.139641 0.100288,-0.459069 0.356785,-0.74068 0.101716,-0.111684 0.139876,-0.203024 0.08482,-0.203024 -0.05506,0 -0.21442,0.16283 -0.35412,0.361855 -0.195977,0.279173 -0.305556,0.356487 -0.479605,0.33839 -0.200394,-0.0209 -0.228637,-0.07037 -0.252748,-0.443408 l -0.02716,-0.419932 -0.24136,0.239448 c -0.211082,0.209449 -0.245333,0.219404 -0.273141,0.0795 -0.01752,-0.08803 0.01201,-0.364125 0.06546,-0.613564 0.131194,-0.611727 0.118143,-0.995979 -0.04098,-1.206341 -0.170691,-0.225673 -0.170081,-0.628804 0.001,-0.770931 0.120672,-0.100157 0.583909,-0.09727 0.947056,0.006 0.08783,0.02498 0.142542,-0.03903 0.160579,-0.187749 0.01507,-0.124077 0.09145,-0.499694 0.169778,-0.83471 0.123462,-0.528048 0.169289,-0.609109 0.344307,-0.609109 0.223713,0 0.447801,0.212523 0.53852,0.510719 0.120975,0.397679 0.270441,0.420808 0.84509,0.130718 1.218232,-0.614957 1.388094,-1.351914 0.667807,-2.89739 -0.196613,-0.421864 -0.419346,-0.915639 -0.494963,-1.097287 l -0.13749,-0.330261 -1.113423,0.362132 c -0.61238,0.19917 -1.438279,0.456163 -1.835322,0.571089 -0.710311,0.205594 -1.626929,0.489151 -3.362,1.040064 -0.483558,0.153536 -1.00305,0.310794 -1.154431,0.349451 -0.151376,0.03867 -0.395018,0.127524 -0.541425,0.197475 -0.262348,0.125351 -0.266865,0.139882 -0.311325,1.002105 -0.02482,0.481189 -0.08572,0.911952 -0.135355,0.95725 -0.200075,0.182561 -1.035245,0.394028 -1.747935,0.442604 l -0.755314,0.05152 0.05455,0.460353 c 0.165022,1.392469 0.781804,2.850038 1.674664,3.957534 0.645624,0.800821 1.92068,1.722201 3.075101,2.222147 0.372236,0.161197 0.737698,0.324665 0.812143,0.363262 0.07445,0.03855 0.622649,0.2195 1.218216,0.402013 0.595574,0.182513 1.206812,0.371403 1.358313,0.419751 0.151502,0.04839 0.456052,0.124341 0.676787,0.168871 1.729886,0.349005 4.620719,1.091895 5.274201,1.355372 0.598645,0.241358 1.929707,0.940823 2.120604,1.114341 0.560365,0.509399 0.958158,0.791383 1.082855,0.767593 0.117905,-0.02246 0.13837,-0.633644 0.158723,-4.739537 z m -2.076531,0.606683 c -0.132207,-0.0801 -0.14871,-0.17622 -0.100582,-0.585667 0.04907,-0.417481 0.034,-0.498878 -0.101944,-0.551045 -0.08772,-0.03363 -0.234804,-0.01417 -0.326817,0.04323 -0.37024,0.231222 -0.711177,0.06364 -0.711177,-0.34951 0,-0.320641 0.317864,-0.494615 0.663563,-0.363177 0.374249,0.142295 0.38996,0.130526 0.445194,-0.333358 0.0758,-0.636586 0.209127,-0.924946 0.427663,-0.924946 0.234188,0 0.448828,0.474788 0.448828,0.992833 V 76.6038 l 0.432538,-0.0574 c 0.503509,-0.06678 0.681098,0.06604 0.634276,0.474343 -0.02299,0.200719 -0.08083,0.259563 -0.277241,0.282164 -0.136478,0.01573 -0.248148,-0.0108 -0.248148,-0.05801 0,-0.122407 -0.243498,-0.200899 -0.416874,-0.134368 -0.118661,0.04551 -0.136108,0.142631 -0.09271,0.516027 0.02941,0.252982 0.02211,0.510107 -0.01628,0.5714 -0.09783,0.156406 -0.571048,0.225182 -0.760324,0.110484 z m -8.842256,-0.154267 c -0.103866,-0.117208 -0.127764,-0.27999 -0.09274,-0.631662 0.04401,-0.441824 0.03384,-0.473744 -0.150714,-0.473744 -0.10885,0 -0.281574,0.04479 -0.383849,0.09956 -0.26569,0.142187 -0.614315,-0.03147 -0.614315,-0.305941 0,-0.357209 0.204476,-0.551106 0.504762,-0.47862 0.558278,0.134753 0.622824,0.117088 0.628848,-0.172233 0.0124,-0.596812 0.04546,-0.760123 0.181281,-0.895932 0.305671,-0.305666 0.551719,-0.04287 0.633072,0.676275 l 0.06142,0.542928 0.394816,-0.0592 c 0.473275,-0.07097 0.66389,0.05152 0.66389,0.426607 0,0.335809 -0.219901,0.424652 -0.563275,0.227583 -0.200564,-0.115166 -0.304649,-0.127727 -0.442992,-0.05368 -0.09945,0.05321 -0.159756,0.151687 -0.134001,0.218805 0.02576,0.06713 0.07312,0.262193 0.105271,0.433526 0.04887,0.260403 0.0242,0.33546 -0.150144,0.457591 -0.269337,0.188661 -0.466929,0.185011 -0.641333,-0.01201 z m -2.482401,-4.544847 c -0.296499,-0.189886 -0.357625,-0.300153 -0.215198,-0.388167 0.126075,-0.07794 0.193307,-0.694938 0.09562,-0.877475 -0.111479,-0.208296 -0.263027,-0.211695 -0.608121,-0.01357 -0.221205,0.126947 -0.310036,0.135257 -0.503623,0.04707 -0.184552,-0.08406 -0.235035,-0.171477 -0.235035,-0.406817 0,-0.164848 0.04871,-0.348453 0.108285,-0.408006 0.130926,-0.130923 0.761077,-0.14448 0.839218,-0.01802 0.03066,0.0496 0.114278,0.09018 0.185798,0.09018 0.09511,0 0.130032,-0.116008 0.130032,-0.432073 0,-0.48018 0.325356,-1.237336 0.531689,-1.237336 0.259934,0 0.496403,0.479147 0.534907,1.083825 0.0314,0.493018 0.06331,0.585584 0.201925,0.585584 0.09055,0 0.189735,-0.04059 0.220408,-0.09018 0.09598,-0.155289 0.57824,-0.0986 0.767031,0.09018 0.201504,0.201511 0.225678,0.378572 0.08705,0.637594 -0.114759,0.214433 -0.349949,0.222431 -0.696221,0.02378 -0.152695,-0.08766 -0.331301,-0.124569 -0.426234,-0.08815 -0.142616,0.05476 -0.156508,0.136615 -0.109174,0.643539 0.05121,0.548223 0.04109,0.591168 -0.179791,0.764914 -0.290381,0.228411 -0.362385,0.227751 -0.728567,-0.0072 z m 18.701883,6.733369 c 0.148899,-0.06329 0.523972,-0.205629 0.833507,-0.316353 0.62365,-0.223068 0.622341,-0.207167 0.06675,-0.811869 -2.176354,-2.368718 -2.806552,-3.040502 -3.470751,-3.699773 -1.004208,-0.996736 -1.898753,-1.804762 -1.998035,-1.804762 -0.106519,0 -0.100825,2.99829 0.0063,3.279877 0.04673,0.122937 0.280238,0.355887 0.518871,0.517673 0.238643,0.161785 0.558545,0.419163 0.710906,0.571929 0.152361,0.152791 0.59645,0.562045 0.986865,0.909467 0.390409,0.347408 0.93577,0.843296 1.211917,1.10197 0.525656,0.492406 0.553226,0.498543 1.133739,0.251841 z m 6.271558,-2.233664 c 0.759286,-0.265651 1.384094,-0.54695 1.601232,-0.720877 0.08525,-0.06834 0.02008,-0.19684 -0.270719,-0.533813 -0.533112,-0.617803 -0.879317,-1.081099 -0.879317,-1.176702 0,-0.07926 1.14152,-0.636731 2.022971,-0.988006 0.381074,-0.151878 0.483109,-0.160837 0.721908,-0.06341 0.267411,0.109042 1.254986,0.707103 1.806281,1.093769 0.145666,0.102197 0.374917,0.185767 0.509449,0.185767 0.383052,0 0.927272,-0.49656 1.243158,-1.134311 0.492768,-0.99485 0.652184,-1.818837 0.702938,-3.633278 0.05434,-1.942891 0.136332,-2.256686 0.971681,-3.71882 0.317901,-0.556413 0.708435,-1.357282 0.867867,-1.779675 0.539204,-1.428653 0.253714,-2.333964 -0.773693,-2.453441 -0.6492,-0.07554 -1.777031,0.324903 -2.887279,1.025005 -0.09738,0.06136 -0.283051,0.171188 -0.412592,0.243939 l -0.23554,0.132303 -0.06076,-1.778006 c -0.08597,-2.516066 -0.123492,-2.815724 -0.352545,-2.815724 -0.101356,0 -0.258542,0.06719 -0.349298,0.149341 -0.152815,0.138287 -0.165026,0.347539 -0.165026,2.827459 0,1.472967 0.02357,2.701728 0.05246,2.730586 0.05659,0.05656 0.999729,-0.424987 2.158374,-1.102092 1.061058,-0.620072 1.395316,-0.755835 1.879614,-0.763376 0.335555,-0.0048 0.467018,0.03471 0.571496,0.173686 0.173086,0.230213 0.107241,0.90058 -0.140085,1.426695 -0.09775,0.207936 -0.301943,0.642026 -0.453729,0.964612 -0.318531,0.676948 -0.562382,1.119275 -0.997492,1.809421 -0.359929,0.570886 -1.482108,2.110536 -1.735894,2.381664 -0.09548,0.101957 -0.260992,0.327607 -0.367803,0.501304 -0.106809,0.173711 -0.226624,0.35644 -0.26627,0.406074 -0.03962,0.0496 -0.28145,0.37181 -0.537342,0.715964 -1.460542,1.96429 -3.285376,2.975774 -5.966407,3.30715 -0.406555,0.05032 -1.00752,0.170637 -1.335478,0.267526 -0.633026,0.187016 -1.216757,0.225301 -1.424998,0.09343 -0.09638,-0.06101 -0.112032,-0.201043 -0.06615,-0.591431 0.06641,-0.565073 -0.04339,-0.608821 -0.215918,-0.08599 -0.11632,0.352453 -0.358073,0.489464 -0.86371,0.489464 -0.210321,0 -0.331943,-0.04996 -0.371267,-0.152395 -0.05394,-0.140565 0.115191,-0.911893 0.293052,-1.336543 0.06648,-0.158711 0.0578,-0.166013 -0.07191,-0.06052 -0.08114,0.06593 -0.216068,0.309593 -0.299873,0.541427 -0.187378,0.518369 -0.504484,0.827589 -0.848697,0.827589 -0.307757,0 -0.405344,-0.211143 -0.326833,-0.707187 l 0.05232,-0.330536 -0.150353,0.293273 c -0.16908,0.329779 -0.500444,0.399407 -0.647794,0.136097 -0.151323,-0.270394 -0.208825,-0.05836 -0.07259,0.267621 0.254095,0.608137 0.477604,0.70081 2.452658,1.017019 1.497935,0.239808 2.248825,0.610407 3.293697,1.62554 0.322598,0.313424 0.66776,0.588935 0.767027,0.612232 0.28111,0.06605 0.745432,-0.02798 1.579164,-0.319727 z m -7.231269,-5.549629 c 0.603724,-0.590303 0.805807,-0.914486 0.636748,-1.021499 -0.409343,-0.259082 -2.168772,0.05368 -2.305432,0.409772 -0.05633,0.146775 0.861557,1.035825 1.072088,1.038407 0.08702,10e-4 0.355487,-0.190931 0.596596,-0.42668 z M 22.618305,69.969603 c 0.353954,-0.08214 0.707683,-0.198053 0.786069,-0.257461 0.186773,-0.141514 0.317754,-1.271238 0.331605,-2.860259 0.0059,-0.670018 -0.0072,-3.634347 -0.02894,-6.587384 -0.04115,-5.576702 -0.08105,-6.196294 -0.430964,-6.687706 -0.181897,-0.255454 -0.759084,-0.53136 -1.111588,-0.53136 -0.342564,0 -0.41726,-0.176984 -0.35519,-0.841616 0.03135,-0.336006 0.02055,-0.601999 -0.02451,-0.601747 -0.04437,0 -0.196404,0.09301 -0.337778,0.206143 -0.201149,0.160961 -0.267886,0.303138 -0.306896,0.653775 -0.07617,0.684728 -0.225924,0.854163 -0.754886,0.854163 -0.537634,0 -0.543078,-0.03248 -0.209357,-1.250021 0.127226,-0.464166 0.21321,-0.862062 0.191063,-0.884214 -0.02215,-0.02217 -0.146703,-0.01356 -0.276782,0.01908 -0.397141,0.09967 -0.664995,0.518892 -0.833976,1.305264 -0.147199,0.684989 -0.166457,0.719641 -0.399993,0.719641 -0.134945,0 -0.333607,-0.07148 -0.441487,-0.158827 l -0.196143,-0.158828 0.194329,-0.708303 c 0.222111,-0.809625 0.170225,-0.963014 -0.251931,-0.744707 -0.264783,0.13693 -0.382254,0.307928 -0.382254,0.556442 0,0.240776 -0.369039,1.107776 -0.491535,1.154781 -0.06814,0.02618 -0.26966,0.0031 -0.447839,-0.05189 -0.366431,-0.112465 -0.39127,-0.216643 -0.188608,-0.791056 0.189807,-0.537972 0.177288,-0.812143 -0.03707,-0.812143 -0.259094,0 -0.639694,0.503907 -0.639694,0.846936 0,0.59319 -0.09141,0.630407 -1.714124,0.697843 -0.803841,0.03342 -1.492632,0.09541 -1.530641,0.137802 -0.196822,0.219484 -0.295404,1.061605 -0.338759,2.893881 -0.05544,2.342925 -0.01376,2.767804 0.291019,2.967514 0.263766,0.172823 1.21454,0.429602 1.294397,0.349579 0.03186,-0.03197 0.05757,-0.572406 0.05706,-1.200999 -10e-4,-1.018016 -0.02357,-1.185558 -0.208365,-1.533275 -0.354591,-0.66727 -0.281789,-0.794934 0.742965,-1.302818 1.114743,-0.552481 2.763981,-1.149317 3.175921,-1.149317 h 0.310641 l -0.139987,0.270714 c -0.077,0.148892 -0.172365,0.270717 -0.211923,0.270717 -0.03958,0 -0.1646,0.185567 -0.277871,0.412374 -0.182618,0.36566 -0.217008,0.629714 -0.303581,2.331051 l -0.09763,1.918672 0.219913,0.443306 c 0.29301,0.590664 0.899289,0.975264 1.537409,0.975264 0.272324,0 0.497819,-0.05176 0.578855,-0.132748 0.209587,-0.20958 0.338362,-1.133627 0.288161,-2.067668 -0.04662,-0.867366 -0.215944,-1.438676 -0.681594,-2.299742 -0.106953,-0.197796 -0.194475,-0.404458 -0.194475,-0.459253 0,-0.180254 0.640748,-0.687205 1.296155,-1.02552 0.685312,-0.353746 1.593294,-0.637167 2.041294,-0.637167 0.237181,0 0.271807,0.03186 0.26993,0.248159 -0.001,0.136484 -0.04254,0.410585 -0.09195,0.609107 -0.146827,0.590187 -0.265769,3.415402 -0.207047,4.917989 l 0.05466,1.398681 0.439084,0.411525 c 0.277929,0.2605 0.439065,0.487458 0.439065,0.618416 0,0.118049 -0.173871,0.400273 -0.404853,0.657182 -0.774931,0.861898 -0.764361,1.546352 0.04824,3.126114 0.394612,0.767148 0.506461,1.060755 0.423793,1.112515 -0.06178,0.03867 -0.334352,0.116727 -0.605732,0.173422 -0.551301,0.115166 -1.308164,0.444682 -1.85277,0.806525 -0.516134,0.342929 -1.481664,0.798179 -1.841427,0.868251 l -0.307372,0.0598 0.06115,-0.305797 c 0.03364,-0.168198 0.200941,-0.580936 0.371771,-0.917212 0.450587,-0.886926 0.496188,-1.135729 0.587383,-3.204798 0.09772,-2.217019 0.06633,-2.344711 -0.676276,-2.749667 -0.622503,-0.339471 -1.276616,-0.346677 -1.586004,-0.01753 -0.203324,0.216342 -0.218759,0.300706 -0.218697,1.195653 0,1.582908 0.18074,2.857569 0.496053,3.500639 0.148997,0.303876 0.27091,0.609013 0.27091,0.678065 0,0.132063 -0.328073,0.296719 -1.443817,0.724588 -0.372232,0.142739 -0.758,0.296646 -0.85726,0.342005 -0.09927,0.04539 -0.383516,0.168486 -0.63167,0.273588 -0.801776,0.339568 -1.239878,0.633236 -1.13436,0.760376 0.146135,0.176088 0.690626,0.309496 1.863825,0.456678 1.608944,0.20186 1.794997,0.209942 4.18852,0.181997 1.663857,-0.01934 2.370055,-0.0628 2.854391,-0.175296 z M 13.2026,68.967896 c 0.465058,-0.471738 0.883475,-1.270182 1.108851,-2.116013 0.192842,-0.723722 0.224932,-2.9005 0.05654,-3.835126 -0.43122,-2.393348 -0.397674,-2.330396 -1.216731,-2.283129 l -0.471049,0.02714 -0.02722,0.37264 c -0.02372,0.324796 0.01966,0.426812 0.337908,0.794516 0.543595,0.628072 0.579393,0.981953 0.180833,1.787614 -0.608688,1.230431 -0.849713,2.491341 -0.779514,4.0779 0.0786,1.776349 0.13556,1.858899 0.810375,1.174409 z m 33.498643,0.139497 0.238548,-0.09067 -0.201952,-0.337934 c -0.249928,-0.418215 -1.2918,-1.843684 -1.887139,-2.58195 -0.594458,-0.737162 -1.844891,-2.149806 -2.072447,-2.341277 -0.53341,-0.448837 -1.264607,-0.528649 -2.304654,-0.251553 -0.703731,0.187496 -2.170034,0.774581 -2.768461,1.108443 -0.334164,0.186441 -0.385924,0.253967 -0.362176,0.472495 0.0621,0.571533 0.37865,0.788164 1.317669,0.901733 0.273372,0.03303 0.560204,0.14298 0.749129,0.287087 0.37037,0.282489 1.108955,1.043476 1.108955,1.142574 0,0.03927 0.164548,0.249799 0.365661,0.467979 0.390712,0.423858 0.689906,0.544765 2.354834,0.95157 1.357485,0.331678 2.970981,0.458229 3.462033,0.271536 z m 9.330106,-0.803079 c 0.472748,-0.48765 1.176276,-1.668149 1.06217,-1.782258 -0.07009,-0.07013 -0.694184,0.238487 -1.069277,0.528661 -0.182215,0.14095 -0.415705,0.430643 -0.518872,0.643767 -0.198766,0.410588 -0.255825,1.142646 -0.08906,1.142646 0.05419,0 0.330946,-0.239773 0.615039,-0.532816 z M 25.69024,66.997469 c 0.487668,-0.168078 1.434865,-0.495084 2.104887,-0.726666 1.838468,-0.635444 8.109367,-2.702916 9.339656,-3.079219 2.155233,-0.659198 2.450675,-0.749086 3.338816,-1.01577 2.393814,-0.718775 6.84831,-1.844537 8.617749,-2.177908 1.00216,-0.188801 2.403379,-0.454492 2.842509,-0.538974 0.753509,-0.144967 1.937972,-0.351905 2.842502,-0.49662 2.640649,-0.42247 2.914241,-0.445253 5.324065,-0.443298 2.091393,0.002 2.493168,0.02534 3.203452,0.18863 0.939369,0.215912 1.35625,0.359154 2.036789,0.699836 0.427461,0.213998 1.398762,0.873784 1.527619,1.037703 0.260019,0.330753 1.685693,1.443604 1.849423,1.443604 0.07074,0 -0.05668,-1.602261 -0.363632,-4.5766 -0.126996,-1.230356 -0.103038,-1.88217 0.103397,-2.813149 0.07025,-0.31693 0.321097,-1.025859 0.40253,-1.137765 0.03615,-0.04965 0.234032,-0.485326 0.439818,-0.968207 0.372796,-0.874786 0.652438,-2.002315 0.585776,-2.361892 -0.227475,-1.227029 -0.578211,-1.72852 -2.027025,-2.898213 -1.981247,-1.599549 -3.801633,-2.434151 -6.314363,-2.894976 -1.058631,-0.194155 -3.884264,-0.219813 -5.414295,-0.04916 -1.551916,0.173087 -3.99623,0.569475 -5.098462,0.826809 -0.198521,0.04634 -0.624902,0.143559 -0.947505,0.21603 -1.718326,0.385986 -2.836339,0.66357 -4.466792,1.10901 -0.992622,0.27119 -1.926589,0.525532 -2.075482,0.565205 -0.48444,0.129079 -3.045148,0.888468 -3.97048,1.177461 -0.496313,0.155012 -1.085119,0.336018 -1.308461,0.402242 -0.223338,0.06623 -0.812144,0.250634 -1.30845,0.409793 -1.322964,0.424251 -1.622702,0.481643 -1.857944,0.355748 l -0.199574,-0.10682 0.200137,0.281087 0.200144,0.281075 -0.237559,0.09032 c -0.511451,0.194453 -0.94097,0.017 -1.310118,-0.541348 -0.190272,-0.287776 -0.267668,-0.353499 -0.265676,-0.225594 0.0015,0.09925 0.06084,0.281989 0.131774,0.406071 0.19436,0.339999 0.16157,0.597948 -0.102401,0.805593 -0.296577,0.233287 -0.538071,0.236005 -0.908395,0.0102 -0.341922,-0.208481 -0.568374,-0.606627 -0.568374,-0.999312 0,-0.185772 -0.03869,-0.270017 -0.112789,-0.245682 -0.204392,0.06712 -0.172228,0.495394 0.07234,0.963129 0.225329,0.430946 0.231613,0.474061 0.09863,0.677014 -0.213404,0.325702 -0.700424,0.45917 -1.038166,0.284521 -0.270984,-0.140133 -0.557934,-0.484626 -0.681923,-0.818677 -0.286366,-0.771516 -0.202692,-2.074273 0.174592,-2.718045 0.37526,-0.640332 1.200905,-1.234155 2.073865,-1.491563 0.587349,-0.173188 2.024701,-0.426415 2.752269,-0.484884 2.066365,-0.166057 3.058872,-0.353033 2.871041,-0.540867 -0.204283,-0.204289 -3.098776,-0.109498 -4.038546,0.132264 -0.176786,0.04548 -0.605674,0.148912 -0.9531,0.229861 -2.222403,0.517812 -2.683973,0.773873 -3.14358,1.743986 -0.267114,0.563818 -0.28537,0.666407 -0.283936,1.595196 0.0015,0.945985 0.01799,1.032368 0.351936,1.838722 0.408301,0.985901 0.459408,0.893887 -0.714426,1.286221 -2.382973,0.796478 -4.17129,1.45794 -4.306157,1.592768 -0.255058,0.254991 -0.336698,1.215417 -0.427396,5.028023 -0.170226,7.155372 -0.179947,8.978712 -0.04786,8.978712 0.06628,0 0.519491,-0.137527 1.007153,-0.305617 z m 4.371558,-2.834115 c -0.235143,-0.07842 -0.08656,-0.467944 0.339603,-0.890373 0.751456,-0.744858 0.732537,-0.647466 0.732537,-3.771034 0,-3.008223 0.01201,-2.946153 -0.504099,-2.607984 -0.44996,0.294825 -0.488245,0.498852 -0.491969,2.621578 l -0.0036,1.967173 -0.474022,0.518861 c -0.497252,0.544297 -0.625412,0.597761 -0.912467,0.38065 -0.253191,-0.191507 -0.488611,-0.163839 -0.831535,0.09775 -0.355201,0.270923 -0.853401,0.491685 -1.109575,0.491685 -0.100086,0 -0.310178,-0.114565 -0.466897,-0.254591 l -0.284929,-0.254591 -0.0727,-1.392264 c -0.04004,-0.765728 -0.100877,-1.841707 -0.135262,-2.391048 l -0.06251,-0.9988 0.305926,-0.178053 c 0.468682,-0.272788 1.146948,-0.507055 1.262067,-0.435913 0.07312,0.04522 0.08488,0.32154 0.04037,0.949398 -0.06648,0.937815 0.05194,2.059259 0.27391,2.593635 0.25098,0.604245 0.792049,0.126358 0.917718,-0.810553 0.04161,-0.310402 -0.07406,-1.838316 -0.205327,-2.711772 -0.04922,-0.327526 0.113366,-0.469485 0.799096,-0.697676 0.837131,-0.278582 1.510304,-0.711141 1.737125,-1.116229 0.142469,-0.254438 0.205686,-0.562732 0.242741,-1.183739 0.08715,-1.46081 0.625574,-2.517744 1.5098,-2.963763 0.507847,-0.256174 0.69549,-0.267953 1.714523,-0.107673 0.275802,0.04339 0.361577,0.0059 0.676786,-0.296498 1.009371,-0.968065 2.077532,-1.082733 2.569475,-0.275855 0.362209,0.594098 0.162326,1.037765 -0.549612,1.219965 -0.266331,0.06816 -0.519622,0.159312 -0.562883,0.202578 -0.114686,0.114674 -0.248837,0.913113 -0.186449,1.109673 0.04557,0.143575 0.132117,0.164309 0.591068,0.141562 0.383161,-0.01898 0.559817,0.0091 0.614716,0.09801 0.126743,0.205083 -0.07292,0.606014 -0.496005,0.996 -0.736203,0.678608 -0.70578,0.543151 -0.772845,3.440951 -0.06789,2.932987 -0.165403,3.678746 -0.56912,4.352176 -0.340452,0.567918 -0.727421,0.83913 -1.31195,0.919518 -0.536105,0.07374 -0.63485,0.02486 -0.63485,-0.314576 0,-0.187136 0.07814,-0.314876 0.280923,-0.459273 0.500974,-0.356728 0.5328,-0.548872 0.630167,-3.803862 l 0.08919,-2.981408 -0.238043,-0.359712 c -0.256086,-0.386967 -0.256456,-0.453554 -0.0076,-1.375266 0.100886,-0.373518 0.125088,-0.665006 0.07807,-0.939869 -0.07305,-0.427017 -0.06267,-0.427981 -0.46065,0.0427 -0.08478,0.100289 -0.199225,0.128985 -0.360951,0.09053 -0.611766,-0.145466 -1.006889,-0.160416 -1.14785,-0.04344 -0.234247,0.194416 -0.32275,0.544042 -0.257599,1.017693 l 0.0608,0.442112 0.756966,-0.06141 0.756962,-0.06141 v 0.234756 c 0,0.334681 -0.214416,0.6866 -0.577427,0.947729 -0.172485,0.124083 -0.400807,0.379359 -0.507384,0.567285 -0.189641,0.334398 -0.19314,0.408508 -0.164105,3.474171 0.0293,3.096292 0.02732,3.137363 -0.173933,3.554003 -0.224323,0.464449 -0.61939,0.840884 -1.103824,1.051785 -0.323671,0.140927 -1.162076,0.274983 -1.342851,0.214722 z m 15.329789,-4.117389 c 0,-0.03224 0.05772,-0.148477 0.128296,-0.258401 0.287019,-0.447088 0.333747,-1.228803 0.292436,-4.89225 -0.02238,-1.985238 -0.0688,-3.794992 -0.103133,-4.021667 l -0.06244,-0.412139 0.604245,-0.646941 c 0.843801,-0.9034 1.097061,-1.045857 1.740812,-0.979189 0.282149,0.02922 0.692947,0.01797 0.9129,-0.02501 0.513272,-0.100289 0.586131,-0.06704 0.844755,0.385585 0.761384,1.332491 1.053586,2.921988 0.775531,4.218529 -0.07621,0.355393 -0.190339,0.557539 -0.47376,0.839149 -0.370431,0.368069 -0.502696,0.431146 -1.546425,0.737465 -0.827584,0.242887 -0.858438,0.288224 -0.850408,1.249217 0.0036,0.451395 0.05454,0.949945 0.1128,1.107886 0.116248,0.315131 0.461766,0.750578 0.595563,0.750578 0.140655,0 0.203773,0.341758 0.09921,0.537128 -0.157313,0.293955 -0.991677,0.865004 -1.626584,1.113268 -0.589175,0.230387 -1.443808,0.406069 -1.443808,0.29679 z m 3.115859,-5.984434 c 0.275598,-0.185621 0.523142,-0.425316 0.550087,-0.532665 0.07334,-0.292224 -0.123436,-2.047928 -0.284829,-2.541367 -0.172568,-0.527581 -0.531789,-1.003769 -0.659938,-0.874806 -0.166801,0.167857 -0.294211,1.166178 -0.348375,2.729708 -0.06243,1.801807 -0.07979,1.773294 0.743055,1.21913 z m -10.695878,5.691913 c 0,-0.02086 0.128646,-0.310312 0.285878,-0.643251 0.285433,-0.604412 0.285924,-0.607979 0.313936,-2.319871 0.01543,-0.942989 0.07167,-2.18151 0.124974,-2.752268 0.100674,-1.077807 0.01512,-1.85628 -0.286294,-2.606222 -0.119994,-0.298501 -0.115934,-0.310292 0.186476,-0.54143 0.170033,-0.129955 0.433982,-0.378316 0.586552,-0.551911 0.48054,-0.54675 0.958018,-0.992827 1.06269,-0.992827 0.07362,0 0.08711,1.055736 0.04991,3.902806 -0.04265,3.267286 -0.02946,3.976273 0.0809,4.353995 0.224849,0.769227 0.278377,0.698699 -1.11915,1.474787 -0.70724,0.392741 -1.285892,0.697034 -1.285892,0.676192 z m 4.594011,-1.146729 c -1.121335,-0.400828 -1.602364,-1.47848 -1.495532,-3.350445 0.08497,-1.488606 0.501262,-2.551244 1.332162,-3.400394 l 0.513683,-0.524968 h 0.584921 c 0.981612,0 1.581051,0.393763 1.785829,1.1731 0.268193,1.020644 -0.499525,1.908968 -1.957391,2.264892 -0.668713,0.163261 -0.694432,0.201885 -0.622758,0.935162 0.06564,0.671566 0.347337,1.640978 0.532211,1.831609 0.175509,0.180958 0.382613,-0.03285 0.767058,-0.791848 0.380073,-0.75036 0.592564,-0.866145 1.003028,-0.54654 0.173804,0.135334 0.222181,0.252632 0.215131,0.52162 -0.02024,0.772094 -0.713753,1.581019 -1.593071,1.858203 -0.571659,0.180197 -0.638762,0.182063 -1.065271,0.02961 z m 1.03831,-4.728902 c 0.380836,-0.348087 0.413637,-0.627179 0.114579,-0.974854 -0.180833,-0.210234 -0.235264,-0.228631 -0.40607,-0.137212 -0.321055,0.17182 -0.443827,0.463913 -0.506591,1.205325 l -0.05927,0.700043 0.266968,-0.248847 c 0.146828,-0.136874 0.412497,-0.381878 0.590374,-0.544455 z m 13.284854,3.908588 c -0.408013,-0.378134 -0.568107,-1.041196 -0.251397,-1.041196 0.259115,0 0.88773,-0.50036 1.149416,-0.914902 0.577474,-0.914763 0.810584,-2.2823 0.714993,-4.194454 l -0.06517,-1.303621 -0.35142,-0.179281 c -0.370803,-0.189172 -0.423131,-0.332879 -0.238622,-0.655296 0.07435,-0.129912 0.112801,-0.59701 0.112801,-1.370205 0,-1.660686 0.27123,-2.401009 1.021871,-2.789179 0.586243,-0.303156 1.583051,-0.05391 2.299221,0.574887 0.419342,0.368186 0.435278,0.661066 0.05789,1.063756 -0.321602,0.343138 -0.386102,0.353646 -0.692285,0.1128 -0.235292,-0.185081 -0.698335,-0.236876 -0.911195,-0.10192 -0.09139,0.05797 -0.104599,0.232672 -0.05608,0.743083 0.03483,0.367007 0.100511,0.714042 0.145777,0.771192 0.05392,0.06807 0.267837,0.08709 0.620109,0.05514 0.510959,-0.04633 0.537763,-0.03871 0.537763,0.152877 0,0.298821 -0.327869,0.705259 -0.737497,0.914233 l -0.361326,0.184343 0.07565,0.873915 c 0.169075,1.952944 0.0365,3.986896 -0.344814,5.293652 -0.366765,1.256606 -1.143413,2.032304 -2.034806,2.032304 -0.354246,0 -0.502583,-0.04771 -0.690805,-0.222137 z m 4.990689,-0.04063 c -0.591985,-0.18804 -0.987346,-0.532372 -0.987346,-0.859914 0,-0.116932 0.154328,-0.321674 0.392563,-0.520821 0.657565,-0.549649 0.690302,-0.685782 0.690302,-2.870767 0,-1.873665 -0.0048,-1.926662 -0.237202,-2.44376 -0.209978,-0.467877 -0.224256,-0.559828 -0.124426,-0.800873 0.06208,-0.149765 0.153283,-0.272304 0.20276,-0.272304 0.05777,0 0.06713,-0.274727 0.02606,-0.76724 -0.135631,-1.62813 0.355934,-2.982754 1.198967,-3.304092 0.327257,-0.124741 0.907353,-0.09366 1.245371,0.06673 0.705049,0.334574 1.565915,1.651388 1.293875,1.979182 -0.171177,0.206263 -0.623449,0.422011 -0.768205,0.36646 -0.06845,-0.02624 -0.184482,-0.191621 -0.257966,-0.367483 -0.101956,-0.244064 -0.186475,-0.319762 -0.356931,-0.319762 -0.216787,0 -0.224197,0.0214 -0.252754,0.729922 -0.01681,0.417948 0.0096,0.75865 0.06076,0.797126 0.0496,0.03696 0.442916,0.112403 0.873968,0.16764 1.247412,0.159859 1.821658,0.574106 1.934219,1.395281 0.05104,0.372071 -0.05945,0.971556 -0.226694,1.231119 -0.190835,0.296072 -0.941182,-0.184112 -1.048543,-0.671008 -0.162518,-0.73698 -0.190919,-0.762454 -0.849866,-0.762454 -1.002428,0 -0.944977,-0.160317 -1.008025,2.81252 -0.05512,2.597695 -0.111563,3.051243 -0.46458,3.72975 -0.304369,0.585041 -0.819399,0.848938 -1.336351,0.684739 z M 51.821633,54.847592 C 51.29121,54.634345 51.076597,53.517641 51.076597,50.971007 v -1.436285 l 0.773377,-0.367435 c 0.425363,-0.202087 0.861891,-0.376597 0.970063,-0.387804 0.179441,-0.01858 0.194276,0.01521 0.169272,0.385707 -0.01507,0.223336 -0.06583,0.626716 -0.112789,0.89639 -0.115551,0.663452 -0.107949,2.09245 0.01371,2.575518 0.10419,0.413771 0.353771,0.708043 0.685809,0.808624 0.487969,0.147807 0.682819,-1.166859 0.442768,-2.987428 -0.07964,-0.604015 -0.1448,-1.139846 -0.1448,-1.190736 0,-0.05089 0.276131,-0.237632 0.613628,-0.414984 0.337496,-0.177344 0.854386,-0.480763 1.148649,-0.674257 0.294256,-0.193491 0.565959,-0.332688 0.603786,-0.309311 0.0378,0.02337 0.002,0.192602 -0.07916,0.376063 -0.439183,0.99029 -0.476153,1.195746 -0.479178,2.663133 -0.0031,1.548324 0.02264,1.6566 0.503243,2.11007 0.387724,0.365823 0.391015,0.633787 0.01267,1.03425 -0.395281,0.418407 -0.506221,0.452197 -1.601727,0.487892 -0.574132,0.01872 -1.214197,0.102773 -1.624292,0.213319 -0.751823,0.202678 -0.85778,0.211329 -1.149967,0.09386 z M 67.85456,66.18921 c 0.277012,-0.137743 0.48478,-0.336636 0.676792,-0.647862 0.253329,-0.410648 0.276783,-0.514802 0.273877,-1.216129 -0.0024,-0.57038 -0.04635,-0.848004 -0.171296,-1.082864 -0.223272,-0.419463 -0.594398,-0.902381 -0.693509,-0.902381 -0.04371,0 -0.0795,0.241645 -0.0795,0.536982 0,1.137362 -0.317098,1.912615 -0.907053,2.217693 l -0.266048,0.137587 v -0.570824 c 0,-0.801855 -0.2091,-0.953564 -0.877293,-0.636478 -0.776611,0.368521 -0.660965,1.502087 0.214432,2.101926 0.582882,0.399383 1.11529,0.417529 1.82961,0.06233 z m -2.014032,-2.78227 c 0.230068,-0.08322 0.402206,-0.0801 0.796498,0.01453 0.27664,0.06641 0.523268,0.1004 0.548044,0.07565 0.06809,-0.06809 0.301509,-1.718946 0.258577,-1.828625 -0.04023,-0.102677 -1.80176,-1.249346 -1.993784,-1.297789 -0.09079,-0.02293 -0.115647,0.31227 -0.115647,1.556608 0,1.713013 -0.01537,1.668268 0.506288,1.479642 z M 11.677936,62.262387 c 0.399988,-1.205897 0.247382,-1.507804 -0.451838,-0.893878 -0.378264,0.33212 -0.576243,0.737232 -0.576243,1.179128 0,0.383256 0.04386,0.424014 0.456572,0.424014 h 0.336256 z m 14.38293,-17.796641 c 0.02137,-0.335786 -0.04088,-0.513409 -0.392714,-1.12092 -1.741651,-3.007195 -2.154786,-4.42235 -2.147033,-7.35442 0.0042,-1.563012 0.163052,-2.907741 0.394817,-3.340789 0.09109,-0.1702 0.154911,-0.18416 0.614279,-0.134403 0.933001,0.101068 2.109073,0.400671 2.862619,0.729244 0.15098,0.06582 0.461616,0.16973 0.690314,0.2309 0.367679,0.09834 0.44497,0.09211 0.667817,-0.0539 0.752268,-0.492912 1.810052,-0.956882 2.979851,-1.307046 0.872758,-0.261252 0.891597,-0.284981 1.722706,-2.169961 0.297642,-0.675075 0.610174,-0.844746 1.094578,-0.594253 0.356446,0.18433 0.450966,0.447268 0.48933,1.361275 0.03901,0.929615 0.192926,1.313055 0.635356,1.582822 0.46828,0.28553 0.540566,0.243272 0.469375,-0.274369 -0.03415,-0.24815 -0.04176,-0.451186 -0.01694,-0.451186 0.217288,0 2.045816,3.16659 2.046853,3.544677 0,0.08842 -0.07063,0.182747 -0.157476,0.209629 -0.449998,0.139269 -0.724679,0.311227 -0.769218,0.481547 -0.0472,0.18039 -0.02628,0.186854 0.41617,0.128556 0.506069,-0.06668 0.535111,-0.06824 0.877457,-0.0472 0.316267,0.01946 0.626246,0.330091 0.625531,0.62684 -5.2e-4,0.134553 -0.08128,0.36646 -0.179884,0.515354 -0.2399,0.362237 -0.226726,0.53707 0.0573,0.760477 0.279666,0.219984 0.597128,0.241715 0.754855,0.05166 0.170415,-0.205331 0.608448,-0.162247 0.942743,0.09272 0.164465,0.12545 0.801323,0.41104 1.415231,0.634651 1.414178,0.515109 1.757864,0.65984 2.174706,0.915808 0.394762,0.242418 0.468451,0.255486 0.397464,0.07048 -0.08724,-0.227341 0.115359,-1.069143 0.302302,-1.256085 0.170456,-0.170461 0.180719,-0.170737 0.358632,-0.0097 0.220444,0.199497 0.363465,0.674195 0.364148,1.208655 5.22e-4,0.338852 0.02233,0.384224 0.158416,0.328423 0.08686,-0.0356 0.324939,-0.08522 0.529066,-0.11023 0.315116,-0.03862 0.393459,-0.01365 0.518872,0.165407 0.215296,0.307376 0.184441,0.571776 -0.08346,0.715147 -0.194934,0.104322 -0.262109,0.104514 -0.428637,0.0011 -0.108598,-0.0674 -0.269763,-0.16697 -0.358131,-0.221262 -0.123665,-0.07599 -0.180463,-0.06752 -0.246573,0.03666 -0.06395,0.100744 -0.01757,0.195651 0.181333,0.371182 1.139913,1.005917 2.091537,1.903288 2.97936,2.809534 l 1.038932,1.060476 h 0.466689 c 0.25668,0 0.572191,-0.04011 0.701134,-0.08913 0.914532,-0.347705 4.614439,-0.831035 7.216334,-0.942688 0.707297,-0.03036 1.112792,-0.0858 1.180751,-0.161429 0.177133,-0.197106 0.787647,-4.493053 1.025426,-7.215504 0.115646,-1.323712 0.046,-1.591429 -0.664747,-2.555194 -0.530318,-0.719134 -1.284348,-2.015525 -1.63107,-2.804294 -0.129229,-0.293975 -0.270509,-0.615721 -0.313952,-0.714984 -0.237349,-0.542209 -0.38168,-0.954426 -0.489748,-1.398689 -0.290971,-1.196194 -0.419413,-1.578105 -0.592826,-1.762692 -0.249635,-0.265726 -0.949241,-0.596676 -1.98238,-0.937769 -1.282731,-0.423499 -1.487307,-0.478408 -3.519294,-0.944597 -0.780098,-0.178977 -2.504406,-0.457556 -4.331435,-0.699785 -1.903025,-0.252313 -5.380382,-0.297535 -5.820373,-0.07569 l -0.270716,0.136487 -0.05487,5.828035 c -0.03932,4.177576 -0.08788,6.00306 -0.171471,6.446064 l -0.116608,0.61803 -0.415075,-0.459039 c -0.533055,-0.589522 -1.208334,-1.605283 -2.267969,-3.411528 -0.935782,-1.595137 -1.865494,-3.036695 -2.182407,-3.383933 -0.113234,-0.124083 -0.315841,-0.37291 -0.450217,-0.552949 -0.278551,-0.373214 -1.012588,-0.890868 -1.26325,-0.890868 -0.269153,0 -0.615259,0.274843 -0.878291,0.697435 l -0.244008,0.392043 -0.58006,-0.653999 c -0.319042,-0.359692 -0.742502,-0.819493 -0.941023,-1.02178 -0.198526,-0.202284 -0.864716,-0.924653 -1.480428,-1.60527 -0.615709,-0.680612 -1.14892,-1.237478 -1.184913,-1.237478 -0.03598,0 -0.344369,0.105115 -0.685291,0.233599 -0.340917,0.128475 -0.916669,0.330605 -1.279446,0.449185 -0.362777,0.118576 -0.696775,0.23856 -0.742215,0.266647 -0.105415,0.06515 0.687623,1.223021 1.798762,2.626312 1.576227,1.990667 2.265074,2.90146 2.265074,2.99489 0,0.05075 -0.152276,0.184805 -0.338392,0.297889 -0.18612,0.113088 -0.549851,0.360035 -0.808289,0.548785 -0.258442,0.188749 -0.528488,0.343185 -0.6001,0.343185 -0.129433,0 -1.41898,-1.356619 -2.27308,-2.391311 -0.245813,-0.297786 -0.468696,-0.561733 -0.495302,-0.586552 -0.0266,-0.02481 -0.296358,-0.349674 -0.599448,-0.721908 -0.714983,-0.878083 -1.090724,-1.231448 -1.193963,-1.122871 -0.04453,0.04682 -0.166749,0.51151 -0.27162,1.032636 -0.104874,0.521126 -0.269722,1.292662 -0.366333,1.714524 -0.324079,1.415244 -0.324022,1.374649 -0.0026,1.814927 0.280792,0.384475 0.287582,0.415465 0.234883,1.072699 -0.02984,0.372233 -0.07674,1.042252 -0.104214,1.488932 -0.0621,1.00942 -0.103974,1.218215 -0.24439,1.218215 -0.06102,0 -0.384579,-0.291546 -0.719003,-0.647887 -0.334436,-0.356334 -0.624672,-0.630435 -0.644978,-0.609107 -0.05023,0.05272 -0.23615,2.66662 -0.23615,3.319415 0,1.063476 0.448964,1.94294 1.596487,3.127257 0.161054,0.166218 1.477055,1.764761 1.787445,2.171208 0.406007,0.531649 0.951316,1.04498 1.068965,1.006295 0.05727,-0.01884 0.11555,-0.213804 0.12952,-0.433267 z m 28.649961,-2.542169 c -0.162067,-0.175749 -0.17761,-0.26369 -0.115635,-0.65423 0.10377,-0.653966 -0.110194,-0.844793 -0.592726,-0.528631 -0.179628,0.1177 -0.27123,0.127608 -0.445528,0.04819 -0.390957,-0.178131 -0.401783,-0.713098 -0.0193,-0.954351 0.138887,-0.08761 0.252347,-0.06434 0.94547,0.193865 0.0828,0.03084 0.112884,-0.110554 0.113136,-0.531623 5.21e-4,-0.61641 0.232818,-1.160188 0.495964,-1.160188 0.263328,0 0.495615,0.543772 0.495974,1.161062 0,0.553448 0.0078,0.572297 0.203376,0.514162 0.525579,-0.15621 0.848954,-0.159153 0.999025,-0.0091 0.19048,0.190488 0.195117,0.533329 0.0097,0.718735 -0.185568,0.185567 -0.274347,0.179036 -0.586354,-0.04312 -0.21307,-0.151722 -0.294466,-0.166319 -0.453294,-0.08133 -0.164937,0.08827 -0.186167,0.159031 -0.14349,0.478204 0.02753,0.206021 0.07511,0.455951 0.105679,0.55539 0.04187,0.136177 -0.01033,0.219687 -0.211204,0.338394 -0.357082,0.210935 -0.575815,0.198524 -0.800789,-0.04544 z m -5.1092,-0.123798 C 49.40322,41.692262 49.357097,41.616194 49.398636,41.465 c 0.145161,-0.52826 0.151268,-0.834269 0.02013,-1.007796 -0.114723,-0.151817 -0.162296,-0.162532 -0.299576,-0.06746 -0.08977,0.06215 -0.257233,0.153528 -0.372153,0.203048 -0.457365,0.19708 -0.807267,-0.330759 -0.514966,-0.776856 0.158868,-0.242459 0.272938,-0.251447 0.972065,-0.07655 0.246375,0.06163 0.248159,0.05879 0.248159,-0.397808 0,-0.656484 0.227879,-1.18544 0.51071,-1.18544 0.276211,0 0.460552,0.400874 0.541797,1.178185 0.04766,0.455762 0.08078,0.534857 0.201603,0.481154 0.281778,-0.125239 0.82508,-0.14431 0.958423,-0.03365 0.19936,0.165455 0.172125,0.693556 -0.04166,0.807975 -0.187053,0.100106 -0.636828,-0.04007 -0.636828,-0.198474 0,-0.137036 -0.381021,-0.03492 -0.484256,0.129793 -0.06976,0.111299 -0.06451,0.274201 0.01888,0.586092 0.113653,0.424913 0.111395,0.435241 -0.138194,0.63498 -0.296326,0.237148 -0.431447,0.247109 -0.781183,0.05759 z M 47.237141,36.3254 c -0.230358,-0.198136 -0.235421,-0.221707 -0.126028,-0.586815 0.0866,-0.289055 0.08931,-0.434477 0.01129,-0.605711 -0.115948,-0.254458 -0.387016,-0.295668 -0.561549,-0.08536 -0.173726,0.209323 -0.645332,0.133071 -0.773263,-0.125023 -0.134236,-0.270823 -0.06338,-0.533653 0.188316,-0.698573 0.173982,-0.114002 0.246626,-0.113881 0.572161,9.39e-4 0.449412,0.158565 0.48167,0.124015 0.568034,-0.608431 0.06133,-0.520206 0.263329,-0.874638 0.498468,-0.874638 0.203761,0 0.484157,0.677306 0.484157,1.1695 0,0.494068 0.04343,0.524632 0.512792,0.361012 0.185761,-0.06477 0.345104,-0.06485 0.514972,0 0.221855,0.08435 0.243252,0.131141 0.218211,0.477284 -0.02342,0.323463 -0.06084,0.388456 -0.238236,0.413585 -0.115768,0.0164 -0.284996,-0.03763 -0.376074,-0.120055 -0.09108,-0.08242 -0.260304,-0.136441 -0.376068,-0.120043 -0.197317,0.02794 -0.210485,0.06883 -0.210485,0.654014 0,0.59675 -0.01189,0.631448 -0.270712,0.789113 -0.341459,0.208004 -0.347457,0.207617 -0.635993,-0.04058 z m -4.625673,-0.06348 c -0.187962,-0.156682 -0.199049,-0.20713 -0.113305,-0.515867 0.129755,-0.467253 0.120446,-0.620735 -0.04786,-0.789032 -0.131691,-0.131695 -0.170498,-0.127445 -0.457829,0.05012 -0.256596,0.158593 -0.353475,0.176012 -0.530407,0.0954 -0.287863,-0.131155 -0.373232,-0.493702 -0.184192,-0.78221 0.168892,-0.257769 0.509262,-0.293015 0.86513,-0.08958 0.124076,0.07093 0.256048,0.130403 0.29327,0.132156 0.03723,0.0018 0.06963,-0.23029 0.072,-0.515671 0.0052,-0.615849 0.231828,-1.150538 0.487773,-1.150538 0.254171,0 0.48323,0.462036 0.526447,1.061933 0.02059,0.286274 0.0627,0.5457 0.09348,0.576494 0.03077,0.03079 0.186909,-0.0074 0.34692,-0.08491 0.426119,-0.206381 0.830921,-0.03161 0.870844,0.375967 0.03066,0.313225 -0.105223,0.552077 -0.31414,0.552077 -0.07037,0 -0.249818,-0.09009 -0.398764,-0.200214 -0.366427,-0.27092 -0.5814,-0.141058 -0.573405,0.346377 0.0031,0.192581 0.03728,0.4194 0.07579,0.504052 0.09178,0.201635 -0.31149,0.614245 -0.596304,0.610118 -0.11393,-0.0017 -0.300889,-0.08116 -0.415464,-0.17667 z m 9.308842,0.03456 c -0.172381,-0.120515 -0.188609,-0.1953 -0.145526,-0.670438 0.03274,-0.361471 0.01164,-0.579187 -0.06518,-0.671764 -0.148519,-0.17895 -0.202631,-0.173232 -0.45818,0.04841 -0.150442,0.130478 -0.281203,0.168446 -0.441534,0.128203 -0.267734,-0.06719 -0.361681,-0.190569 -0.363579,-0.477425 -0.0036,-0.522358 0.397558,-0.710492 0.900999,-0.4227 0.391223,0.223643 0.441576,0.176959 0.433373,-0.401803 -0.0082,-0.57407 0.134778,-1.043448 0.341914,-1.122931 0.346627,-0.133016 0.561324,0.232619 0.64164,1.09274 0.04479,0.479571 0.07807,0.56693 0.198266,0.520396 0.559232,-0.216505 1.046515,-0.146403 1.123837,0.161683 0.140393,0.559406 -0.234764,0.848218 -0.677053,0.521221 -0.28146,-0.208085 -0.563677,-0.186197 -0.654609,0.05077 -0.02921,0.07614 -0.0074,0.320128 0.04855,0.542208 0.09355,0.371515 0.08506,0.42147 -0.106304,0.625169 -0.235008,0.250153 -0.491818,0.275377 -0.776614,0.07627 z m 4.962365,-0.06988 c -0.226153,-0.194536 -0.239513,-0.237878 -0.140382,-0.455438 0.151801,-0.333182 0.136919,-0.728567 -0.03274,-0.869367 -0.118781,-0.09859 -0.195972,-0.08923 -0.467492,0.05663 -0.178878,0.09609 -0.384871,0.161379 -0.457771,0.145088 -0.35431,-0.07917 -0.48904,-0.536169 -0.250657,-0.850206 0.131099,-0.172703 0.726664,-0.221743 0.821888,-0.06769 0.03066,0.04964 0.129896,0.09023 0.220495,0.09023 0.137406,0 0.163641,-0.07154 0.158218,-0.431301 -0.0082,-0.54101 0.268053,-1.147872 0.522454,-1.147872 0.230403,0 0.394894,0.344485 0.517344,1.083434 l 0.09575,0.577814 0.312623,-0.13062 c 0.570095,-0.238202 0.999258,0.04818 0.880756,0.587729 -0.07718,0.351407 -0.264846,0.398215 -0.667499,0.166476 -0.207568,-0.119454 -0.402799,-0.171242 -0.502044,-0.133151 -0.142897,0.05484 -0.155208,0.135486 -0.102437,0.670973 0.05948,0.603586 0.05776,0.609954 -0.205451,0.765439 -0.344543,0.203524 -0.404563,0.198556 -0.703064,-0.0582 z m -2.487682,-5.48322 c -0.231687,-0.16877 -0.240182,-0.20288 -0.188489,-0.756458 0.06436,-0.689281 -0.04657,-0.789818 -0.597414,-0.541424 -0.406075,0.183119 -0.691794,0.08697 -0.779464,-0.262289 -0.117412,-0.467808 0.310928,-0.785423 0.8056,-0.597351 0.437084,0.166185 0.48121,0.130403 0.532168,-0.431554 0.05194,-0.572833 0.272777,-1.097491 0.461939,-1.097491 0.282132,0 0.54726,0.599032 0.619044,1.398695 0.01689,0.188277 0.06552,0.260577 0.159656,0.237438 0.07445,-0.0183 0.303842,-0.05357 0.509767,-0.0784 0.330431,-0.03981 0.392892,-0.0169 0.531669,0.194894 0.127551,0.194665 0.137938,0.282396 0.055,0.464431 -0.145541,0.319444 -0.347572,0.363483 -0.648101,0.14128 -0.519702,-0.384226 -0.80282,-0.156872 -0.661821,0.531454 0.102569,0.500721 0.0427,0.663421 -0.311564,0.846619 -0.220094,0.113809 -0.270363,0.108682 -0.48799,-0.04985 z M 44.350231,30.625814 c -0.18605,-0.186049 -0.206808,-0.25835 -0.131258,-0.457068 0.260596,-0.685409 -0.04814,-1.11653 -0.53947,-0.753284 -0.226664,0.167579 -0.304445,0.182738 -0.494192,0.09628 -0.300236,-0.136806 -0.383875,-0.494738 -0.186114,-0.796551 0.16071,-0.245282 0.186621,-0.247129 0.971137,-0.06932 0.246939,0.05597 0.248148,0.05388 0.248148,-0.429428 0,-0.56875 0.248285,-1.114525 0.507024,-1.114525 0.236719,0 0.575837,0.702571 0.575837,1.193006 v 0.387738 l 0.494863,-0.05816 c 0.592848,-0.06967 0.768476,0.03785 0.768476,0.47053 0,0.448222 -0.26095,0.556189 -0.720282,0.298036 -0.302574,-0.170061 -0.376132,-0.1814 -0.501581,-0.07729 -0.114554,0.09508 -0.133744,0.210313 -0.08697,0.522216 0.03302,0.220125 0.08076,0.454286 0.106112,0.520361 0.04713,0.122864 -0.456202,0.48749 -0.673831,0.488119 -0.06429,0 -0.216349,-0.09911 -0.337902,-0.220666 z m 5.069353,0.03415 c -0.190198,-0.149612 -0.219594,-0.220349 -0.147527,-0.355016 0.138825,-0.259385 0.112873,-0.96411 -0.03765,-1.02186 -0.0702,-0.02694 -0.278794,0.02808 -0.463533,0.122269 -0.384705,0.196131 -0.616761,0.127722 -0.779677,-0.229824 -0.07847,-0.172228 -0.0665,-0.265261 0.05867,-0.45629 0.136723,-0.208674 0.200159,-0.233037 0.486552,-0.186888 0.181125,0.02919 0.407336,0.06444 0.502675,0.07835 0.147538,0.0215 0.188405,-0.0621 0.274369,-0.561273 0.12247,-0.711169 0.266327,-0.992624 0.507367,-0.992624 0.254417,0 0.529348,0.640227 0.531857,1.238541 0.002,0.4686 0.0031,0.470976 0.233454,0.383514 0.624514,-0.237443 1.203886,0.02505 1.086615,0.492303 -0.08002,0.31882 -0.327604,0.431803 -0.601894,0.274653 -0.414579,-0.237525 -0.470287,-0.251839 -0.615655,-0.158151 -0.156836,0.101069 -0.169169,0.241936 -0.06739,0.769573 0.05581,0.289286 0.03254,0.371151 -0.160302,0.563988 -0.274529,0.274525 -0.494754,0.285089 -0.80794,0.03874 z m -8.900869,13.088322 c 0.500256,-0.252414 1.112714,-0.841944 1.321331,-1.271858 0.219259,-0.451878 0.376721,-1.32636 0.187471,-1.041175 -0.06057,0.09126 -0.272542,0.416115 -0.471064,0.721909 -0.260127,0.400683 -0.499583,0.639425 -0.857264,0.854727 -0.484456,0.291614 -0.516776,0.297955 -1.353573,0.265404 -1.38166,-0.05374 -1.780804,-0.268317 -2.998426,-1.611866 -0.452333,-0.499123 -0.946748,-0.711276 -1.667812,-0.715647 -0.621871,-0.0039 -1.374458,-0.267893 -1.447968,-0.508159 -0.01779,-0.05819 0.278692,-0.403359 0.658884,-0.76703 0.993467,-0.950304 1.136228,-1.320546 0.750115,-1.945294 -0.380637,-0.615884 -2.319714,-1.855 -3.551594,-2.269544 -0.684702,-0.23042 -1.728036,-0.371739 -2.744388,-0.371739 -0.696742,0 -0.854856,-0.03192 -1.324475,-0.267358 -0.374687,-0.187843 -0.646802,-0.413247 -0.914986,-0.757928 -0.292494,-0.375907 -0.480805,-0.524333 -0.805661,-0.635029 -0.540883,-0.184296 -0.898393,-0.184931 -0.968702,-0.0017 -0.110026,0.286706 -0.05349,3.265509 0.07878,4.151444 0.353386,2.366872 0.941232,3.880553 1.89356,4.875832 0.495442,0.517788 1.423308,1.112794 1.740331,1.116008 0.173402,0.0015 0.135179,-0.707866 -0.06146,-1.140942 -0.09367,-0.206284 -0.498847,-0.728819 -0.900406,-1.161192 -0.726184,-0.781911 -0.730101,-0.788747 -0.730101,-1.273584 0,-0.54794 0.160074,-0.860203 0.826274,-1.611842 0.219949,-0.248158 0.557435,-0.674533 0.74998,-0.947502 0.19254,-0.272968 0.380667,-0.531914 0.418047,-0.57543 0.120495,-0.140265 0.694881,0.300546 0.960973,0.737508 0.313958,0.515555 0.535073,1.352795 0.612579,2.319475 0.110759,1.381581 0.327558,2.035527 0.869832,2.623824 0.918104,0.996028 2.294355,1.314085 4.883557,1.128591 1.592591,-0.114098 1.862067,-0.09602 3.176755,0.213016 0.618821,0.14547 1.211156,0.0983 1.669408,-0.132904 z m -8.731346,-4.73201 c -0.895521,-0.416921 -0.846675,-1.004007 0.134359,-1.615037 0.5532,-0.344552 1.133802,-0.330698 1.580765,0.03772 0.566397,0.466874 0.653706,1.249072 0.180921,1.62096 -0.341548,0.268663 -1.271197,0.247263 -1.896045,-0.04364 z m 7.377074,2.081613 c 0.04031,-0.228145 0.10574,-0.274762 0.542129,-0.386086 0.678659,-0.173135 0.799336,-0.303478 0.584514,-0.631327 -0.287864,-0.439344 -0.777877,-0.925878 -1.938087,-1.924322 -1.50778,-1.297556 -1.612761,-1.399737 -2.107817,-2.051585 -0.235004,-0.309434 -0.557361,-0.660056 -0.716345,-0.77915 -0.705993,-0.528882 -2.81728,-1.371671 -3.25039,-1.297503 -0.175082,0.02999 -0.137741,0.09144 0.335477,0.552029 0.29287,0.285062 0.678633,0.597636 0.857259,0.6946 0.373948,0.203001 0.472145,0.262876 1.281581,0.7815 0.708346,0.453845 1.515571,1.291687 1.773444,1.84071 0.101969,0.217092 0.372733,0.841395 0.601696,1.387338 0.430864,1.027335 0.756483,1.479307 1.361583,1.889941 0.42482,0.288291 0.614389,0.266905 0.674956,-0.07615 z m 1.204993,-6.57386 c 0.03186,-0.409455 0.05819,-1.419973 0.0585,-2.245593 5.21e-4,-1.591478 -0.01924,-1.690471 -0.484852,-2.424236 -0.616765,-0.971962 -1.211161,-1.878808 -1.564066,-2.386256 -0.209033,-0.300569 -0.655714,-0.952558 -0.992622,-1.448865 -0.336911,-0.496316 -0.714086,-0.997931 -0.838163,-1.114702 -0.633688,-0.596385 -1.551818,-0.765426 -2.805166,-0.51647 -0.959253,0.190536 -1.075075,0.225768 -1.075075,0.327009 0,0.04531 0.206625,0.377573 0.459164,0.738382 0.252545,0.360808 0.567248,0.818445 0.699345,1.016966 0.132102,0.198529 0.270635,0.374494 0.307857,0.391034 0.03723,0.01654 0.06769,0.07484 0.06769,0.129545 0,0.0547 0.07587,0.183293 0.168559,0.285753 0.09271,0.10246 0.540335,0.73449 0.994717,1.404508 1.577506,2.326145 3.53293,5.04986 3.928742,5.472384 0.05317,0.05676 0.275333,0.330861 0.49368,0.609108 0.218352,0.278248 0.42552,0.505899 0.460379,0.505899 0.03484,0 0.08946,-0.33501 0.121324,-0.744466 z"
       id="path1" />
  </g>
</svg>
