<?xml version="1.0" encoding="UTF-8" standalone="no"?>
<!-- Created with Inkscape (http://www.inkscape.org/) -->

<svg
   width="300"
   height="400"
   viewBox="0 0 79.374998 105.83333"
   version="1.1"
   id="svg1"
   inkscape:version="1.3 (0e150ed6c4, 2023-07-21)"
   sodipodi:docname="card_figured_2.svg"
   xmlns:inkscape="http://www.inkscape.org/namespaces/inkscape"
   xmlns:sodipodi="http://sodipodi.sourceforge.net/DTD/sodipodi-0.dtd"
   xmlns="http://www.w3.org/2000/svg"
   xmlns:svg="http://www.w3.org/2000/svg">
  <sodipodi:namedview
     id="namedview1"
     pagecolor="#ffffff"
     bordercolor="#000000"
     borderopacity="0.25"
     inkscape:showpageshadow="2"
     inkscape:pageopacity="0.0"
     inkscape:pagecheckerboard="true"
     inkscape:deskcolor="#d1d1d1"
     inkscape:document-units="px"
     inkscape:zoom="1.4342733"
     inkscape:cx="163.14882"
     inkscape:cy="184.41395"
     inkscape:window-width="1920"
     inkscape:window-height="1011"
     inkscape:window-x="0"
     inkscape:window-y="0"
     inkscape:window-maximized="1"
     inkscape:current-layer="layer2" />
  <defs
     id="defs1" />
  <g
     inkscape:label="background"
     inkscape:groupmode="layer"
     id="layer1">
    <rect
       style="fill:#fbc35c;fill-opacity:1;stroke:none;stroke-width:0.907573;stroke-dasharray:none"
       id="rect1"
       width="79.375"
       height="105.83334"
       x="-1.0658141e-14"
       y="-5.0862632e-06"
       rx="0"
       ry="7.6386557"
       inkscape:label="back"
       sodipodi:insensitive="true" />
    <rect
       style="fill:none;stroke:#3f1819;stroke-width:3.31249;stroke-dasharray:none;stroke-opacity:1"
       id="rect2"
       width="68.739899"
       height="95.750214"
       x="5.3175507"
       y="5.0415597"
       rx="0"
       ry="6.9108934"
       inkscape:label="border"
       sodipodi:insensitive="true" />
  </g>
  <g
     inkscape:groupmode="layer"
     id="layer2"
     inkscape:label="logo">
    <path
       style="fill:#3f1819;stroke-width:0.100113;fill-opacity:1"
       d="m 38.465053,92.69663 c -0.595462,-0.270352 -0.976607,-0.818751 -0.976607,-1.405167 0,-0.188645 0.153619,-0.717209 0.341376,-1.174614 0.39793,-0.969391 0.449869,-2.078889 0.132843,-2.837646 -0.310344,-0.742757 -0.249407,-1.941467 0.193203,-3.800495 0.612249,-2.571528 0.541969,-3.393723 -0.471033,-5.51056 -0.470504,-0.983198 -0.493848,-1.094083 -0.435619,-2.068999 0.04162,-0.696901 0.155034,-1.211901 0.350604,-1.592105 0.158995,-0.30909 0.289081,-0.594426 0.289081,-0.634052 0,-0.03962 -5.707956,-0.07204 -12.684348,-0.07204 h -12.68435 l 0.22409,-0.433811 c 0.224528,-0.43467 13.337351,-23.357667 21.246487,-37.141752 2.316882,-4.037867 4.335017,-7.580508 4.484745,-7.872527 0.399176,-0.778512 0.434079,-1.949853 0.09494,-3.18603 -0.355366,-1.295323 -0.352279,-1.643403 0.01972,-2.223039 0.292882,-0.456346 0.300807,-0.569406 0.341542,-4.872142 0.04042,-4.269603 0.05036,-4.414179 0.323607,-4.705287 0.35212,-0.37515 0.65461,-0.381236 0.982208,-0.01975 0.233528,0.257682 0.260924,0.598167 0.335631,4.171358 0.06088,2.911531 0.139862,4.176331 0.313812,5.025384 0.165969,0.810055 0.208402,1.420973 0.148345,2.135732 -0.25961,3.089754 -0.259161,3.117412 0.06097,3.745977 0.165894,0.325725 2.026065,3.595608 4.133714,7.266402 2.107651,3.670793 7.424365,12.951227 11.814922,20.623182 4.390557,7.67195 8.393918,14.666394 8.89635,15.543185 0.502432,0.876805 0.913508,1.672708 0.913508,1.768666 0,0.142374 -2.329214,0.174452 -12.675415,0.174452 H 41.503966 l 0.361571,0.700789 c 0.300799,0.583001 0.360758,0.869055 0.356738,1.701914 -0.0042,0.854832 -0.06585,1.119185 -0.422419,1.80901 -0.69525,1.345045 -0.877787,2.181076 -0.811015,3.714481 0.04431,1.017327 0.146764,1.595621 0.41495,2.341936 0.43282,1.204451 0.459483,2.192773 0.09088,3.368664 -0.357249,1.139666 -0.339219,1.890402 0.06633,2.761553 0.445797,0.957622 0.451644,1.863821 0.01469,2.274322 -0.372323,0.349778 -1.390861,0.683668 -2.07282,0.679506 -0.263639,-0.0014 -0.73065,-0.116971 -1.037799,-0.256474 z M 32.209177,71.352009 c -0.06975,-0.06228 -0.547071,-0.40766 -1.060727,-0.767522 -1.236781,-0.866529 -2.692433,-2.26007 -3.590289,-3.43711 -1.852554,-2.428593 -2.808957,-5.188367 -3.094831,-8.930394 -0.04347,-0.568973 -0.118951,-1.032501 -0.167756,-1.030062 -0.07409,0.0035 -8.00716,13.799652 -8.142221,14.159677 -0.02563,0.06832 3.394171,0.118549 8.069071,0.118549 4.462461,0 8.056501,-0.05095 7.986753,-0.113238 z m 23.788606,-0.01148 7.363474,-0.0086 -4.091136,-7.141357 c -2.250124,-3.927752 -4.127955,-7.141368 -4.172955,-7.141368 -0.04503,0 -0.120042,0.73583 -0.166753,1.635171 -0.249989,4.813149 -2.281866,8.632012 -6.131441,11.52391 -0.751307,0.564395 -1.381083,1.063121 -1.3995,1.108273 -0.01842,0.04521 0.251889,0.0709 0.600676,0.05726 0.348787,-0.01435 3.947721,-0.02871 7.997635,-0.03345 z M 38.508675,70.297513 c 0.05779,-0.422142 0.09908,-1.698584 0.0918,-2.836527 -0.01061,-1.654418 -0.06984,-2.280551 -0.295674,-3.124833 -0.361179,-1.350306 -0.355413,-1.632895 0.06232,-3.052777 l 0.3448,-1.171992 -0.04826,-5.034989 c -0.04557,-4.752897 -0.06527,-5.095106 -0.351785,-6.108032 l -0.303518,-1.073042 0.392866,-1.445356 0.392865,-1.445364 -0.786593,0.089 c -2.803111,0.317132 -5.426344,1.61471 -7.542509,3.730874 -1.683432,1.683429 -2.725775,3.456736 -3.478387,5.917678 -0.327264,1.070107 -0.358586,1.364926 -0.358586,3.375008 0,2.010081 0.03131,2.304894 0.358586,3.375001 1.173095,3.835864 3.566087,6.699468 7.005025,8.382666 1.126132,0.551182 3.216749,1.171723 3.987789,1.18365 0.416345,0.0058 0.426164,-0.0072 0.529271,-0.760963 z m 4.452591,0.496308 c 1.557678,-0.369779 3.809225,-1.500044 5.167259,-2.593926 2.117001,-1.705221 3.68552,-4.135802 4.396215,-6.812401 0.309597,-1.165966 0.35493,-1.596575 0.358368,-3.403823 0.0035,-1.863531 -0.03113,-2.183506 -0.348881,-3.222097 -0.743282,-2.429263 -1.883304,-4.336319 -3.617008,-6.050616 -2.229039,-2.204081 -4.561666,-3.350733 -7.347439,-3.611782 l -1.040017,-0.09746 0.09353,0.317374 c 0.05143,0.17455 0.305623,0.898185 0.564849,1.608073 l 0.471324,1.290709 -0.439371,1.178732 -0.439372,1.178742 0.01134,4.886842 c 0.0105,4.556692 0.03007,4.947676 0.28937,5.787219 0.348961,1.129806 0.348697,1.781236 -0.0014,3.541918 -0.294552,1.481211 -0.401914,4.418066 -0.206167,5.639683 0.09661,0.602874 0.122511,0.633989 0.52724,0.633099 0.234102,-3.73e-4 0.936216,-0.122137 1.56025,-0.270281 z M 34.273352,43.962548 c 0.949951,-0.343933 2.237886,-0.660193 4.098331,-1.006375 0.370754,-0.06899 0.450403,-0.571751 0.442433,-2.792818 -0.0047,-1.318842 -0.0702,-1.959523 -0.272773,-2.669666 -0.618509,-2.168206 -0.615102,-2.09688 -0.143192,-2.997144 0.417723,-0.796897 0.520217,-1.439542 0.338078,-2.119779 -0.09641,-0.360049 0.316818,-1.035174 -4.477176,7.3148 -1.747794,3.044227 -3.177805,5.606266 -3.177805,5.693423 0,0.08716 0.460352,-0.103872 1.023003,-0.424511 0.562653,-0.320643 1.53875,-0.769707 2.169107,-0.99793 z m 13.844465,0.772613 c -0.180136,-0.312019 -1.839007,-3.210277 -3.686375,-6.440577 -1.847371,-3.230293 -3.413443,-5.929333 -3.480157,-5.997851 -0.274938,-0.282377 -0.256822,0.102243 0.0665,1.411636 0.422383,1.710597 0.430443,2.276243 0.04135,2.901915 -0.282934,0.454965 -0.303021,0.650686 -0.346655,3.377739 l -0.04631,2.894783 0.513512,0.08315 c 2.604289,0.421704 4.08172,0.857219 5.852846,1.725308 0.660743,0.323848 1.248937,0.593852 1.307091,0.600005 0.05814,0.0063 -0.04162,-0.244096 -0.221783,-0.556111 z"
       id="path1-5" />
  </g>
</svg>
