<?xml version="1.0" encoding="UTF-8" standalone="no"?>
<!-- Created with Inkscape (http://www.inkscape.org/) -->

<svg
   width="300"
   height="400"
   viewBox="0 0 79.374998 105.83333"
   version="1.1"
   id="svg1"
   inkscape:version="1.3 (0e150ed6c4, 2023-07-21)"
   sodipodi:docname="card_figured_1.svg"
   xmlns:inkscape="http://www.inkscape.org/namespaces/inkscape"
   xmlns:sodipodi="http://sodipodi.sourceforge.net/DTD/sodipodi-0.dtd"
   xmlns="http://www.w3.org/2000/svg"
   xmlns:svg="http://www.w3.org/2000/svg">
  <sodipodi:namedview
     id="namedview1"
     pagecolor="#ffffff"
     bordercolor="#000000"
     borderopacity="0.25"
     inkscape:showpageshadow="2"
     inkscape:pageopacity="0.0"
     inkscape:pagecheckerboard="true"
     inkscape:deskcolor="#d1d1d1"
     inkscape:document-units="px"
     inkscape:zoom="1.4342733"
     inkscape:cx="162.80021"
     inkscape:cy="184.41395"
     inkscape:window-width="1920"
     inkscape:window-height="1011"
     inkscape:window-x="0"
     inkscape:window-y="0"
     inkscape:window-maximized="1"
     inkscape:current-layer="layer2" />
  <defs
     id="defs1" />
  <g
     inkscape:label="background"
     inkscape:groupmode="layer"
     id="layer1">
    <rect
       style="fill:#fbc35c;fill-opacity:1;stroke:none;stroke-width:0.907573;stroke-dasharray:none"
       id="rect1"
       width="79.375"
       height="105.83334"
       x="-1.0658141e-14"
       y="-5.0862632e-06"
       rx="0"
       ry="7.6386557"
       inkscape:label="back"
       sodipodi:insensitive="true" />
    <rect
       style="fill:none;stroke:#3f1819;stroke-width:3.31249;stroke-dasharray:none;stroke-opacity:1"
       id="rect2"
       width="68.739899"
       height="95.750214"
       x="5.3175507"
       y="5.0415597"
       rx="0"
       ry="6.9108934"
       inkscape:label="border"
       sodipodi:insensitive="true" />
  </g>
  <g
     inkscape:groupmode="layer"
     id="layer2"
     inkscape:label="logo">
    <g
       id="g63"
       transform="matrix(0.20954657,0,0,0.20954657,8.2534446,21.867102)"
       inkscape:label="dobby"
       sodipodi:insensitive="true">
      <g
         id="g2">
        <path
           d="m 196.8,289.87 c -0.88,0 -1.79,-0.07 -2.68,-0.22 -4.74,-0.76 -8.85,-3.36 -11.73,-6.12 -5.26,0.27 -10.19,0.36 -12.5,0.41 l -1.15,0.02 c -4.42,0 -21.15,-2.89 -29.52,-5.09 -1.19,-0.25 -2.47,-0.64 -3.81,-1.14 l -0.2,-0.07 c -5.08,-1.85 -12.07,-6.09 -16.19,-8.73 -3.24,-0.45 -5.73,-3.27 -5.73,-6.66 v -3.67 c -1.5,0.22 -2.85,0.32 -4.07,0.32 -9.06,0 -11.31,-6.3 -12.05,-8.37 -1.5,-4.2 -2.73,-21.92 -1.17,-27.83 0.96,-3.64 3.61,-20.72 3.09,-28.71 -0.64,-9.89 0.78,-26.43 5.4,-39.4 2.17,-6.08 5.13,-9.86 8.03,-12.21 -3.9,-7.16 -4.28,-10.51 -3.51,-13.28 0.63,-2.26 2.19,-4.08 4.28,-4.99 0.12,-0.06 0.27,-0.13 0.42,-0.22 -0.16,-0.12 -0.32,-0.23 -0.47,-0.35 -2.1,-1.67 -6.02,-5.41 -9.18,-8.5 -4.68,4.03 -11.99,9.19 -19.94,10.49 -2.04,0.33 -4.11,0.5 -6.17,0.5 -4.89,0 -8.9,-0.93 -12.12,-1.67 -1.64,-0.38 -3.33,-0.77 -4.23,-0.77 0,0 -0.01,0 -0.01,0 -0.05,0 -0.09,0 -0.13,0.01 -2.78,0.49 -12.81,6.72 -14.73,8.88 -0.95,1.2 -3.59,4.53 -7.67,4.53 -0.7,0 -1.39,-0.1 -2.06,-0.29 -1.67,-0.48 -4.64,-2.03 -5.66,-6.87 -0.75,-3.27 -6.2,-28.93 3.86,-46.91 8.68,-15.5 24.23,-32.45 42.69,-35.48 1.63,-2.24 3.5,-3.46 4.97,-4.11 1.19,-0.53 2.45,-0.85 3.75,-0.95 5.9,-8.41 21.25,-27.65 41.49,-33.11 6.87,-1.85 14.45,-2.79 22.53,-2.79 17.56,0 35.87,4.54 44.62,11.06 2.26,1.57 4.15,3.77 5.54,5.68 1.83,-0.06 4.19,-0.11 6.8,-0.11 9.04,0 16.15,0.57 21.13,1.71 12.35,2.81 31.64,18.31 36.86,29.62 5.22,11.3 5.22,18.98 5.22,21.5 0,2.55 -1.15,4.81 -3.14,6.22 -1.26,0.88 -2.77,1.35 -4.36,1.35 v 0 c -2.79,0 -5.33,-1.31 -9.26,-3.45 -1.39,-0.76 -3.29,-1.79 -4.1,-2.05 -0.48,-0.15 -0.93,-0.23 -1.38,-0.23 -1.4,0 -3.16,0.8 -5.21,2.38 -1.38,1.07 -2.7,2.77 -4.09,4.56 -2.26,2.91 -4.81,6.22 -8.7,7.87 -2.21,0.94 -7.5,2.19 -11.95,2.85 -1.3,8.04 -4.54,14.37 -9.66,18.87 -2.33,2.05 -4.76,4.38 -7.11,6.63 -6.36,6.1 -11.95,11.47 -17.41,13.45 -0.49,2.08 -0.94,4.07 -1.32,5.8 2.24,0.18 4.92,0.8 7.26,2.69 0.72,0.58 0.91,0.58 1.43,0.58 0.39,0 0.79,-0.03 1.2,-0.05 0.58,-0.03 1.13,-0.05 1.77,-0.07 l 1.02,-0.03 c 0.54,-0.02 1.15,-0.04 1.82,-0.04 8.35,0 14.39,3.27 17.94,9.73 3.44,6.25 5.31,17.49 6.95,27.4 0.57,3.41 1.1,6.64 1.6,8.98 0.81,3.76 3.83,9.58 6.49,14.72 2.9,5.6 5.64,10.88 6.82,15.47 l 0.59,2.26 c 2.27,8.68 4.84,18.52 3.76,25.57 -0.34,2.23 -1.81,6.27 -7.81,8.3 -3.09,1.04 -6.69,1.26 -9.16,1.26 -3.78,0 -7.59,-0.46 -11.11,-1.31 v 10.12 c 0,1.78 -0.69,3.4 -1.81,4.6 1.12,8.43 -1.94,13.13 -4.85,15.64 -2.88,2.5 -6.42,3.82 -10.22,3.82 z M 140.11,135.58 c 0.25,0.02 0.73,0.06 1.54,0.06 0.2,0 0.4,0 0.61,-0.01 v -2.18 c -1.32,-0.28 -2.81,-0.62 -4.42,-1 0.39,0.92 0.71,1.78 0.97,2.52 0.37,0.18 0.8,0.38 1.3,0.61 z"
           class="st2"
           id="path1"
           style="fill:#ffffff" />
        <path
           d="m 150.63,12.58 c 17.54,0 34.23,4.76 41.08,9.92 2.9,1.98 5.22,5.8 5.87,6.95 1.15,-0.06 5.11,-0.24 10.01,-0.24 6.34,0 14.26,0.3 19.79,1.56 10.53,2.39 28.25,16.62 32.69,26.24 4.66,10.09 4.66,16.77 4.66,18.96 0,0.71 -0.3,1.07 -0.56,1.25 -0.23,0.16 -0.52,0.24 -0.86,0.24 -1.3,0 -3.39,-1.09 -6.35,-2.71 -1.86,-1.01 -3.79,-2.06 -5.16,-2.5 -1.08,-0.34 -2.15,-0.52 -3.23,-0.52 -2.84,0 -5.74,1.2 -8.92,3.65 -2,1.54 -3.62,3.63 -5.19,5.66 -1.98,2.55 -3.84,4.97 -6.27,6 -2.35,1 -10.92,2.83 -14.49,2.83 -0.21,0 -0.41,-0.01 -0.58,-0.02 0,0.04 -0.01,0.09 -0.01,0.13 -0.5,8.83 -3.25,15.49 -8.16,19.81 -2.42,2.13 -4.9,4.51 -7.3,6.81 -6.23,5.98 -12.11,11.62 -16.49,12.46 -0.5,0.1 -1.1,0.18 -1.74,0.26 -1.07,4.4 -3.52,14.89 -3.52,16.69 0.21,0.27 0.91,0.34 1.71,0.34 0.48,0 1,-0.02 1.47,-0.05 0.68,-0.03 1.4,-0.07 2.13,-0.07 1.92,0 3.92,0.24 5.36,1.41 2,1.62 3.6,1.93 5.26,1.93 0.51,0 1.03,-0.03 1.56,-0.06 0.82,-0.05 1.53,-0.05 2.63,-0.09 0.47,-0.02 1.02,-0.03 1.62,-0.03 3.68,0 9.36,0.66 12.62,6.58 2.94,5.34 4.79,16.49 6.28,25.46 0.58,3.49 1.13,6.79 1.66,9.26 0.98,4.56 4.06,10.5 7.03,16.24 2.74,5.28 5.32,10.27 6.33,14.19 l 0.59,2.27 c 2.02,7.71 4.52,17.31 3.63,23.11 -0.24,1.54 -1.5,2.7 -3.75,3.46 -1.85,0.63 -4.39,0.94 -7.22,0.94 -5.69,0 -12.53,-1.3 -17.18,-3.96 v 18.86 c 0,0.36 -0.26,0.64 -0.57,0.64 -0.07,0 -0.13,-0.02 -0.19,-0.04 -0.22,0.64 -0.64,1.71 -1.31,2.93 0.96,4.65 0.73,9.34 -2.47,12.1 -1.8,1.55 -3.94,2.34 -6.28,2.34 -0.56,0 -1.14,-0.05 -1.72,-0.14 -4.23,-0.68 -8.05,-3.62 -10.16,-6.35 -6.95,0.44 -14.01,0.53 -16.06,0.58 -0.04,0 -0.08,0 -0.13,0 -3.52,0 -19.7,-2.69 -28.13,-4.93 -1,-0.2 -2.05,-0.53 -3.1,-0.93 -0.06,-0.02 -0.13,-0.04 -0.19,-0.07 -5.66,-2.07 -14.71,-7.92 -16.89,-9.36 -0.1,0.19 -0.28,0.32 -0.49,0.32 -0.32,0 -0.57,-0.29 -0.57,-0.64 v -11.19 c -0.96,0.25 -1.93,0.49 -2.9,0.72 -3.11,0.73 -5.45,1.04 -7.24,1.04 0,0 0,0 0,0 -4.33,0 -5.44,-1.86 -6.32,-4.33 -1.15,-3.22 -2.26,-19.57 -1.02,-24.23 1.09,-4.11 3.86,-21.76 3.28,-30.66 -0.62,-9.58 0.92,-25.35 5.06,-36.97 3.27,-9.16 8.37,-11.35 10.93,-11.86 -0.3,-0.31 -0.58,-0.66 -0.82,-1.05 -4.13,-6.77 -5.97,-11.14 -5.46,-13 0.14,-0.49 0.43,-0.85 0.84,-1.03 0.4,-0.17 0.87,-0.44 1.4,-0.73 1.68,-0.93 3.91,-2.17 6.34,-2.17 1.33,0 2.72,0.37 4.11,1.37 3.21,2.31 4.76,6.66 5.69,9.26 0.28,0.79 0.6,1.69 0.76,1.86 0.79,0.43 1.94,1.08 4.07,2.03 0.63,0.28 1.99,0.38 3.57,0.38 2.3,0 5.06,-0.21 6.69,-0.37 V 128.4 c -0.66,-0.11 -1.32,-0.22 -1.96,-0.34 -11.2,-2.14 -25.62,-6.3 -29.37,-9.28 -3.08,-2.44 -10.97,-10.31 -12.86,-12.2 -2.01,2.12 -11.25,11.34 -21.03,12.95 -1.83,0.3 -3.55,0.42 -5.18,0.42 -4.2,0 -7.74,-0.82 -10.76,-1.52 -2.12,-0.49 -4.01,-0.93 -5.6,-0.93 -0.4,0 -0.78,0.03 -1.14,0.09 -4.57,0.78 -16.3,8.33 -18.46,11.05 -1.23,1.55 -2.16,2.27 -2.94,2.27 -0.12,0 -0.24,-0.02 -0.35,-0.05 -0.91,-0.26 -1.25,-1.46 -1.43,-2.34 -0.28,-1.22 -5.95,-26.24 3.23,-42.65 8.44,-15.08 23.66,-31.56 41.15,-32.78 0.88,-2.11 2.11,-3.53 3.67,-4.22 0.78,-0.35 1.55,-0.47 2.23,-0.47 0.89,0 1.63,0.2 2.08,0.36 2.21,-3.46 18.41,-27.8 40.05,-33.64 6.73,-1.77 13.91,-2.54 20.95,-2.54 m -19.34,207.51 c -0.07,-0.29 -0.15,-0.59 -0.22,-0.9 -0.02,0.31 -0.04,0.58 -0.05,0.79 0.09,0.04 0.18,0.08 0.27,0.11 M 150.63,0.43 c 0,0 0,0 0,0 -8.62,0 -16.73,1.01 -24.11,3 -20.53,5.54 -36.21,23.68 -43.39,33.42 -0.93,0.24 -1.85,0.56 -2.74,0.95 -1.72,0.76 -3.8,2.02 -5.76,4.08 -24.56,5.25 -40.26,30.1 -44.74,38.09 -11.1,19.83 -5.37,47.35 -4.5,51.18 1.72,8.15 7.43,10.68 9.87,11.4 v 0 c 1.23,0.36 2.5,0.54 3.78,0.54 6.58,0 10.6,-4.55 12.18,-6.52 1.89,-1.71 8,-5.55 10.92,-6.79 0.68,0.13 1.6,0.35 2.29,0.5 3.35,0.77 7.92,1.83 13.5,1.83 2.39,0 4.79,-0.2 7.15,-0.59 7.08,-1.16 13.52,-4.72 18.58,-8.41 0.32,0.3 0.63,0.6 0.95,0.89 -0.64,1.06 -1.14,2.23 -1.48,3.46 -1.17,4.26 -0.3,8.67 1.98,13.73 -2.38,2.78 -4.62,6.47 -6.36,11.34 -4.92,13.78 -6.42,31.35 -5.74,41.84 0.45,6.98 -1.99,23.32 -2.9,26.77 -1.94,7.33 -0.55,26.17 1.33,31.43 3.32,9.3 10.24,11.94 16.04,12.34 1,4.72 4.59,8.48 9.2,9.71 4.42,2.79 11.22,6.81 16.46,8.73 0.07,0.03 0.14,0.05 0.21,0.08 1.55,0.59 3.02,1.03 4.45,1.34 8.43,2.2 25.61,5.25 30.92,5.25 0.14,0 0.27,0 0.39,0 l 0.88,-0.02 c 1.97,-0.04 5.83,-0.11 10.2,-0.3 3.84,3.09 8.38,5.2 12.96,5.93 1.22,0.19 2.44,0.29 3.64,0.29 5.28,0 10.19,-1.83 14.21,-5.29 3.11,-2.67 7.73,-8.41 7.14,-18.59 1.04,-1.85 1.63,-3.99 1.63,-6.26 v -2.98 c 1.67,0.16 3.35,0.24 5.03,0.24 4.26,0 7.99,-0.53 11.11,-1.58 9.38,-3.17 11.43,-10.24 11.88,-13.13 1.28,-8.29 -1.47,-18.78 -3.89,-28.03 l -0.59,-2.26 c -1.35,-5.23 -4.24,-10.81 -7.31,-16.72 -2.36,-4.56 -5.3,-10.24 -5.94,-13.21 -0.47,-2.2 -1,-5.35 -1.55,-8.69 -2.08,-12.57 -3.97,-22.71 -7.62,-29.34 -3.24,-5.87 -9.9,-12.87 -23.26,-12.87 -0.74,0 -1.42,0.02 -2.01,0.04 -0.37,0.01 -0.68,0.02 -0.97,0.03 -0.49,0.01 -1,0.02 -1.56,0.05 -0.17,-0.12 -0.35,-0.23 -0.52,-0.34 4.42,-2.94 8.76,-7.1 13.49,-11.64 2.31,-2.21 4.68,-4.5 6.91,-6.45 5.25,-4.61 8.86,-10.7 10.77,-18.17 3.72,-0.75 7.28,-1.71 9.21,-2.53 5.34,-2.27 8.55,-6.41 11.13,-9.74 1.05,-1.35 2.23,-2.88 2.99,-3.47 0.66,-0.51 1.14,-0.8 1.45,-0.97 0.75,0.37 1.88,0.98 2.62,1.39 3.96,2.15 7.69,4.19 12.17,4.19 2.84,0 5.55,-0.84 7.82,-2.43 3.61,-2.54 5.75,-6.72 5.75,-11.21 0,-2.85 0,-11.53 -5.77,-24.05 -6.04,-13.1 -26.75,-29.75 -41.03,-33 -5.43,-1.23 -12.99,-1.86 -22.48,-1.86 -1.39,0 -2.71,0.01 -3.92,0.04 -1.38,-1.59 -3.01,-3.16 -4.86,-4.46 -9.9,-7.3 -29.2,-12.2 -48.19,-12.2 z"
           class="st2"
           id="path2"
           style="fill:#ffffff" />
      </g>
      <g
         id="g62">
        <path
           d="m 130.81,258.69 -2.44,-14.65 29.74,-16.32 14.89,-13.25 7.89,1.41 12.13,8.21 14.01,19.95 0.23,5.19 -0.23,16.53 c 0,0 -1.95,7.4 -8.13,9.57 -6.17,2.17 -26.34,2.41 -30.07,2.49 -3.73,0.08 -25.08,-3.56 -31.55,-5.92 -6.48,-2.36 -17.38,-9.68 -17.38,-9.68 z"
           class="st3"
           id="path3"
           style="fill:#e5e0d7" />
        <path
           d="m 159.4,242.69 c 0,0 1.65,-6.65 1.65,-6.64 0,0.01 1,-4.76 1,-4.76 l -0.21,-2.41 7.7,-6.75 6.62,-5.64 5.35,4.38 0.1,9.13 c 0,0 0.29,10.42 0.49,10.87 0.2,0.45 2.03,2.9 2.03,2.9 l 10.48,8.39 6.38,6.76 3.52,7.96 -7.86,7.63 -5.32,7.25 c 0,0 -4.68,-3.2 -5.62,-4.46 -0.93,-1.25 -5.92,-7.19 -7.61,-8.94 -1.69,-1.74 -4.43,-4.46 -9.45,-3.78 -5.02,0.68 -5.59,-0.08 -5.59,-0.08 l -4.59,-20.03 z"
           class="st4"
           id="path4"
           style="fill:#9e2f18" />
        <path
           d="m 134.68,162.39 -4.94,-12.6 2.97,1.47 4.26,1.56 3.12,3.27 8.6,2.57 1.42,1.89 5.48,7.97 4.65,4.97 6.82,3.08 c 0,0 7.89,1.2 9.38,0 1.49,-1.2 2.63,-14.56 2.63,-14.57 0,-0.01 -4.21,-11.17 -4.21,-11.17 l 0.79,-4.2 6.07,0.5 3.3,0.28 3.4,2.08 4.66,0.62 2.9,-0.15 2.08,6.45 6.92,21.16 2.57,15.63 V 205 l -0.46,8.51 -11.42,5.87 -23.45,-5.07 -25.67,10.27 c 0,0 -13.68,-1.13 -14.21,-1.13 -0.53,0 -3.97,-16.25 -3.97,-16.25 l 5.02,-12.87"
           class="st3"
           id="path5"
           style="fill:#e5e0d7" />
        <path
           d="m 119.41,128.67 6.01,11.68 3.95,6.46 9.74,4.24 6.19,7.25 6.59,-0.31 8.13,-2.27 4.66,-8.9 c 0,0 -1.71,-3.04 -2.22,-3.81 -0.52,-0.77 -13.63,-1.21 -13.63,-1.21 l -9.65,0.39 -5.2,-2.07 -4.31,-8.9 c 0,0 -2.22,-3 -5.3,-3.72 -3.11,-0.75 -4.96,1.17 -4.96,1.17 z"
           class="st3"
           id="path6"
           style="fill:#e5e0d7" />
        <path
           d="m 130.7,151.46 c 0,0 2.51,8.63 2.51,9.8 0,1.17 1.29,12.43 1.54,14.24 0.25,1.81 -0.5,12.51 -1.18,15.2 -0.68,2.69 -2.73,7.31 -3.75,7.86 -1.02,0.55 -3.92,3.2 -3.92,3.2 l 0.17,16.69 6.25,2.57 c 0,0 11.19,1.34 13.84,1.09 2.66,-0.25 9.22,-4.83 9.22,-4.83 l -2.4,-1.53 -0.31,-3.46 0.52,-2.82 -1.11,-0.88 -0.79,-3.62 c 0,0 0.64,-7.84 1.71,-9.45 1.07,-1.61 2.71,-2.83 2.71,-2.83 l 0.53,-2.76 c 0,0 3.52,-6.53 6.78,-6.68 3.26,-0.16 12.45,-0.69 14.85,0.46 2.4,1.15 5.42,2.56 6.14,4.01 0.72,1.45 5.27,12.23 5.27,12.39 0,0.16 2.77,11.13 8.78,14.05 6,2.92 9.49,-1.1 9.49,-1.1 v -22.6 c 0,0 -2.86,-17.57 -5.58,-21.98 -2.43,-6.48 -6.31,-18.47 -6.31,-18.47 0,0 5.02,-1.08 9.19,1.43 4.17,2.5 5.29,4.29 7.81,13.09 2.52,8.8 3.39,17.76 3.81,20.16 0.42,2.4 1.57,7.79 1.57,7.79 0,0 3.84,9.26 5.24,11.97 1.4,2.71 7.12,14.92 7.12,14.92 0,0 3.09,10.75 3.16,10.99 0.07,0.24 -1.58,9.41 -1.58,9.41 l -6.75,3.38 -21.43,-6.6 -10.79,-12.47 -13.29,-11.1 -4.31,3.94 -12.26,10.46 -12.34,9.01 -17.95,9.35 -16.64,5.13 c 0,0 -8.57,1.26 -9.06,1.11 -0.49,-0.15 -5.02,-1.11 -5.3,-14.47 -0.28,-13.35 2.3,-20.43 2.44,-22.77 0.14,-2.33 5.02,-33.3 5.02,-33.3 l 6.75,-31.67 6.75,-0.71 z"
           class="st5"
           id="path7"
           style="fill:#ebd0c2" />
        <path
           d="m 38.53,130.26 c 0,0 2.63,-0.75 3.75,-2.85 1.13,-2.1 11.6,-7.95 13.42,-8.76 1.83,-0.82 2.23,-1.5 4.33,-1.64 2.1,-0.14 12.26,2.15 18.32,1.87 6.06,-0.28 12,-2.11 17.91,-6.24 5.91,-4.13 8.07,-6.73 8.07,-6.73 l 5.36,5.29 c 0,0 5.98,6.47 8.82,7.82 2.84,1.35 13.61,5 15.49,5.5 1.88,0.5 15.35,3.69 15.35,3.69 l -0.46,12.82 4.88,3.34 2.6,2.76 2.15,0.3 3.24,-1.33 1.68,0.72 -1.23,3.21 -4.39,4.59 -3.51,2.4 -2.8,1.11 -2.82,0.23 1.85,2.86 c 0,0 5.53,8.65 7.76,10.36 2.22,1.7 9.13,5.92 13.17,5.57 4.05,-0.35 7.68,-0.85 8.92,-5.86 1.24,-5.01 1.92,-9.15 0.11,-14.14 -1.81,-4.99 -5.21,-11.19 -5.21,-11.19 l 2.01,-10.33 1.64,-6.95 c 0,0 6.55,-1.43 8.77,-4.65 2.5,-1.42 3.51,-2.31 3.51,-2.31 l 5.68,-5.98 6.65,-5.6 c 0,0 4.62,-4.89 5.36,-6.34 0.74,-1.45 3.06,-8.55 3.25,-10.18 0.19,-1.62 0.38,-4.13 0.38,-4.13 l 13.36,-2.4 c 0,0 3.1,-1.11 4.01,-1.93 0.91,-0.82 6.41,-9.81 13.46,-12.9 7.05,-3.1 13.89,1.92 15.02,2.52 1.13,0.59 5.53,2.11 5.63,1.63 0.1,-0.48 -0.27,-6.99 -1.17,-10.04 -0.9,-3.04 -3.82,-13.2 -11.74,-19.92 -7.92,-6.72 -15.29,-13.17 -27.18,-15.7 -11.9,-2.53 -26.68,-0.68 -26.68,-0.68 0,0 -4.92,-10.45 -20.22,-13.37 -15.3,-2.92 -24.43,-3.89 -29.51,-3.53 -5.08,0.37 -15.55,1.95 -17.47,2.51 -1.92,0.55 -11.66,4.41 -16.15,7.88 -4.49,3.47 -13.71,12.33 -15.31,14.24 -1.6,1.91 -8.77,11.74 -8.77,11.74 0,0 -2.44,-0.61 -3.26,-0.38 -0.82,0.22 -3.82,2.56 -4.26,4.25 -1.09,-0.16 -6.28,1.27 -6.28,1.27 0,0 -6.86,1.22 -18.85,10.47 C 45.18,74.4 38.24,92.31 37.8,94.05 37.35,95.8 35,112 36.19,117.37 c 1.19,5.36 2.34,12.89 2.34,12.89 z"
           class="st5"
           id="path8"
           style="fill:#ebd0c2" />
        <path
           d="m 81.01,69 c 0,0 -4.3,1.68 -6.03,8.76 -1.72,7.08 -1.22,14.08 3.01,18.98 4.23,4.91 12.49,5.79 13.99,5.31 1.5,-0.48 2.8,-1.85 2.8,-1.85 l -9.04,-16.4 0.04,-6.56 c 0,0 0.41,-4.48 0.33,-5 C 86.03,71.72 84.5,70.07 83.44,69.7 82.38,69.33 81.01,69 81.01,69 Z"
           class="st6"
           id="path9"
           style="fill:#e6a693" />
        <path
           d="m 105.76,82.04 c 0,0 -1.47,-11.83 -0.64,-15.53 0.84,-3.71 4.07,-12.99 9.56,-17.11 5.5,-4.12 8.37,-4.79 14.9,-4.22 6.53,0.58 10.4,6.36 11.98,7.21 1.58,0.85 7.66,9.32 7.77,15.66 0.11,6.34 -0.45,11.63 -0.45,11.63 l -6.24,-0.38 -24.4,0.4 -8.83,1.29 z"
           class="st7"
           id="path10"
           style="fill:#e2e7e6" />
        <path
           d="m 180.32,75.55 c 0,0 -5.11,-10.66 -4.38,-18.3 0.73,-7.64 1.2,-14.76 8.1,-18.36 6.9,-3.6 11.36,-4.62 16.2,-1.78 4.84,2.84 7.42,8.07 7.56,10.81 0.14,2.74 0.65,8.97 0.33,10.68 -0.33,1.71 -1.61,2.36 -1.61,2.36 l -9.84,4.82 -12.06,6.76 z"
           class="st7"
           id="path11"
           style="fill:#e2e7e6" />
        <path
           d="m 116.04,80.02 c 0,0 -2.84,-10.54 -2.26,-14.29 0.57,-3.75 2.01,-8.47 4.5,-10.94 2.49,-2.47 9.47,-6.54 13.44,-4.75 3.97,1.8 9.62,4.21 11.24,12.15 1.62,7.94 -0.53,12.92 -0.77,13.78 -0.24,0.86 -1.9,3.36 -1.9,3.36 l -16.28,0.28 z"
           class="st8"
           id="path12"
           style="fill:#999c6b" />
        <path
           d="m 176.4,55.8 c 0,0 -0.57,-6.81 3.78,-10.97 4.35,-4.16 10.57,-5.34 13.16,-3.67 2.58,1.66 6.36,4.13 7.37,7.94 1.01,3.81 1.77,9.76 -0.24,14.64 -2.85,2.31 -10.27,5.67 -10.27,5.67 l -9.01,6.14 -2.06,-1.01 c -0.01,0.01 -3.59,-12.62 -2.73,-18.74 z"
           class="st8"
           id="path13"
           style="fill:#999c6b" />
        <path
           d="m 152.97,101.67 c 0,0 10.7,1.71 11.89,1.85 1.19,0.14 7.38,0.53 9.36,0 1.97,-0.53 12.09,-6.57 12.09,-6.57 l 2.8,-1.81 -1.22,2.96 -8.04,9.31 -6.6,2.32 -7.53,-0.5 -7.59,-4.01 z"
           class="st9"
           id="path14"
           style="fill:#fff2ef" />
        <path
           d="m 85.51,81.63 c 0,0 -3.71,2.98 -3.13,7.72 0.57,4.75 4.16,11.42 7.53,11.66 3.37,0.24 4.88,-0.8 4.88,-0.8 0,0 0.39,-3.78 0,-5.55 C 94.4,92.89 93.3,90.03 92.15,89.17 91,88.31 88.02,86.64 87.47,86.07 86.92,85.5 86.11,84.82 85.86,84.36 85.61,83.9 85.51,81.63 85.51,81.63 Z"
           class="st10"
           id="path15"
           style="fill:#d97c65" />
        <path
           d="m 214.58,63.33 c -0.14,-0.3 -2.82,-13.05 0,-19.17 2.82,-6.11 21.57,-2.63 21.57,-2.63 l -6.03,-1.41 c 0,0 -8.67,-1.14 -10.59,-0.88 -1.92,0.26 -4.95,0.94 -5.85,1.61 -0.9,0.67 -2.76,2.12 -3.18,5.11 -0.43,2.99 1.25,10.2 1.34,10.48 0.09,0.3 2.74,6.89 2.74,6.89 z"
           class="st10"
           id="path16"
           style="fill:#d97c65" />
        <path
           d="m 104.87,31.13 c 0,0 -0.83,6.09 0.46,11.08 1.29,4.99 10.48,6.11 10.48,6.11 l -6.39,6.52 -3.64,8.6 c 0,0 -1.28,9.3 -0.93,11.21 0.35,1.91 0.91,7.39 0.91,7.39 0,0 -1.17,2.99 2.27,12.11 3.44,9.12 -9.09,-3.11 -10.72,-5.79 -1.63,-2.68 -7.37,-18.02 -5.36,-28.37 2.02,-10.35 7.46,-24.01 12.92,-28.86 z"
           class="st6"
           id="path17"
           style="fill:#e6a693" />
        <path
           d="m 153.31,144.36 c 0,0 15.84,-0.9 24.56,-15.58 -5.06,-0.11 -9.37,0.38 -9.37,0.38 l -11.14,-0.4 -8.47,-0.95 v 13.2 l 1.11,1.21 1.52,1.36 z"
           class="st6"
           id="path18"
           style="fill:#e6a693" />
        <path
           d="m 131.09,153.02 c 0,0 -11.76,0.76 -14.35,11.06 -2.58,10.3 -0.72,35.56 -2.15,41.19 -1.44,5.63 -5.02,18.98 -5.02,23.81 0,4.83 0.73,10.3 5.75,10.78 5.01,0.48 22.14,-1.29 28.22,-4.83 6.08,-3.54 18.12,-10.36 19.85,-12.9 1.73,-2.54 9.62,-3.67 9.62,-3.67 0,0 -7.93,7.13 -8.22,7.39 -0.29,0.26 -17.9,12.79 -19.56,13.88 -1.66,1.09 -16.57,8.34 -20.33,9.08 -3.76,0.74 -13.49,4.97 -17.7,3.18 -4.22,-1.8 -4.47,-8.96 -4.65,-13.38 -0.18,-4.42 -0.72,-10.54 -0.14,-14.2 0.57,-3.66 1.53,-9.79 2.02,-11.63 0.49,-1.84 1.72,-14.55 1.36,-16.64 -0.37,-2.09 0.31,-17.86 0.74,-20.87 0.43,-3.01 4.1,-18.59 5,-20.43 0.89,-1.84 4.68,-6.76 6.84,-8.35 2.16,-1.59 3.88,-1.23 3.88,-1.23 l 7.21,3.82 z"
           class="st6"
           id="path19"
           style="fill:#e6a693" />
        <path
           d="m 213.52,238.57 c 0,0 14.93,4.18 17.13,1.29 2.2,-2.9 2.37,-10.7 2.37,-10.7 l 2.35,12.25 c 0,0 0.31,4.95 -1.18,6.63 -1.49,1.68 -10.5,2.62 -14.87,1.79 -4.38,-0.84 -12.68,-3.06 -15.67,-7.16 -2.99,-4.1 -7.97,-12.22 -8.77,-13.09 -0.8,-0.87 -8.47,-6.14 -9.29,-6.6 -0.82,-0.47 -8.58,-6 -9.15,-6.88 -0.57,-0.88 -3.15,-7 -3.8,-7.52 -0.66,-0.52 -1.4,-6.05 4.95,-1.5 6.35,4.55 15.7,14.12 18.08,16.93 2.37,2.82 12.01,12.23 17.85,14.56 z"
           class="st6"
           id="path20"
           style="fill:#e6a693" />
        <path
           d="m 121.33,127.71 c 0,0 4.18,10.77 6.51,14.52 2.33,3.75 2.01,2.54 5.41,4.58 3.4,2.04 5.69,0.4 7.61,3.21 1.91,2.8 3.25,5.8 4.88,6.45 1.63,0.65 2.15,1.83 2.15,1.83 l -5.02,-1.18 -4.27,-2.51 -2.67,-2.26 -3.82,-1.3 -3.17,-2.47 -4.72,-2.51 -2.87,-1.96 -3.7,-6.29 -2.32,-7.09 z"
           class="st11"
           id="path21"
           style="fill:#a6a7b1" />
        <path
           d="m 130.73,152.16 c 0,0 7.02,10.52 8.38,20.28 1.36,9.76 -0.75,26.71 -4.19,31 -3.44,4.29 -3.95,17.04 -3.95,17.04 l -4.9,-2.02 -0.17,-16.69 c 0,0 4.2,-3.21 5.7,-5.86 1.5,-2.65 2.59,-12.52 2.76,-18.21 0.17,-5.68 -1.54,-17.7 -2.26,-18.98 -0.72,-1.29 -1.37,-6.56 -1.37,-6.56 z"
           class="st11"
           id="path22"
           style="fill:#a6a7b1" />
        <path
           d="m 132.1,246.09 c 0,0 2.24,17.2 12.67,26.64 -4.78,2.04 -14.73,-4.4 -16.74,-6.22 -2.01,-1.82 -8.12,-4.29 -8.12,-4.29 v -11.97 z"
           class="st11"
           id="path23"
           style="fill:#a6a7b1" />
        <path
           d="m 141.19,241.84 c 0,0 -1.01,11.91 3.58,20.38 4.59,8.47 11.67,13.41 16.17,14.16 4.5,0.75 13.97,0 13.97,0 0,0 1.53,-10.47 -3.92,-11.46 -5.45,-0.98 -7.27,0.09 -7.27,0.09 l -4.22,-5.73 c 0,0 -1.04,-7.78 -4.87,-11.54 -3.83,-3.75 -11.1,-7.08 -11.1,-7.08 z"
           class="st11"
           id="path24"
           style="fill:#a6a7b1" />
        <path
           d="m 181.51,226.29 c 0,0 6.65,9.65 12.52,14.37 5.86,4.72 13.01,7.08 13.01,7.08 l -0.54,-2.15 -4.87,-5.63 -5.94,-9.4 c 0,0 -6.51,-5.44 -9.38,-7.14 -2.87,-1.7 -4.79,-3.12 -4.79,-3.12 v 5.99 z"
           class="st11"
           id="path25"
           style="fill:#a6a7b1" />
        <path
           d="m 158.76,243.95 c 0,0 5.02,3.19 7.21,8.21 2.19,5.03 0.65,12.95 0.65,12.95 0,0 -2.22,0.4 -3.16,-0.24 -0.93,-0.64 -3.77,-4.87 -4.7,-8.08 -0.94,-3.22 -0.41,-11.19 0,-12.84 z"
           class="st12"
           id="path26"
           style="fill:#d69a41" />
        <path
           d="m 189.55,280.69 c 0,0 3.18,-10.91 14.41,-14.93 1.51,5.95 1.95,9.76 0.95,11.77 -1,2.01 -3.07,4.72 -5.51,5.57 -2.43,0.84 -9.52,-1.47 -9.85,-2.41 z"
           class="st12"
           id="path27"
           style="fill:#d69a41" />
        <polygon
           points="182.29,272.71 198.02,255.79 200.35,257.96 184.39,275.49 "
           class="st12"
           id="polygon27"
           style="fill:#d69a41" />
        <polygon
           points="178.53,268.76 176.24,266.8 192.41,250.55 194.27,252.12 "
           class="st12"
           id="polygon28"
           style="fill:#d69a41" />
        <polygon
           points="169.54,264.69 188.4,247.16 189.55,248.49 170.99,264.92 "
           class="st12"
           id="polygon29"
           style="fill:#d69a41" />
        <path
           d="m 167.45,256.43 16.08,-13.74 1.72,1.83 -17.28,13.89 c 0.01,0 0.27,0.09 -0.52,-1.98 z"
           class="st12"
           id="path29"
           style="fill:#d69a41" />
        <path
           d="m 164.53,248.01 17.24,-13.57 0.13,2.52 -16.17,12.49 c 0,0.01 0.24,0.11 -1.2,-1.44 z"
           class="st12"
           id="path30"
           style="fill:#d69a41" />
        <polygon
           points="159.06,242.69 181.51,228.7 181.51,227.15 159.35,241.62 "
           class="st12"
           id="polygon30"
           style="fill:#d69a41" />
        <path
           d="m 37.81,128.36 c 0,0 -6.03,-25.74 3.16,-42.15 9.19,-16.41 24.4,-31.53 41.05,-32.5 2.58,-6.76 7.82,-4.18 7.82,-4.18 0,0 16.72,-27.51 39.97,-33.79 23.25,-6.28 51.95,0 61.57,7.24 3.3,2.25 5.88,7.08 5.88,7.08 0,0 19.37,-1.13 29.99,1.29 10.62,2.41 27.99,16.57 32.29,25.9 4.31,9.33 4.59,15.61 4.59,18.66 0,3.06 -8.18,-3.06 -12.2,-4.34 -4.02,-1.29 -8.04,-0.32 -12.63,3.22 -4.59,3.54 -7.18,9.81 -11.34,11.58 -4.16,1.77 -15.07,3.22 -15.36,2.74 -0.29,-0.48 0.57,12.55 -8.04,20.11 -8.61,7.56 -17.65,18.02 -23.54,19.15 -5.88,1.13 -22.82,1.29 -34.59,-0.97 -11.77,-2.25 -25.69,-6.44 -29.13,-9.17 -3.44,-2.74 -13.2,-12.55 -13.2,-12.55 0,0 -10.33,11.42 -21.1,13.19 -10.77,1.77 -17.94,-2.74 -22.68,-1.93 -4.74,0.8 -16.5,8.37 -18.8,11.26 -2.28,2.9 -3.24,2.53 -3.71,0.16 z"
           class="st13"
           id="path31"
           style="fill:none;stroke:#000000;stroke-width:1.2156;stroke-linecap:round;stroke-linejoin:round;stroke-miterlimit:10" />
        <g
           id="g32">
          <path
             d="m 37.81,114.53 c 0.61,-8.91 3.28,-17.75 8,-25.44 2.35,-3.85 5.33,-7.31 8.75,-10.27 L 57.21,76.7 60,74.8 c 1.9,-1.21 3.84,-2.36 5.88,-3.35 4.06,-1.94 8.53,-3.35 13.16,-3.19 0.58,0.04 1.15,0.05 1.72,0.17 l 0.86,0.14 c 0.28,0.06 0.56,0.15 0.84,0.23 1.12,0.32 2.22,0.78 3.18,1.58 0.24,0.21 0.46,0.44 0.66,0.73 0.09,0.17 0.2,0.35 0.24,0.52 0.03,0.17 0.06,0.34 0.08,0.5 0.04,0.61 0.02,1.19 -0.02,1.75 -0.09,1.13 -0.23,2.24 -0.35,3.35 -0.13,1.11 -0.24,2.21 -0.3,3.31 -0.05,1.09 -0.08,2.22 0.18,3.19 0.25,0.89 1.24,1.58 2.1,2.21 0.9,0.64 1.85,1.25 2.74,1.96 0.88,0.71 1.7,1.54 2.33,2.49 0.64,0.96 1.05,2.03 1.33,3.13 0.54,2.2 0.55,4.49 0.15,6.69 0.26,-2.21 0.14,-4.48 -0.46,-6.6 -0.31,-1.06 -0.76,-2.07 -1.4,-2.95 -0.64,-0.88 -1.44,-1.63 -2.32,-2.28 -0.88,-0.66 -1.82,-1.24 -2.76,-1.87 -0.47,-0.32 -0.93,-0.65 -1.38,-1.03 -0.43,-0.39 -0.86,-0.87 -1.07,-1.5 -0.34,-1.18 -0.32,-2.33 -0.3,-3.46 0.03,-1.13 0.12,-2.25 0.22,-3.37 0.1,-1.11 0.2,-2.22 0.26,-3.32 0.03,-0.55 0.04,-1.09 0.01,-1.59 l -0.06,-0.33 c -0.03,-0.1 -0.09,-0.15 -0.12,-0.23 -0.11,-0.15 -0.28,-0.34 -0.46,-0.49 -0.76,-0.64 -1.77,-1.07 -2.79,-1.34 -0.26,-0.07 -0.51,-0.15 -0.77,-0.2 l -0.8,-0.13 c -0.53,-0.11 -1.07,-0.11 -1.61,-0.14 -4.34,-0.12 -8.65,1.26 -12.59,3.18 -1.99,0.94 -3.91,2.05 -5.78,3.22 l -2.76,1.85 -2.59,2.05 c -3.37,2.84 -6.25,6.23 -8.68,9.93 -2.42,3.7 -4.32,7.75 -5.76,11.95 -1.44,4.18 -2.49,8.53 -3,12.97 z"
             id="path32" />
        </g>
        <g
           id="g33">
          <path
             d="m 74.98,103.75 c -2.54,-2.04 -4.77,-4.52 -6.41,-7.41 -0.82,-1.44 -1.45,-3.02 -1.77,-4.7 -0.31,-1.7 -0.22,-3.37 -0.05,-5.02 0.39,-3.3 1.35,-6.49 2.69,-9.5 1.37,-2.98 3.11,-5.86 5.53,-8.06 -1.03,1.26 -1.91,2.62 -2.65,4.05 -0.76,1.42 -1.42,2.88 -2.01,4.38 -1.13,3 -2.01,6.11 -2.36,9.27 -0.18,1.57 -0.26,3.18 -0.03,4.69 0.23,1.53 0.79,3.02 1.47,4.45 0.7,1.42 1.55,2.79 2.49,4.1 0.95,1.32 2,2.55 3.1,3.75 z"
             id="path33" />
        </g>
        <path
           d="m 212.61,89.11 c 0,0 5.88,-10.78 4.88,-15.77 -1,-4.99 -7.75,-13.35 -7.75,-13.35"
           class="st13"
           id="path34"
           style="fill:none;stroke:#000000;stroke-width:1.2156;stroke-linecap:round;stroke-linejoin:round;stroke-miterlimit:10" />
        <g
           id="g35">
          <path
             d="m 245.76,45.99 c -0.49,-0.38 -1.08,-0.61 -1.64,-0.87 -0.57,-0.26 -1.14,-0.5 -1.71,-0.74 -1.15,-0.47 -2.32,-0.9 -3.5,-1.3 -2.34,-0.82 -4.72,-1.54 -7.14,-2.08 -2.41,-0.54 -4.85,-0.99 -7.3,-1.16 -2.44,-0.18 -4.91,-0.15 -7.27,0.38 -1.18,0.26 -2.34,0.58 -3.29,1.2 -0.96,0.61 -1.72,1.5 -2.21,2.54 -1,2.11 -0.95,4.64 -0.68,7.05 0.29,2.43 0.95,4.83 1.73,7.19 0.76,2.37 1.71,4.67 2.74,6.94 -2.49,-4.32 -4.51,-8.99 -5.4,-13.99 -0.41,-2.48 -0.52,-5.17 0.57,-7.67 0.55,-1.23 1.47,-2.32 2.61,-3.05 1.15,-0.75 2.44,-1.11 3.68,-1.39 5.08,-1.02 10.22,-0.24 15.05,1.07 2.43,0.67 4.8,1.49 7.12,2.43 1.15,0.49 2.3,1.01 3.42,1.56 1.1,0.56 2.26,1.09 3.22,1.89 z"
             id="path35" />
        </g>
        <g
           id="g36">
          <path
             d="m 230.12,65.14 c -0.65,-2.58 -0.97,-5.2 -1.7,-7.71 -0.71,-2.5 -1.59,-4.97 -3.05,-7.04 -0.67,-1.08 -1.59,-1.95 -2.55,-2.74 -1.04,-0.79 -2.12,-1.55 -3.18,-2.31 -2.15,-1.51 -4.35,-2.88 -6.86,-3.79 1.29,0.26 2.6,0.59 3.83,1.13 1.23,0.53 2.41,1.18 3.55,1.86 1.15,0.68 2.24,1.42 3.34,2.18 0.52,0.45 1.12,0.84 1.56,1.38 l 0.7,0.77 0.61,0.84 c 1.57,2.28 2.43,4.9 2.97,7.51 0.27,1.31 0.45,2.64 0.55,3.96 0.11,1.32 0.09,2.65 0.23,3.96 z"
             id="path36" />
        </g>
        <path
           d="m 157.07,81.22 c 0,0 -4.59,4.67 -1.87,8.69 2.73,4.02 5.45,0.75 7.61,1.74 2.15,0.99 8.04,6.62 12.06,5.34 4.02,-1.29 3.73,-8.69 6.03,-9.17 2.3,-0.48 1,-5.31 0,-7.08 -1,-1.77 -5.17,-4.34 -5.17,-4.34"
           class="st13"
           id="path37"
           style="fill:none;stroke:#000000;stroke-width:1.2156;stroke-linecap:round;stroke-linejoin:round;stroke-miterlimit:10" />
        <path
           d="m 147.89,100.69 c 0,0 1.46,0.3 3.7,0.72 6.25,1.18 18.62,3.28 22.42,2.33 5.17,-1.29 15.07,-8.53 16.36,-10.14 -2.3,5.19 -7.75,12.23 -12.06,14.48 -4.31,2.25 -12.92,2.41 -17.51,-0.97 -4.59,-3.38 -8.08,-5.43 -8.56,-5.59"
           class="st13"
           id="path38"
           style="fill:none;stroke:#000000;stroke-width:1.2156;stroke-linecap:round;stroke-linejoin:round;stroke-miterlimit:10" />
        <g
           id="g39">
          <path
             d="m 141.57,104.55 c 1.19,-2.72 2.77,-5.21 4.49,-7.6 0.88,-1.18 1.8,-2.34 2.82,-3.42 1.02,-1.07 2.12,-2.13 3.45,-2.82 -1.01,1.08 -1.85,2.26 -2.72,3.42 l -2.57,3.53 c -1.73,2.35 -3.47,4.69 -5.47,6.89 z"
             id="path39" />
        </g>
        <g
           id="g40">
          <path
             d="m 200.99,91.65 c 0.65,0.19 1.22,0.53 1.74,0.91 0.53,0.38 0.99,0.84 1.41,1.35 0.4,0.52 0.77,1.08 0.99,1.72 0.23,0.63 0.35,1.34 0.17,2 -0.33,-0.59 -0.66,-1.07 -1.01,-1.56 -0.35,-0.48 -0.72,-0.94 -1.1,-1.4 -0.74,-0.95 -1.53,-1.86 -2.2,-3.02 z"
             id="path40" />
        </g>
        <g
           id="g41">
          <path
             d="m 133.25,101.67 c -0.73,1.45 -1.6,2.7 -2.37,3.99 -0.4,0.63 -0.77,1.28 -1.11,1.94 -0.33,0.67 -0.63,1.33 -0.83,2.13 -0.31,-0.77 -0.26,-1.65 -0.06,-2.45 0.18,-0.81 0.55,-1.56 0.96,-2.25 0.43,-0.69 0.92,-1.33 1.49,-1.89 0.57,-0.57 1.19,-1.09 1.92,-1.47 z"
             id="path41" />
        </g>
        <g
           id="g42">
          <path
             d="m 140.57,24.27 c 1.29,-1.44 2.86,-2.61 4.53,-3.59 1.68,-0.98 3.5,-1.73 5.39,-2.25 1.89,-0.52 3.87,-0.69 5.82,-0.61 1.96,0.05 3.87,0.59 5.64,1.29 -1.92,-0.22 -3.78,-0.47 -5.65,-0.34 -1.86,0.11 -3.71,0.32 -5.5,0.83 -3.6,0.97 -7.01,2.59 -10.23,4.67 z"
             id="path42" />
        </g>
        <g
           id="g43">
          <path
             d="m 133.25,22.66 c 0.69,-0.83 1.34,-1.71 2.13,-2.46 0.77,-0.77 1.64,-1.46 2.56,-2.06 0.94,-0.58 1.94,-1.1 3.04,-1.37 1.08,-0.28 2.25,-0.36 3.31,-0.06 -2.15,0.41 -3.95,1.32 -5.7,2.46 -0.88,0.55 -1.74,1.16 -2.61,1.76 -0.87,0.59 -1.71,1.28 -2.73,1.73 z"
             id="path43" />
        </g>
        <g
           id="g44">
          <path
             d="m 137.84,32.8 c 1.01,-0.93 2.2,-1.67 3.5,-2.2 1.29,-0.52 2.75,-0.86 4.28,-0.54 0.75,0.18 1.48,0.57 2.03,1.13 0.55,0.57 0.9,1.25 1.11,1.95 0.43,1.4 0.39,2.82 0.13,4.16 -0.24,-1.35 -0.49,-2.68 -1.02,-3.82 -0.51,-1.15 -1.38,-2 -2.53,-2.23 -1.14,-0.28 -2.44,-0.06 -3.7,0.25 -1.27,0.33 -2.52,0.79 -3.8,1.3 z"
             id="path44" />
        </g>
        <g
           id="g45">
          <path
             d="m 161.38,33.91 c -0.55,-1.14 -0.85,-2.42 -0.81,-3.75 0.02,-0.66 0.16,-1.35 0.45,-2 0.3,-0.65 0.82,-1.24 1.46,-1.61 1.33,-0.71 2.78,-0.61 4.02,-0.3 1.26,0.32 2.42,0.86 3.48,1.55 -1.25,-0.23 -2.45,-0.5 -3.64,-0.62 -0.59,-0.05 -1.18,-0.09 -1.74,-0.02 -0.56,0.05 -1.09,0.17 -1.52,0.44 -0.89,0.48 -1.37,1.51 -1.58,2.65 -0.2,1.17 -0.19,2.4 -0.12,3.66 z"
             id="path45" />
        </g>
        <g
           id="g46">
          <path
             d="m 128.42,43.31 c 1.07,-0.44 2.1,-0.93 3.13,-1.38 1.03,-0.47 2.06,-0.91 3.07,-1.4 2.04,-0.95 3.98,-1.97 5.95,-3.22 -0.64,0.98 -1.5,1.81 -2.43,2.52 -0.93,0.72 -1.96,1.29 -3,1.8 -1.06,0.49 -2.15,0.9 -3.27,1.2 -1.12,0.28 -2.27,0.53 -3.45,0.48 z"
             id="path46" />
        </g>
        <g
           id="g47">
          <path
             d="m 169.08,31.72 c 1.14,0.64 2.31,1.12 3.49,1.55 1.19,0.41 2.39,0.75 3.61,1.03 1.22,0.29 2.46,0.48 3.72,0.67 l 1.9,0.25 c 0.64,0.08 1.28,0.13 1.93,0.26 -0.64,0.15 -1.28,0.25 -1.93,0.34 -0.65,0.04 -1.31,0.11 -1.96,0.1 -1.31,0 -2.63,-0.15 -3.92,-0.43 -1.28,-0.31 -2.55,-0.73 -3.72,-1.35 -1.18,-0.62 -2.3,-1.38 -3.12,-2.42 z"
             id="path47" />
        </g>
        <path
           d="m 148.89,127.82 v 14.06 c 0,0 -8.9,0.97 -11.05,0 -2.15,-0.97 -3.3,-1.61 -4.16,-2.09 -0.86,-0.48 -2.01,-7.91 -6.46,-11.11 -4.45,-3.2 -9.04,0.59 -11.34,1.59 -2.3,1 3.01,10.01 4.88,13.07 2.27,3.71 7.63,3.16 9.45,6.89 0.56,1.14 0.81,2.44 1.05,3.72 1.14,6.04 2.65,12.13 2.99,18.28 0.39,7.03 0.48,15.69 -2.06,22.28 -1.2,3.11 -3.4,5.91 -6.3,6.86 0.1,5.7 0.13,11.41 0.18,17.11"
           class="st13"
           id="path48"
           style="fill:none;stroke:#000000;stroke-width:1.2156;stroke-linecap:round;stroke-linejoin:round;stroke-miterlimit:10" />
        <path
           d="m 178.94,128.67 c 0,0 -3.64,14.92 -3.64,17.28 0,2.36 7.46,-0.64 10.91,2.15 3.44,2.79 5.93,1.93 8.8,1.93 2.87,0 10.72,-1.07 14.73,6.22 4.02,7.29 5.97,25.74 7.87,34.54 1.89,8.8 11.27,22.31 13.38,30.46 2.1,8.15 5.17,18.88 4.21,25.1 -0.96,6.22 -24.49,4.72 -30.81,-2.79 -6.32,-7.51 -6.89,-12.23 -11.67,-16.09 -4.78,-3.86 -13.2,-6.86 -16.27,-11.37 -3.07,-4.51 -2.1,-6.01 -4.02,-7.72 -1.91,-1.72 -8.42,-1.29 -11.1,1.72 -2.68,3 -4.98,8.15 -7.65,6.44 -2.68,-1.72 0.77,-9.65 1.72,-11.15 0.95,-1.5 1.34,-6.86 9.95,-6.65"
           class="st13"
           id="path49"
           style="fill:none;stroke:#000000;stroke-width:1.2156;stroke-linecap:round;stroke-linejoin:round;stroke-miterlimit:10" />
        <path
           d="m 167.83,191.86 c 0,0 -9.18,-1.93 -13.39,1.72 -4.21,3.65 -2.98,16.66 -1.77,15.87"
           class="st13"
           id="path50"
           style="fill:none;stroke:#000000;stroke-width:1.2156;stroke-linecap:round;stroke-linejoin:round;stroke-miterlimit:10" />
        <path
           d="m 230.98,221.25 c 0,0 -3.25,-5.36 -14.16,-7.08 -10.91,-1.72 -12.25,2.79 -18.75,0 -6.51,-2.79 -12.44,-24.67 -14.54,-26.6 -2.1,-1.93 -4.4,-4.08 -7.27,-4.08 -2.87,0 -12.73,-1.15 -16.17,1.66 -3.44,2.82 -4.82,5.07 -4.24,7.48"
           class="st13"
           id="path51"
           style="fill:none;stroke:#000000;stroke-width:1.2156;stroke-linecap:round;stroke-linejoin:round;stroke-miterlimit:10" />
        <path
           d="m 175.44,146.81 c 0,0 3.59,3.59 5.74,12.92 2.15,9.33 -2.44,16.62 -6.6,17.32 -4.16,0.7 -14.5,-1.07 -20.38,-10.24 -5.31,-8.27 -5.5,-8.15 -5.5,-8.15"
           class="st13"
           id="path52"
           style="fill:none;stroke:#000000;stroke-width:1.2156;stroke-linecap:round;stroke-linejoin:round;stroke-miterlimit:10" />
        <path
           d="m 133.68,139.79 c 0,0 -3.43,2.83 -4.02,9.01 -0.26,2.72 7.43,2.74 8.47,5.15 0.9,2.09 8.18,5.31 13.39,4.18 5.21,-1.13 13.3,-9.49 11.72,-11.58 -1.58,-2.09 -4.88,3.06 -7.52,0 -2.64,-3.06 -6.83,-4.67 -6.83,-4.67"
           class="st13"
           id="path53"
           style="fill:none;stroke:#000000;stroke-width:1.2156;stroke-linecap:round;stroke-linejoin:round;stroke-miterlimit:10" />
        <path
           d="m 139.58,142.23 c 0,0 1.84,7.05 -1.46,11.72"
           class="st13"
           id="path54"
           style="fill:none;stroke:#000000;stroke-width:1.2156;stroke-linecap:round;stroke-linejoin:round;stroke-miterlimit:10" />
        <path
           d="m 122.64,145.24 c 0,0 -7.62,-0.47 -11.92,11.6 -4.31,12.07 -5.6,27.83 -5.02,36.68 0.57,8.85 -2.15,26.55 -3.3,30.89 -1.15,4.34 -0.14,20.59 1,23.81 1.14,3.22 2.58,5.31 12.92,2.9 10.33,-2.41 21.24,-6.27 27.99,-10.78 6.75,-4.5 15.5,-9.81 18.51,-12.71 3.01,-2.9 13.63,-11.53 13.63,-11.53"
           class="st13"
           id="path55"
           style="fill:none;stroke:#000000;stroke-width:1.2156;stroke-linecap:round;stroke-linejoin:round;stroke-miterlimit:10" />
        <path
           d="m 113.01,218.46 c 0,0 9.19,-1.61 16.58,1.61 7.39,3.22 17.29,1.88 19.88,1.18 2.59,-0.7 6.25,-4.63 6.25,-4.63"
           class="st13"
           id="path56"
           style="fill:none;stroke:#000000;stroke-width:1.2156;stroke-linecap:round;stroke-linejoin:round;stroke-miterlimit:10" />
        <line
           x1="119.91"
           x2="119.91"
           y1="250.23"
           y2="262.22"
           class="st13"
           id="line56"
           style="fill:none;stroke:#000000;stroke-width:1.2156;stroke-linecap:round;stroke-linejoin:round;stroke-miterlimit:10" />
        <line
           x1="207.03"
           x2="207.03"
           y1="245.81"
           y2="265.76001"
           class="st13"
           id="line57"
           style="fill:none;stroke:#000000;stroke-width:1.2156;stroke-linecap:round;stroke-linejoin:round;stroke-miterlimit:10" />
        <path
           d="m 195.67,150.02 c 0,0 7.61,20.82 10.34,32.57 2.73,11.74 1.02,31.72 1.02,31.72"
           class="st13"
           id="path57"
           style="fill:none;stroke:#000000;stroke-width:1.2156;stroke-linecap:round;stroke-linejoin:round;stroke-miterlimit:10" />
        <path
           d="m 181.4,220.48 c 0,0 0.21,17.77 0.93,20.5 0.72,2.74 16.22,13.68 18.51,17.7 2.3,4.02 8.04,16.89 1.87,22.2 -6.17,5.31 -14.78,0 -17.94,-4.83 -3.16,-4.83 -7.03,-8.21 -9.9,-10.3 -2.87,-2.09 -10.19,0.64 -12.2,-1.45 -2.01,-2.09 -5.74,-7.88 -4.59,-16.57 1.15,-8.69 4.55,-12.99 4,-19.45"
           class="st13"
           id="path58"
           style="fill:none;stroke:#000000;stroke-width:1.2156;stroke-linecap:round;stroke-linejoin:round;stroke-miterlimit:10" />
        <path
           d="m 106.22,82.03 c -0.79,0.32 -1.32,-6.8 -1.36,-7.38 -0.43,-5.84 0.33,-11.29 2.93,-16.42 4.37,-8.64 12.73,-14.94 21.81,-13.06 8.74,1.82 17.02,10.85 19.32,20.43 0.64,2.66 0.71,5.47 0.55,8.21 -0.04,0.6 -0.06,5.87 -0.57,5.86 -0.01,0 -34.45,-1.07 -42.68,2.36 z"
           class="st13"
           id="path59"
           style="fill:none;stroke:#000000;stroke-width:1.2156;stroke-linecap:round;stroke-linejoin:round;stroke-miterlimit:10" />
        <path
           d="m 116.12,80.23 c 0,0 -6.48,-16.85 1.84,-24.99 10.49,-10.26 21.1,-3.54 24.33,4.67 3.23,8.21 0.5,17.59 -2.23,19.61"
           class="st13"
           id="path60"
           style="fill:none;stroke:#000000;stroke-width:1.2156;stroke-linecap:round;stroke-linejoin:round;stroke-miterlimit:10" />
        <ellipse
           cx="127.87"
           cy="67.389999"
           rx="10.33"
           ry="11.58"
           id="ellipse60" />
        <path
           d="m 178.53,71.71 c -0.04,-0.14 -4.88,-14.06 -1.22,-24.28 3.66,-10.22 14.42,-12.16 18.73,-11.91 4.31,0.25 10.26,5.88 11.77,12.4 1.51,6.52 0,12.39 0,12.39 0,0 -20.81,10.46 -23.61,13.03 -2.8,2.57 -4.23,3.86 -5.67,-1.63 z"
           class="st13"
           id="path61"
           style="fill:none;stroke:#000000;stroke-width:1.2156;stroke-linecap:round;stroke-linejoin:round;stroke-miterlimit:10" />
        <path
           d="m 176.4,52.77 c 1.51,-8.85 11.02,-15.45 18.53,-10.91 3.24,1.96 5.65,5.44 6.65,9.44 1.13,4.56 0.1,8.65 -1.39,12.92"
           class="st13"
           id="path62"
           style="fill:none;stroke:#000000;stroke-width:1.2156;stroke-linecap:round;stroke-linejoin:round;stroke-miterlimit:10" />
        <ellipse
           cx="188.03"
           cy="56.650002"
           rx="9.5799999"
           ry="10.74"
           id="ellipse62" />
      </g>
    </g>
  </g>
</svg>
