<?xml version="1.0" encoding="UTF-8" standalone="no"?>
<!-- Created with Inkscape (http://www.inkscape.org/) -->

<svg
   width="300"
   height="400"
   viewBox="0 0 79.374998 105.83333"
   version="1.1"
   id="svg1"
   inkscape:version="1.3 (0e150ed6c4, 2023-07-21)"
   sodipodi:docname="card_figured_5.svg"
   xmlns:inkscape="http://www.inkscape.org/namespaces/inkscape"
   xmlns:sodipodi="http://sodipodi.sourceforge.net/DTD/sodipodi-0.dtd"
   xmlns="http://www.w3.org/2000/svg"
   xmlns:svg="http://www.w3.org/2000/svg">
  <sodipodi:namedview
     id="namedview1"
     pagecolor="#ffffff"
     bordercolor="#000000"
     borderopacity="0.25"
     inkscape:showpageshadow="2"
     inkscape:pageopacity="0.0"
     inkscape:pagecheckerboard="true"
     inkscape:deskcolor="#d1d1d1"
     inkscape:document-units="px"
     inkscape:zoom="1.4342733"
     inkscape:cx="269.12584"
     inkscape:cy="118.17831"
     inkscape:window-width="1920"
     inkscape:window-height="1011"
     inkscape:window-x="0"
     inkscape:window-y="0"
     inkscape:window-maximized="1"
     inkscape:current-layer="layer1" />
  <defs
     id="defs1" />
  <g
     inkscape:label="background"
     inkscape:groupmode="layer"
     id="layer1">
    <rect
       style="fill:#fbc35c;fill-opacity:1;stroke:none;stroke-width:0.907573;stroke-dasharray:none"
       id="rect1"
       width="79.375"
       height="105.83334"
       x="-1.0658141e-14"
       y="-5.0862632e-06"
       rx="0"
       ry="7.6386557"
       inkscape:label="back"
       sodipodi:insensitive="true" />
    <rect
       style="fill:none;stroke:#3f1819;stroke-width:3.31249;stroke-dasharray:none;stroke-opacity:1"
       id="rect2"
       width="68.739899"
       height="95.750214"
       x="5.3175507"
       y="5.0415597"
       rx="0"
       ry="6.9108934"
       inkscape:label="border"
       sodipodi:insensitive="true" />
    <path
       style="fill:#3f1819;stroke-width:0.0637275;fill-opacity:1"
       d="m 39.645108,89.260909 c -0.377056,-0.135043 -1.259475,-0.59312 -4.460929,-2.315752 -1.473655,-0.792947 -2.502916,-1.368957 -6.117857,-3.423751 -4.247071,-2.414119 -5.026327,-2.794252 -7.60483,-3.709801 -1.825685,-0.648237 -3.58508,-1.424778 -4.005986,-1.768112 -0.177417,-0.144723 -0.185062,-0.237962 -0.283915,-3.462567 -0.212272,-6.924177 -0.212518,-7.554082 -0.0032,-8.412043 0.316967,-1.29973 0.316964,-1.32905 -0.0012,-8.879388 -0.196201,-4.654863 -0.246343,-7.337545 -0.141158,-7.552428 0.0701,-0.143204 0.462039,-0.393486 1.249244,-0.797736 1.682186,-0.863848 3.074479,-1.289884 3.187335,-0.975314 0.0339,0.09447 0.125143,6.887273 0.254259,18.927112 0.06343,5.915301 0.10293,7.099509 0.245871,7.373158 0.253497,0.485271 0.785592,0.839079 3.460704,2.301111 1.447738,0.791233 7.610364,3.835984 7.764094,3.835984 0.02061,0 1.262768,0.584764 2.905165,1.367658 0.382765,0.182457 0.713971,0.331747 0.736011,0.331747 0.02202,0 0.511832,0.223143 1.088436,0.495871 1.991299,0.941873 2.077976,0.974388 2.477673,0.929329 0.215536,-0.02432 0.61375,-0.18325 0.956899,-0.381971 0.630351,-0.365049 1.171903,-0.665215 2.117209,-1.17354 0.327136,-0.17592 0.958041,-0.529832 1.402004,-0.786497 1.1004,-0.63614 1.216018,-0.701778 2.719045,-1.543578 0.724372,-0.405702 1.928826,-1.084098 2.676567,-1.507541 0.747732,-0.423457 2.33455,-1.316039 3.526262,-1.983523 1.191703,-0.667488 2.62557,-1.470754 3.186375,-1.785022 0.617805,-0.346218 1.059374,-0.650647 1.120446,-0.772462 0.149082,-0.297365 0.285681,-7.120379 0.341273,-17.04585 0.03788,-6.766835 0.02603,-8.43329 -0.0602,-8.43329 -0.200086,0 -1.550256,1.308575 -2.848533,2.760783 -1.590594,1.779181 -5.746478,5.906177 -5.947514,5.906177 -0.08091,0 -0.604678,-0.310109 -1.163896,-0.68913 -1.332963,-0.903436 -2.856332,-1.751975 -5.50584,-3.066828 -2.327687,-1.155148 -3.424981,-1.78139 -4.390191,-2.505555 -1.080458,-0.810634 -1.888215,-1.852492 -2.029655,-2.617868 -0.07579,-0.410114 -0.144279,-0.453957 1.195913,0.765487 1.232928,1.121848 1.86889,1.656164 1.971217,1.656164 0.08627,0 1.527586,-1.40351 2.277291,-2.217554 0.930982,-1.010869 1.522835,-1.814958 1.458783,-1.981877 -0.05093,-0.132788 -1.369319,-1.25304 -1.642404,-1.395599 -0.164363,-0.0858 -0.229251,-0.04596 -0.618578,0.380052 -0.449694,0.492039 -0.939687,1.158276 -0.939687,1.277683 0,0.03751 0.277216,0.322792 0.616035,0.633997 l 0.616035,0.565831 -0.169233,0.327847 c -0.09307,0.180315 -0.469071,0.633738 -0.83555,1.007608 l -0.666339,0.679767 -0.800123,-0.841979 c -0.440071,-0.463089 -0.799464,-0.902804 -0.798656,-0.97716 7.42e-4,-0.07435 0.227035,-0.391818 0.502716,-0.705491 0.377665,-0.429714 0.489562,-0.614945 0.453896,-0.751351 -0.02603,-0.09956 -0.309619,-0.463889 -0.630172,-0.80961 -0.320553,-0.345715 -0.582822,-0.684356 -0.582822,-0.75253 0,-0.192502 1.003211,-0.62507 1.704773,-0.73507 1.28901,-0.202102 3.128388,-1.27e-4 3.818288,0.419276 0.622544,0.378459 0.863336,0.733224 1.018245,1.500195 0.189205,0.936758 0.544111,1.537164 1.416588,2.39649 0.436721,0.430138 0.794028,0.842927 0.794028,0.917328 0,0.07439 -0.09559,0.314822 -0.212422,0.534295 -0.116834,0.219472 -0.212496,0.494937 -0.212577,0.612142 -1.86e-4,0.249534 0.760356,1.844507 0.908142,1.904547 0.141936,0.05767 0.612208,-0.437194 0.799915,-0.84174 0.174109,-0.375241 0.210687,-1.091467 0.07406,-1.450748 -0.04804,-0.12636 -0.07102,-0.246093 -0.051,-0.266072 0.02002,-0.02002 0.719413,0.30847 1.55429,0.729889 0.834876,0.421426 1.745309,0.825446 2.023175,0.897823 0.908722,0.236686 1.581667,0.135263 1.956509,-0.294874 l 0.169943,-0.195007 -0.212429,0.06857 c -0.374774,0.121 -1.387082,0.14668 -1.730186,0.04389 -0.594877,-0.178231 -3.39965,-1.57469 -4.179638,-2.080992 -1.110081,-0.72057 -1.550145,-1.116769 -1.991729,-1.793207 -0.43127,-0.660647 -0.519815,-0.854537 -0.726937,-1.591794 -0.246969,-0.879119 -0.738695,-1.263516 -2.205812,-1.724338 -0.668995,-0.210122 -0.896362,-0.239902 -1.826255,-0.239184 -1.198183,7.41e-4 -1.80905,0.144887 -2.872568,0.676943 -1.560421,0.780648 -2.204145,2.015207 -1.890062,3.62486 0.233326,1.195765 1.298491,2.574796 2.723344,3.525793 0.66637,0.444757 2.174372,1.285868 2.973961,1.658768 3.516275,1.639861 4.470819,2.141886 5.990398,3.150561 2.412933,1.601683 4.391045,3.657922 5.329974,5.540505 0.665103,1.333549 0.866939,2.305855 0.864277,4.163536 -0.0023,1.658668 -0.178253,2.731565 -0.665689,4.060689 -0.157859,0.430434 -0.411129,1.118074 -0.56282,1.528077 l -0.275814,0.745464 0.197706,0.210449 c 0.310583,0.330591 0.519238,0.270291 1.050568,-0.303614 0.608613,-0.657378 0.650655,-0.825482 0.353313,-1.412715 l -0.232778,-0.459726 0.17055,-0.65485 c 0.33151,-1.272819 0.39746,-1.825269 0.392625,-3.288924 -0.0044,-1.439604 -0.08819,-2.071526 -0.415169,-3.143896 -0.07124,-0.233668 -0.129273,-0.482208 -0.128947,-0.552301 0,-0.07013 0.229331,-0.445371 0.508903,-0.833927 0.279566,-0.388565 0.508312,-0.772012 0.508312,-0.852113 0,-0.08011 -0.344128,-0.666252 -0.764732,-1.302554 -0.479382,-0.72518 -0.764759,-1.240912 -0.764759,-1.381987 0,-0.211986 0.204963,-0.535274 1.031953,-1.627675 0.180159,-0.237984 0.327565,-0.512315 0.327565,-0.609629 0,-0.09731 -0.286769,-0.639031 -0.637281,-1.203832 -0.350503,-0.5648 -0.637273,-1.074853 -0.637273,-1.133448 0,-0.127925 2.215672,-2.35588 2.342892,-2.35588 0.10087,0 1.990587,2.332616 1.990587,2.457125 0,0.04448 -0.296652,0.437068 -0.659231,0.872409 -0.899876,1.080458 -1.040405,1.266688 -1.038692,1.376532 7.42e-4,0.05211 0.383166,0.571072 0.849696,1.153242 0.466522,0.582178 0.848227,1.130136 0.848227,1.217695 0,0.13364 -0.894138,1.237472 -1.804126,2.227236 -0.128903,0.140194 -0.233662,0.331383 -0.232788,0.424844 7.43e-4,0.100314 0.418566,0.603253 1.019247,1.22745 0.559723,0.581629 1.017667,1.084475 1.017667,1.117442 0,0.03299 -0.420603,0.599393 -0.934667,1.258744 -0.636361,0.816194 -0.934675,1.268526 -0.934675,1.417261 0,0.275043 0.45879,0.97134 1.066329,1.618341 0.645561,0.687484 0.977872,1.378548 0.998979,2.077463 0.01735,0.573052 -0.08595,2.669806 -0.161761,3.284758 -0.05227,0.424073 0.256858,0.22607 -3.220586,2.062794 -1.355272,0.71584 -2.774468,1.46713 -3.153764,1.669552 -0.379305,0.202429 -0.772086,0.36805 -0.872847,0.36805 -0.100768,0 -0.344855,-0.146155 -0.542428,-0.324779 -0.664243,-0.600548 -0.979762,-0.796823 -1.280857,-0.796823 -0.158681,0 -1.148118,0.287111 -2.198745,0.638044 -2.912911,0.972957 -4.355683,1.217398 -6.736168,1.141211 -2.765675,-0.08849 -5.105845,-0.829057 -7.449263,-2.357371 -0.429685,-0.28023 -0.824727,-0.509511 -0.877881,-0.509511 -0.114285,0 -1.45467,1.364953 -1.73141,1.763138 -0.105559,0.151878 -0.249555,0.276148 -0.319997,0.276148 -0.190553,0 -1.744249,-0.617472 -3.451395,-1.371661 -2.163361,-0.955744 -2.859693,-1.319807 -2.947373,-1.540984 -0.04117,-0.103824 -0.11799,-0.743195 -0.170734,-1.420835 -0.05274,-0.677631 -0.136921,-1.595314 -0.187059,-2.039277 -0.05014,-0.443978 -0.09626,-1.173163 -0.102498,-1.620417 -0.01058,-0.758067 0.0048,-0.837611 0.226763,-1.173214 0.130954,-0.198011 0.417729,-0.481787 0.637276,-0.630616 0.442536,-0.29998 1.4622,-1.293319 1.818473,-1.771509 0.278601,-0.373936 0.852356,-0.667201 1.305334,-0.667179 0.183858,7e-6 0.633989,0.05738 1.000291,0.127459 0.366293,0.07005 0.88886,0.127442 1.161257,0.127442 0.319441,0 0.508659,0.03773 0.532997,0.10621 0.06738,0.18973 -0.04166,3.672536 -0.11759,3.754557 -0.04469,0.04826 -0.151515,0.0067 -0.271456,-0.106211 -0.108783,-0.102198 -0.245405,-0.185808 -0.303606,-0.185808 -0.163123,0 -1.000735,0.828048 -1.113855,1.101134 -0.07746,0.187002 -0.0775,0.2862 -1.92e-4,0.430686 0.178973,0.334408 0.86785,1.200005 0.993336,1.248156 0.0705,0.02706 0.255611,-0.08364 0.438233,-0.261967 0.173923,-0.169831 0.340131,-0.308788 0.36934,-0.308788 0.0665,0 0.247968,0.500232 0.539402,1.486977 0.255131,0.863841 0.438907,1.260018 0.76333,1.645569 0.234277,0.278423 0.380037,0.340266 0.377214,0.160048 -7.41e-4,-0.05841 -0.169343,-0.515472 -0.374278,-1.015688 -0.651619,-1.590422 -0.806461,-2.471386 -0.818403,-4.656071 -0.0044,-0.81784 -0.0358,-1.940747 -0.06969,-2.495347 -0.07272,-1.19102 -0.08042,-1.201222 -0.971601,-1.283591 -1.446322,-0.133686 -2.613464,-0.647333 -3.428058,-1.508639 -0.73001,-0.771885 -1.050154,-1.621899 -1.047484,-2.781198 0.0032,-1.421102 0.630884,-3.194766 1.56467,-4.421839 0.1956,-0.257035 0.496783,-0.651892 0.669298,-0.877458 l 0.313661,-0.410115 v -0.932635 c 0,-1.669686 0.361532,-2.618224 1.131098,-2.967614 0.651885,-0.295956 0.633878,-0.326276 0.671359,1.130491 0.04056,1.577285 0.189478,2.053378 0.865938,2.768633 0.456721,0.48292 0.861669,0.724113 1.808396,1.077114 0.686469,0.255961 1.591594,0.852712 1.914416,1.262181 0.336522,0.426839 0.720393,1.219933 0.892983,1.84496 0.237382,0.85963 0.20844,3.139218 -0.06139,4.836727 -0.276125,1.737007 -0.301367,4.130301 -0.05337,5.055732 0.63608,2.373257 2.270501,4.022089 4.598914,4.639435 0.537512,0.142507 0.937588,0.181196 1.911827,0.184875 1.428323,0.0053 2.228237,-0.151716 3.512844,-0.68994 0.922607,-0.386539 1.507705,-0.752631 2.287855,-1.431486 1.475909,-1.284267 2.101544,-2.546025 2.101544,-4.238292 0,-2.811052 -1.64236,-4.866455 -6.323815,-7.914201 -0.517703,-0.336994 -1.151515,-0.733259 -1.408552,-0.880599 -5.872237,-3.366127 -7.697136,-4.599493 -8.791234,-5.94159 -1.134843,-1.392072 -1.628779,-3.109818 -1.404897,-4.885781 0.235263,-1.866272 1.003257,-3.989848 2.128016,-5.884188 0.249001,-0.419366 0.254472,-0.446091 0.09132,-0.446091 -0.200976,0 -2.080845,0.613165 -3.196812,1.042717 -0.420604,0.1619 -1.242685,0.475254 -1.826857,0.69635 -0.584172,0.221087 -1.112447,0.443215 -1.17394,0.49361 -0.207848,0.170315 -0.33925,0.529439 -0.469154,1.282206 -0.235833,1.366598 -0.624263,1.693393 -2.435472,2.049004 -2.774453,0.544733 -3.706763,0.903598 -7.233509,2.784341 -1.09064,0.581615 -2.049098,0.813171 -2.26902,0.54818 -0.159936,-0.19271 -0.197408,-0.758806 -0.09956,-1.504005 0.05216,-0.397236 0.116276,-1.030944 0.142484,-1.408247 l 0.04765,-0.686007 -0.469336,-0.400967 c -0.5803,-0.495767 -1.022883,-1.129779 -1.248029,-1.787832 -0.210364,-0.614848 -0.230755,-1.822986 -0.04245,-2.514561 0.298587,-1.096547 0.55049,-2.346414 0.55049,-2.731389 0,-0.917387 -0.652221,-1.748557 -2.482137,-3.16315 -0.9109542,-0.704201 -1.4264902,-1.272656 -1.4264902,-1.572904 0,-0.16365 0.1644057,-0.379696 0.6331198,-0.831992 0.9612094,-0.92753 2.1816484,-1.760417 3.1055674,-2.119402 0.633506,-0.246146 1.00066,-0.534421 1.196877,-0.939754 0.156046,-0.322346 0.175006,-0.464691 0.126911,-0.952778 -0.03217,-0.326469 -0.0201,-0.669655 0.02798,-0.796141 0.100458,-0.264226 0.377663,-0.357915 2.981706,-1.00777 1.02868,-0.256709 2.00282,-0.555542 2.379166,-0.729844 0.350501,-0.162338 1.019642,-0.422279 1.486978,-0.577647 0.467335,-0.15537 1.404131,-0.477828 2.081768,-0.71656 0.913082,-0.321687 1.330271,-0.428024 1.611371,-0.410722 l 0.379305,0.02335 0.150239,0.494892 c 0.451272,1.486472 0.549128,2.766943 0.842082,11.018569 0.0539,1.518839 0.14144,3.468904 0.194488,4.333478 l 0.09645,1.571949 0.338591,-0.01416 c 0.477055,-0.02002 2.443083,-0.683548 3.880775,-1.30982 0.972194,-0.423495 1.373411,-0.55205 2.000135,-0.640877 0.644362,-0.09132 0.984857,-0.203541 1.911828,-0.630081 1.333943,-0.613804 2.549369,-1.030248 3.743666,-1.282717 0.684422,-0.144688 1.155422,-0.183214 2.227474,-0.182206 1.711482,0.0014 2.720921,0.210509 4.121057,0.85281 2.316908,1.062873 7.547905,2.442667 9.941505,2.6223 0.876813,0.06583 1.090021,0.14095 2.209228,0.778669 2.186768,1.246013 8.001263,4.097104 8.355607,4.097104 0.413314,0 0.565334,-0.481498 0.952325,-3.016439 0.153612,-1.006214 0.40869,-1.97433 0.807588,-3.065085 0.293945,-0.803799 0.309218,-1.024925 0.0872,-1.262923 -0.319183,-0.342155 -0.299605,-0.555926 0.12544,-1.369838 0.352357,-0.67471 1.122076,-1.880254 2.004227,-3.139056 0.472594,-0.67437 0.753027,-1.189872 0.753027,-1.384249 0,-0.133493 -0.215433,-0.321784 -0.837257,-0.731794 -1.549833,-1.021915 -1.964589,-1.155118 -2.673882,-0.858754 -0.400759,0.167445 -0.544607,0.09738 -0.670523,-0.326587 -0.226343,-0.762148 -1.448485,-1.592272 -3.593173,-2.440625 -2.198271,-0.869543 -4.431876,-1.510782 -7.179922,-2.061245 -2.728986,-0.546653 -4.356009,-0.764226 -7.689797,-1.028312 -3.405589,-0.269779 -4.195978,-0.302681 -7.234909,-0.301167 -3.332196,0.0014 -4.188311,0.06879 -5.601554,0.439484 l -0.722578,0.189516 -0.516384,-0.283887 c -0.47034,-0.258571 -0.560301,-0.279292 -1.009053,-0.232386 -0.498022,0.05204 -1.325166,0.253922 -3.184107,0.777089 -1.073845,0.302212 -2.210096,0.553118 -2.504866,0.553118 -0.231874,0 -0.303272,-0.189865 -0.511261,-1.35952 -0.251498,-1.414355 -0.233246,-1.359525 -0.452607,-1.359525 -0.106782,0 -0.69548,0.169846 -1.308222,0.377443 -0.612744,0.207595 -1.394533,0.435422 -1.737311,0.506293 -1.339742,0.276993 -2.540266,0.679411 -4.027309,1.349971 -0.916596,0.413324 -1.658529,0.600488 -2.202844,0.555697 l -0.338767,-0.02787 -0.09721,-0.687128 c -0.119877,-0.847338 -0.280635,-1.214625 -0.984521,-2.249336 -0.303891,-0.446719 -0.671135,-1.119773 -0.8161,-1.495679 -0.27245,-0.706486 -0.611012,-1.878255 -0.611012,-2.114721 0,-0.176957 0.11962,-0.137946 1.470613,0.47959 1.995501,0.912145 2.770863,1.030644 5.283252,0.807438 1.959797,-0.174111 3.176406,-0.172905 4.294338,0.0042 l 0.894269,0.141718 0.677682,-0.299938 c 0.372722,-0.164968 0.907099,-0.342112 1.1875,-0.393654 3.343249,-0.614556 4.715845,-0.950169 4.715845,-1.153072 0,-0.06249 -0.266132,-0.307779 -0.591415,-0.545109 -0.650966,-0.474963 -1.168795,-1.159007 -1.24831,-1.649008 -0.03995,-0.246294 -0.01979,-0.310476 0.109391,-0.348335 2.213032,-0.648443 2.230897,-0.650837 2.798079,-0.375277 l 0.392536,0.190706 0.140801,-0.186722 c 0.07745,-0.102703 0.208264,-0.282459 0.290708,-0.399472 0.08246,-0.11701 0.292753,-0.252419 0.467338,-0.300905 0.468649,-0.130153 1.865776,-0.108086 2.427981,0.03836 0.640262,0.166768 0.674549,0.164005 1.039648,-0.08375 0.171174,-0.116167 0.450087,-0.25058 0.6198,-0.298693 0.529091,-0.150003 1.712165,-0.191157 2.723975,-0.09475 0.805327,0.07673 1.023183,0.128733 1.277445,0.304938 l 0.306535,0.212431 0.804325,-0.133062 c 1.316063,-0.217724 1.984272,-0.06749 2.825628,0.635321 l 0.406874,0.339866 0.885191,-0.05014 0.885205,-0.05014 0.820389,0.412627 c 0.451216,0.226948 0.840445,0.464904 0.864969,0.528792 0.09223,0.240345 -0.173746,0.810705 -0.627459,1.345537 -0.277903,0.327589 -0.450249,0.603723 -0.422286,0.676589 0.08393,0.218728 0.516777,0.3294 2.58312,0.660467 0.813691,0.130368 1.346873,0.346275 1.716984,0.695271 0.620379,0.584979 1.787127,0.670676 8.093409,0.594468 l 4.567148,-0.05519 v 0.239503 c 0,0.25958 -0.442792,1.566043 -0.786971,2.321952 -0.117634,0.258377 -0.356189,0.656192 -0.530106,0.884041 -0.289543,0.37932 -0.310664,0.44363 -0.250363,0.7623 0.121608,0.642745 0.07065,1.176217 -0.168439,1.763591 -0.137051,0.336662 -0.219331,0.680827 -0.203148,0.849703 0.02364,0.247102 0.0832,0.311338 0.459924,0.496264 0.563073,0.276422 1.326196,0.856938 1.602239,1.218858 0.192376,0.25221 0.278838,0.292886 0.720763,0.339079 0.876881,0.09164 1.445269,0.387496 2.958355,1.539819 0.432191,0.329146 0.785881,0.651099 0.78597,0.715447 0,0.244544 -0.745975,1.458116 -1.609214,2.616696 -1.315603,1.765734 -1.752902,2.537389 -1.575204,2.779613 0.441866,0.602319 0.446166,0.417978 -0.04634,1.985717 -0.600591,1.911783 -0.729199,2.464485 -0.940665,4.042527 -0.09914,0.739829 -0.244573,1.619268 -0.323192,1.954321 l -0.142936,0.609177 -0.506398,-0.0067 c -0.426802,-0.0059 -0.636577,-0.07162 -1.334529,-0.418106 -0.455468,-0.226115 -0.856953,-0.382187 -0.892182,-0.346833 -0.03522,0.03537 -0.06435,4.486876 -0.06472,9.89228 -7.42e-4,5.405397 -0.03329,9.961826 -0.07309,10.125394 -0.03988,0.163567 -0.189151,0.534065 -0.331778,0.823312 -0.247635,0.502225 -0.252905,0.534762 -0.117168,0.722244 0.7654,1.057196 0.758949,1.011381 0.769083,5.460939 0.0081,3.541584 0,3.756609 -0.153761,4.010375 -0.08927,0.147482 -0.299557,0.34524 -0.467337,0.439471 -0.391015,0.219606 -2.001943,0.708404 -3.576404,1.085203 -2.186671,0.523307 -2.767455,0.763151 -4.206022,1.736939 -0.977954,0.66199 -4.503104,2.845902 -6.372764,3.948081 -0.701008,0.413251 -1.828984,1.08229 -2.506624,1.486762 -1.660774,0.991297 -3.38185,1.948813 -4.199772,2.336539 -0.827471,0.392241 -1.487985,0.465089 -2.1305,0.234954 z m 0.448826,-12.644715 c 0.173747,-0.07228 0.476931,-0.289121 0.673733,-0.481786 l 0.357819,-0.350311 0.534362,0.163145 c 0.837849,0.255812 2.289205,0.220837 3.124504,-0.07528 0.449203,-0.159246 0.711066,-0.310849 0.892188,-0.51651 0.167282,-0.189945 0.501965,-0.39485 0.963193,-0.589687 1.112758,-0.47008 1.609994,-0.80552 2.478186,-1.671798 0.999342,-0.997155 1.282776,-1.473085 1.75984,-2.955086 0.588739,-1.828903 0.556357,-1.757497 0.810538,-1.787224 0.185578,-0.02172 0.266072,0.03654 0.447522,0.324007 0.142507,0.225728 0.272581,0.340747 0.365485,0.323148 0.194756,-0.03693 0.666845,-1.230757 0.74169,-1.875644 0.07086,-0.610667 -0.01913,-0.749134 -0.347255,-0.534146 -0.124233,0.0814 -0.256629,0.115759 -0.294221,0.07635 -0.03758,-0.03944 -0.03315,-0.377532 0.0099,-0.751402 0.253039,-2.199213 0.199879,-2.685418 -0.439167,-4.016158 -0.230376,-0.47974 -0.418869,-0.903977 -0.418869,-0.942741 0,-0.146073 -0.311249,-0.342452 -0.696038,-0.439158 -0.604574,-0.151945 -1.018513,-0.561614 -1.422532,-1.40787 -0.493567,-1.033798 -1.013093,-1.540507 -2.804432,-2.735206 -1.180176,-0.787089 -2.104746,-1.302911 -4.422003,-2.467021 -3.635252,-1.826226 -4.293439,-2.213951 -5.5339,-3.259922 -0.434088,-0.366026 -1.07472,-1.130758 -1.4103,-1.683474 -0.346041,-0.569961 -0.534894,-1.3069 -0.534894,-2.087251 0,-1.807078 0.899661,-3.114065 2.803512,-4.072832 0.331606,-0.166993 0.624678,-0.360327 0.651269,-0.429619 0.02662,-0.06931 0.003,-0.2351 -0.05211,-0.368451 -0.05522,-0.133343 -0.08828,-0.390757 -0.07339,-0.57202 l 0.02706,-0.329569 0.195703,0.341341 c 0.248978,0.434236 0.632011,0.69242 1.135563,0.765442 l 0.396599,0.05753 -0.06945,-0.308033 c -0.03818,-0.169417 -0.05034,-0.381327 -0.02683,-0.470917 0.03632,-0.139007 0.106877,-0.09706 0.480976,0.286125 0.432236,0.442725 0.955516,0.709175 1.204841,0.613498 0.07013,-0.02691 0.12395,-0.157177 0.12395,-0.300121 0,-0.371385 0.129534,-0.389201 0.385903,-0.05307 0.224202,0.293941 0.695787,0.640188 0.871935,0.640188 0.04989,0 0.138341,-0.131794 0.196587,-0.292872 0.122566,-0.338938 0.186379,-0.323629 0.383612,0.092 0.07875,0.165956 0.233104,0.342704 0.343001,0.392781 0.165583,0.07544 0.234075,0.05886 0.399897,-0.09694 l 0.200085,-0.187972 0.184868,0.45549 c 0.229228,0.564779 0.799233,1.227103 1.372834,1.595182 0.495997,0.318286 0.59303,0.50058 0.493706,0.927558 -0.03854,0.165629 -0.07096,0.589969 -0.07206,0.942979 -0.0038,1.135206 0.409446,1.699021 1.855153,2.532406 2.511493,1.447774 4.52951,2.101602 4.90467,1.589095 0.167905,-0.229376 0.150742,-0.535274 -0.03566,-0.63502 -0.086,-0.04604 -0.57351,-0.125086 -1.083363,-0.175682 -0.509846,-0.05056 -1.118177,-0.152425 -1.351846,-0.226277 -0.954298,-0.301627 -1.860691,-0.996013 -2.419331,-1.853447 -0.450175,-0.690969 -0.532278,-1.165927 -0.260965,-1.509737 0.212022,-0.268674 0.430752,-0.336446 1.873078,-0.580426 1.394176,-0.235828 1.697775,-0.200518 2.157825,0.250993 0.400366,0.392928 0.430271,0.386488 0.846545,-0.182435 0.128236,-0.175253 0.298113,-0.31827 0.377518,-0.317818 0.0794,4.52e-4 0.313525,0.135286 0.520269,0.299625 0.206743,0.164339 0.403768,0.269112 0.437846,0.232839 0.07677,-0.0817 0.418321,-1.299626 0.418321,-1.491633 0,-0.2807 -0.490816,-0.409661 -2.166736,-0.569293 -1.280411,-0.121964 -1.571585,-0.19867 -2.113508,-0.556787 -0.470733,-0.311078 -1.246006,-0.549647 -1.786142,-0.549647 -0.483188,0 -1.01164,-0.287757 -1.416506,-0.771329 -0.798158,-0.953304 -2.64431,-2.050895 -4.200505,-2.497311 -2.798553,-0.802815 -6.255159,-0.247035 -8.454529,1.35937 -0.904569,0.660693 -1.557848,1.442682 -2.083795,2.494331 -0.339094,0.678055 -0.398415,0.843402 -0.630802,1.758239 -0.167935,0.661136 -0.267978,0.886361 -0.467145,1.051657 -0.216966,0.180063 -0.152055,0.310849 0.207782,0.418661 0.200176,0.05997 0.339887,0.154213 0.339887,0.229258 0,0.205297 -0.304466,0.740408 -0.552117,0.970363 -0.23117,0.214659 -0.46753,0.598145 -0.46753,0.758556 0,0.04796 0.09658,0.150505 0.214602,0.227841 0.200962,0.131676 0.225269,0.130965 0.382365,-0.01119 0.09227,-0.0835 0.167765,-0.200517 0.167765,-0.260039 0,-0.149445 0.251275,-0.387539 0.346728,-0.328544 0.043,0.02655 0.07812,0.196468 0.07812,0.377591 0,0.423933 0.206773,1.405786 0.396199,1.881345 0.275465,0.691546 0.723825,1.342008 1.299129,1.884725 0.689672,0.650602 1.189405,0.946187 2.469305,1.460578 0.533235,0.214297 1.209984,0.517324 1.503893,0.67339 l 0.534377,0.283761 0.161299,-0.22143 0.1613,-0.221429 0.752092,0.765769 c 0.413649,0.421174 0.994596,0.929411 1.290997,1.12941 0.461243,0.311226 2.618615,1.431242 3.709601,1.925852 0.625538,0.283598 1.439457,0.783904 1.9968,1.227414 0.568411,0.452325 1.20868,1.177269 1.139143,1.289789 -0.02157,0.03491 -0.229385,0.041 -0.461747,0.01349 -0.245902,-0.02913 -0.422488,-0.01624 -0.422488,0.03091 0,0.135642 0.43242,0.504604 1.147104,0.978754 0.624619,0.414407 0.703883,0.500171 0.977153,1.057374 0.163569,0.333511 0.456663,0.778422 0.651308,0.98868 0.64969,0.701784 0.666111,0.763329 0.662649,2.4835 -0.003,1.491291 -0.0668,2.095426 -0.349947,3.31384 -0.208723,0.898119 -0.379823,1.174208 -0.940724,1.517927 -0.269839,0.165347 -0.717886,0.556661 -0.99565,0.869586 -0.99989,1.126398 -2.763146,1.993049 -5.437065,2.672349 -0.677744,0.172167 -0.800436,0.181033 -1.147097,0.08289 -0.733018,-0.207529 -1.493465,-0.335698 -2.010271,-0.338819 -0.595574,-0.0038 -1.648276,-0.252352 -2.149041,-0.507815 -0.188966,-0.0964 -0.554318,-0.34693 -0.811886,-0.556726 -0.41898,-0.341267 -0.490343,-0.371403 -0.677514,-0.286113 -0.322644,0.147 -0.446313,0.04611 -0.497221,-0.405576 -0.05545,-0.49189 -0.305251,-0.745122 -0.815535,-0.826722 -0.491927,-0.07868 -0.900855,-0.463282 -1.028727,-0.967612 -0.05634,-0.222015 -0.133968,-0.958101 -0.172589,-1.635732 -0.04418,-0.775444 -0.122499,-1.373791 -0.211259,-1.614442 -0.285072,-0.772864 -0.2629,-1.8136 0.08147,-3.823656 0.34848,-2.034067 0.461222,-3.687191 0.314904,-4.617255 -0.17322,-1.101022 -0.804177,-2.072875 -1.721899,-2.652206 -0.321072,-0.202681 -1.182435,-0.505182 -1.182435,-0.415258 0,0.01771 0.197439,0.366463 0.438751,0.775012 0.657831,1.113738 1.159877,2.226481 1.357969,3.009835 0.146955,0.581102 0.170353,0.875242 0.137341,1.726598 -0.0427,1.10166 -0.118717,1.402301 -0.646082,2.55564 l -0.310826,0.679767 0.0044,2.081763 c 0.0044,2.187322 0.09332,3.183604 0.381571,4.284129 0.317759,1.213179 0.712535,1.760292 1.592767,2.207398 0.602223,0.305896 1.146154,0.829858 1.446536,1.393435 0.147927,0.277534 0.328315,0.553873 0.400877,0.614092 0.09773,0.08111 0.488946,0.104988 1.50923,0.09213 1.186218,-0.01497 1.456383,0.0074 1.947265,0.158972 0.313473,0.09698 0.592371,0.212585 0.619763,0.256908 0.02743,0.04434 -0.03788,0.235131 -0.14511,0.424008 -0.16883,0.297475 -0.17786,0.354424 -0.06747,0.42563 0.192525,0.124181 0.731208,0.101025 1.086093,-0.04671 z m 8.526735,-31.837552 c -0.1574,-0.05226 -0.418113,-0.219494 -0.57936,-0.371572 -0.237368,-0.223867 -0.288024,-0.329188 -0.266117,-0.55333 0.02483,-0.254442 0.06145,-0.285704 0.451902,-0.386459 1.139922,-0.294116 2.100424,0.02559 2.514297,0.836811 0.13075,0.256308 0.151373,0.369786 0.08014,0.441169 -0.129117,0.129414 -1.833957,0.155271 -2.200867,0.03335 z M 30.357645,63.584916 c 0.304393,-0.193035 0.451118,-0.371593 0.668935,-0.814037 0.253812,-0.515569 0.279033,-0.637132 0.279196,-1.345907 1.33e-4,-0.545001 -0.043,-0.878861 -0.143634,-1.110934 -0.134759,-0.310879 -0.13482,-0.345522 -7.41e-4,-0.549694 0.07853,-0.119844 0.142781,-0.377168 0.142781,-0.571827 0,-0.413176 -0.287838,-0.872211 -1.457702,-2.324744 -1.224959,-1.520952 -1.631997,-2.50483 -1.895192,-4.581048 l -0.111772,-0.881722 -0.268162,0.310219 c -0.536787,0.620965 -0.587041,1.58828 -0.159506,3.070194 0.384791,1.333764 1.070606,2.524185 2.12391,3.686649 0.578723,0.638705 0.805422,1.029832 0.805422,1.389609 0,0.554614 -0.946536,1.762835 -1.378868,1.760063 -0.106187,-7.43e-4 -0.361585,-0.0599 -0.567542,-0.131632 -0.300968,-0.104802 -0.458138,-0.112453 -0.800709,-0.03898 -0.234432,0.05026 -0.456929,0.06072 -0.49444,0.02321 -0.03751,-0.03751 -0.09779,-0.277503 -0.13396,-0.533324 -0.05856,-0.414034 -0.09591,-0.479132 -0.340086,-0.592585 -0.15087,-0.07013 -0.27514,-0.177661 -0.276147,-0.239021 -7.42e-4,-0.06138 0.115328,-0.35452 0.25854,-0.651463 0.279787,-0.580124 0.340331,-1.071902 0.217144,-1.763857 -0.08552,-0.480377 0.03061,-0.570465 0.555118,-0.430471 0.182132,0.04863 0.326878,0.05375 0.326878,0.01164 0,-0.04159 -0.115263,-0.303918 -0.256132,-0.582986 -0.314415,-0.622854 -0.458523,-0.645139 -1.117985,-0.172909 -0.798394,0.571725 -1.308648,1.509038 -1.469999,2.700349 -0.07495,0.553427 0.09105,1.881048 0.305808,2.445745 0.353786,0.930219 1.148217,1.659789 2.122352,1.949079 0.79248,0.235344 1.231631,0.169358 1.69051,-0.254003 0.116834,-0.107789 0.323244,-0.223395 0.458687,-0.256902 l 0.246263,-0.06094 -0.271588,0.394739 -0.271588,0.394737 h 0.412301 c 0.309307,0 0.50969,-0.06175 0.802212,-0.247279 z m -1.83501,-2.815818 c 0.560604,-0.27138 0.719212,-0.597627 0.595544,-1.22496 -0.07994,-0.405443 -0.226574,-0.701805 -0.519542,-1.049981 l -0.218946,-0.260202 -0.289025,0.17053 c -0.350702,0.206914 -0.871394,0.769624 -0.982453,1.061724 -0.150809,0.396666 -0.09666,0.850772 0.134152,1.125079 0.319404,0.379579 0.742173,0.438307 1.28027,0.17781 z M 54.595041,49.793215 c 0.231148,-0.330005 0.167719,-0.442346 -0.313822,-0.555814 -0.245345,-0.05782 -0.595433,-0.210251 -0.777956,-0.338745 -0.758016,-0.533622 -0.893316,-1.066522 -0.489749,-1.928916 0.143805,-0.307314 0.323282,-0.582475 0.398838,-0.611469 0.09037,-0.03469 0.252395,0.0596 0.473476,0.275487 0.271002,0.264628 0.36447,0.311132 0.482587,0.240111 0.08056,-0.04841 0.368643,-0.528571 0.640179,-1.06695 0.545808,-1.082172 0.641039,-1.586071 0.344839,-1.824759 -0.451561,-0.363876 -1.221941,-0.638778 -2.018438,-0.720265 -0.446344,-0.04566 -1.109074,-0.157868 -1.472737,-0.249341 -0.801886,-0.201695 -2.059011,-0.807135 -2.656402,-1.279343 -0.540291,-0.427077 -0.912144,-0.58805 -1.3584,-0.58805 -0.396131,0 -0.411255,0.04293 -0.151134,0.428937 0.257835,0.382603 0.61137,0.573918 1.307676,0.707656 0.365115,0.07013 0.852253,0.256331 1.304868,0.498778 0.732135,0.392172 1.446538,0.610733 2.294194,0.701872 1.514828,0.162865 2.464137,0.485227 2.464137,0.836744 0,0.22043 -0.314733,1.166314 -0.59266,1.781117 l -0.18497,0.409209 -0.414763,-0.387962 c -0.228123,-0.21338 -0.449218,-0.387964 -0.491341,-0.387964 -0.04212,0 -0.216211,0.210303 -0.386873,0.467337 -0.170663,0.257037 -0.36364,0.467338 -0.42884,0.467338 -0.06523,0 -0.283827,-0.138088 -0.485841,-0.30686 -0.609015,-0.508824 -0.922102,-0.54795 -1.603099,-0.200376 -0.624064,0.318523 -1.099303,1.082868 -1.10275,1.773599 -0.0014,0.329109 0.03937,0.412227 0.340346,0.690102 0.188217,0.17376 0.554866,0.39731 0.814779,0.496767 0.518208,0.198307 1.298514,0.240459 1.460088,0.07887 0.24636,-0.246361 -0.0053,-0.931414 -0.449353,-1.222239 -0.173398,-0.113616 -0.330531,-0.132854 -0.747546,-0.09151 l -0.527993,0.05234 0.277496,-0.252995 c 0.57403,-0.523338 1.198233,-0.278342 2.169738,0.851622 0.767986,0.89325 1.380187,1.428278 1.647765,1.440035 0.05575,0.0023 0.160914,-0.08052 0.233661,-0.184385 z M 15.386124,49.456116 c 0.257034,-0.08757 1.021765,-0.459375 1.699403,-0.826247 2.862701,-1.549864 4.32453,-2.090319 6.45401,-2.386089 1.100155,-0.152805 1.669554,-0.53468 1.867801,-1.252671 0.146785,-0.531617 0.204343,-4.907339 0.100314,-7.627124 -0.134077,-3.505668 -0.283857,-5.762646 -0.57233,-8.624473 -0.06831,-0.677632 -0.157755,-1.576195 -0.198776,-1.996799 -0.07985,-0.818819 -0.142861,-1.062125 -0.275043,-1.062125 -0.307637,0 -2.307528,0.642995 -3.640269,1.17041 -1.512803,0.598666 -2.196285,0.827642 -3.353345,1.123413 -1.755784,0.448825 -2.412276,0.673776 -2.677152,0.917327 -0.250079,0.229947 -0.250336,0.231222 -0.304142,1.504695 -0.03633,0.860007 -0.0068,1.951644 0.09083,3.356325 0.07958,1.144969 0.169812,2.521487 0.200534,3.058925 l 0.05586,0.977152 0.25491,-0.0082 c 0.1402,-0.0044 0.615015,-0.05589 1.055144,-0.114225 2.188206,-0.289944 3.535242,0.554659 4.034534,2.529685 0.323137,1.278225 0.02035,2.01752 -1.053593,2.57241 -0.31967,0.165169 -0.514729,0.198054 -1.189583,0.200531 -0.729082,0.003 -0.84542,-0.0195 -1.201869,-0.229036 -0.868947,-0.510817 -1.071369,-1.106382 -0.505258,-1.486576 0.342904,-0.230289 0.390514,-0.210457 0.247627,0.103149 -0.09562,0.209858 -0.08629,0.249622 0.09254,0.39442 0.445625,0.360844 1.130889,0.269867 1.461185,-0.193985 0.31471,-0.441969 0.307037,-0.95584 -0.02386,-1.597525 -0.356038,-0.690441 -0.604269,-0.874714 -1.240292,-0.920723 -0.761346,-0.05508 -1.002033,0.08881 -1.729363,1.03388 -0.919078,1.19421 -1.094303,1.558278 -1.094303,2.273651 0,1.128505 0.687606,2.174699 1.800146,2.738937 1.689413,0.856804 3.57491,0.616649 4.828608,-0.61502 0.9397,-0.923184 1.299383,-1.868236 1.297852,-3.410035 -7.42e-4,-0.786942 -0.0368,-1.076396 -0.185061,-1.486976 -0.27286,-0.755672 -0.711197,-1.364204 -1.529357,-2.123175 -1.690926,-1.568597 -3.064133,-3.005898 -3.478933,-3.641303 -0.646281,-0.990008 -0.802742,-1.473773 -0.760098,-2.350179 0.04372,-0.898609 0.164088,-1.141589 0.938735,-1.895015 1.425454,-1.386406 2.657382,-1.881558 4.06201,-1.632656 1.068598,0.189353 3.010095,0.986028 3.010095,1.235167 0,0.131736 -0.188551,0.238244 -1.232068,0.695951 -0.666718,0.292435 -1.345965,0.783487 -1.899004,1.372869 l -0.327054,0.348547 -0.107386,-0.211126 c -0.05905,-0.116121 -0.132762,-0.377146 -0.163775,-0.580048 -0.07779,-0.508978 -0.334958,-0.979927 -0.601376,-1.101312 -0.329347,-0.150062 -1.058051,-0.120697 -1.44731,0.05834 -0.425632,0.195758 -1.147097,0.864344 -1.147097,1.06303 0,0.275806 1.40997,1.61912 2.705273,2.577383 0.238349,0.176326 1.009917,0.718486 1.714597,1.204802 1.424205,0.982877 1.898354,1.450014 2.270541,2.23697 0.432263,0.913969 0.565681,1.636362 0.706561,3.825695 0.140889,2.18945 -0.03405,2.761753 -1.188138,3.886825 -1.719022,1.675809 -4.584747,2.55687 -7.482981,2.300613 -0.61888,-0.05472 -1.14673,-0.07799 -1.173003,-0.05175 -0.05759,0.0576 -0.149929,0.640321 -0.285682,1.802979 -0.142388,1.219465 -0.07904,1.268193 1.118399,0.860282 z M 13.713896,38.690054 c 0.755273,-0.522848 0.74318,-0.48782 0.649343,-1.880974 -0.04556,-0.676208 -0.120931,-1.841252 -0.167522,-2.588992 -0.162247,-2.603871 -0.187875,-2.846495 -0.300654,-2.846495 -0.285271,0 -1.789906,0.698752 -2.449099,1.137362 -0.751391,0.499964 -1.9227822,1.572988 -1.9227822,1.761323 0,0.20612 0.5502042,0.953156 0.8756452,1.188908 0.1837,0.13307 0.472873,0.264382 0.642607,0.291811 0.490104,0.07919 0.690973,0.189604 0.690973,0.379831 0,0.337515 0.260048,0.790143 0.762626,1.327404 0.385751,0.412366 0.540227,0.654717 0.643277,1.0092 0.07459,0.256577 0.154693,0.466508 0.178006,0.466508 0.02331,0 0.202224,-0.110651 0.39758,-0.245886 z m 25.741631,43.832501 c -0.766237,-0.248977 -0.793806,-0.359704 -0.278045,-1.116628 0.233179,-0.3422 0.424221,-0.702289 0.424547,-0.80019 6.97e-4,-0.209545 -0.582503,-1.147141 -0.960072,-1.543473 L 38.378085,78.78528 37.96385,79.189721 c -0.67563,0.659655 -0.883293,1.249587 -0.653041,1.855183 0.04804,0.126361 0.06761,0.249489 0.04352,0.273619 -0.02418,0.0241 -0.302419,-0.06576 -0.618414,-0.199797 -0.798024,-0.338457 -1.263841,-0.827685 -1.613388,-1.694504 -0.253885,-0.629609 -0.707672,-1.317034 -0.869408,-1.317034 -0.03796,0 -0.278031,0.172063 -0.533479,0.382365 -0.300826,0.247666 -0.546682,0.382366 -0.69787,0.382366 -0.22553,0 -2.610046,-1.171442 -2.833263,-1.391901 -0.08967,-0.08855 0.003,-0.252194 0.503886,-0.887792 0.337595,-0.428573 0.669699,-0.779231 0.73802,-0.779231 0.06835,0 0.366612,0.153093 0.662893,0.340205 1.17251,0.740511 2.382184,1.270974 3.898125,1.709392 1.609252,0.46541 2.199449,0.537156 4.375965,0.531944 1.797684,-0.0044 2.111187,-0.02706 3.143895,-0.228449 1.284051,-0.250371 3.178524,-0.773413 4.206029,-1.161234 0.76597,-0.289106 1.096982,-0.315912 1.552274,-0.125678 0.311894,0.130325 0.699434,0.436927 0.699434,0.553368 0,0.257325 -1.68343,1.354405 -2.078265,1.354405 -0.07727,0 -0.377331,-0.19222 -0.666792,-0.427165 -0.310183,-0.251765 -0.594619,-0.41749 -0.69269,-0.403605 -0.270409,0.03833 -0.644701,0.665311 -0.778683,1.304475 -0.217878,1.039418 -0.645984,1.530337 -1.67827,1.924549 -0.227768,0.08698 -0.434756,0.137503 -0.459983,0.112283 -0.02521,-0.02521 0.02587,-0.256881 0.113527,-0.514798 l 0.159395,-0.468931 -0.717174,-0.720927 c -0.394443,-0.396502 -0.756258,-0.719301 -0.804022,-0.717336 -0.146385,0.0059 -1.064001,1.542583 -1.064001,1.781686 0,0.12834 0.145975,0.41898 0.3432,0.683318 0.188752,0.252995 0.332141,0.531699 0.318634,0.619363 -0.01349,0.08765 -0.190004,0.278889 -0.392218,0.424977 -0.318907,0.230393 -0.448486,0.268533 -0.977161,0.287683 -0.430811,0.01556 -0.76471,-0.02832 -1.138956,-0.149965 z M 39.194052,73.16878 c -0.201348,-0.04774 -0.38451,-0.13482 -0.407039,-0.193511 -0.02253,-0.0587 0.132165,-0.467048 0.34375,-0.907452 0.211584,-0.440398 0.385197,-0.911842 0.385797,-1.047662 6.16e-4,-0.140483 -0.218693,-0.659692 -0.508726,-1.204351 -0.280402,-0.526577 -0.509823,-0.99768 -0.509823,-1.046905 0,-0.122979 1.673074,-1.367947 1.838354,-1.367947 0.189441,0 1.456501,1.109985 1.521842,1.333179 0.04077,0.139222 -0.04915,0.328907 -0.357064,0.753166 -0.798521,1.100334 -0.961259,1.356561 -0.96255,1.515496 -7.32e-4,0.08831 0.218562,0.485062 0.487281,0.881683 0.775502,1.144614 0.754752,1.104746 0.636436,1.223055 -0.135064,0.135063 -1.965346,0.180485 -2.468258,0.06124 z m 5.019961,-2.986845 c -3.118781,-2.802119 -3.597503,-3.204375 -3.814767,-3.20539 -0.124574,-4.08e-4 -1.251765,0.814193 -2.113657,1.527831 -1.6877,1.397408 -2.510381,2.045824 -2.712483,2.137913 -0.277646,0.126501 -0.456981,-0.02246 -0.864812,-0.718309 -0.474402,-0.809455 -0.663977,-1.508646 -0.661011,-2.438065 0.003,-1.014382 0.21945,-1.547142 0.869066,-2.141345 0.501773,-0.458959 0.500149,-0.538542 -0.02506,-1.226359 -0.461932,-0.604981 -0.469701,-0.818686 -0.130765,-3.597594 0.04263,-0.349265 0.05419,-0.73163 0.02579,-0.849703 -0.0284,-0.118073 -0.32042,-0.764546 -0.648898,-1.43661 -0.915763,-1.873656 -1.612099,-2.52947 -3.434179,-3.234302 -1.058234,-0.409357 -1.479646,-0.75195 -1.671177,-1.358637 -0.07766,-0.246012 -0.136933,-0.916445 -0.16199,-1.832446 -0.02172,-0.794472 -0.06842,-1.515087 -0.103808,-1.601364 -0.07183,-0.175304 -0.249682,-0.160959 -1.037172,0.08371 -0.632618,0.196536 -1.140514,0.756391 -1.375049,1.515733 -0.09719,0.314682 -0.18053,0.692385 -0.185186,0.839347 -0.0044,0.146962 -0.03373,0.357078 -0.06457,0.46693 -0.05351,0.190648 -0.07536,0.178936 -0.480111,-0.257807 -0.233208,-0.251639 -0.759587,-0.885294 -1.169727,-1.408106 -0.410142,-0.522819 -0.949573,-1.171546 -1.198734,-1.441607 -0.620225,-0.672243 -0.745033,-0.948931 -0.795912,-1.764466 -0.05265,-0.84389 0.01142,-0.93116 0.744533,-1.0141 0.287025,-0.03247 0.796149,-0.156741 1.131388,-0.276147 0.929112,-0.330947 1.094684,-0.337041 1.641365,-0.06042 l 0.476856,0.241268 0.247169,-0.29554 c 0.397947,-0.475834 1.264346,-1.994828 1.314624,-2.304818 0.03751,-0.2314 -0.0038,-0.34773 -0.219547,-0.619274 -0.14617,-0.183895 -0.254285,-0.393945 -0.240258,-0.46678 0.0284,-0.147259 1.049736,-0.608118 2.232617,-1.007379 1.108643,-0.37421 1.297023,-0.402677 1.492685,-0.22561 0.231719,0.209702 0.211799,0.334135 -0.212475,1.327382 -1.44701,3.387484 -1.586544,5.850731 -0.458055,8.086256 0.836922,1.657922 2.129847,2.743739 5.678059,4.768524 1.696915,0.968332 2.606289,1.549596 2.665433,1.70372 0.02594,0.06753 -0.0087,0.281263 -0.07708,0.4749 -0.06835,0.193628 -0.124218,0.469012 -0.124218,0.611949 0,0.345269 0.277503,0.902189 0.663562,1.331689 l 0.313599,0.348894 0.532901,-0.731148 c 0.618302,-0.848325 0.502476,-0.835188 1.714879,-0.194452 1.762218,0.931301 3.807152,2.507964 3.99634,3.081217 0.107087,0.324482 0.07878,0.484721 -0.188269,1.065726 -0.261729,0.569435 -0.289854,1.089607 -0.08104,1.49892 0.09521,0.186624 0.235766,0.391322 0.312368,0.454891 0.0766,0.06354 0.195082,0.223519 0.2633,0.355441 0.06821,0.13192 0.182049,0.239857 0.252951,0.239857 0.07086,0 0.312865,-0.17207 0.537696,-0.382364 0.224825,-0.210302 0.451259,-0.382366 0.503189,-0.382366 0.194615,0 0.270328,0.35616 0.270328,1.27164 0,1.025785 -0.148905,1.645341 -0.57251,2.382079 -0.253441,0.440769 -1.52787,1.784372 -1.692511,1.784372 -0.06087,0 -0.675416,-0.507439 -1.365703,-1.127646 z M 23.563695,65.270296 c -0.128072,-0.190448 -0.332709,-0.467663 -0.454746,-0.616034 -0.612086,-0.744143 -0.629462,-1.179789 -0.08312,-2.084018 0.517526,-0.856538 0.488191,-1.222608 -0.188063,-2.346783 -0.322776,-0.536564 -0.356099,-0.644502 -0.354141,-1.147098 0.0021,-0.519296 0.03324,-0.60819 0.487752,-1.389193 0.267075,-0.458916 0.543242,-0.916706 0.613706,-1.017305 0.211132,-0.301433 0.149301,-0.616516 -0.240554,-1.225818 -0.20277,-0.316913 -0.496208,-0.811243 -0.652083,-1.098524 L 22.409033,53.823201 22.91242,52.7128 c 0.276861,-0.61072 0.529128,-1.111729 0.560594,-1.113353 0.179422,-0.0093 1.775271,1.773629 2.219315,2.479439 0.234944,0.373432 0.174111,0.607028 -0.369821,1.420227 -1.055245,1.577604 -1.524353,3.002871 -1.524323,4.631251 2.8e-5,1.529247 0.396202,2.770412 1.220255,3.8229 0.21679,0.276888 0.394161,0.528927 0.394161,0.560078 0,0.03121 -0.245226,0.29213 -0.544949,0.579946 -0.692052,0.66454 -0.952346,0.699871 -1.303957,0.177008 z M 51.391029,58.92035 c -0.222652,-0.266065 -0.636843,-0.746332 -0.920435,-1.067255 l -0.515619,-0.583489 0.580554,-0.584268 c 0.319308,-0.321355 0.626569,-0.584536 0.682799,-0.584846 0.111682,-7.43e-4 0.114048,0.0023 0.967049,1.221956 0.323199,0.462096 0.587626,0.873958 0.587626,0.915252 0,0.09856 -0.84859,1.177484 -0.92119,1.171226 -0.03077,-0.0023 -0.23813,-0.22251 -0.460784,-0.488576 z M 63.570936,41.499037 c -0.673934,-0.172449 -1.241114,-0.360865 -1.260403,-0.418712 -0.01928,-0.05783 0.1819,-0.344142 0.44707,-0.636206 0.956217,-1.053192 1.236448,-1.767779 1.221407,-3.114562 -0.01638,-1.467131 -0.127006,-1.658952 -0.739214,-1.281812 -0.312829,0.192709 -0.473298,0.506635 -0.933438,1.826063 -0.255412,0.732379 -0.297874,0.966159 -0.307526,1.693097 -0.01119,0.841377 -0.01178,0.843579 -0.24579,0.92159 -0.449701,0.149898 -2.012487,-0.264286 -2.012487,-0.533368 0,-0.04507 0.112306,-0.264479 0.249564,-0.487561 0.241341,-0.392225 0.591569,-1.607836 0.892685,-3.098394 0.167038,-0.826876 0.161218,-1.119659 -0.03173,-1.595678 l -0.154547,-0.381262 1.285149,-0.316571 c 0.706825,-0.17411 1.329332,-0.301456 1.383345,-0.282989 0.05398,0.01846 0.122757,0.145381 0.152774,0.282048 0.06709,0.305615 0.279557,0.414473 0.938604,0.480963 0.64846,0.06547 1.218687,0.346426 1.474299,0.726537 0.180108,0.267815 0.195787,0.364997 0.157676,0.977154 -0.02394,0.384908 -0.190026,1.251053 -0.382832,1.996799 -0.323527,1.251321 -0.458888,1.978534 -0.573335,3.080171 -0.03988,0.384176 -0.08122,0.487258 -0.19334,0.482402 -0.07842,-0.0038 -0.693993,-0.147267 -1.367933,-0.319709 z M 28.256829,40.48094 c 0.168513,-0.320677 0.546275,-0.845121 0.839465,-1.165429 l 0.533079,-0.582378 0.300041,0.228858 c 0.450109,0.343319 0.793658,0.309277 1.400515,-0.138757 0.273856,-0.20219 0.553369,-0.435184 0.621134,-0.517762 0.223408,-0.27227 0.149045,-0.678604 -0.221637,-1.210962 -0.651115,-0.935097 -1.619557,-3.30407 -1.666135,-4.075621 -0.01772,-0.293917 0.0023,-0.330458 0.192614,-0.349584 0.633358,-0.06369 1.146067,-0.234929 1.619327,-0.540811 0.527623,-0.341014 0.830948,-0.38132 0.719984,-0.09567 -0.298735,0.769054 -0.268896,2.227948 0.05864,2.867031 0.26336,0.513842 0.493397,0.740838 0.651649,0.643034 0.199522,-0.123314 0.432308,-1.490372 0.376665,-2.212018 -0.03795,-0.492483 -0.0221,-0.664887 0.06768,-0.73455 0.0645,-0.05003 0.404064,-0.138816 0.754567,-0.197218 0.350503,-0.05842 0.719754,-0.125101 0.820561,-0.14823 l 0.183287,-0.04203 -0.202702,0.400394 c -0.11149,0.220214 -0.220458,0.519802 -0.242157,0.665748 -0.02172,0.145946 -0.08366,0.571251 -0.137696,0.945113 -0.409572,2.834175 -2.181903,5.431885 -4.266929,6.254041 -0.419484,0.165413 -1.522931,0.418379 -2.341581,0.536814 l -0.366752,0.05307 z m 30.251665,-0.990882 c -0.04678,-0.01497 -0.371749,-0.09289 -0.722252,-0.173094 -0.840044,-0.192258 -1.699398,-0.539388 -1.699398,-0.686469 0,-0.06457 0.189819,-0.605396 0.421826,-1.201792 0.499778,-1.284763 0.685082,-2.017757 0.757103,-2.994933 l 0.05315,-0.720999 0.922368,-0.187239 c 0.507303,-0.10298 1.038758,-0.227814 1.18102,-0.2774 0.501809,-0.174934 0.581651,-0.133404 0.521033,0.270957 -0.02981,0.198618 -0.167816,0.647897 -0.306735,0.9984 -0.586536,1.479794 -0.590058,1.491855 -0.832348,2.846496 -0.215588,1.205328 -0.211599,1.355693 0.04775,1.798152 l 0.216002,0.36859 -0.237249,-0.0067 c -0.130489,-0.0038 -0.275487,-0.01899 -0.322213,-0.03396 z M 27.068113,38.4613 c 0.3911,-0.909232 0.425111,-1.092764 0.423851,-2.286891 -6.96e-4,-0.654273 -0.05204,-1.629304 -0.114114,-2.166742 -0.06205,-0.537439 -0.138488,-1.455114 -0.169816,-2.039287 -0.05806,-1.082015 -0.08191,-1.178625 -0.370817,-1.500157 -0.155078,-0.172597 -0.156444,-0.195475 -0.0238,-0.397963 0.07743,-0.118162 0.338774,-0.365961 0.580792,-0.550671 0.797504,-0.608688 1.478895,-0.853988 1.64147,-0.59094 0.03543,0.0573 0.05642,1.319843 0.04678,2.80567 -0.02401,3.684558 0.0908,4.555198 0.71719,5.438682 0.157467,0.222089 0.286304,0.422057 0.286304,0.444364 0,0.126606 -0.837731,0.427847 -1.811229,0.651307 -0.614018,0.140942 -1.152435,0.278534 -1.196484,0.305757 -0.04833,0.02987 -0.05234,-0.01506 -0.01019,-0.113129 z m 25.195066,-0.17279 c -0.505797,-0.09869 -1.10461,-0.297971 -1.10461,-0.367591 0,-0.04159 0.143388,-0.145665 0.318633,-0.231296 0.198359,-0.09692 0.37198,-0.267955 0.459947,-0.45309 0.160624,-0.338062 0.326543,-1.880284 0.325008,-3.020937 -7.41e-4,-0.653079 -0.03084,-0.812363 -0.212422,-1.130032 -0.116271,-0.203393 -0.211406,-0.414932 -0.211406,-0.470102 0,-0.08562 1.030862,-0.831674 1.875879,-1.357614 0.253923,-0.158037 0.254635,-0.157949 0.594841,0.07782 0.278883,0.193267 0.468226,0.24619 1.044629,0.291968 0.772011,0.06131 1.076945,0.211629 1.248652,0.615486 0.21816,0.513121 -0.189464,1.30242 -0.882307,1.708458 -0.588153,0.344683 -0.741875,0.333503 -0.85553,-0.0622 -0.112348,-0.391143 -0.352868,-0.588078 -0.478197,-0.391535 -0.25579,0.401152 -0.414651,1.450361 -0.437433,2.888988 -0.01343,0.849651 0.08119,1.175267 0.463001,1.592854 0.09598,0.104966 0.15359,0.21177 0.128021,0.237331 -0.06265,0.06264 -2.009001,0.123736 -2.276706,0.07146 z M 47.558995,37.881821 C 47.162026,37.73423 46.77869,37.384223 46.57013,36.978928 c -0.561227,-1.090644 -0.38493,-3.739033 0.327893,-4.925575 0.384463,-0.639973 1.157972,-1.104612 1.838895,-1.104612 0.715639,0 1.530493,0.51029 1.860276,1.164978 0.187015,0.371267 0.412456,1.374279 0.357493,1.590541 -0.05227,0.205735 -0.06399,0.213482 -1.283095,0.851178 -1.400774,0.732706 -1.729065,1.140343 -1.493433,1.854323 0.117257,0.355299 0.532213,0.767741 0.732838,0.728405 0.08161,-0.01601 0.422155,-0.430574 0.756763,-0.921278 0.493269,-0.72338 0.647645,-0.892183 0.815921,-0.892183 0.178898,0 0.211221,0.04448 0.234127,0.321986 0.07347,0.890445 -0.370815,1.731053 -1.119081,2.117265 -0.451925,0.233262 -1.557515,0.297149 -2.039732,0.117865 z m 1.351381,-3.439081 c 0.403797,-0.183421 0.804044,-0.625954 0.802865,-0.887689 -0.0014,-0.27393 -0.382352,-1.04268 -0.548543,-1.106457 -0.64915,-0.249095 -1.150026,0.428744 -1.150026,1.556344 v 0.597516 l 0.276155,-0.0023 c 0.151884,-7.41e-4 0.430678,-0.07206 0.619549,-0.157844 z m -6.163857,3.351011 c 0,-0.05301 0.07801,-0.24791 0.173354,-0.433044 0.378813,-0.735559 0.506539,-1.304215 0.50338,-2.241217 -0.0053,-1.488044 -0.300255,-2.343893 -0.808596,-2.343893 -0.30875,0 -0.464015,0.259771 -0.761832,1.274555 -0.331295,1.128889 -0.238486,1.831852 0.321487,2.435024 l 0.209634,0.225803 -0.349777,0.09327 c -1.147695,0.306069 -2.809902,0.673437 -2.872366,0.634836 -0.04026,-0.02491 0.03713,-0.185817 0.172145,-0.357584 0.326276,-0.415251 0.52634,-0.817226 0.661388,-1.328909 0.182161,-0.690189 0.30586,-2.696887 0.272553,-4.42149 -0.03448,-1.783473 -0.09399,-2.020449 -0.579857,-2.307456 -0.140439,-0.08296 -0.255346,-0.210814 -0.255346,-0.284117 0,-0.190315 0.825758,-0.969087 1.254783,-1.183385 0.456595,-0.228072 1.2104,-0.379036 1.324224,-0.265212 0.04737,0.04737 0.09046,0.889936 0.101025,1.976413 0.01019,1.041596 0.04515,1.957775 0.07776,2.035942 0.09117,0.218301 0.196277,0.226641 1.08126,0.08582 0.986582,-0.156985 1.437736,-0.0722 1.630223,0.306378 0.218895,0.430508 0.308692,1.344982 0.308692,3.1436 0,1.834818 0.02477,2.005763 0.362764,2.503658 l 0.158632,0.233668 -1.046675,0.003 c -0.784503,0.0023 -1.158403,0.04136 -1.492759,0.156882 -0.298862,0.103245 -0.446098,0.122282 -0.446098,0.05767 z m -6.230555,-0.30027 c -0.300707,-0.357368 -0.33624,-0.646199 -0.151766,-1.233455 l 0.159943,-0.509178 -0.193495,-0.229963 c -0.176001,-0.20916 -0.199108,-0.349613 -0.255508,-1.553103 -0.07937,-1.693543 -0.03863,-2.186129 0.2083,-2.52016 0.215905,-0.292026 0.184465,-0.349724 -0.269618,-0.494818 -0.174605,-0.05575 -0.336482,-0.132217 -0.359731,-0.169832 -0.02328,-0.03758 0.10908,-0.168566 0.294065,-0.290989 0.364611,-0.241282 0.96412,-0.950688 1.173407,-1.388483 0.143011,-0.299166 0.5926,-0.56062 0.891047,-0.518178 0.165169,0.0235 0.18385,0.06805 0.153796,0.36662 -0.07764,0.771381 -0.08556,0.751691 0.331607,0.823949 0.544429,0.09429 0.704372,0.363742 0.513663,0.865351 -0.05834,0.153376 -0.1672,0.229532 -0.387199,0.270803 -0.573673,0.107628 -0.593801,0.201458 -0.593801,2.769145 0,1.666824 0.02743,2.299797 0.103001,2.375326 0.08068,0.08065 0.186164,0.02632 0.486679,-0.250691 0.367472,-0.338723 0.642388,-0.45251 0.642388,-0.265872 0,0.22515 -0.459079,0.953801 -0.825038,1.309486 -0.405941,0.394561 -1.279773,0.896911 -1.560147,0.896911 -0.08184,0 -0.244565,-0.113788 -0.361593,-0.252869 z m 22.015941,-4.994038 c -0.406562,-0.463683 -0.503574,-1.021551 -0.265041,-1.524199 0.151484,-0.319241 0.720829,-0.752856 0.898038,-0.683948 0.0596,0.02313 0.269378,0.35295 0.466225,0.732854 l 0.357902,0.690738 -0.264886,0.301693 c -0.240497,0.273909 -0.799248,0.631559 -0.986673,0.631559 -0.04136,0 -0.133862,-0.06694 -0.205565,-0.148697 z"
       id="path1" />
  </g>
  <g
     inkscape:groupmode="layer"
     id="layer2"
     inkscape:label="logo" />
</svg>
