<?xml version="1.0" encoding="UTF-8" standalone="no"?>
<!-- Created with Inkscape (http://www.inkscape.org/) -->

<svg
   width="300"
   height="400"
   viewBox="0 0 79.374998 105.83333"
   version="1.1"
   id="svg1"
   inkscape:version="1.3 (0e150ed6c4, 2023-07-21)"
   sodipodi:docname="card_back.svg"
   xmlns:inkscape="http://www.inkscape.org/namespaces/inkscape"
   xmlns:sodipodi="http://sodipodi.sourceforge.net/DTD/sodipodi-0.dtd"
   xmlns="http://www.w3.org/2000/svg"
   xmlns:svg="http://www.w3.org/2000/svg">
  <sodipodi:namedview
     id="namedview1"
     pagecolor="#ffffff"
     bordercolor="#000000"
     borderopacity="0.25"
     inkscape:showpageshadow="2"
     inkscape:pageopacity="0.0"
     inkscape:pagecheckerboard="0"
     inkscape:deskcolor="#d1d1d1"
     inkscape:document-units="mm"
     inkscape:zoom="1.4342733"
     inkscape:cx="163.14882"
     inkscape:cy="184.41395"
     inkscape:window-width="1920"
     inkscape:window-height="1011"
     inkscape:window-x="0"
     inkscape:window-y="0"
     inkscape:window-maximized="1"
     inkscape:current-layer="layer2" />
  <defs
     id="defs1" />
  <g
     inkscape:label="background"
     inkscape:groupmode="layer"
     id="layer1">
    <rect
       style="fill:#3f1819;stroke:none;stroke-width:0.907573;stroke-dasharray:none"
       id="rect1"
       width="79.375"
       height="105.83334"
       x="-1.0658141e-14"
       y="-5.0862632e-06"
       rx="0"
       ry="7.6386557"
       inkscape:label="back"
       sodipodi:insensitive="true" />
    <rect
       style="fill:#3f1819;stroke:#ffffff;stroke-width:3.31249;stroke-dasharray:none;stroke-opacity:1"
       id="rect2"
       width="68.739899"
       height="95.750214"
       x="5.3175507"
       y="5.0415597"
       rx="0"
       ry="6.9108934"
       inkscape:label="border"
       sodipodi:insensitive="true" />
  </g>
  <g
     inkscape:groupmode="layer"
     id="layer2"
     inkscape:label="logo">
    <path
       style="fill:#ffffff;fill-opacity:1;stroke-width:0.0642"
       d="m 37.942008,78.826227 c -6.481625,-0.424401 -12.124231,-2.85494 -15.941438,-6.866752 -0.967822,-1.017163 -1.413896,-1.617618 -1.413896,-1.903252 0,-0.288576 0.19463,-0.494393 1.062969,-1.124088 0.44921,-0.325752 0.817399,-0.611538 0.818197,-0.635079 0.0011,-0.02356 -0.441584,-0.345635 -0.98307,-0.715766 -2.171273,-1.484172 -3.999369,-3.075935 -5.402117,-4.703736 -2.030824,-2.356642 -3.287364,-4.273148 -4.345818,-6.628341 -0.490316,-1.091015 -0.707422,-1.854704 -0.868518,-3.055097 -0.138651,-1.033171 -0.165763,-2.102642 -0.0533,-2.102642 0.14429,0 0.351947,0.316904 0.785248,1.198401 0.463736,0.943398 0.919623,1.713057 1.013136,1.710463 0.0304,-0.0011 0.147466,-0.292718 0.260139,-0.648606 0.244974,-0.773753 0.69261,-1.72971 0.996536,-2.12818 0.173575,-0.227566 0.830003,-0.645675 1.013711,-0.645675 0.01878,0 -0.05691,0.221487 -0.168233,0.4922 -0.239931,0.583433 -0.25361,0.931917 -0.06904,1.759297 0.32889,1.474358 2.274507,4.898258 3.859024,6.791103 0.320726,0.383142 0.828857,0.991706 1.129179,1.352371 1.169032,1.403898 3.557822,3.406622 5.82631,4.884671 1.199069,0.781259 2.066388,1.529891 2.229964,1.924795 0.156243,0.377198 -0.01069,0.569857 -0.928818,1.071963 -0.42961,0.234948 -0.78147,0.450041 -0.78191,0.477979 -0.0011,0.07695 0.738455,0.675946 1.4116,1.143161 0.943441,0.654805 3.48448,1.905656 4.408402,2.170067 0.164776,0.04717 0.781096,0.227268 1.369598,0.400251 1.979124,0.581733 3.411893,0.785635 6.07759,0.864931 2.251231,0.06697 3.206261,-0.01075 5.28142,-0.42961 2.512555,-0.507192 3.704687,-0.903263 5.678447,-1.886615 1.176305,-0.586049 3.42092,-1.967736 3.42092,-2.105769 0,-0.08304 -0.304285,-0.285536 -1.261187,-0.839267 -0.723788,-0.418847 -0.854243,-0.597545 -0.702928,-0.962862 0.121466,-0.293239 0.962177,-1.080023 1.573259,-1.472339 2.92669,-1.878945 5.346638,-3.887476 6.686345,-5.549598 0.278377,-0.345369 0.703721,-0.859058 0.945232,-1.141538 1.48727,-1.739632 3.554028,-5.375063 3.844455,-6.762395 0.168521,-0.804996 0.160021,-1.156167 -0.04076,-1.684577 -0.09305,-0.24487 -0.153724,-0.460658 -0.134852,-0.479536 0.07957,-0.07957 0.432189,0.10579 0.754641,0.396685 0.390475,0.352278 0.864057,1.259818 1.183057,2.267156 0.113699,0.359036 0.22908,0.653491 0.256405,0.654333 0.119447,0.0038 0.611212,-0.806494 1.039422,-1.712455 0.432819,-0.915709 0.688083,-1.288147 0.803655,-1.172575 0.153062,0.153073 -0.03355,2.144523 -0.316481,3.377566 -0.482897,2.104389 -2.500422,5.525721 -4.893687,8.298745 -1.467166,1.69996 -3.984767,3.867714 -5.948036,5.121464 -0.293836,0.18765 -0.533506,0.360437 -0.5326,0.383978 0.0011,0.02356 0.296062,0.254657 0.655902,0.513602 1.077195,0.775131 1.224146,0.923667 1.224146,1.237299 0,0.696697 -2.414634,3.161388 -4.568331,4.663021 -1.633733,1.139109 -4.164937,2.358611 -6.315968,3.042961 -1.136779,0.36166 -3.448467,0.842447 -4.90888,1.020928 -1.339891,0.16376 -3.656231,0.226846 -5.029044,0.136959 z M 42.02945,78.44061 c 4.366015,-0.41856 7.202763,-1.318536 11.190158,-3.550147 0.358808,-0.200812 1.488698,-1.020029 2.114686,-1.533235 1.341325,-1.099668 3.087541,-3.007462 3.087541,-3.37324 0,-0.282377 -0.461928,-0.254158 -1.252578,0.07651 -0.545681,0.228223 -0.923466,0.327809 -1.344082,0.354309 -0.570824,0.03593 -0.597165,0.02839 -1.082646,-0.312182 -0.27367,-0.191965 -0.556488,-0.371635 -0.628473,-0.399258 -0.07992,-0.03067 -0.374989,0.13261 -0.757751,0.419308 -1.902405,1.424948 -4.623397,2.715678 -7.089656,3.363068 -2.244186,0.589089 -4.100583,0.824108 -6.462795,0.818185 -2.760301,-0.0069 -4.775091,-0.290644 -7.158172,-1.008038 -2.249679,-0.677233 -4.405568,-1.731604 -6.022182,-2.94523 -0.563843,-0.423287 -1.041051,-0.769612 -1.060461,-0.769612 -0.01944,0 -0.358564,0.215093 -0.753664,0.477984 -0.708867,0.471661 -0.725416,0.47754 -1.250737,0.443799 -0.351872,-0.02258 -0.812161,-0.145066 -1.357608,-0.361218 -0.83409,-0.330529 -1.271956,-0.364111 -1.271956,-0.09755 0,0.187671 0.690982,1.05999 1.466579,1.851448 1.118416,1.141289 2.768145,2.406079 4.482613,3.43666 0.694662,0.417567 2.821865,1.389537 3.809195,1.740526 0.514553,0.182904 3.462726,0.949856 3.894794,1.0132 0.188323,0.02756 0.727605,0.111176 1.198402,0.185722 1.777264,0.28138 4.350459,0.350971 6.248793,0.168989 z m -4.344195,-1.169453 c -0.202098,-0.07383 -0.235399,-0.133404 -0.235399,-0.421236 0,-0.278207 0.02915,-0.335275 0.171203,-0.335275 0.113107,0 0.171197,0.05708 0.171197,0.168191 0,0.23173 0.291003,0.378943 0.513596,0.259808 0.259803,-0.139042 0.206708,-0.317833 -0.163841,-0.551752 -0.575172,-0.363096 -0.651049,-0.556999 -0.412557,-1.054315 0.122981,-0.256447 0.622336,-0.407463 0.942393,-0.285003 0.277401,0.106132 0.358255,0.26706 0.28361,0.564468 -0.0634,0.252576 -0.307204,0.28879 -0.307204,0.04556 0,-0.231854 -0.275653,-0.370291 -0.463633,-0.232838 -0.209313,0.153054 -0.095,0.358363 0.342172,0.614564 0.606891,0.355659 0.604731,0.94881 -0.0043,1.203309 -0.338318,0.141363 -0.503843,0.146202 -0.837156,0.02446 z m 2.022406,-0.102783 c 0.06388,-0.254552 0.220635,-1.331272 0.222892,-1.531122 0.0011,-0.09505 -0.06318,-0.149801 -0.175778,-0.149801 -0.269051,0 -0.170323,-0.274401 0.127366,-0.354012 0.331599,-0.08868 0.391019,-0.04559 0.898986,0.65178 l 0.435121,0.59736 v -0.56548 c 0,-0.35036 0.04071,-0.597567 0.107005,-0.649801 0.169841,-0.133842 0.968095,-0.196909 1.079693,-0.08531 0.05667,0.05667 0.0973,0.387165 0.0973,0.791421 0,0.820954 0.114253,1.065951 0.420627,0.901987 0.319071,-0.170761 0.452604,-0.619101 0.385927,-1.295758 -0.04081,-0.414471 -0.02931,-0.594591 0.03838,-0.602088 0.332813,-0.03685 0.604628,-0.07436 0.867063,-0.119702 0.279393,-0.04826 0.334046,-0.01677 0.810516,0.467324 0.28101,0.285486 0.536953,0.519086 0.568788,0.519086 0.03181,0 0.02432,-0.144456 -0.01666,-0.321006 -0.120267,-0.517916 -0.09635,-0.937887 0.05678,-0.996644 0.252524,-0.0969 0.292599,-0.05254 0.292599,0.323787 0,0.206658 0.05944,0.689139 0.13211,1.072176 0.203407,1.072298 0.07741,1.117224 -0.815308,0.290704 l -0.618438,-0.572589 0.06092,0.650192 c 0.06972,0.743971 0.04934,0.77103 -0.657252,0.873476 -0.329102,0.04768 -0.414656,0.03173 -0.482858,-0.09013 -0.07583,-0.135496 -0.105688,-0.128929 -0.350542,0.07711 -0.313946,0.264169 -0.706175,0.25823 -0.979216,-0.0148 -0.137273,-0.137268 -0.179399,-0.318382 -0.210089,-0.903184 -0.03381,-0.644449 -0.05748,-0.731483 -0.198863,-0.731483 -0.147156,0 -0.160466,0.07808 -0.160466,0.941605 0,0.875665 -0.01167,0.941596 -0.166497,0.941596 -0.15177,0 -0.673698,-0.558479 -1.039427,-1.112216 -0.132133,-0.200062 -0.137556,-0.18831 -0.194201,0.421166 -0.06894,0.741728 -0.08553,0.776648 -0.369002,0.776648 -0.186656,0 -0.210886,-0.02925 -0.167463,-0.202269 z m 4.55076,-0.57359 c 0.03094,-0.05008 0.02958,-0.392973 -0.0027,-0.76198 -0.05579,-0.630256 -0.07256,-0.673436 -0.276619,-0.712447 l -0.217232,-0.04152 0.0561,0.603609 c 0.03089,0.331979 0.07868,0.693559 0.106269,0.803503 0.05205,0.20741 0.236576,0.26743 0.334589,0.108837 z m -7.733838,-0.04786 c -0.1973,-0.36306 -0.358727,-0.692193 -0.358727,-0.731421 0,-0.03926 -0.03148,-0.07135 -0.06989,-0.07135 -0.03843,0 -0.119365,0.248888 -0.179833,0.553081 -0.06046,0.304193 -0.161975,0.596279 -0.22559,0.649067 -0.150251,0.124701 -0.431125,0.06284 -0.397249,-0.08748 0.0216,-0.0959 0.0027,-0.09687 -0.107392,-0.0053 -0.110111,0.09139 -0.254,0.08358 -0.818022,-0.04449 -0.376428,-0.08544 -0.683937,-0.176965 -0.683351,-0.203404 5.44e-4,-0.02641 0.09688,-0.39447 0.213997,-0.817852 0.248681,-0.899004 0.256063,-0.985004 0.08454,-0.985004 -0.156645,0 -0.171518,-0.245625 -0.0184,-0.304372 0.06048,-0.02323 0.416789,0.02101 0.7918,0.09831 0.375006,0.07728 0.855166,0.16489 1.067029,0.194684 0.378854,0.0533 0.390562,0.06474 0.711337,0.696177 0.426956,0.840452 0.485143,0.8902 0.495592,0.423718 0.01558,-0.69689 0.213258,-1.034763 0.533436,-0.911902 0.124419,0.04776 0.12506,0.08181 0.0069,0.364688 -0.0717,0.171612 -0.178308,0.645176 -0.236897,1.052356 -0.09111,0.633211 -0.131411,0.743988 -0.278502,0.765552 -0.135975,0.01994 -0.24708,-0.112985 -0.530705,-0.634886 z m -0.905255,-0.680787 c 0.132224,-0.560856 0.136035,-0.657549 0.02855,-0.724801 -0.08876,-0.05554 -0.14643,-0.02855 -0.202848,0.09489 -0.09836,0.215238 -0.34881,0.179671 -0.349021,-0.04955 -1.25e-4,-0.121298 -0.0668,-0.177743 -0.232566,-0.196861 -0.190618,-0.02198 -0.242732,0.01428 -0.289787,0.201789 -0.06373,0.253942 0.05608,0.377934 0.367347,0.380096 0.223918,0.0018 0.298243,0.09536 0.20067,0.253232 -0.04955,0.08012 -0.17841,0.100975 -0.422352,0.06824 -0.235236,-0.03155 -0.351449,-0.01445 -0.35223,0.05176 -5.43e-4,0.05442 -0.02312,0.180644 -0.04993,0.280591 -0.04174,0.155491 -0.0016,0.190518 0.2753,0.242534 0.254896,0.04786 0.34691,0.0296 0.431032,-0.08544 0.135345,-0.185102 0.391235,-0.103395 0.313187,0.100009 -0.03582,0.09344 -0.02253,0.125073 0.03713,0.08819 0.05113,-0.03155 0.161649,-0.348712 0.245565,-0.704664 z m -2.791864,0.568538 c 0,-0.05025 -0.146381,-0.09129 -0.325281,-0.09129 -0.543531,0 -0.647037,-0.247053 -0.398942,-0.952231 l 0.131779,-0.374566 -0.508477,0.502511 c -0.282715,0.279394 -0.550258,0.476683 -0.602578,0.444342 -0.05222,-0.03226 -0.0941,-0.297165 -0.0941,-0.595233 0,-0.295397 -0.02491,-0.561995 -0.05536,-0.59244 -0.03045,-0.03045 -0.142043,0.131752 -0.248002,0.360441 -0.240029,0.518085 -0.307368,0.559413 -0.704106,0.432052 -0.460453,-0.147815 -0.60559,-0.308235 -0.760259,-0.840292 l -0.13736,-0.472485 -0.170996,0.337753 c -0.221964,0.43842 -0.200649,0.423737 -0.450198,0.310033 l -0.215815,-0.09833 0.396304,-0.789082 c 0.321166,-0.639481 0.378246,-0.818006 0.30105,-0.941616 -0.250114,-0.40049 0.07157,-0.411753 0.901998,-0.03159 0.334052,0.152938 0.466368,0.265687 0.508425,0.433248 0.08262,0.329199 -0.08207,0.611266 -0.430458,0.737249 -0.167653,0.06062 -0.304822,0.140226 -0.304822,0.176892 0,0.170469 0.282579,0.746514 0.385595,0.786041 0.151011,0.05795 0.235166,-0.05173 0.550936,-0.718128 0.228293,-0.481783 0.245777,-0.566589 0.133837,-0.649213 -0.217606,-0.160602 -0.144058,-0.290162 0.164722,-0.290162 0.463534,0 0.562508,0.166747 0.562508,0.947713 0,0.373274 0.03289,0.678682 0.07307,0.678682 0.04022,0 0.302516,-0.248681 0.582939,-0.552635 0.408089,-0.442327 0.547272,-0.542853 0.697322,-0.50362 0.103104,0.02698 0.187465,0.08084 0.187465,0.119719 0,0.03886 0.163706,0.08254 0.363802,0.09702 0.33562,0.02432 0.365462,0.04619 0.385307,0.283122 0.01183,0.14124 -0.08617,0.622736 -0.217763,1.069997 -0.220597,0.749722 -0.257356,0.815308 -0.470912,0.840284 -0.127399,0.01489 -0.231631,-0.014 -0.231631,-0.06417 z m 0.424671,-1.739082 c 0.0016,-0.08239 -0.05445,-0.1498 -0.125071,-0.1498 -0.07062,0 -0.131302,-0.04814 -0.134847,-0.107001 -0.0073,-0.120549 -0.507159,1.289997 -0.507159,1.431032 0,0.04981 0.08667,0.128601 0.192599,0.175069 0.182863,0.08021 0.20217,0.05203 0.381878,-0.557504 0.104103,-0.353099 0.19077,-0.709405 0.1926,-0.791796 z M 29.75149,73.858031 c 0.209633,-0.112196 0.214176,-0.392955 0.0082,-0.503219 -0.131264,-0.07026 -0.180365,-0.03615 -0.29547,0.205231 -0.129841,0.272281 -0.116168,0.327104 0.09472,0.379841 0.01487,0.0038 0.101535,-0.03311 0.1926,-0.08185 z m 18.612351,2.566098 c -0.188317,-0.039 -0.636936,-0.07303 -0.996928,-0.07578 -0.634009,-0.0053 -0.662501,-0.01409 -0.908793,-0.294524 -0.468122,-0.533157 -0.433785,-1.374491 0.07351,-1.801355 0.205142,-0.172613 0.354726,-0.220249 0.691638,-0.220249 0.369507,0 0.464387,0.03691 0.675501,0.26293 0.340902,0.364942 0.436222,1.043446 0.216874,1.543793 -0.05059,0.115439 0.02632,0.146052 0.47915,0.190641 0.709622,0.06984 1.13876,-0.03917 1.488764,-0.378446 0.233488,-0.226306 0.295964,-0.252682 0.338134,-0.142782 0.02844,0.07418 -0.01134,0.256874 -0.08853,0.406063 -0.258663,0.500206 -1.038891,0.702138 -1.969315,0.509689 z m -0.727599,-0.594294 c 0.417317,-0.417311 -0.09198,-1.558092 -0.634786,-1.421856 -0.304534,0.07643 -0.420063,0.339881 -0.351008,0.800398 0.100606,0.670886 0.61321,0.994037 0.985794,0.621458 z m 1.137967,-0.278198 c -0.174801,-0.191404 -0.30569,-0.518083 -0.437306,-1.091398 -0.04956,-0.215831 -0.121218,-0.307248 -0.256319,-0.326952 -0.28558,-0.04169 -0.224043,-0.25761 0.120185,-0.421756 0.291606,-0.139063 0.313464,-0.138901 0.417344,0.0033 0.06029,0.08246 0.134227,0.303791 0.164298,0.491852 0.100313,0.627323 0.305386,1.024084 0.529316,1.024084 0.396429,0 0.478305,-0.621282 0.205513,-1.559446 -0.127763,-0.439386 -0.121527,-0.464398 0.126856,-0.508213 0.140046,-0.02469 0.21056,0.08956 0.430842,0.69806 0.455252,1.257642 0.51763,1.250961 0.599033,-0.06419 0.06495,-1.049297 0.142352,-1.333753 0.350807,-1.289168 0.0683,0.0146 0.365691,0.315467 0.660884,0.668564 0.336511,0.402531 0.611886,0.652802 0.738254,0.670953 0.181336,0.02606 0.196507,0.0038 0.151336,-0.222111 -0.02763,-0.138081 -0.147824,-0.471764 -0.267119,-0.741515 -0.17973,-0.406407 -0.245333,-0.481437 -0.382795,-0.437812 -0.0916,0.0291 -0.194428,0.0065 -0.229612,-0.05042 -0.07684,-0.124327 0.33537,-0.503061 0.547527,-0.503061 0.08045,0 0.389036,0.196437 0.68576,0.436526 0.296729,0.240088 0.553177,0.422857 0.569878,0.40615 0.01672,-0.01672 -5.42e-4,-0.357597 -0.038,-0.757528 -0.06341,-0.674052 -0.05549,-0.738471 0.108315,-0.882251 0.173368,-0.152162 0.180321,-0.148916 0.366641,0.171202 0.72331,1.242672 0.71994,1.238629 0.984741,1.180468 0.303248,-0.0666 0.341135,0.123165 0.07728,0.387028 -0.29718,0.297185 -0.570026,0.222746 -0.862869,-0.235399 l -0.259895,-0.406601 0.01145,0.599201 c 0.01503,0.783436 0.01205,0.813197 -0.07943,0.813197 -0.04288,0 -0.277059,-0.15741 -0.520458,-0.349808 -0.243394,-0.192394 -0.456435,-0.335914 -0.473424,-0.318924 -0.01699,0.01699 0.04385,0.197859 0.135258,0.401954 0.223854,0.499978 0.211913,0.583444 -0.11206,0.783414 -0.49265,0.304084 -0.646054,0.304166 -0.959344,3.69e-4 -0.277823,-0.269274 -0.288983,-0.272123 -0.545762,-0.13934 -0.235248,0.121651 -0.264791,0.181652 -0.288017,0.584838 -0.02481,0.430675 -0.03995,0.455871 -0.365062,0.608548 -0.25615,0.120289 -0.375239,0.136757 -0.486485,0.06729 -0.119593,-0.07469 -0.203113,-0.0362 -0.444053,0.204767 -0.355856,0.355863 -0.709139,0.393655 -0.973511,0.104157 z m 2.505107,-1.955607 c 0.03191,-0.05162 -0.0043,-0.156156 -0.08055,-0.232342 -0.127638,-0.127644 -0.138532,-0.120267 -0.138532,0.09381 0,0.236398 0.114025,0.308497 0.219078,0.138532 z M 26.98214,74.196007 c -0.439244,-0.231821 -0.639557,-0.652389 -0.521461,-1.094826 l 0.08725,-0.326929 -0.296181,0.20099 c -0.173026,0.117423 -0.422347,0.200997 -0.599607,0.200997 -0.359905,0 -0.937389,-0.262512 -1.205653,-0.54807 l -0.191791,-0.20415 0.51998,-0.7013 c 0.516843,-0.697067 0.598186,-0.857674 0.434381,-0.857674 -0.04706,0 -0.0856,-0.05779 -0.0856,-0.128403 0,-0.183546 0.201724,-0.159196 0.677223,0.08176 0.776651,0.393558 1.113519,0.872725 1.002789,1.426369 l -0.0521,0.260634 0.262625,-0.220977 c 0.456566,-0.384179 1.236603,-0.256601 1.57333,0.257306 0.331674,0.506198 -0.007,1.463817 -0.606213,1.714191 -0.379625,0.158616 -0.611202,0.144726 -0.998952,-0.05992 z m 1.053829,-0.637967 c 0.307693,-0.497866 0.148269,-1.152199 -0.280733,-1.152199 -0.4525,0 -1.011355,1.010161 -0.739844,1.337313 0.295936,0.356578 0.735013,0.276939 1.020577,-0.185114 z m -2.2249,-0.854047 c 0.268481,-0.138836 0.510795,-0.521268 0.510795,-0.806147 0,-0.223881 -0.486679,-0.766723 -0.576512,-0.643037 -0.695617,0.957786 -0.893573,1.250271 -0.86531,1.27854 0.06467,0.06466 0.543255,0.299438 0.611479,0.299964 0.03767,2.44e-4 0.181444,-0.05791 0.319548,-0.12932 z m -1.634303,-2.646001 c 0.162404,-0.195688 -0.09701,-0.5874 -0.740567,-1.118236 -0.649246,-0.535525 -0.501313,-0.552846 -1.505323,0.176251 l -0.496201,0.360333 0.624598,0.189701 c 0.343529,0.104336 0.759418,0.261013 0.924199,0.348169 0.362911,0.191954 1.049415,0.217145 1.193294,0.0438 z m 32.676178,-0.285954 c 0.337656,-0.145159 0.722855,-0.276412 0.856001,-0.29166 0.22862,-0.02616 0.205443,-0.05512 -0.416756,-0.51993 -0.362364,-0.270714 -0.716483,-0.492206 -0.786926,-0.492206 -0.201811,0 -1.244159,0.928823 -1.302298,1.160461 -0.02882,0.114816 -0.02887,0.270039 0,0.344939 0.08249,0.214941 0.918928,0.112744 1.650114,-0.201604 z m -31.17505,-0.633039 c 1.563832,-0.931825 1.67117,-1.005465 1.67117,-1.146434 0,-0.267858 -0.829243,-1.002133 -2.086,-1.847105 -2.196448,-1.476768 -3.265941,-2.339116 -4.812544,-3.880448 -1.568853,-1.563496 -2.3523,-2.493887 -3.449937,-4.097018 -0.772656,-1.12849 -1.812703,-2.981375 -2.280765,-4.063277 -0.345825,-0.799356 -0.593002,-1.942496 -0.526781,-2.436226 0.0381,-0.283909 0.02676,-0.314213 -0.08342,-0.22279 -0.202565,0.168109 -0.54643,0.898801 -0.880676,1.871363 -0.169895,0.494338 -0.352665,0.975036 -0.406162,1.068212 -0.09692,0.168825 -0.09792,0.168825 -0.285444,0 -0.287741,-0.259048 -0.683797,-0.863916 -1.091781,-1.667414 l -0.369447,-0.727598 0.04847,0.626759 c 0.05908,0.764085 0.318853,1.959056 0.602169,2.769968 0.445043,1.273811 1.894193,3.795142 3.049014,5.304874 2.526754,3.303313 4.401003,5.004004 8.256749,7.49216 0.634564,0.409488 1.37976,1.108927 1.440862,1.352386 0.0298,0.118704 0.08144,0.215831 0.114768,0.215831 0.03333,0 0.523726,-0.275956 1.089768,-0.613243 z m -2.145283,-0.962601 c -0.330519,-0.145186 -0.634737,-0.523681 -0.634737,-0.789694 0,-0.163717 -0.04505,-0.202522 -0.235405,-0.202777 -0.315808,-3.74e-4 -0.768781,-0.287599 -0.946605,-0.600123 -0.08802,-0.154685 -0.215115,-0.25469 -0.324124,-0.255015 -0.09863,-2.45e-4 -0.250798,-0.07951 -0.33815,-0.176029 -0.162414,-0.179469 -0.161063,-0.191806 0.0856,-0.780944 0.111766,-0.266957 -0.218497,-0.340456 -0.702837,-0.156428 l -0.431679,0.164027 -0.233417,-0.216325 c -0.207483,-0.19229 -0.227642,-0.258462 -0.181434,-0.59558 0.05876,-0.42872 0.02079,-0.457125 -0.25938,-0.193935 -0.175094,0.164493 -0.223826,0.173075 -0.433513,0.07636 l -0.23625,-0.108966 0.684799,-0.629657 c 0.558996,-0.513988 0.679746,-0.669547 0.657274,-0.846763 -0.01802,-0.142131 0.01384,-0.217096 0.09232,-0.217096 0.171729,0 0.908142,0.503436 1.007224,0.688577 0.244366,0.456603 -0.03914,0.852219 -0.610741,0.852219 -0.292581,0 -0.317746,0.0209 -0.371672,0.308344 -0.06994,0.372807 -0.03376,0.421311 0.214914,0.288224 0.277052,-0.148275 1.628353,-0.596568 1.798254,-0.596568 0.07956,0 0.188457,0.05276 0.241993,0.117281 0.0761,0.0917 0.01454,0.229716 -0.28215,0.632772 -0.595412,0.808812 -0.728435,1.133148 -0.464756,1.133148 0.03925,0 0.07134,-0.0565 0.07134,-0.125549 0,-0.06905 0.13249,-0.258033 0.294416,-0.419964 0.344626,-0.344621 0.927363,-0.508702 1.371319,-0.386122 0.415602,0.114752 0.753203,0.485176 0.710067,0.779082 -0.03301,0.224918 -0.01682,0.238151 0.291268,0.238151 0.238738,0 0.400441,0.06631 0.602947,0.247248 0.234465,0.209497 0.274566,0.301288 0.262609,0.601128 -0.03192,0.799763 -1.010139,1.473793 -1.699487,1.170974 z m 0.922558,-0.731713 c 0.356714,-0.356707 0.407845,-0.6356 0.14655,-0.799302 -0.333195,-0.208742 -1.190249,0.378567 -1.190249,0.815635 0,0.276098 0.05886,0.322425 0.409537,0.322425 0.229977,0 0.370436,-0.07503 0.634162,-0.338758 z M 23.276531,66.62847 c 0.174357,-0.16444 0.293521,-0.336983 0.264819,-0.383435 -0.02872,-0.04646 -0.01341,-0.156965 0.03403,-0.245592 0.221118,-0.413164 -0.468137,-0.640839 -0.960098,-0.317139 -0.277715,0.182733 -0.521641,0.605552 -0.452815,0.784897 0.02606,0.06793 0.21182,0.196556 0.412794,0.28583 0.20097,0.08928 0.369643,0.165041 0.374827,0.168368 0.0054,0.0033 0.15208,-0.128495 0.32643,-0.292929 z m -1.705457,-1.755421 c 0.0291,-0.04706 -0.0072,-0.0856 -0.08056,-0.0856 -0.07339,0 -0.133452,0.03853 -0.133452,0.0856 0,0.04706 0.03626,0.08561 0.08056,0.08561 0.0443,0 0.104352,-0.03854 0.133452,-0.08561 z m -0.908225,-1.229841 c 0.0732,-0.0882 0.06958,-0.139911 -0.01471,-0.20986 -0.08356,-0.06934 -0.175823,-0.04055 -0.364855,0.113959 l -0.253013,0.206789 0.267717,0.0027 c 0.147243,0.0016 0.311428,-0.04961 0.364854,-0.113959 z m -2.558571,0.05711 c -0.180849,-0.06537 -0.770398,-0.640724 -0.770398,-0.751846 0,-0.0507 0.291643,-0.337514 0.648095,-0.637299 0.542116,-0.455924 0.640052,-0.577131 0.598887,-0.741146 -0.0809,-0.322333 0.108357,-0.326187 0.513613,-0.01042 0.55956,0.43595 0.760708,0.72711 0.760708,1.101122 0,0.692757 -1.02569,1.301776 -1.750905,1.039624 z m 0.813197,-0.525625 c 0.141241,-0.08631 0.313078,-0.262528 0.381866,-0.39161 0.109688,-0.205837 0.109688,-0.261968 0,-0.4565 -0.06878,-0.121993 -0.163587,-0.232733 -0.210663,-0.246091 -0.04706,-0.01336 -0.335985,0.205908 -0.642001,0.487249 -0.531731,0.488856 -0.549035,0.517141 -0.390241,0.638021 0.224055,0.170557 0.550333,0.158783 0.861039,-0.03105 z m 36.730293,5.452981 c 0.325194,-0.264672 0.789532,-0.602284 1.031851,-0.750244 4.434098,-2.707482 8.055454,-6.64836 10.351444,-11.264776 0.69477,-1.396933 0.986821,-2.343843 1.188034,-3.851995 0.06282,-0.470798 0.104336,-0.866739 0.09226,-0.879868 -0.01205,-0.01313 -0.216487,0.372454 -0.454263,0.856848 -0.421013,0.85769 -1.066368,1.728385 -1.238531,1.671001 -0.04701,-0.01569 -0.252578,-0.502578 -0.456777,-1.081999 -0.362542,-1.028698 -0.783756,-1.899512 -0.944743,-1.953172 -0.04446,-0.01482 -0.06586,0.124647 -0.04798,0.312258 0.01781,0.186461 -0.02974,0.65868 -0.105655,1.049377 -0.28013,1.442034 -2.262749,4.976984 -3.969357,7.077205 -2.128609,2.619565 -3.825111,4.134122 -7.092083,6.331476 -1.320502,0.888179 -2.03331,1.532616 -1.983178,1.792966 0.01536,0.07986 0.316384,0.315456 0.668896,0.523547 0.352511,0.208085 0.966639,0.580019 1.364718,0.826523 l 0.723767,0.448179 0.14016,-0.313051 c 0.08315,-0.185728 0.380639,-0.508771 0.73142,-0.794275 z m -1.281118,-0.59082 c -0.370684,-0.326056 -0.708741,-0.57135 -0.751232,-0.54509 -0.0425,0.02627 -0.06661,0.146739 -0.05363,0.267733 0.03268,0.304182 -0.143178,0.335723 -0.406064,0.07283 -0.273259,-0.273264 -0.228147,-0.364214 0.386898,-0.779983 0.258934,-0.175046 0.569765,-0.410114 0.690732,-0.52238 0.376389,-0.349331 0.492558,0.09678 0.125087,0.48034 l -0.211386,0.220634 0.591092,0.46885 c 0.3251,0.257864 0.613486,0.521879 0.640854,0.586694 0.05666,0.134179 -0.09705,0.355394 -0.241869,0.348078 -0.05308,-0.0027 -0.399811,-0.271658 -0.7705,-0.597714 z m 1.407052,-0.936982 c -0.550279,-0.509862 -0.669172,-0.583248 -0.877394,-0.541599 -0.308735,0.06174 -0.323417,-0.122633 -0.03159,-0.396777 0.307715,-0.289086 0.517977,-0.191855 1.281253,0.592487 0.560603,0.576066 0.652324,0.708894 0.563463,0.815965 -0.05838,0.07034 -0.149583,0.126053 -0.202663,0.123795 -0.05309,-0.0021 -0.382957,-0.269497 -0.733048,-0.593871 z m 1.245077,-0.762777 c -0.611713,-0.578998 -0.908143,-0.741147 -0.908143,-0.49677 0,0.0612 0.04017,0.151434 0.08922,0.200508 0.06191,0.06191 0.05249,0.119708 -0.03067,0.188752 -0.09471,0.07861 -0.167452,0.052 -0.346025,-0.12658 -0.124355,-0.12436 -0.226107,-0.258522 -0.226107,-0.298152 0,-0.03963 0.254342,-0.281839 0.565206,-0.53825 0.310863,-0.25641 0.621656,-0.54681 0.690656,-0.645311 0.069,-0.09851 0.161334,-0.156932 0.205198,-0.129825 0.153985,0.09517 0.07751,0.477186 -0.138847,0.693554 l -0.218599,0.218589 0.656476,0.612113 c 0.654246,0.610031 0.655885,0.612663 0.480274,0.770767 -0.173948,0.156624 -0.184424,0.15087 -0.818619,-0.449395 z m 1.230068,-1.117807 c -0.442942,-0.49055 -0.679855,-0.688637 -0.823609,-0.688637 -0.111978,0 -0.20181,-0.05124 -0.20181,-0.115138 0,-0.150972 0.277063,-0.398464 0.446078,-0.398464 0.115453,0 1.284738,1.20181 1.456419,1.496932 0.03523,0.06059 -0.0066,0.168836 -0.09659,0.250342 -0.151124,0.136768 -0.188278,0.110822 -0.780488,-0.545035 z m 0.872649,-0.694266 c -0.534777,-0.579122 -0.657698,-0.671485 -0.8346,-0.627084 -0.155146,0.03892 -0.207461,0.01732 -0.207461,-0.08561 0,-0.166742 0.298113,-0.480086 0.45675,-0.480086 0.0629,0 0.37468,0.269645 0.692838,0.599202 0.318164,0.329562 0.607408,0.599206 0.642777,0.599206 0.135763,0 0.349282,-0.324102 0.299307,-0.454324 -0.0859,-0.223859 0.0324,-0.329991 0.246118,-0.220819 0.103072,0.05265 -0.04142,-0.138743 -0.321084,-0.425312 -0.411535,-0.421685 -0.546191,-0.511572 -0.706201,-0.47141 -0.274784,0.06897 -0.266588,-0.216787 0.01379,-0.480183 0.247633,-0.232641 0.225655,-0.24512 1.014296,0.57597 0.491065,0.511268 0.521625,0.528952 0.674731,0.390398 0.116228,-0.105183 0.145827,-0.211347 0.107522,-0.385725 -0.04331,-0.197132 -0.02378,-0.240599 0.108037,-0.240599 0.08849,0 0.207109,0.04625 0.263608,0.102724 0.156487,0.156493 0.133186,0.0754 -0.287534,-1.000597 -0.568994,-1.455186 -0.470938,-1.599401 0.614589,-0.903882 1.05804,0.677907 1.261284,0.580952 0.501807,-0.239371 -0.337249,-0.36427 -0.518009,-0.498117 -0.632338,-0.46822 -0.234156,0.06123 -0.290888,-0.102713 -0.137907,-0.398535 0.153675,-0.29718 0.268883,-0.311955 1.02494,-0.131438 0.554638,0.132426 0.688626,0.106768 0.421078,-0.08063 -0.09425,-0.06601 -0.280755,-0.277889 -0.414477,-0.470842 l -0.243117,-0.350821 0.170019,-0.190586 c 0.0935,-0.104829 0.272679,-0.370744 0.398167,-0.590934 0.447783,-0.785683 0.938333,-0.953336 1.456999,-0.497937 0.622243,0.546338 0.752795,1.346302 0.317735,1.946887 -0.138124,0.190683 -0.290916,0.371276 -0.339528,0.401325 -0.04863,0.03007 -0.363759,-0.23528 -0.700334,-0.589599 -0.556021,-0.585348 -0.763385,-0.710565 -0.763385,-0.460962 0,0.04934 0.274437,0.372704 0.609862,0.718627 0.887141,0.914911 0.796224,1.007831 -0.734797,0.751025 l -0.338942,-0.05686 0.381736,0.406379 c 0.498143,0.530293 0.528518,0.635009 0.279219,0.962606 -0.275978,0.362652 -0.381812,0.389526 -0.764867,0.194229 -0.318089,-0.162165 -0.329345,-0.162302 -0.485698,-0.0059 -0.156362,0.156353 -0.155923,0.168191 0.01873,0.510498 0.227453,0.445835 0.23001,0.702283 0.0076,0.760449 -0.09416,0.02464 -0.171203,0.08832 -0.171203,0.14156 0,0.05325 -0.202228,0.282937 -0.449395,0.510454 -0.346134,0.318609 -0.480107,0.394585 -0.582998,0.330622 -0.110904,-0.06894 -0.127795,-0.04354 -0.09946,0.149571 0.02676,0.182162 -0.01857,0.266078 -0.208808,0.386888 -0.13362,0.08485 -0.33924,0.243047 -0.45694,0.351556 l -0.213996,0.197284 z m 2.533516,-3.006425 c -0.01862,-0.0559 -0.07965,-0.116902 -0.135589,-0.135547 -0.06255,-0.02085 -0.08168,0.01829 -0.04972,0.101644 0.05971,0.155597 0.236636,0.187975 0.185283,0.03393 z m 2.931678,-2.428579 c 0.116565,-0.353207 0.01845,-0.681987 -0.286747,-0.96107 -0.313122,-0.286313 -0.558752,-0.316368 -0.792317,-0.09695 l -0.206825,0.194309 0.535113,0.573825 c 0.294314,0.315608 0.561015,0.578488 0.59267,0.584176 0.03165,0.0057 0.102806,-0.126742 0.158106,-0.294292 z m 0.640333,-0.989403 c -0.09416,-0.04972 -0.369419,-0.306994 -0.611685,-0.571676 -0.381524,-0.416828 -0.458731,-0.466103 -0.576783,-0.368123 -0.193555,0.160634 -0.276738,-0.08562 -0.140236,-0.415151 0.166138,-0.401108 0.30423,-0.376611 0.760101,0.134863 0.536214,0.601627 0.765735,0.767635 0.889791,0.64358 0.162414,-0.162415 -0.08262,-0.740664 -0.5385,-1.270778 -0.40994,-0.476703 -0.51021,-0.783436 -0.280771,-0.858944 0.05561,-0.01829 0.359953,0.238694 0.676299,0.571095 0.316335,0.332407 0.615593,0.604373 0.664993,0.604373 0.05554,0 0.05064,-0.03919 -0.01286,-0.102717 -0.0565,-0.0565 -0.102724,-0.175116 -0.102724,-0.263603 0,-0.132604 0.04321,-0.151396 0.245679,-0.106919 0.203206,0.04462 0.25399,0.0222 0.293744,-0.129858 0.108097,-0.413349 -0.116359,-0.531992 -0.536709,-0.283686 -0.478245,0.282508 -0.944309,-0.09586 -0.944309,-0.76662 0,-0.305599 0.273107,-0.743394 0.463747,-0.743394 0.150972,0 0.392249,0.282573 0.392249,0.459383 0,0.108504 -0.06081,0.139932 -0.235398,0.121656 -0.20059,-0.02101 -0.235394,0.007 -0.235394,0.189358 0,0.174037 0.03995,0.212016 0.213997,0.20337 0.1177,-0.0058 0.337259,-0.06171 0.487917,-0.124148 0.243448,-0.100895 0.2935,-0.09578 0.450133,0.04597 0.09692,0.08772 0.219468,0.303818 0.272326,0.48022 0.0885,0.295372 0.07071,0.372134 -0.224939,0.970466 -0.229841,0.465147 -0.366772,0.649724 -0.482039,0.649724 -0.127329,0 -0.161004,0.06348 -0.161004,0.303492 0,0.208091 -0.06605,0.369534 -0.210104,0.513597 -0.234628,0.234628 -0.273672,0.243264 -0.517489,0.11447 z M 39.22173,68.723187 c -0.131947,-0.103793 -0.272781,-0.352198 -0.35185,-0.620603 -0.263309,-0.893808 -1.146803,-2.047391 -2.119007,-2.766793 -0.298167,-0.22063 -0.894768,-0.458813 -2.353998,-0.939804 -2.788075,-0.918993 -3.172737,-1.145235 -5.046808,-2.968337 -0.810641,-0.788588 -1.527345,-1.433796 -1.592676,-1.433796 -0.142022,0 -1.015074,0.513901 -1.435527,0.844989 -0.164776,0.12976 -0.343838,0.262213 -0.397911,0.294351 -0.06036,0.03588 -1.227137,-1.24931 -3.022823,-3.329599 -1.608482,-1.863416 -2.942506,-3.434912 -2.964495,-3.49222 -0.02198,-0.05731 0.221205,-0.314067 0.540427,-0.57059 0.892678,-0.717329 3.440123,-3.295295 4.013639,-4.061719 1.927059,-2.575246 3.256333,-5.543479 3.547531,-7.92153 0.183448,-1.498072 -0.163924,-4.612604 -0.612646,-5.492998 -0.843658,-1.655269 -2.095432,-2.765338 -3.234859,-2.868658 -0.460757,-0.04178 -0.512458,-0.02715 -0.801859,0.226951 -0.395843,0.347557 -0.522905,0.738893 -0.471492,1.452161 0.07995,1.109288 0.700334,1.87552 2.084175,2.574168 0.877513,0.44302 1.264281,0.756095 1.496558,1.211403 0.216684,0.424736 0.209687,0.670402 -0.0292,1.026055 -0.16406,0.244215 -0.254407,0.295134 -0.563392,0.317522 -0.231546,0.01678 -0.444755,-0.02363 -0.575003,-0.108974 -0.300394,-0.196825 -0.253675,-0.301188 0.08789,-0.196357 0.2396,0.07354 0.335924,0.06364 0.513603,-0.05279 0.483363,-0.316711 0.187567,-0.603798 -1.168554,-1.134151 -2.058181,-0.804915 -2.87413,-1.710388 -3.153229,-3.499191 -0.107761,-0.690662 -0.05271,-1.208553 0.186547,-1.754798 0.326941,-0.746458 0.907356,-1.185348 1.929978,-1.459392 0.366235,-0.09814 0.93347,-0.319056 1.26052,-0.490915 1.071529,-0.563072 1.611999,-1.177522 2.969254,-3.375698 0.486317,-0.787618 0.853229,-1.082424 1.432569,-1.151038 0.562823,-0.06666 0.758,0.04962 2.097366,1.249529 1.523567,1.364933 2.796315,2.405329 3.349063,2.737663 0.818061,0.491845 1.891262,0.857289 2.528767,0.861091 0.823782,0.0049 1.126677,0.118697 1.54801,0.58152 0.723257,0.794477 0.927265,0.804722 1.677498,0.08424 l 0.557086,-0.534999 0.826501,-0.05242 c 0.685103,-0.04346 0.9648,-0.108368 1.634911,-0.379433 1.223272,-0.494823 1.723913,-0.872371 5.217826,-3.934904 0.626238,-0.548923 0.639178,-0.555234 1.138445,-0.555234 0.847969,0 1.110675,0.220258 1.927232,1.615777 1.181662,2.0195 2.20586,2.913867 3.834539,3.348474 1.116055,0.297813 1.659336,0.699348 2.027541,1.498541 0.161546,0.350644 0.196176,0.567239 0.191605,1.198399 -0.01134,1.559858 -0.672749,2.760639 -1.921662,3.48854 -0.211174,0.123075 -0.794585,0.381911 -1.296468,0.575188 -1.056299,0.406785 -1.155,0.489101 -1.026929,0.856478 0.08066,0.231384 0.07219,0.258588 -0.08049,0.258588 -0.09386,0 -0.265198,-0.09455 -0.380753,-0.210108 -0.371907,-0.371907 -0.233288,-1.253101 0.231984,-1.47479 0.109949,-0.05239 0.578054,-0.279043 1.040237,-0.503685 1.379076,-0.670302 2.006519,-1.416114 2.092502,-2.487307 0.05957,-0.742051 -0.02714,-1.092321 -0.356957,-1.442029 -0.266175,-0.282227 -0.319569,-0.302073 -0.812633,-0.302073 -1.122302,0 -2.347327,1.016923 -3.222435,2.675022 -0.508804,0.964039 -0.664374,1.957917 -0.673304,4.301369 -0.0069,1.811551 0.0085,2.026905 0.192361,2.696311 0.697566,2.539162 2.286427,5.469244 4.015127,7.404481 0.874353,0.97881 2.668303,2.726649 3.382537,3.295594 0.265959,0.211858 0.484628,0.423722 0.485936,0.470798 0.0011,0.04706 -0.829448,1.048601 -1.846122,2.2256 -1.01668,1.177 -2.353054,2.726448 -2.969716,3.443223 -1.112613,1.293238 -1.122547,1.301994 -1.295617,1.142103 -0.425452,-0.393069 -1.462486,-1.032931 -1.674084,-1.032931 -0.179425,0 -0.499961,0.27099 -1.504694,1.272108 -1.869951,1.863225 -2.482777,2.222664 -5.341622,3.13295 -0.823901,0.262343 -1.697631,0.591195 -1.941616,0.730791 -0.979205,0.560233 -2.085441,1.936964 -2.389671,2.973988 -0.07335,0.250038 -0.213247,0.505823 -0.316009,0.577804 -0.267749,0.18754 -0.848489,0.16464 -1.113617,-0.04392 z m 2.319135,-4.258955 c 0.635237,-0.520696 1.092839,-0.768574 1.922998,-1.04167 0.386904,-0.127279 0.558198,-0.223326 0.517359,-0.290095 -0.0336,-0.0549 -0.188762,-0.267571 -0.344864,-0.4726 -0.386209,-0.507273 -0.879994,-1.576246 -1.251275,-2.708812 -0.497959,-1.518987 -0.567122,-1.92632 -0.566883,-3.338398 2.45e-4,-1.963284 0.24841,-2.852239 1.025103,-3.673487 l 0.431749,-0.456511 -0.298335,-0.141571 C 42.734083,52.22595 42.452155,52.203957 41.466708,52.223291 l -1.211661,0.02378 -0.04126,4.151595 c -0.02269,2.283381 -0.01395,5.314135 0.01949,6.735011 l 0.06074,2.58341 0.343778,-0.397206 c 0.189083,-0.218469 0.595451,-0.603505 0.903057,-0.855638 z m -2.207813,-5.540376 v -6.719595 h -1.362114 -1.362113 l -0.499685,0.411915 c -0.274822,0.226551 -0.628149,0.50115 -0.785162,0.610214 l -0.285477,0.198294 -0.442122,-0.416975 c -1.245027,-1.17422 -1.617438,-1.544878 -1.696458,-1.688457 -0.07246,-0.131671 0.01216,-0.259293 0.517434,-0.780385 0.332233,-0.342637 0.643586,-0.726919 0.691883,-0.853961 0.04831,-0.127042 0.08782,-0.767758 0.08782,-1.423811 v -1.192827 h -3.166244 -3.16624 l -0.354732,0.70552 c -0.603266,1.199843 -1.615212,2.623404 -2.73303,3.844701 l -0.678243,0.741027 0.274621,0.09573 c 0.151043,0.05266 0.378653,0.195406 0.505808,0.317225 0.135155,0.129489 0.469929,0.287697 0.805935,0.380868 0.956032,0.2651 0.979335,0.293478 0.979335,1.192892 0,0.422636 -0.0254,0.768428 -0.05647,0.768428 -0.03105,0 -0.283316,-0.216391 -0.560597,-0.480867 -0.277275,-0.264476 -0.526998,-0.458009 -0.554935,-0.430072 -0.02795,0.02795 -0.0022,0.109515 0.05748,0.181272 0.0901,0.108559 0.08275,0.130465 -0.04375,0.130465 -0.0836,0 -0.355654,-0.192599 -0.604553,-0.427998 -0.436726,-0.413033 -0.470015,-0.427998 -0.952222,-0.427998 -0.322556,0 -0.570026,-0.04929 -0.69813,-0.139004 -0.193447,-0.135497 -0.211197,-0.12639 -0.703846,0.361121 -0.277965,0.275066 -0.504951,0.520587 -0.504402,0.545599 5.42e-4,0.03289 1.589387,1.94268 1.842941,2.21544 0.01531,0.01645 0.166524,-0.10871 0.336011,-0.278203 0.299296,-0.299296 0.326708,-0.308155 0.953347,-0.308155 0.632431,0 0.653958,-0.0072 1.088546,-0.363802 0.243844,-0.20009 0.471655,-0.402319 0.506247,-0.4494 0.03457,-0.04706 0.06508,-0.432282 0.06777,-0.855998 0.0049,-0.754103 0.01112,-0.777492 0.300908,-1.105659 l 0.29604,-0.335262 -5.42e-4,0.249658 c -3.7e-4,0.137316 -0.05829,0.438757 -0.128398,0.669867 -0.16539,0.545171 -0.174465,0.510079 0.175088,0.676771 0.279305,0.133191 0.318794,0.133652 0.513597,0.006 0.129597,-0.08492 0.211038,-0.101442 0.211038,-0.04283 0,0.140492 0.34627,0.109677 0.651103,-0.05795 0.504093,-0.277184 0.797022,-0.582765 0.745929,-0.778155 -0.05363,-0.205034 -0.198636,-0.246563 -0.198636,-0.05688 0,0.29623 -0.213003,0.556695 -0.588003,0.719023 -0.217231,0.09403 -0.404256,0.161676 -0.415611,0.150316 -0.01135,-0.01135 0.01395,-0.141322 0.05625,-0.288804 l 0.07691,-0.268157 -0.295225,0.295226 c -0.28361,0.283609 -0.456485,0.356518 -0.571839,0.241168 -0.02969,-0.02974 -0.01129,-0.13566 0.04098,-0.235404 0.09425,-0.179817 0.09349,-0.179963 -0.08914,-0.01781 -0.247536,0.219794 -0.31698,0.121043 -0.196844,-0.279924 0.05462,-0.182314 0.09907,-0.538875 0.09876,-0.792349 l -5.43e-4,-0.46087 -0.353326,0.412242 c -0.404473,0.471915 -0.578325,0.435792 -0.366174,-0.07609 l 0.139319,-0.336158 -0.222616,0.207206 c -0.278334,0.259054 -0.363563,0.189614 -0.186807,-0.1522 0.189342,-0.366146 0.171723,-0.452755 -0.07929,-0.389758 -0.240349,0.06033 -0.269052,-0.01796 -0.09778,-0.266799 0.06392,-0.09287 0.165237,-0.32293 0.225156,-0.511247 0.135493,-0.425886 0.216428,-0.528122 0.619502,-0.782567 0.435358,-0.274838 0.77379,-0.811612 0.848646,-1.346026 0.124246,-0.887062 0.28202,-1.285213 0.567291,-1.43158 0.243926,-0.125156 0.333399,-0.124047 1.105692,0.0137 1.009292,0.180023 1.509851,0.392158 1.910286,0.809574 0.364617,0.380078 0.793923,0.609835 1.370543,0.733498 l 0.434593,0.0932 -0.200806,0.20081 c -0.180034,0.180035 -0.23834,0.192377 -0.563594,0.119298 -0.444488,-0.09987 -1.247991,-0.533895 -1.605296,-0.867124 -0.145729,-0.13591 -0.622953,-0.401447 -1.060499,-0.590083 -0.882202,-0.380337 -1.310157,-0.416761 -1.353304,-0.115179 -0.03327,0.232666 0.258641,0.488383 0.510308,0.44701 0.18209,-0.02994 0.171414,-0.04699 -0.121342,-0.193932 -0.37887,-0.190168 -0.411286,-0.300601 -0.08822,-0.300601 0.160325,0 0.340142,0.11039 0.577804,0.354716 0.189771,0.195093 0.518378,0.418699 0.730242,0.496902 0.272548,0.100606 0.381329,0.186956 0.371971,0.295276 -0.01102,0.127454 0.03278,0.144461 0.261437,0.101563 0.204975,-0.03846 0.450969,0.02488 0.96957,0.249616 0.382197,0.165629 0.823092,0.325458 0.979759,0.355178 0.479259,0.09091 0.538625,0.193074 0.273194,0.470126 -0.220549,0.230199 -0.748248,0.41204 -0.862934,0.297359 -0.02936,-0.02936 0.03061,-0.142836 0.133277,-0.252133 l 0.186694,-0.198728 -0.198548,-0.106257 c -0.109205,-0.05844 -0.36961,-0.09406 -0.578689,-0.07914 -0.338714,0.02415 -0.382984,0.05167 -0.406264,0.252616 -0.03468,0.299063 0.414064,0.587705 0.91363,0.587705 0.245261,0 0.353695,0.03653 0.353695,0.119241 0,0.272075 -0.525218,0.291702 -1.39036,0.05195 -0.7923,-0.219554 -1.021761,-0.215586 -1.237619,0.02139 -0.351453,0.385872 -0.388901,0.545681 -0.279636,1.193468 0.05587,0.331239 0.07755,0.761566 0.0482,0.956288 -0.03767,0.249664 -0.02817,0.316189 0.03207,0.225645 0.100737,-0.151287 0.108271,-0.841607 0.01449,-1.3268 -0.08688,-0.449395 0.02801,-0.864952 0.285851,-1.033891 0.191623,-0.125554 0.261735,-0.122275 0.914206,0.04272 0.388673,0.09829 0.843143,0.267521 1.009932,0.37608 0.166796,0.108558 0.893352,0.522482 1.614583,0.919834 1.599522,0.881236 2.45478,1.508429 3.171827,2.326012 0.703324,0.801934 1.037886,1.486918 1.037978,2.125145 3.3e-5,0.261747 0.08192,0.799612 0.181977,1.195254 0.272255,1.076621 0.203075,2.117937 -0.19172,2.886039 -0.408137,0.794043 -1.079378,1.244279 -0.762327,0.511333 0.06541,-0.151216 0.133598,-0.583095 0.151538,-0.959735 0.0304,-0.637989 0.0068,-0.755009 -0.345255,-1.711997 l -0.377871,-1.0272 0.201061,-0.536953 c 0.298646,-0.797549 0.280977,-1.632457 -0.04663,-2.202244 -0.13534,-0.235399 -0.335896,-0.505037 -0.445682,-0.599195 l -0.199618,-0.171203 0.146223,0.214002 c 0.561813,0.822229 0.618579,0.969788 0.609167,1.583595 -0.0059,0.378864 -0.07845,0.794124 -0.197555,1.129282 l -0.188377,0.530081 0.176158,0.570336 c 0.09688,0.313686 0.176159,0.645164 0.176159,0.736625 0,0.18227 -0.488726,0.989208 -0.709052,1.170718 -0.076,0.06262 -0.182916,0.249366 -0.23758,0.414999 -0.07526,0.22806 -0.185397,0.340207 -0.453776,0.462075 -0.430327,0.1954 -0.65399,0.207808 -0.65399,0.03631 0,-0.211701 -0.367771,-0.14885 -0.798526,0.136469 -0.236131,0.156406 -0.399876,0.329601 -0.399876,0.422945 0,0.2018 -0.157725,0.301495 -0.281374,0.177847 -0.139708,-0.139705 -0.23485,-0.116105 -0.173758,0.0431 0.04478,0.116739 0.02524,0.123452 -0.125109,0.04299 -0.09801,-0.05243 -0.194901,-0.182123 -0.215321,-0.288158 -0.03332,-0.173091 -0.03832,-0.169813 -0.0488,0.03208 -0.01,0.193012 0.05085,0.251747 0.429772,0.414754 0.397125,0.170839 0.449136,0.176136 0.518189,0.05276 0.144856,-0.258842 0.718426,-0.478358 1.249908,-0.478358 0.736527,0 1.05752,-0.235356 1.171669,-0.859075 0.0629,-0.343724 0.193137,-0.611706 0.491234,-1.010827 l 0.405634,-0.543109 0.103109,0.243507 c 0.05671,0.13393 0.104282,0.537155 0.105726,0.896055 0.0021,0.573966 -0.02557,0.693224 -0.23154,0.990436 -0.353532,0.51015 -0.685635,0.713758 -1.329654,0.815189 -0.333286,0.05249 -0.641121,0.155652 -0.738151,0.247357 -0.09155,0.08652 -0.149328,0.171414 -0.128403,0.188653 0.0209,0.01726 0.481024,0.17174 1.022444,0.34335 1.262999,0.400316 1.918542,0.790063 2.775777,1.650309 0.380064,0.3814 0.719907,0.699189 0.755221,0.706196 0.03534,0.007 0.06419,-3.01106 0.06419,-6.706834 z m 4.926884,3.747903 c -0.477463,-0.513835 -1.290525,-2.368952 -1.586364,-3.619505 -0.205632,-0.869257 -0.215071,-1.037843 -0.05464,-0.976285 0.06527,0.02502 0.205122,0.303113 0.310782,0.617916 0.228424,0.680576 0.873024,2.138412 1.169351,2.644611 0.268737,0.459078 0.74893,0.882414 0.993557,0.875922 0.180126,-0.0049 0.181548,-0.01015 0.02833,-0.107001 -0.39999,-0.252904 -0.666876,-0.532335 -0.940075,-0.984264 -0.367613,-0.608119 -0.937106,-1.940363 -1.134048,-2.652937 L 42.8978,57.930973 43.124416,57.704356 c 0.124641,-0.124641 0.240609,-0.209404 0.257702,-0.18836 0.0171,0.02106 0.180419,0.42035 0.362939,0.887354 0.550686,1.409 1.416382,2.569883 1.964088,2.633824 0.399339,0.04663 0.379396,-0.02676 -0.06312,-0.232337 -0.464734,-0.215864 -1.032442,-0.922597 -1.489008,-1.85364 -0.556922,-1.135683 -0.578036,-1.241777 -0.340451,-1.710593 l 0.202332,-0.399257 0.367933,0.656053 c 0.725303,1.293281 0.956402,1.64658 1.380769,2.110908 0.236832,0.25913 0.494143,0.469853 0.571817,0.468273 0.09331,-0.0016 0.03051,-0.09326 -0.185174,-0.269415 -0.404332,-0.330209 -0.904951,-1.05588 -1.481735,-2.147829 -0.418059,-0.791464 -0.43297,-0.841276 -0.276803,-0.924855 0.09078,-0.04858 0.187965,-0.202837 0.215951,-0.34279 0.04788,-0.239324 0.08204,-0.199814 0.574732,0.664634 0.482967,0.847382 1.583888,2.188669 1.590987,1.938349 0.0016,-0.05521 -0.18012,-0.299639 -0.403751,-0.54318 -0.486934,-0.530282 -0.936292,-1.190732 -1.214956,-1.785693 -0.191499,-0.408854 -0.195396,-0.446285 -0.06181,-0.593892 0.07841,-0.08664 0.142569,-0.204922 0.142569,-0.262843 0,-0.201794 0.162079,-5.21e-4 0.991831,1.231773 0.459307,0.682123 0.850878,1.224439 0.870169,1.205148 0.05524,-0.05524 -0.122335,-0.354227 -0.922423,-1.553101 l -0.746233,-1.118166 0.201159,-0.179181 0.20116,-0.179177 0.369973,0.526945 c 0.203488,0.289825 0.498132,0.730644 0.654777,0.979607 0.156645,0.248957 0.301751,0.435711 0.322453,0.415003 0.03979,-0.03979 -0.675882,-1.216471 -1.113379,-1.830517 -0.279545,-0.392347 -0.279571,-0.400001 -0.0016,-0.485398 0.159799,-0.04906 0.24283,0.03061 0.588237,0.56457 0.539222,0.833552 0.980497,1.404158 0.980497,1.267874 0,-0.06118 -0.105926,-0.24886 -0.235405,-0.417083 -0.447164,-0.58099 -1.048595,-1.587053 -1.048595,-1.75407 0,-0.213644 -0.01113,-0.227843 0.496612,0.631367 0.447741,0.757593 0.995706,1.455196 1.143075,1.455196 0.04706,0 -0.08603,-0.202228 -0.295741,-0.4494 -0.483602,-0.569987 -1.229389,-1.891033 -1.30531,-2.312143 -0.09212,-0.510937 -0.219386,-0.474147 -0.158284,0.04576 0.06274,0.533767 -0.04359,0.8074 -0.329563,0.848012 -0.130894,0.01862 -0.202294,0.09607 -0.222388,0.241374 -0.03805,0.275116 -0.16579,0.427999 -0.357581,0.427999 -0.105417,0 -0.175404,0.09869 -0.227637,0.321003 -0.06575,0.279864 -0.110719,0.324438 -0.3509,0.347822 -0.220135,0.02144 -0.275484,0.06528 -0.275484,0.218279 0,0.257919 -0.155863,0.396896 -0.445118,0.396896 -0.180691,0 -0.239676,0.04114 -0.239676,0.167175 0,0.324237 -0.188713,0.603222 -0.408024,0.603222 -0.121341,0 -0.280103,0.08996 -0.37767,0.214003 -0.187291,0.238102 -0.477213,0.28298 -0.552955,0.0856 -0.02708,-0.07062 -0.07833,-0.128398 -0.113856,-0.128398 -0.0355,0 -0.01091,0.337048 0.05467,0.749 0.146354,0.919216 0.70047,2.582982 1.147499,3.445394 0.363536,0.701338 0.864887,1.366358 0.915535,1.214409 0.01758,-0.05266 -0.06772,-0.203027 -0.189511,-0.334101 z m 1.878316,-0.129076 c 0.934092,-0.361913 1.62705,-0.799974 2.33576,-1.476577 0.709073,-0.676952 0.718517,-0.691417 0.642418,-0.983863 l -0.07722,-0.296811 -0.209279,0.376124 c -0.263342,0.473284 -0.423287,0.539857 -0.423287,0.176201 0,-0.148258 0.03989,-0.344065 0.08861,-0.43513 0.153144,-0.286139 -0.05993,-0.190173 -0.487618,0.219625 -0.221108,0.211858 -0.41438,0.385199 -0.429503,0.385199 -0.01515,0 -0.02747,-0.127611 -0.02747,-0.283582 0,-0.294221 0.215658,-0.559528 0.709676,-0.873057 0.131378,-0.08338 0.279973,-0.228402 0.330219,-0.322273 0.08251,-0.15418 0.07028,-0.165389 -0.126547,-0.115984 -0.208297,0.05227 -0.215744,0.04147 -0.169216,-0.245207 0.04038,-0.249006 0.02274,-0.299894 -0.104194,-0.299894 -0.142679,0 -0.143422,-0.01042 -0.01124,-0.156536 0.166106,-0.183545 0.185267,-0.413863 0.03848,-0.462786 -0.07613,-0.0254 -0.06233,-0.141299 0.05265,-0.442398 0.09817,-0.257057 0.125803,-0.438029 0.07468,-0.48915 -0.1162,-0.116201 -0.313566,-0.01813 -0.411172,0.204313 -0.04609,0.105026 -0.166626,0.202766 -0.267863,0.217194 -0.196567,0.02801 -0.295887,0.396348 -0.286985,1.064288 0.0027,0.210642 -0.05042,0.366945 -0.155641,0.457038 -0.12754,0.109199 -0.151895,0.220265 -0.120337,0.548705 0.03566,0.37101 0.01737,0.426337 -0.184501,0.55861 -0.182026,0.119268 -0.224065,0.213367 -0.224065,0.501574 0,0.262061 -0.04473,0.382708 -0.171197,0.461678 -0.128643,0.08034 -0.171203,0.199624 -0.171203,0.479846 0,0.449597 -0.254853,0.824021 -0.560874,0.824021 -0.154442,0 -0.250092,0.08634 -0.381937,0.344772 l -0.175887,0.344771 0.238346,-0.05744 c 0.131096,-0.03159 0.430951,-0.132062 0.666356,-0.223267 z m -11.727194,0.104771 c 0.0291,-0.04706 0.01439,-0.08561 -0.03268,-0.08561 -0.04706,0 -0.109406,0.03854 -0.1385,0.08561 -0.0291,0.04706 -0.01438,0.0856 0.03268,0.0856 0.04706,0 0.109405,-0.03854 0.138504,-0.0856 z m -0.385199,-0.08561 c 0,-0.04706 -0.01699,-0.0856 -0.03772,-0.0856 -0.02074,0 -0.06156,0.03854 -0.09065,0.0856 -0.0291,0.04706 -0.01211,0.08561 0.03772,0.08561 0.04983,0 0.09065,-0.03854 0.09065,-0.08561 z m -1.417533,-1.264667 c 0.19266,-0.151542 0.678894,-0.363497 1.143754,-0.498571 0.06405,-0.01862 -0.07845,-0.187455 -0.335224,-0.397168 -0.316047,-0.25812 -0.544574,-0.551299 -0.781553,-1.002627 -0.294888,-0.561617 -0.331549,-0.695672 -0.306775,-1.121818 0.02519,-0.433307 0.01324,-0.474663 -0.114046,-0.394932 -0.254967,0.159696 -0.817508,-0.08757 -1.392451,-0.612032 -0.293131,-0.267397 -0.703336,-0.631687 -0.911568,-0.809533 l -0.378598,-0.323359 0.278198,0.05195 c 0.244887,0.04576 0.278198,0.02953 0.278198,-0.135199 0,-0.126335 0.03941,-0.172027 0.121319,-0.140605 0.06672,0.02562 0.142554,-0.0088 0.168511,-0.07644 0.02594,-0.06765 0.125445,-0.122991 0.221085,-0.122991 0.187671,0 0.23726,-0.207532 0.07374,-0.308594 -0.0686,-0.04239 -0.08177,-0.014 -0.04185,0.09007 0.04955,0.12913 0.02443,0.143449 -0.167479,0.09529 -0.187079,-0.04695 -0.216433,-0.0323 -0.171197,0.08561 0.04239,0.110415 0.02085,0.128387 -0.09617,0.08024 -0.08292,-0.03414 -0.227811,-0.08298 -0.321969,-0.10857 -0.16432,-0.04467 -0.165178,-0.03968 -0.02139,0.123453 0.225862,0.256286 0.194532,0.383267 -0.06977,0.28278 -0.120761,-0.04592 -0.281558,-0.08348 -0.357321,-0.08348 -0.112494,0 -0.103484,0.03648 0.04918,0.19895 0.1028,0.109427 0.160873,0.224983 0.129054,0.2568 -0.105182,0.105184 -1.364383,0.06006 -1.775331,-0.06363 -0.290031,-0.08728 -0.394395,-0.09331 -0.370816,-0.02139 0.01807,0.05504 0.157378,0.112321 0.309621,0.127286 0.395936,0.03892 0.28735,0.219408 -0.168233,0.279625 l -0.378556,0.05005 0.278198,0.06766 c 0.153014,0.03723 0.278204,0.09666 0.278204,0.132084 0,0.157975 -0.27791,0.272846 -0.57592,0.238053 -0.260763,-0.03045 -0.351074,6.6e-5 -0.478191,0.161699 -0.201175,0.255753 -0.339599,0.250748 -0.899414,-0.03246 -0.420779,-0.212895 -0.475813,-0.22159 -0.67757,-0.107001 -0.461683,0.262212 -0.443191,0.350015 0.240594,1.142407 0.34964,0.405168 0.662035,0.736766 0.694217,0.736886 0.03219,1.3e-4 0.258293,-0.123969 0.502475,-0.275761 0.358818,-0.22305 0.554224,-0.282209 1.01891,-0.30847 0.833118,-0.04706 1.097295,0.118579 2.700095,1.693099 0.753278,0.73999 1.482331,1.430114 1.620108,1.533603 l 0.250516,0.18816 0.103206,-0.245468 c 0.05677,-0.135009 0.206273,-0.326533 0.332234,-0.425615 z m 1.998708,-1.560879 c -0.140491,-0.594445 -0.184528,-0.668809 -0.218213,-0.368502 -0.02665,0.237717 0.196865,0.865159 0.278968,0.783055 0.01656,-0.01655 -0.01075,-0.203107 -0.06076,-0.414553 z M 50.4357,58.935336 c 0.239498,-0.39491 0.08816,-0.401635 -0.278947,-0.01237 l -0.281709,0.298694 -0.0599,-0.272706 c -0.05146,-0.234225 -0.02519,-0.300468 0.185994,-0.469467 0.194157,-0.155364 0.21354,-0.196855 0.09211,-0.197191 -0.08457,-2.66e-4 -0.219397,0.114892 -0.2996,0.255835 -0.180804,0.317751 -0.240941,0.322109 -0.302656,0.02193 -0.09913,-0.48211 0.441426,-0.85769 0.889394,-0.617949 0.247579,0.132501 0.388244,-0.0043 0.256769,-0.250261 -0.07928,-0.148128 -0.176387,-0.180332 -0.542936,-0.180066 -0.44566,3.15e-4 -0.446615,0.0011 -0.588263,0.363796 -0.207895,0.532617 -0.258071,1.206077 -0.115306,1.547766 0.0659,0.157703 0.09894,0.379478 0.07344,0.492824 -0.03745,0.166453 0.03339,0.121862 0.368281,-0.231822 0.228065,-0.240853 0.49956,-0.577901 0.603325,-0.749001 z m -15.0961,0.05956 c -0.1964,-0.335132 -0.218437,-0.447805 -0.17827,-0.911519 l 0.04581,-0.52912 -0.113269,0.342399 c -0.16811,0.508147 -0.149079,0.964142 0.06517,1.561574 l 0.191622,0.534375 0.106513,-0.30765 c 0.09726,-0.280917 0.08703,-0.340886 -0.117592,-0.690059 z m -1.524871,0.10109 c 0.0027,-0.864622 -0.131069,-0.922967 -0.150571,-0.0655 -0.0092,0.403404 0.06221,0.877832 0.132073,0.877746 0.0086,-1.1e-5 0.01694,-0.365523 0.01851,-0.812248 z M 53.962307,58.64565 c 0.236365,-0.270707 1.140915,-1.320377 2.010106,-2.332596 l 1.580339,-1.840396 -1.019492,-0.984399 c -2.19921,-2.123528 -3.624657,-3.924924 -4.522155,-5.714835 l -0.354623,-0.707238 -3.187116,0.02244 -3.187117,0.02244 -0.02475,0.852636 -0.02475,0.852637 0.195922,-0.180251 c 0.41287,-0.379852 0.784201,-0.539977 1.252974,-0.540305 0.878783,-6.51e-4 1.323977,0.384881 2.006268,1.737231 0.435044,0.862291 0.613601,1.009681 0.918662,0.758313 l 0.172169,-0.141864 -0.175007,-0.456969 c -0.583808,-1.524389 -0.30403,-2.058099 1.028881,-1.96273 1.004863,0.0719 1.438528,0.392714 2.487053,1.839869 1.041437,1.437367 1.394692,2.174677 1.437025,2.999305 0.02106,0.410146 -0.0038,0.665156 -0.07358,0.748996 -0.164064,0.197685 -0.490717,0.154408 -0.648144,-0.08586 l -0.139558,-0.212992 -0.216362,0.170193 c -0.119003,0.0936 -0.289413,0.170187 -0.378702,0.170187 -0.165927,0 -0.18975,-0.03832 -0.280158,-0.4506 -0.05141,-0.234406 -0.05431,-0.235339 -0.314467,-0.100808 -0.373485,0.193137 -0.50394,0.111115 -0.50394,-0.316828 v -0.360008 l -0.206371,0.193869 c -0.332369,0.312243 -0.513857,0.211228 -0.564033,-0.313914 l -0.04283,-0.448 -0.256796,0.169981 c -0.461445,0.305436 -0.556335,0.243427 -0.556879,-0.363893 0,-0.294249 -0.0431,-0.688545 -0.0952,-0.876211 l -0.09473,-0.341211 -0.204547,0.402482 c -0.112499,0.221362 -0.278985,0.442317 -0.369963,0.491011 -0.233981,0.125217 -0.618377,0.105095 -0.813642,-0.04261 -0.24119,-0.182427 -0.304637,-0.156579 -0.304637,0.124121 0,0.551863 -0.245902,0.703428 -0.427999,0.263803 -0.137304,-0.331484 -0.198254,-0.323597 -0.330745,0.04283 -0.124224,0.343535 -0.302966,0.386204 -0.44824,0.107001 -0.05511,-0.105931 -0.10877,-0.203178 -0.11924,-0.216102 -0.01048,-0.01292 -0.174058,0.13153 -0.363531,0.321003 -0.389232,0.389226 -0.676826,0.449167 -0.728831,0.151895 -0.02958,-0.16895 -0.0419,-0.174204 -0.10071,-0.04283 -0.19109,0.427134 0.250733,0.535726 0.763597,0.187682 0.320938,-0.217792 0.381959,-0.219631 0.660449,-0.01992 0.12099,0.08678 0.181674,0.07113 0.354727,-0.09145 0.183774,-0.17264 0.231024,-0.182546 0.394617,-0.08273 0.164944,0.100634 0.204492,0.09065 0.35148,-0.08869 0.0911,-0.111142 0.165623,-0.260085 0.165623,-0.330979 0,-0.0919 0.05529,-0.114085 0.192605,-0.07729 0.105926,0.02839 0.338404,0.05216 0.516609,0.05281 0.310966,0.0011 0.319646,0.0089 0.215603,0.193767 -0.07031,0.124907 -0.103164,0.486516 -0.09349,1.028892 0.01249,0.700166 0.04359,0.872731 0.190993,1.060141 0.09685,0.123122 0.176088,0.326855 0.176088,0.45275 0,0.12589 0.05655,0.303666 0.125678,0.395051 0.06911,0.09139 0.126895,0.290465 0.128398,0.442387 0.0016,0.198364 0.06304,0.315755 0.216716,0.416448 0.140605,0.09213 0.214002,0.219299 0.214002,0.370809 0,0.126829 0.05395,0.304383 0.119898,0.394567 0.07252,0.09917 0.102267,0.272614 0.0753,0.43886 -0.04055,0.249843 -0.0081,0.30067 0.356919,0.557911 0.397071,0.279881 0.401228,0.287795 0.37411,0.7117 -0.02491,0.389167 -0.0097,0.431195 0.165172,0.456028 0.153247,0.02177 0.192606,-0.01411 0.192606,-0.17548 0,-0.111554 -0.04446,-0.247264 -0.09875,-0.30157 -0.0543,-0.0543 -0.0955,-0.212586 -0.09154,-0.351731 0.0057,-0.200193 -0.03669,-0.264009 -0.203037,-0.305761 -0.33353,-0.08371 -0.548276,-0.355302 -0.548276,-0.693418 0,-0.166437 -0.06202,-0.397277 -0.137837,-0.512979 -0.07946,-0.121254 -0.117032,-0.293244 -0.08872,-0.406031 0.03691,-0.147173 0.0021,-0.216287 -0.140361,-0.278828 -0.141468,-0.06208 -0.19653,-0.169807 -0.217291,-0.42517 -0.0165,-0.20269 -0.09721,-0.406666 -0.198163,-0.500711 -0.106138,-0.09887 -0.161258,-0.245293 -0.146239,-0.388439 0.01547,-0.147054 -0.04418,-0.298043 -0.165645,-0.419487 -0.248985,-0.248985 -0.239763,-0.393026 0.06437,-1.005119 0.139763,-0.28128 0.255319,-0.557296 0.256795,-0.613368 0.0016,-0.05607 0.04684,-0.129228 0.100781,-0.162566 0.06902,-0.04267 0.08122,0.0066 0.04114,0.166144 -0.05042,0.200958 -0.03202,0.226768 0.161726,0.226768 0.120251,0 0.313588,-0.06221 0.429632,-0.138244 0.208846,-0.136838 0.210984,-0.135503 0.210984,0.13115 0,0.357239 -0.185554,0.784483 -0.523161,1.204594 -0.151711,0.188779 -0.25038,0.368693 -0.219261,0.399806 0.09353,0.09353 0.405255,-0.244333 0.624723,-0.677108 0.203895,-0.40208 0.31234,-0.470553 0.528295,-0.333568 0.176376,0.111885 -0.199378,0.999831 -0.614751,1.452744 -0.241695,0.263531 -0.290955,0.351627 -0.156954,0.2807 0.283229,-0.149926 0.651015,-0.694722 0.877073,-1.299188 l 0.196849,-0.526374 0.122134,0.233086 c 0.0806,0.153839 0.102328,0.338617 0.0639,0.543441 -0.0663,0.35345 -0.469755,1.202547 -0.726459,1.528886 -0.245755,0.312432 -0.213306,0.435283 0.0501,0.189593 0.257594,-0.240279 0.547044,-0.786058 0.756953,-1.427271 0.129956,-0.396978 0.384125,-0.706245 0.58042,-0.706245 0.137853,0 0.05894,0.701105 -0.137712,1.223571 -0.308068,0.818451 -0.542457,1.236956 -0.925517,1.652535 -0.190966,0.207179 -0.306798,0.376688 -0.257394,0.376688 0.266963,0 1.066074,-1.218685 1.389211,-2.118594 0.162083,-0.451393 0.22375,-0.535005 0.394632,-0.535005 0.173825,0 0.202533,0.04185 0.202533,0.295183 0,0.633873 -0.614855,2.229898 -1.065255,2.76517 -0.259715,0.308653 -0.289656,0.454355 -0.04852,0.236131 0.493415,-0.446529 1.141338,-1.95936 1.255622,-2.931732 0.06125,-0.521147 0.223984,-0.726464 0.365789,-0.461504 0.220765,0.412501 0.03707,1.632121 -0.427146,2.835858 -0.220781,0.572494 -0.373116,0.81749 -0.730535,1.174909 -0.248372,0.248371 -0.395306,0.451583 -0.326512,0.451583 0.205344,0 0.833471,-0.693745 1.085044,-1.198397 0.291774,-0.585305 0.53874,-1.54853 0.620029,-2.4182 0.0426,-0.45567 0.09687,-0.663397 0.173341,-0.663397 0.06124,0 0.172277,-0.02339 0.246742,-0.05195 0.118139,-0.04532 0.135276,0.06109 0.13439,0.8346 -0.0016,1.217654 -0.364317,2.425299 -1.113263,3.704485 -0.263217,0.449558 -0.320309,0.609144 -0.236865,0.662089 0.207678,0.131774 0.314794,0.07129 0.743611,-0.419819 z M 24.652671,57.083454 c 0.08522,-0.09416 0.135671,-0.171196 0.11213,-0.171196 -0.02356,0 -0.112516,0.07704 -0.197728,0.171196 -0.08522,0.09417 -0.135678,0.171203 -0.112137,0.171203 0.02356,0 0.112521,-0.07704 0.197735,-0.171203 z m 8.97322,-0.761946 c 0.192291,-0.05566 0.219039,-0.08086 0.09163,-0.08633 -0.251801,-0.0108 -0.70003,0.32148 -0.913343,0.677081 -0.157475,0.262522 -0.134553,0.24937 0.185218,-0.106274 0.200714,-0.223229 0.487136,-0.441242 0.636496,-0.484476 z m -9.053261,0.23935 c 0.04147,-0.06712 0.0078,-0.06686 -0.118861,0.0011 -0.09722,0.05205 -0.20282,0.136756 -0.23466,0.188278 -0.04147,0.06712 -0.0078,0.06686 0.118861,-0.0011 0.09722,-0.05205 0.20282,-0.136757 0.23466,-0.188278 z m 4.44713,-1.274328 0.597703,-0.07464 -0.611577,0.01786 c -0.520017,0.0152 -0.708861,0.06725 -1.26131,0.347659 -0.357349,0.18138 -0.686048,0.373551 -0.730444,0.427043 -0.0444,0.05347 0.254234,-0.06937 0.663609,-0.273026 0.534532,-0.265909 0.912784,-0.39131 1.342019,-0.444911 z m -5.565491,-2.05507 c 0.0291,-0.04706 0.01438,-0.0856 -0.03268,-0.0856 -0.04706,0 -0.109411,0.03854 -0.138504,0.0856 -0.0291,0.04706 -0.01439,0.08561 0.03268,0.08561 0.04706,0 0.10941,-0.03854 0.138504,-0.08561 z m 22.299983,-2.523974 c -0.256388,-0.259614 -0.537479,-0.472022 -0.624647,-0.472022 -0.117194,0 -0.144937,-0.04271 -0.106469,-0.163919 0.09491,-0.299023 -0.03881,-0.60648 -0.263765,-0.60648 -0.249647,0 -0.260221,-0.09444 -0.03349,-0.299599 0.164559,-0.14892 0.171278,-0.264905 0.17308,-2.987864 0.0021,-3.298719 -0.0099,-3.241673 0.869068,-4.088529 L 46.296503,41.579924 45.405724,40.6861 c -0.48993,-0.491603 -0.910731,-0.893777 -0.935114,-0.893719 -0.02437,5.8e-5 -0.327266,0.231364 -0.673074,0.514014 -0.345809,0.282649 -0.71175,0.534548 -0.813198,0.559772 -0.101453,0.02523 -1.612732,0.03467 -3.3584,0.02099 l -3.173947,-0.02488 -0.30688,-0.214 c -0.16879,-0.117699 -0.486162,-0.365235 -0.705271,-0.550081 l -0.398394,-0.33608 -0.908995,0.908999 -0.909,0.908998 0.658017,0.688743 c 0.361914,0.378809 0.659544,0.756574 0.661405,0.83948 0.0016,0.0829 0.0043,1.602431 0.0059,3.376722 0.0016,2.31751 -0.02594,3.281747 -0.09865,3.423997 -0.05565,0.108906 -0.336657,0.438955 -0.624468,0.733448 l -0.523285,0.535433 0.852349,0.855562 c 0.468795,0.470559 0.886295,0.855562 0.92778,0.855562 0.04147,0 0.364964,-0.231115 0.718844,-0.513596 l 0.643416,-0.513597 h 3.250227 c 3.66262,0 3.459669,-0.03257 4.260491,0.68341 l 0.470798,0.420915 0.89708,-0.893346 0.897075,-0.893341 z m -9.930796,0.693646 c 0,-0.01802 0.155185,-0.18791 0.344859,-0.377583 l 0.344853,-0.344854 -0.02383,-4.025254 -0.02383,-4.025253 -0.253169,-0.264187 c -0.159723,-0.166674 -0.372992,-0.283347 -0.577799,-0.316097 -0.192837,-0.03083 -0.324633,-0.0996 -0.324633,-0.169371 0,-0.09563 0.318158,-0.117458 1.711998,-0.117458 0.945243,0 1.711998,0.03417 1.711998,0.0763 0,0.04197 -0.150739,0.136621 -0.33498,0.21034 -0.582384,0.233024 -0.60662,0.318083 -0.60662,2.129199 v 1.607352 h 1.968799 1.9688 v -1.626398 c 0,-1.815672 -0.0027,-1.824575 -0.64003,-2.090857 -0.603712,-0.252248 -0.356181,-0.30594 1.410427,-0.30594 0.941596,0 1.711999,0.03328 1.711999,0.07397 0,0.04068 -0.176603,0.141415 -0.392445,0.223847 -0.745658,0.284767 -0.719669,0.115689 -0.720032,4.685199 l -2.45e-4,3.998616 0.359645,0.345581 0.359644,0.345575 h -1.344044 c -0.739225,0 -1.344044,-0.02887 -1.344039,-0.0642 0,-0.03528 0.134819,-0.171767 0.2996,-0.303247 l 0.299595,-0.239047 v -1.827591 c 0,-1.587558 -0.0178,-1.834415 -0.135399,-1.879549 -0.176571,-0.06776 -3.490223,-0.06776 -3.666799,0 -0.117347,0.04503 -0.135395,0.284936 -0.135395,1.799511 v 1.747554 l 0.353299,0.383283 0.353304,0.383288 h -1.337703 c -0.735741,0 -1.337705,-0.01471 -1.337705,-0.03273 z m 10.528792,-1.080067 c 0,-0.372196 -0.106274,-0.431296 -0.390242,-0.217018 -0.161367,0.121766 -0.158756,0.131554 0.09064,0.33932 0.14124,0.117667 0.26643,0.215327 0.278209,0.21702 0.01178,0.0016 0.02139,-0.151005 0.02139,-0.339322 z M 45.89533,49.504256 c 0.20422,-0.119683 0.371319,-0.237604 0.371319,-0.262043 0,-0.0667 -0.801587,0.06092 -0.888765,0.141501 -0.08052,0.07441 -0.01287,0.338151 0.08676,0.338151 0.03268,0 0.226464,-0.09792 0.43069,-0.217609 z m 0.396966,-0.783884 c 0.225086,-0.119541 0.245321,-0.151566 0.113461,-0.179534 -0.08827,-0.01873 -0.241273,0.04675 -0.340023,0.145493 -0.2174,0.217405 -0.140464,0.228967 0.226562,0.03404 z m 4.76733,-2.914702 c 0,-0.03531 -0.133718,-0.417057 -0.296409,-0.848328 -0.683898,-1.812941 -0.835761,-2.91261 -0.72337,-5.238224 0.160233,-3.315597 0.675024,-4.65268 2.443597,-6.346896 0.692079,-0.662983 1.369757,-1.102396 2.0399,-1.322689 0.142874,-0.04697 0.111414,-0.08813 -0.213997,-0.279968 -0.891082,-0.525299 -1.810634,-1.504326 -2.442913,-2.600912 -0.844027,-1.463827 -1.437192,-1.524693 -2.785579,-0.285833 -1.026716,0.943314 -2.774028,2.401403 -3.331037,2.779659 -1.107256,0.751924 -2.762001,1.367405 -3.676315,1.367405 -0.348392,0 -0.434061,0.04056 -0.73288,0.346929 -0.186102,0.190811 -0.513744,0.459591 -0.728087,0.59729 l -0.389721,0.250361 -0.02415,3.126306 -0.02415,3.126306 h 0.692073 c 0.606241,0 0.692078,-0.01888 0.692078,-0.152216 0,-0.274771 0.568972,-1.337422 0.939527,-1.754711 0.741673,-0.835228 1.865012,-1.484108 3.733943,-2.15685 1.517662,-0.546304 2.407577,-1.027427 2.614089,-1.413282 0.244028,-0.455958 0.209132,-0.880601 -0.101443,-1.234329 -0.329448,-0.375222 -0.741793,-0.515643 -1.29764,-0.441908 -0.653492,0.08669 -1.036302,0.274317 -2.055029,1.007221 -1.217919,0.876216 -1.701332,1.143382 -2.37888,1.31474 -0.645408,0.163228 -1.016163,0.369731 -1.326956,0.739091 -0.296523,0.352397 -0.252665,0.598303 0.12919,0.724318 l 0.2996,0.09887 -0.240973,0.09373 c -0.132534,0.05155 -0.310787,0.09373 -0.39612,0.09373 -0.08532,0 -0.206424,0.06179 -0.269106,0.137317 -0.124381,0.149868 -0.505411,0.32 -0.570628,0.254786 -0.02236,-0.02238 0.04076,-0.144211 0.140269,-0.270739 0.09953,-0.126528 0.180956,-0.322394 0.180956,-0.435256 0,-0.292885 0.23015,-0.804398 0.478674,-1.063864 0.188344,-0.196639 0.197653,-0.234713 0.08105,-0.33148 -0.269562,-0.223721 -0.143867,-0.496461 0.68848,-1.49384 0.894312,-1.071634 1.127111,-1.233202 2.101241,-1.458321 0.312101,-0.07213 0.948277,-0.283925 1.413733,-0.470667 1.513862,-0.607363 2.223468,-0.652667 3.319797,-0.211948 1.108738,0.445715 1.673086,1.274004 1.674578,2.457765 5.43e-4,0.395315 -0.05048,0.789 -0.125418,0.968319 -0.313783,0.750997 -1.536855,1.587471 -3.340542,2.284658 -1.603656,0.619867 -2.696398,1.247625 -2.696398,1.549031 0,0.0916 0.96487,1.07718 1.294253,1.322025 0.112033,0.08329 0.227041,0.06192 0.599196,-0.111325 0.944814,-0.439822 2.130481,-0.213886 2.836053,0.540421 0.503631,0.53843 0.617114,0.89571 0.616153,1.939912 -5.43e-4,0.709636 -0.03474,0.932134 -0.199581,1.301272 -0.251112,0.562414 -0.971508,1.257301 -1.453014,1.401563 -0.404697,0.121253 -0.528481,0.06388 -0.33593,-0.155713 0.344771,-0.393171 0.444038,-0.739673 0.631611,-2.204722 0.05037,-0.393309 -0.15271,-0.79314 -0.527563,-1.038751 -0.31957,-0.209388 -0.974569,-0.186314 -1.353168,0.04767 -0.309116,0.191044 -0.82401,0.726903 -0.82401,0.857561 0,0.04098 -0.134825,0.235891 -0.299606,0.43312 -0.295333,0.353494 -0.299595,0.369954 -0.299595,1.156696 0,0.438955 0.0234,0.85903 0.05195,0.9335 0.04592,0.119727 0.382838,0.135401 2.910399,0.135401 1.572137,0 2.858162,-0.02889 2.857825,-0.0642 z m -4.442457,-0.133231 c -0.374968,-0.131436 -0.7415,-0.593124 -0.876704,-1.104328 -0.215294,-0.813994 0.323586,-1.806528 1.108504,-2.041694 0.276488,-0.08284 0.410244,-0.0848 0.577755,-0.0085 0.228093,0.103927 0.546762,0.68985 0.55004,1.011321 0.0016,0.14599 0.04006,0.174597 0.184566,0.136812 0.176077,-0.04604 0.180457,-0.0295 0.121113,0.457414 -0.06499,0.533294 -0.302894,1.166517 -0.534337,1.422257 -0.227902,0.251835 -0.273177,0.175747 -0.146287,-0.245877 0.170073,-0.565099 0.152671,-0.694516 -0.131601,-0.978792 l -0.251628,-0.25163 0.204129,-0.133756 c 0.175832,-0.115208 0.19218,-0.165218 0.117878,-0.360642 -0.161324,-0.424322 -0.560902,-0.487717 -0.83974,-0.133229 -0.208813,0.265461 -0.225433,0.546103 -0.05216,0.881134 0.141066,0.272769 0.28526,0.348521 0.663446,0.348521 0.25558,0 0.260095,0.0073 0.214702,0.345661 -0.05652,0.421418 -0.270876,0.768825 -0.470341,0.762306 -0.08132,-0.0027 -0.279002,-0.0508 -0.439311,-0.106999 z M 29.403467,45.532 c 0,-0.138749 0.09903,-0.437279 0.22007,-0.6634 0.206733,-0.386202 0.218534,-0.473408 0.194603,-1.438327 l -0.02546,-1.0272 0.319,-0.150473 c 0.38363,-0.180963 0.401542,-0.334329 0.106919,-0.915729 -0.304605,-0.601115 -0.380786,-1.024051 -0.278046,-1.543665 0.07184,-0.363328 0.06227,-0.495123 -0.05363,-0.73812 -0.20695,-0.433977 -0.173596,-0.932927 0.119887,-1.793349 0.416709,-1.221696 0.766246,-2.804442 0.766246,-3.469657 0,-0.713211 -0.169775,-1.190196 -0.423635,-1.190196 -0.21621,0 -0.231403,0.248211 -0.04717,0.7704 0.149274,0.423086 0.168624,1.25197 0.03735,1.599425 -0.109807,0.290633 -0.496428,0.711772 -0.653431,0.711772 -0.07687,0 -0.03045,-0.155135 0.144416,-0.482849 0.297809,-0.558079 0.339718,-1.166559 0.128338,-1.863352 -0.07011,-0.231113 -0.127475,-0.570435 -0.127475,-0.754052 0,-0.222997 -0.03159,-0.314331 -0.0951,-0.275073 -0.06301,0.03894 -0.07672,0.235641 -0.04065,0.582851 0.184463,1.77492 0.171381,2.016043 -0.130172,2.399407 -0.267842,0.340506 -0.339817,0.186566 -0.137105,-0.293237 0.167631,-0.396777 0.172136,-0.458916 0.06044,-0.834202 -0.06638,-0.22302 -0.134819,-0.722231 -0.152085,-1.109357 -0.02969,-0.666013 -0.01927,-0.715973 0.193702,-0.928954 0.123794,-0.123798 0.177092,-0.209088 0.118432,-0.189535 -0.05866,0.01955 -0.186043,0.141877 -0.283067,0.271831 -0.182069,0.243863 -0.179214,0.196762 -0.110974,1.833331 0.0152,0.365634 -0.09042,0.526057 -0.348485,0.529082 -0.08553,9.75e-4 -0.08049,-0.04347 0.02139,-0.188936 0.197582,-0.282082 0.160532,-0.5781 -0.125102,-0.999633 -0.331332,-0.48898 -0.344946,-0.965465 -0.03952,-1.382887 0.315038,-0.430529 0.455562,-0.50883 0.91318,-0.50883 0.349619,0 0.460989,0.04481 0.741706,0.298419 0.886925,0.801285 0.996471,2.613246 0.302705,5.006797 -0.230399,0.794895 -0.287225,1.656308 -0.128789,1.95235 0.134353,0.251045 0.473061,0.327936 0.72305,0.164139 0.119887,-0.07855 0.328646,-0.440698 0.527781,-0.915566 0.236522,-0.564026 0.443869,-0.904333 0.735154,-1.206546 0.309224,-0.32083 0.41876,-0.507396 0.460576,-0.784469 0.110801,-0.734222 0.150305,-0.842836 0.355406,-0.977225 0.115077,-0.0754 0.232049,-0.114277 0.259938,-0.08639 0.05205,0.05206 0.02752,0.115996 -0.186547,0.486086 -0.07498,0.129639 -0.124279,0.44755 -0.125038,0.806458 -0.0016,0.670727 -0.134939,0.905539 -0.514862,0.905539 -0.127735,0 -0.302873,0.08178 -0.393335,0.183656 -0.160949,0.181275 -0.160841,0.182491 0.0086,0.09381 0.200019,-0.104707 1.545919,-0.172031 1.63611,-0.08184 0.103332,0.10333 0.348419,0.068 0.45986,-0.06628 0.150266,-0.181055 0.243589,-0.08954 0.353396,0.346538 0.07191,0.285591 0.136844,0.380119 0.261117,0.380119 0.174633,0 0.413473,-0.443428 0.413473,-0.76765 0,-0.155538 0.05436,-0.17395 0.513597,-0.17395 0.351616,0 0.514899,0.03374 0.517716,0.107001 0.0022,0.05885 0.123268,-0.12412 0.268895,-0.4066 0.422657,-0.819852 0.632002,-1.048769 1.018878,-1.114132 0.246233,-0.0416 0.398448,-0.01926 0.551327,0.08091 0.327472,0.214568 0.263694,0.733626 -0.09014,0.733626 -0.181689,0 -0.190048,0.0195 -0.10496,0.244925 0.07804,0.206743 0.06304,0.286219 -0.09617,0.509814 -0.103734,0.145688 -0.229493,0.382152 -0.279458,0.525474 -0.147569,0.42332 -0.267847,0.312827 -0.205534,-0.188814 0.04017,-0.323362 0.03077,-0.413389 -0.03349,-0.321 -0.04913,0.07062 -0.08987,0.180252 -0.09059,0.243625 -5.43e-4,0.06337 -0.06197,0.323879 -0.136106,0.578899 -0.141056,0.485223 -0.293206,0.54439 -0.293206,0.114023 0,-0.301712 -0.02003,-0.305324 -0.348256,-0.06269 -0.219816,0.162517 -0.291442,0.17558 -0.510135,0.09304 -0.245456,-0.09265 -0.254407,-0.08736 -0.254407,0.150357 0,0.513015 1.102241,1.40069 1.946165,1.567317 0.446231,0.08811 0.496027,0.119942 0.520518,0.332823 0.02545,0.221331 0.05233,0.2354 0.449401,0.2354 h 0.422315 v -3.164998 -3.164999 l -0.27821,-0.141516 c -0.153014,-0.07783 -0.496836,-0.348463 -0.764047,-0.601397 -0.472122,-0.44689 -0.499805,-0.459882 -0.979982,-0.459882 -0.888499,0 -2.420632,-0.570305 -3.515631,-1.308621 -0.537122,-0.362162 -2.091971,-1.658632 -3.193261,-2.662613 -0.874169,-0.796931 -1.199161,-0.993801 -1.63941,-0.993109 -0.457711,7.6e-4 -0.741191,0.245766 -1.257914,1.087358 -0.723277,1.178004 -1.395777,1.936687 -2.171223,2.449446 -0.61492,0.406617 -0.654142,0.449331 -0.475841,0.518259 0.106876,0.04132 0.441151,0.191173 0.742836,0.333019 0.960478,0.451594 2.260534,1.851695 2.917537,3.142049 0.52081,1.02288 0.77144,2.642948 0.788859,5.099173 0.01199,1.693625 -2.8e-5,1.841646 -0.215419,2.649828 -0.125472,0.4708 -0.362879,1.231568 -0.527568,1.690598 l -0.299432,0.834599 h 0.469554 c 0.46278,0 0.469549,-0.0036 0.469549,-0.25227 z m 5.649592,-7.883131 c 0,-0.143116 -0.07704,-0.411222 -0.171203,-0.59579 -0.203189,-0.39829 -0.215169,-0.670666 -0.04717,-1.072748 0.09535,-0.228212 0.09931,-0.29685 0.0171,-0.29685 -0.216325,0 -0.312352,0.217516 -0.312352,0.707547 0,0.500718 -0.117677,0.876433 -0.24907,0.795227 -0.0381,-0.02355 -0.09605,-0.338129 -0.128751,-0.699064 -0.05763,-0.635852 -0.05217,-0.663858 0.175191,-0.901178 0.165064,-0.172292 0.196253,-0.244932 0.105167,-0.244932 -0.07122,0 -0.217351,0.09352 -0.324737,0.207826 -0.17618,0.187535 -0.189326,0.258756 -0.1347,0.729466 0.07505,0.646651 -0.07436,0.945906 -0.472268,0.945906 -0.280815,0 -0.324786,-0.09218 -0.123611,-0.25914 0.101578,-0.0843 0.125749,-0.259078 0.107001,-0.77375 -0.02193,-0.60227 -0.0049,-0.685522 0.181917,-0.884506 0.113379,-0.120812 0.277086,-0.242177 0.363797,-0.269699 0.309474,-0.09822 0.150061,-0.209703 -0.299867,-0.209703 -0.581787,0 -0.737449,0.157884 -0.817902,0.829599 -0.06709,0.56011 -0.291263,0.968 -0.532009,0.968 -0.192122,0 -0.199396,-0.0709 -0.03023,-0.294561 0.07086,-0.09369 0.125679,-0.349398 0.125679,-0.586262 0,-0.874778 0.487347,-1.392783 1.219798,-1.296537 0.48978,0.06435 0.556868,-0.08429 0.09553,-0.211681 -0.348396,-0.0962 -0.581478,-0.01083 -1.052395,0.385415 -0.326691,0.274891 -0.865571,0.324879 -1.089392,0.101056 -0.135986,-0.135989 -0.129831,-0.150482 0.101318,-0.238362 0.135356,-0.05147 0.424225,-0.260185 0.641935,-0.463825 0.484655,-0.453336 0.697419,-0.527537 1.116293,-0.389296 0.179463,0.05923 0.393384,0.07734 0.479944,0.04062 0.124967,-0.053 0.09148,-0.08082 -0.16762,-0.13924 -0.178075,-0.04016 -0.432119,-0.129035 -0.564539,-0.197511 -0.234448,-0.121238 -0.250564,-0.114522 -0.614241,0.25604 -0.383408,0.390658 -0.708802,0.488933 -0.919911,0.277824 -0.152334,-0.152331 -0.125059,-0.23968 0.07483,-0.23968 0.09833,0 0.397819,-0.210089 0.671142,-0.4708 0.601378,-0.573615 0.806283,-0.599206 1.291057,-0.161239 0.188458,0.170259 0.342649,0.271041 0.342649,0.223961 0,-0.112474 -0.657291,-0.704721 -0.782117,-0.704721 -0.05325,0 -0.242248,0.04357 -0.419996,0.09683 -0.337499,0.101116 -0.766686,0.046 -0.766686,-0.09846 0,-0.04619 0.08667,-0.08432 0.192599,-0.08475 0.105932,-4.45e-4 0.385199,-0.09553 0.620598,-0.211323 0.624501,-0.307201 0.756855,-0.284276 1.027786,0.178023 0.332433,0.567251 0.51168,0.718882 0.849841,0.718882 0.447761,0 0.735018,0.141373 1.20397,0.592519 0.235404,0.226461 0.554779,0.483929 0.709724,0.572151 0.154946,0.08822 0.303059,0.245416 0.32914,0.34932 0.05715,0.227695 -0.101324,0.744094 -0.27175,0.885537 -0.168656,0.139972 -0.381915,0.04103 -0.381915,-0.177197 0,-0.137538 -0.04532,-0.173405 -0.192594,-0.152486 -0.157839,0.02241 -0.192605,0.08143 -0.192605,0.326954 0,0.291673 0.0102,0.300731 0.385199,0.342399 0.382056,0.04245 0.38496,0.04525 0.355492,0.342152 -0.05853,0.589812 -0.344929,0.783385 -0.93665,0.633074 -0.31075,-0.07893 -0.37906,-0.153311 -0.541893,-0.590027 -0.05266,-0.141239 -0.112439,-0.212234 -0.132827,-0.157767 -0.02041,0.05447 0.02274,0.242143 0.0958,0.417054 0.15119,0.361843 0.172169,0.867425 0.04939,1.190339 -0.113868,0.299499 -0.258918,0.276733 -0.258918,-0.04064 z m 0.903838,-3.722908 c -0.216108,-0.163455 -0.39879,-0.161973 -0.335593,0.0027 0.02714,0.07062 0.151075,0.127175 0.275511,0.125678 0.21741,-0.0026 0.219761,-0.0076 0.06008,-0.128401 z m -2.763031,11.628334 c 0.06958,-0.36401 -0.0093,-0.454703 -0.396967,-0.456135 -0.195048,-7.6e-4 -0.410885,-0.03689 -0.479634,-0.08038 -0.107561,-0.06803 -0.104022,-0.102243 0.02535,-0.245217 0.14593,-0.161256 0.140784,-0.167854 -0.174606,-0.22379 -0.738922,-0.131052 -0.792875,-0.215965 -0.297733,-0.468568 0.383842,-0.19582 0.933437,-0.776374 0.998154,-1.054379 0.02491,-0.107118 0.07496,-0.344858 0.11117,-0.528312 l 0.06582,-0.333555 0.319006,0.300862 c 0.360751,0.340233 0.404967,0.610407 0.185754,1.135059 -0.168591,0.403494 -0.09562,0.766675 0.228527,1.137355 0.23357,0.267096 0.285097,0.392008 0.361306,0.875829 0.0185,0.1177 0.03897,-0.336146 0.04538,-1.008547 0.01374,-1.443275 -0.03121,-1.590475 -0.681738,-2.230898 -0.687117,-0.676458 -0.724602,-0.684248 -0.690254,-0.143449 0.04695,0.73937 -0.10165,0.923354 -1.137451,1.408253 -0.920009,0.430688 -1.197073,0.683953 -1.144899,1.046552 0.0374,0.25981 0.538506,0.58569 0.900641,0.58569 0.233575,0 0.319668,0.05052 0.436743,0.256258 0.138895,0.244095 0.172771,0.256284 0.713638,0.2568 0.54839,5.2e-4 0.569325,-0.0074 0.611783,-0.229433 z m 1.225535,-6.242231 c 0.224478,-0.131555 0.452723,-0.204715 0.555131,-0.177934 0.140394,0.03671 0.154979,0.02266 0.07569,-0.07287 -0.212108,-0.255575 -0.422463,-0.231051 -0.856349,0.09983 -0.233646,0.178182 -0.424813,0.335312 -0.424813,0.349178 0,0.09087 0.327272,-0.0089 0.650343,-0.198202 z m -0.356892,-0.378168 c 0.199488,-0.150941 0.443197,-0.255477 0.599201,-0.257021 0.226725,-0.0023 0.241462,-0.0151 0.106947,-0.09332 -0.218117,-0.126845 -0.472628,-0.03637 -0.871196,0.309688 -0.418043,0.362967 -0.299513,0.392164 0.165048,0.04065 z m -0.250651,-0.340018 c 0.166437,-0.173717 0.330854,-0.257643 0.508217,-0.259402 0.226286,-0.0023 0.240811,-0.01503 0.106089,-0.09338 -0.214207,-0.124567 -0.611582,0.04842 -0.836357,0.364085 -0.229331,0.322069 -0.09057,0.315005 0.222051,-0.01131 z m 9.841055,-3.973652 c 0.166377,-0.06952 0.350948,-0.237268 0.430658,-0.391408 l 0.139492,-0.26975 -0.240804,0.02761 c -0.206294,0.02365 -0.237277,0.06135 -0.216174,0.263008 0.01927,0.18403 -0.01145,0.2354 -0.140637,0.2354 -0.0909,0 -0.191525,-0.06741 -0.223604,-0.1498 -0.05265,-0.135185 -0.07439,-0.130083 -0.223154,0.05228 -0.09066,0.111145 -0.16484,0.236335 -0.16484,0.278199 0,0.113956 0.31025,0.09185 0.639063,-0.04554 z"
       id="path1"
       inkscape:label="hogwarts"
       sodipodi:insensitive="true" />
  </g>
</svg>
