<?xml version="1.0" encoding="utf-8"?><svg xmlns="http://www.w3.org/2000/svg" xmlns:xlink="http://www.w3.org/1999/xlink" x="0px" y="0px" style="enable-background:new 0 0 300 300" version="1.1" viewBox="0 0 300 300" xml:space="preserve"><style type="text/css">.st0{display:none;}
	
		.st1{display:inline;fill:#0000FF;stroke:#000000;stroke-width:6;stroke-linecap:round;stroke-linejoin:round;stroke-miterlimit:10;}
	.st2{fill:#FFFFFF;}
	.st3{fill:#E5E0D7;}
	.st4{fill:#9E2F18;}
	.st5{fill:#EBD0C2;}
	.st6{fill:#E6A693;}
	.st7{fill:#E2E7E6;}
	.st8{fill:#999C6B;}
	.st9{fill:#FFF2EF;}
	.st10{fill:#D97C65;}
	.st11{fill:#A6A7B1;}
	.st12{fill:#D69A41;}
	.st13{fill:none;stroke:#000000;stroke-width:1.2156;stroke-linecap:round;stroke-linejoin:round;stroke-miterlimit:10;}</style><g id="Layer_9" class="st0"><rect width="610.96" height="662.83" x="-182.08" y="-168.19" class="st1"/></g><g id="Layer_6"/><g id="Layer_3"/><g id="Layer_5"/><g id="Layer_8"/><g id="Layer_7"/><g id="Layer_10"/><g/><g><g><path d="M196.8,289.87c-0.88,0-1.79-0.07-2.68-0.22c-4.74-0.76-8.85-3.36-11.73-6.12c-5.26,0.27-10.19,0.36-12.5,0.41
			l-1.15,0.02c-4.42,0-21.15-2.89-29.52-5.09c-1.19-0.25-2.47-0.64-3.81-1.14l-0.2-0.07c-5.08-1.85-12.07-6.09-16.19-8.73
			c-3.24-0.45-5.73-3.27-5.73-6.66v-3.67c-1.5,0.22-2.85,0.32-4.07,0.32c-9.06,0-11.31-6.3-12.05-8.37
			c-1.5-4.2-2.73-21.92-1.17-27.83c0.96-3.64,3.61-20.72,3.09-28.71c-0.64-9.89,0.78-26.43,5.4-39.4c2.17-6.08,5.13-9.86,8.03-12.21
			c-3.9-7.16-4.28-10.51-3.51-13.28c0.63-2.26,2.19-4.08,4.28-4.99c0.12-0.06,0.27-0.13,0.42-0.22c-0.16-0.12-0.32-0.23-0.47-0.35
			c-2.1-1.67-6.02-5.41-9.18-8.5c-4.68,4.03-11.99,9.19-19.94,10.49c-2.04,0.33-4.11,0.5-6.17,0.5c-4.89,0-8.9-0.93-12.12-1.67
			c-1.64-0.38-3.33-0.77-4.23-0.77c0,0-0.01,0-0.01,0c-0.05,0-0.09,0-0.13,0.01c-2.78,0.49-12.81,6.72-14.73,8.88
			c-0.95,1.2-3.59,4.53-7.67,4.53c-0.7,0-1.39-0.1-2.06-0.29c-1.67-0.48-4.64-2.03-5.66-6.87c-0.75-3.27-6.2-28.93,3.86-46.91
			c8.68-15.5,24.23-32.45,42.69-35.48c1.63-2.24,3.5-3.46,4.97-4.11c1.19-0.53,2.45-0.85,3.75-0.95
			c5.9-8.41,21.25-27.65,41.49-33.11c6.87-1.85,14.45-2.79,22.53-2.79c17.56,0,35.87,4.54,44.62,11.06
			c2.26,1.57,4.15,3.77,5.54,5.68c1.83-0.06,4.19-0.11,6.8-0.11c9.04,0,16.15,0.57,21.13,1.71c12.35,2.81,31.64,18.31,36.86,29.62
			c5.22,11.3,5.22,18.98,5.22,21.5c0,2.55-1.15,4.81-3.14,6.22c-1.26,0.88-2.77,1.35-4.36,1.35l0,0c-2.79,0-5.33-1.31-9.26-3.45
			c-1.39-0.76-3.29-1.79-4.1-2.05c-0.48-0.15-0.93-0.23-1.38-0.23c-1.4,0-3.16,0.8-5.21,2.38c-1.38,1.07-2.7,2.77-4.09,4.56
			c-2.26,2.91-4.81,6.22-8.7,7.87c-2.21,0.94-7.5,2.19-11.95,2.85c-1.3,8.04-4.54,14.37-9.66,18.87c-2.33,2.05-4.76,4.38-7.11,6.63
			c-6.36,6.1-11.95,11.47-17.41,13.45c-0.49,2.08-0.94,4.07-1.32,5.8c2.24,0.18,4.92,0.8,7.26,2.69c0.72,0.58,0.91,0.58,1.43,0.58
			c0.39,0,0.79-0.03,1.2-0.05c0.58-0.03,1.13-0.05,1.77-0.07l1.02-0.03c0.54-0.02,1.15-0.04,1.82-0.04c8.35,0,14.39,3.27,17.94,9.73
			c3.44,6.25,5.31,17.49,6.95,27.4c0.57,3.41,1.1,6.64,1.6,8.98c0.81,3.76,3.83,9.58,6.49,14.72c2.9,5.6,5.64,10.88,6.82,15.47
			l0.59,2.26c2.27,8.68,4.84,18.52,3.76,25.57c-0.34,2.23-1.81,6.27-7.81,8.3c-3.09,1.04-6.69,1.26-9.16,1.26
			c-3.78,0-7.59-0.46-11.11-1.31v10.12c0,1.78-0.69,3.4-1.81,4.6c1.12,8.43-1.94,13.13-4.85,15.64
			C204.14,288.55,200.6,289.87,196.8,289.87z M140.11,135.58c0.25,0.02,0.73,0.06,1.54,0.06c0.2,0,0.4,0,0.61-0.01v-2.18
			c-1.32-0.28-2.81-0.62-4.42-1c0.39,0.92,0.71,1.78,0.97,2.52C139.18,135.15,139.61,135.35,140.11,135.58z" class="st2"/><path d="M150.63,12.58c17.54,0,34.23,4.76,41.08,9.92c2.9,1.98,5.22,5.8,5.87,6.95c1.15-0.06,5.11-0.24,10.01-0.24
			c6.34,0,14.26,0.3,19.79,1.56c10.53,2.39,28.25,16.62,32.69,26.24c4.66,10.09,4.66,16.77,4.66,18.96c0,0.71-0.3,1.07-0.56,1.25
			c-0.23,0.16-0.52,0.24-0.86,0.24c-1.3,0-3.39-1.09-6.35-2.71c-1.86-1.01-3.79-2.06-5.16-2.5c-1.08-0.34-2.15-0.52-3.23-0.52
			c-2.84,0-5.74,1.2-8.92,3.65c-2,1.54-3.62,3.63-5.19,5.66c-1.98,2.55-3.84,4.97-6.27,6c-2.35,1-10.92,2.83-14.49,2.83
			c-0.21,0-0.41-0.01-0.58-0.02c0,0.04-0.01,0.09-0.01,0.13c-0.5,8.83-3.25,15.49-8.16,19.81c-2.42,2.13-4.9,4.51-7.3,6.81
			c-6.23,5.98-12.11,11.62-16.49,12.46c-0.5,0.1-1.1,0.18-1.74,0.26c-1.07,4.4-3.52,14.89-3.52,16.69c0.21,0.27,0.91,0.34,1.71,0.34
			c0.48,0,1-0.02,1.47-0.05c0.68-0.03,1.4-0.07,2.13-0.07c1.92,0,3.92,0.24,5.36,1.41c2,1.62,3.6,1.93,5.26,1.93
			c0.51,0,1.03-0.03,1.56-0.06c0.82-0.05,1.53-0.05,2.63-0.09c0.47-0.02,1.02-0.03,1.62-0.03c3.68,0,9.36,0.66,12.62,6.58
			c2.94,5.34,4.79,16.49,6.28,25.46c0.58,3.49,1.13,6.79,1.66,9.26c0.98,4.56,4.06,10.5,7.03,16.24c2.74,5.28,5.32,10.27,6.33,14.19
			l0.59,2.27c2.02,7.71,4.52,17.31,3.63,23.11c-0.24,1.54-1.5,2.7-3.75,3.46c-1.85,0.63-4.39,0.94-7.22,0.94
			c-5.69,0-12.53-1.3-17.18-3.96v18.86c0,0.36-0.26,0.64-0.57,0.64c-0.07,0-0.13-0.02-0.19-0.04c-0.22,0.64-0.64,1.71-1.31,2.93
			c0.96,4.65,0.73,9.34-2.47,12.1c-1.8,1.55-3.94,2.34-6.28,2.34c-0.56,0-1.14-0.05-1.72-0.14c-4.23-0.68-8.05-3.62-10.16-6.35
			c-6.95,0.44-14.01,0.53-16.06,0.58c-0.04,0-0.08,0-0.13,0c-3.52,0-19.7-2.69-28.13-4.93c-1-0.2-2.05-0.53-3.1-0.93
			c-0.06-0.02-0.13-0.04-0.19-0.07c-5.66-2.07-14.71-7.92-16.89-9.36c-0.1,0.19-0.28,0.32-0.49,0.32c-0.32,0-0.57-0.29-0.57-0.64
			v-11.19c-0.96,0.25-1.93,0.49-2.9,0.72c-3.11,0.73-5.45,1.04-7.24,1.04c0,0,0,0,0,0c-4.33,0-5.44-1.86-6.32-4.33
			c-1.15-3.22-2.26-19.57-1.02-24.23c1.09-4.11,3.86-21.76,3.28-30.66c-0.62-9.58,0.92-25.35,5.06-36.97
			c3.27-9.16,8.37-11.35,10.93-11.86c-0.3-0.31-0.58-0.66-0.82-1.05c-4.13-6.77-5.97-11.14-5.46-13c0.14-0.49,0.43-0.85,0.84-1.03
			c0.4-0.17,0.87-0.44,1.4-0.73c1.68-0.93,3.91-2.17,6.34-2.17c1.33,0,2.72,0.37,4.11,1.37c3.21,2.31,4.76,6.66,5.69,9.26
			c0.28,0.79,0.6,1.69,0.76,1.86c0.79,0.43,1.94,1.08,4.07,2.03c0.63,0.28,1.99,0.38,3.57,0.38c2.3,0,5.06-0.21,6.69-0.37v-12.92
			c-0.66-0.11-1.32-0.22-1.96-0.34c-11.2-2.14-25.62-6.3-29.37-9.28c-3.08-2.44-10.97-10.31-12.86-12.2
			c-2.01,2.12-11.25,11.34-21.03,12.95c-1.83,0.3-3.55,0.42-5.18,0.42c-4.2,0-7.74-0.82-10.76-1.52c-2.12-0.49-4.01-0.93-5.6-0.93
			c-0.4,0-0.78,0.03-1.14,0.09c-4.57,0.78-16.3,8.33-18.46,11.05c-1.23,1.55-2.16,2.27-2.94,2.27c-0.12,0-0.24-0.02-0.35-0.05
			c-0.91-0.26-1.25-1.46-1.43-2.34c-0.28-1.22-5.95-26.24,3.23-42.65c8.44-15.08,23.66-31.56,41.15-32.78
			c0.88-2.11,2.11-3.53,3.67-4.22c0.78-0.35,1.55-0.47,2.23-0.47c0.89,0,1.63,0.2,2.08,0.36c2.21-3.46,18.41-27.8,40.05-33.64
			C136.41,13.35,143.59,12.58,150.63,12.58 M131.29,220.09c-0.07-0.29-0.15-0.59-0.22-0.9c-0.02,0.31-0.04,0.58-0.05,0.79
			C131.11,220.02,131.2,220.06,131.29,220.09 M150.63,0.43C150.63,0.43,150.63,0.43,150.63,0.43c-8.62,0-16.73,1.01-24.11,3
			c-20.53,5.54-36.21,23.68-43.39,33.42c-0.93,0.24-1.85,0.56-2.74,0.95c-1.72,0.76-3.8,2.02-5.76,4.08
			c-24.56,5.25-40.26,30.1-44.74,38.09c-11.1,19.83-5.37,47.35-4.5,51.18c1.72,8.15,7.43,10.68,9.87,11.4v0
			c1.23,0.36,2.5,0.54,3.78,0.54c6.58,0,10.6-4.55,12.18-6.52c1.89-1.71,8-5.55,10.92-6.79c0.68,0.13,1.6,0.35,2.29,0.5
			c3.35,0.77,7.92,1.83,13.5,1.83c2.39,0,4.79-0.2,7.15-0.59c7.08-1.16,13.52-4.72,18.58-8.41c0.32,0.3,0.63,0.6,0.95,0.89
			c-0.64,1.06-1.14,2.23-1.48,3.46c-1.17,4.26-0.3,8.67,1.98,13.73c-2.38,2.78-4.62,6.47-6.36,11.34
			c-4.92,13.78-6.42,31.35-5.74,41.84c0.45,6.98-1.99,23.32-2.9,26.77c-1.94,7.33-0.55,26.17,1.33,31.43
			c3.32,9.3,10.24,11.94,16.04,12.34c1,4.72,4.59,8.48,9.2,9.71c4.42,2.79,11.22,6.81,16.46,8.73c0.07,0.03,0.14,0.05,0.21,0.08
			c1.55,0.59,3.02,1.03,4.45,1.34c8.43,2.2,25.61,5.25,30.92,5.25c0.14,0,0.27,0,0.39,0l0.88-0.02c1.97-0.04,5.83-0.11,10.2-0.3
			c3.84,3.09,8.38,5.2,12.96,5.93c1.22,0.19,2.44,0.29,3.64,0.29c5.28,0,10.19-1.83,14.21-5.29c3.11-2.67,7.73-8.41,7.14-18.59
			c1.04-1.85,1.63-3.99,1.63-6.26v-2.98c1.67,0.16,3.35,0.24,5.03,0.24c4.26,0,7.99-0.53,11.11-1.58
			c9.38-3.17,11.43-10.24,11.88-13.13c1.28-8.29-1.47-18.78-3.89-28.03l-0.59-2.26c-1.35-5.23-4.24-10.81-7.31-16.72
			c-2.36-4.56-5.3-10.24-5.94-13.21c-0.47-2.2-1-5.35-1.55-8.69c-2.08-12.57-3.97-22.71-7.62-29.34
			c-3.24-5.87-9.9-12.87-23.26-12.87c-0.74,0-1.42,0.02-2.01,0.04c-0.37,0.01-0.68,0.02-0.97,0.03c-0.49,0.01-1,0.02-1.56,0.05
			c-0.17-0.12-0.35-0.23-0.52-0.34c4.42-2.94,8.76-7.1,13.49-11.64c2.31-2.21,4.68-4.5,6.91-6.45c5.25-4.61,8.86-10.7,10.77-18.17
			c3.72-0.75,7.28-1.71,9.21-2.53c5.34-2.27,8.55-6.41,11.13-9.74c1.05-1.35,2.23-2.88,2.99-3.47c0.66-0.51,1.14-0.8,1.45-0.97
			c0.75,0.37,1.88,0.98,2.62,1.39c3.96,2.15,7.69,4.19,12.17,4.19c2.84,0,5.55-0.84,7.82-2.43c3.61-2.54,5.75-6.72,5.75-11.21
			c0-2.85,0-11.53-5.77-24.05c-6.04-13.1-26.75-29.75-41.03-33c-5.43-1.23-12.99-1.86-22.48-1.86c-1.39,0-2.71,0.01-3.92,0.04
			c-1.38-1.59-3.01-3.16-4.86-4.46C188.92,5.33,169.62,0.43,150.63,0.43L150.63,0.43L150.63,0.43z" class="st2"/></g><g><path d="M130.81,258.69l-2.44-14.65l29.74-16.32L173,214.47l7.89,1.41l12.13,8.21l14.01,19.95l0.23,5.19l-0.23,16.53
			c0,0-1.95,7.4-8.13,9.57c-6.17,2.17-26.34,2.41-30.07,2.49c-3.73,0.08-25.08-3.56-31.55-5.92c-6.48-2.36-17.38-9.68-17.38-9.68
			L130.81,258.69z" class="st3"/><path d="M159.4,242.69c0,0,1.65-6.65,1.65-6.64c0,0.01,1-4.76,1-4.76l-0.21-2.41l7.7-6.75l6.62-5.64l5.35,4.38
			l0.1,9.13c0,0,0.29,10.42,0.49,10.87s2.03,2.9,2.03,2.9l10.48,8.39l6.38,6.76l3.52,7.96l-7.86,7.63l-5.32,7.25
			c0,0-4.68-3.2-5.62-4.46c-0.93-1.25-5.92-7.19-7.61-8.94c-1.69-1.74-4.43-4.46-9.45-3.78s-5.59-0.08-5.59-0.08l-4.59-20.03
			L159.4,242.69z" class="st4"/><path d="M134.68,162.39l-4.94-12.6l2.97,1.47l4.26,1.56l3.12,3.27l8.6,2.57l1.42,1.89l5.48,7.97l4.65,4.97l6.82,3.08
			c0,0,7.89,1.2,9.38,0s2.63-14.56,2.63-14.57c0-0.01-4.21-11.17-4.21-11.17l0.79-4.2l6.07,0.5l3.3,0.28l3.4,2.08l4.66,0.62
			l2.9-0.15l2.08,6.45l6.92,21.16l2.57,15.63V205l-0.46,8.51l-11.42,5.87l-23.45-5.07l-25.67,10.27c0,0-13.68-1.13-14.21-1.13
			s-3.97-16.25-3.97-16.25l5.02-12.87" class="st3"/><path d="M119.41,128.67l6.01,11.68l3.95,6.46l9.74,4.24l6.19,7.25l6.59-0.31l8.13-2.27l4.66-8.9
			c0,0-1.71-3.04-2.22-3.81c-0.52-0.77-13.63-1.21-13.63-1.21l-9.65,0.39l-5.2-2.07l-4.31-8.9c0,0-2.22-3-5.3-3.72
			C121.26,126.75,119.41,128.67,119.41,128.67z" class="st3"/><path d="M130.7,151.46c0,0,2.51,8.63,2.51,9.8s1.29,12.43,1.54,14.24c0.25,1.81-0.5,12.51-1.18,15.2
			c-0.68,2.69-2.73,7.31-3.75,7.86s-3.92,3.2-3.92,3.2l0.17,16.69l6.25,2.57c0,0,11.19,1.34,13.84,1.09
			c2.66-0.25,9.22-4.83,9.22-4.83l-2.4-1.53l-0.31-3.46l0.52-2.82l-1.11-0.88l-0.79-3.62c0,0,0.64-7.84,1.71-9.45
			s2.71-2.83,2.71-2.83l0.53-2.76c0,0,3.52-6.53,6.78-6.68c3.26-0.16,12.45-0.69,14.85,0.46c2.4,1.15,5.42,2.56,6.14,4.01
			c0.72,1.45,5.27,12.23,5.27,12.39s2.77,11.13,8.78,14.05c6,2.92,9.49-1.1,9.49-1.1v-22.6c0,0-2.86-17.57-5.58-21.98
			c-2.43-6.48-6.31-18.47-6.31-18.47s5.02-1.08,9.19,1.43c4.17,2.5,5.29,4.29,7.81,13.09c2.52,8.8,3.39,17.76,3.81,20.16
			c0.42,2.4,1.57,7.79,1.57,7.79s3.84,9.26,5.24,11.97c1.4,2.71,7.12,14.92,7.12,14.92s3.09,10.75,3.16,10.99
			c0.07,0.24-1.58,9.41-1.58,9.41l-6.75,3.38l-21.43-6.6l-10.79-12.47l-13.29-11.1l-4.31,3.94l-12.26,10.46l-12.34,9.01l-17.95,9.35
			l-16.64,5.13c0,0-8.57,1.26-9.06,1.11c-0.49-0.15-5.02-1.11-5.3-14.47c-0.28-13.35,2.3-20.43,2.44-22.77
			c0.14-2.33,5.02-33.3,5.02-33.3l6.75-31.67l6.75-0.71L130.7,151.46z" class="st5"/><path d="M38.53,130.26c0,0,2.63-0.75,3.75-2.85c1.13-2.1,11.6-7.95,13.42-8.76c1.83-0.82,2.23-1.5,4.33-1.64
			s12.26,2.15,18.32,1.87c6.06-0.28,12-2.11,17.91-6.24s8.07-6.73,8.07-6.73l5.36,5.29c0,0,5.98,6.47,8.82,7.82
			c2.84,1.35,13.61,5,15.49,5.5c1.88,0.5,15.35,3.69,15.35,3.69l-0.46,12.82l4.88,3.34l2.6,2.76l2.15,0.3l3.24-1.33l1.68,0.72
			l-1.23,3.21l-4.39,4.59l-3.51,2.4l-2.8,1.11l-2.82,0.23l1.85,2.86c0,0,5.53,8.65,7.76,10.36c2.22,1.7,9.13,5.92,13.17,5.57
			c4.05-0.35,7.68-0.85,8.92-5.86c1.24-5.01,1.92-9.15,0.11-14.14c-1.81-4.99-5.21-11.19-5.21-11.19l2.01-10.33l1.64-6.95
			c0,0,6.55-1.43,8.77-4.65c2.5-1.42,3.51-2.31,3.51-2.31l5.68-5.98l6.65-5.6c0,0,4.62-4.89,5.36-6.34
			c0.74-1.45,3.06-8.55,3.25-10.18c0.19-1.62,0.38-4.13,0.38-4.13l13.36-2.4c0,0,3.1-1.11,4.01-1.93c0.91-0.82,6.41-9.81,13.46-12.9
			c7.05-3.1,13.89,1.92,15.02,2.52c1.13,0.59,5.53,2.11,5.63,1.63c0.1-0.48-0.27-6.99-1.17-10.04c-0.9-3.04-3.82-13.2-11.74-19.92
			c-7.92-6.72-15.29-13.17-27.18-15.7c-11.9-2.53-26.68-0.68-26.68-0.68s-4.92-10.45-20.22-13.37s-24.43-3.89-29.51-3.53
			c-5.08,0.37-15.55,1.95-17.47,2.51c-1.92,0.55-11.66,4.41-16.15,7.88c-4.49,3.47-13.71,12.33-15.31,14.24
			c-1.6,1.91-8.77,11.74-8.77,11.74s-2.44-0.61-3.26-0.38c-0.82,0.22-3.82,2.56-4.26,4.25c-1.09-0.16-6.28,1.27-6.28,1.27
			s-6.86,1.22-18.85,10.47s-18.93,27.16-19.37,28.9c-0.45,1.75-2.8,17.95-1.61,23.32C37.38,122.73,38.53,130.26,38.53,130.26z" class="st5"/><path d="M81.01,69c0,0-4.3,1.68-6.03,8.76c-1.72,7.08-1.22,14.08,3.01,18.98c4.23,4.91,12.49,5.79,13.99,5.31
			s2.8-1.85,2.8-1.85L85.74,83.8l0.04-6.56c0,0,0.41-4.48,0.33-5c-0.08-0.52-1.61-2.17-2.67-2.54S81.01,69,81.01,69z" class="st6"/><path d="M105.76,82.04c0,0-1.47-11.83-0.64-15.53c0.84-3.71,4.07-12.99,9.56-17.11c5.5-4.12,8.37-4.79,14.9-4.22
			c6.53,0.58,10.4,6.36,11.98,7.21s7.66,9.32,7.77,15.66c0.11,6.34-0.45,11.63-0.45,11.63l-6.24-0.38l-24.4,0.4l-8.83,1.29
			L105.76,82.04z" class="st7"/><path d="M180.32,75.55c0,0-5.11-10.66-4.38-18.3c0.73-7.64,1.2-14.76,8.1-18.36c6.9-3.6,11.36-4.62,16.2-1.78
			s7.42,8.07,7.56,10.81c0.14,2.74,0.65,8.97,0.33,10.68c-0.33,1.71-1.61,2.36-1.61,2.36l-9.84,4.82l-12.06,6.76L180.32,75.55z" class="st7"/><path d="M116.04,80.02c0,0-2.84-10.54-2.26-14.29c0.57-3.75,2.01-8.47,4.5-10.94s9.47-6.54,13.44-4.75
			c3.97,1.8,9.62,4.21,11.24,12.15s-0.53,12.92-0.77,13.78c-0.24,0.86-1.9,3.36-1.9,3.36l-16.28,0.28L116.04,80.02z" class="st8"/><path d="M176.4,55.8c0,0-0.57-6.81,3.78-10.97s10.57-5.34,13.16-3.67c2.58,1.66,6.36,4.13,7.37,7.94
			s1.77,9.76-0.24,14.64c-2.85,2.31-10.27,5.67-10.27,5.67l-9.01,6.14l-2.06-1.01C179.12,74.55,175.54,61.92,176.4,55.8z" class="st8"/><path d="M152.97,101.67c0,0,10.7,1.71,11.89,1.85s7.38,0.53,9.36,0c1.97-0.53,12.09-6.57,12.09-6.57l2.8-1.81
			l-1.22,2.96l-8.04,9.31l-6.6,2.32l-7.53-0.5l-7.59-4.01L152.97,101.67z" class="st9"/><path d="M85.51,81.63c0,0-3.71,2.98-3.13,7.72c0.57,4.75,4.16,11.42,7.53,11.66c3.37,0.24,4.88-0.8,4.88-0.8
			s0.39-3.78,0-5.55s-1.49-4.63-2.64-5.49c-1.15-0.86-4.13-2.53-4.68-3.1s-1.36-1.25-1.61-1.71S85.51,81.63,85.51,81.63z" class="st10"/><path d="M214.58,63.33c-0.14-0.3-2.82-13.05,0-19.17c2.82-6.11,21.57-2.63,21.57-2.63l-6.03-1.41
			c0,0-8.67-1.14-10.59-0.88s-4.95,0.94-5.85,1.61s-2.76,2.12-3.18,5.11c-0.43,2.99,1.25,10.2,1.34,10.48
			C211.93,56.74,214.58,63.33,214.58,63.33z" class="st10"/><path d="M104.87,31.13c0,0-0.83,6.09,0.46,11.08s10.48,6.11,10.48,6.11l-6.39,6.52l-3.64,8.6c0,0-1.28,9.3-0.93,11.21
			c0.35,1.91,0.91,7.39,0.91,7.39s-1.17,2.99,2.27,12.11c3.44,9.12-9.09-3.11-10.72-5.79s-7.37-18.02-5.36-28.37
			C93.97,49.64,99.41,35.98,104.87,31.13z" class="st6"/><path d="M153.31,144.36c0,0,15.84-0.9,24.56-15.58c-5.06-0.11-9.37,0.38-9.37,0.38l-11.14-0.4l-8.47-0.95v13.2
			l1.11,1.21l1.52,1.36L153.31,144.36z" class="st6"/><path d="M131.09,153.02c0,0-11.76,0.76-14.35,11.06c-2.58,10.3-0.72,35.56-2.15,41.19
			c-1.44,5.63-5.02,18.98-5.02,23.81s0.73,10.3,5.75,10.78c5.01,0.48,22.14-1.29,28.22-4.83c6.08-3.54,18.12-10.36,19.85-12.9
			c1.73-2.54,9.62-3.67,9.62-3.67s-7.93,7.13-8.22,7.39c-0.29,0.26-17.9,12.79-19.56,13.88c-1.66,1.09-16.57,8.34-20.33,9.08
			c-3.76,0.74-13.49,4.97-17.7,3.18c-4.22-1.8-4.47-8.96-4.65-13.38c-0.18-4.42-0.72-10.54-0.14-14.2
			c0.57-3.66,1.53-9.79,2.02-11.63c0.49-1.84,1.72-14.55,1.36-16.64c-0.37-2.09,0.31-17.86,0.74-20.87c0.43-3.01,4.1-18.59,5-20.43
			c0.89-1.84,4.68-6.76,6.84-8.35s3.88-1.23,3.88-1.23l7.21,3.82L131.09,153.02z" class="st6"/><path d="M213.52,238.57c0,0,14.93,4.18,17.13,1.29c2.2-2.9,2.37-10.7,2.37-10.7l2.35,12.25c0,0,0.31,4.95-1.18,6.63
			c-1.49,1.68-10.5,2.62-14.87,1.79c-4.38-0.84-12.68-3.06-15.67-7.16c-2.99-4.1-7.97-12.22-8.77-13.09
			c-0.8-0.87-8.47-6.14-9.29-6.6c-0.82-0.47-8.58-6-9.15-6.88c-0.57-0.88-3.15-7-3.8-7.52c-0.66-0.52-1.4-6.05,4.95-1.5
			c6.35,4.55,15.7,14.12,18.08,16.93C198.04,226.83,207.68,236.24,213.52,238.57z" class="st6"/><path d="M121.33,127.71c0,0,4.18,10.77,6.51,14.52c2.33,3.75,2.01,2.54,5.41,4.58c3.4,2.04,5.69,0.4,7.61,3.21
			c1.91,2.8,3.25,5.8,4.88,6.45s2.15,1.83,2.15,1.83l-5.02-1.18l-4.27-2.51l-2.67-2.26l-3.82-1.3l-3.17-2.47l-4.72-2.51l-2.87-1.96
			l-3.7-6.29l-2.32-7.09L121.33,127.71z" class="st11"/><path d="M130.73,152.16c0,0,7.02,10.52,8.38,20.28c1.36,9.76-0.75,26.71-4.19,31c-3.44,4.29-3.95,17.04-3.95,17.04
			l-4.9-2.02l-0.17-16.69c0,0,4.2-3.21,5.7-5.86c1.5-2.65,2.59-12.52,2.76-18.21c0.17-5.68-1.54-17.7-2.26-18.98
			C131.38,157.43,130.73,152.16,130.73,152.16z" class="st11"/><path d="M132.1,246.09c0,0,2.24,17.2,12.67,26.64c-4.78,2.04-14.73-4.4-16.74-6.22c-2.01-1.82-8.12-4.29-8.12-4.29
			v-11.97L132.1,246.09z" class="st11"/><path d="M141.19,241.84c0,0-1.01,11.91,3.58,20.38c4.59,8.47,11.67,13.41,16.17,14.16c4.5,0.75,13.97,0,13.97,0
			s1.53-10.47-3.92-11.46c-5.45-0.98-7.27,0.09-7.27,0.09l-4.22-5.73c0,0-1.04-7.78-4.87-11.54c-3.83-3.75-11.1-7.08-11.1-7.08
			L141.19,241.84z" class="st11"/><path d="M181.51,226.29c0,0,6.65,9.65,12.52,14.37c5.86,4.72,13.01,7.08,13.01,7.08l-0.54-2.15l-4.87-5.63l-5.94-9.4
			c0,0-6.51-5.44-9.38-7.14c-2.87-1.7-4.79-3.12-4.79-3.12V226.29z" class="st11"/><path d="M158.76,243.95c0,0,5.02,3.19,7.21,8.21c2.19,5.03,0.65,12.95,0.65,12.95s-2.22,0.4-3.16-0.24
			c-0.93-0.64-3.77-4.87-4.7-8.08C157.82,253.57,158.35,245.6,158.76,243.95z" class="st12"/><path d="M189.55,280.69c0,0,3.18-10.91,14.41-14.93c1.51,5.95,1.95,9.76,0.95,11.77c-1,2.01-3.07,4.72-5.51,5.57
			C196.97,283.94,189.88,281.63,189.55,280.69z" class="st12"/><polygon points="182.29,272.71 198.02,255.79 200.35,257.96 184.39,275.49 		" class="st12"/><polygon points="178.53,268.76 176.24,266.8 192.41,250.55 194.27,252.12 		" class="st12"/><polygon points="169.54,264.69 188.4,247.16 189.55,248.49 170.99,264.92 		" class="st12"/><path d="M167.45,256.43l16.08-13.74l1.72,1.83l-17.28,13.89C167.98,258.41,168.24,258.5,167.45,256.43z" class="st12"/><path d="M164.53,248.01l17.24-13.57l0.13,2.52l-16.17,12.49C165.73,249.46,165.97,249.56,164.53,248.01z" class="st12"/><polygon points="159.06,242.69 181.51,228.7 181.51,227.15 159.35,241.62 		" class="st12"/><path d="M37.81,128.36c0,0-6.03-25.74,3.16-42.15s24.4-31.53,41.05-32.5c2.58-6.76,7.82-4.18,7.82-4.18
			s16.72-27.51,39.97-33.79s51.95,0,61.57,7.24c3.3,2.25,5.88,7.08,5.88,7.08s19.37-1.13,29.99,1.29
			c10.62,2.41,27.99,16.57,32.29,25.9c4.31,9.33,4.59,15.61,4.59,18.66c0,3.06-8.18-3.06-12.2-4.34c-4.02-1.29-8.04-0.32-12.63,3.22
			s-7.18,9.81-11.34,11.58c-4.16,1.77-15.07,3.22-15.36,2.74c-0.29-0.48,0.57,12.55-8.04,20.11c-8.61,7.56-17.65,18.02-23.54,19.15
			c-5.88,1.13-22.82,1.29-34.59-0.97c-11.77-2.25-25.69-6.44-29.13-9.17c-3.44-2.74-13.2-12.55-13.2-12.55s-10.33,11.42-21.1,13.19
			s-17.94-2.74-22.68-1.93c-4.74,0.8-16.5,8.37-18.8,11.26C39.24,131.1,38.28,130.73,37.81,128.36z" class="st13"/><g><path d="M37.81,114.53c0.61-8.91,3.28-17.75,8-25.44c2.35-3.85,5.33-7.31,8.75-10.27l2.65-2.12L60,74.8
				c1.9-1.21,3.84-2.36,5.88-3.35c4.06-1.94,8.53-3.35,13.16-3.19c0.58,0.04,1.15,0.05,1.72,0.17l0.86,0.14
				c0.28,0.06,0.56,0.15,0.84,0.23c1.12,0.32,2.22,0.78,3.18,1.58c0.24,0.21,0.46,0.44,0.66,0.73c0.09,0.17,0.2,0.35,0.24,0.52
				c0.03,0.17,0.06,0.34,0.08,0.5c0.04,0.61,0.02,1.19-0.02,1.75c-0.09,1.13-0.23,2.24-0.35,3.35c-0.13,1.11-0.24,2.21-0.3,3.31
				c-0.05,1.09-0.08,2.22,0.18,3.19c0.25,0.89,1.24,1.58,2.1,2.21c0.9,0.64,1.85,1.25,2.74,1.96c0.88,0.71,1.7,1.54,2.33,2.49
				c0.64,0.96,1.05,2.03,1.33,3.13c0.54,2.2,0.55,4.49,0.15,6.69c0.26-2.21,0.14-4.48-0.46-6.6c-0.31-1.06-0.76-2.07-1.4-2.95
				c-0.64-0.88-1.44-1.63-2.32-2.28c-0.88-0.66-1.82-1.24-2.76-1.87c-0.47-0.32-0.93-0.65-1.38-1.03c-0.43-0.39-0.86-0.87-1.07-1.5
				c-0.34-1.18-0.32-2.33-0.3-3.46c0.03-1.13,0.12-2.25,0.22-3.37c0.1-1.11,0.2-2.22,0.26-3.32c0.03-0.55,0.04-1.09,0.01-1.59
				l-0.06-0.33c-0.03-0.1-0.09-0.15-0.12-0.23c-0.11-0.15-0.28-0.34-0.46-0.49c-0.76-0.64-1.77-1.07-2.79-1.34
				c-0.26-0.07-0.51-0.15-0.77-0.2l-0.8-0.13c-0.53-0.11-1.07-0.11-1.61-0.14c-4.34-0.12-8.65,1.26-12.59,3.18
				c-1.99,0.94-3.91,2.05-5.78,3.22l-2.76,1.85l-2.59,2.05c-3.37,2.84-6.25,6.23-8.68,9.93c-2.42,3.7-4.32,7.75-5.76,11.95
				C39.37,105.74,38.32,110.09,37.81,114.53z"/></g><g><path d="M74.98,103.75c-2.54-2.04-4.77-4.52-6.41-7.41c-0.82-1.44-1.45-3.02-1.77-4.7c-0.31-1.7-0.22-3.37-0.05-5.02
				c0.39-3.3,1.35-6.49,2.69-9.5c1.37-2.98,3.11-5.86,5.53-8.06c-1.03,1.26-1.91,2.62-2.65,4.05c-0.76,1.42-1.42,2.88-2.01,4.38
				c-1.13,3-2.01,6.11-2.36,9.27c-0.18,1.57-0.26,3.18-0.03,4.69c0.23,1.53,0.79,3.02,1.47,4.45c0.7,1.42,1.55,2.79,2.49,4.1
				C72.83,101.32,73.88,102.55,74.98,103.75z"/></g><path d="M212.61,89.11c0,0,5.88-10.78,4.88-15.77c-1-4.99-7.75-13.35-7.75-13.35" class="st13"/><g><path d="M245.76,45.99c-0.49-0.38-1.08-0.61-1.64-0.87c-0.57-0.26-1.14-0.5-1.71-0.74c-1.15-0.47-2.32-0.9-3.5-1.3
				c-2.34-0.82-4.72-1.54-7.14-2.08c-2.41-0.54-4.85-0.99-7.3-1.16c-2.44-0.18-4.91-0.15-7.27,0.38c-1.18,0.26-2.34,0.58-3.29,1.2
				c-0.96,0.61-1.72,1.5-2.21,2.54c-1,2.11-0.95,4.64-0.68,7.05c0.29,2.43,0.95,4.83,1.73,7.19c0.76,2.37,1.71,4.67,2.74,6.94
				c-2.49-4.32-4.51-8.99-5.4-13.99c-0.41-2.48-0.52-5.17,0.57-7.67c0.55-1.23,1.47-2.32,2.61-3.05c1.15-0.75,2.44-1.11,3.68-1.39
				c5.08-1.02,10.22-0.24,15.05,1.07c2.43,0.67,4.8,1.49,7.12,2.43c1.15,0.49,2.3,1.01,3.42,1.56
				C243.64,44.66,244.8,45.19,245.76,45.99z"/></g><g><path d="M230.12,65.14c-0.65-2.58-0.97-5.2-1.7-7.71c-0.71-2.5-1.59-4.97-3.05-7.04c-0.67-1.08-1.59-1.95-2.55-2.74
				c-1.04-0.79-2.12-1.55-3.18-2.31c-2.15-1.51-4.35-2.88-6.86-3.79c1.29,0.26,2.6,0.59,3.83,1.13c1.23,0.53,2.41,1.18,3.55,1.86
				c1.15,0.68,2.24,1.42,3.34,2.18c0.52,0.45,1.12,0.84,1.56,1.38l0.7,0.77l0.61,0.84c1.57,2.28,2.43,4.9,2.97,7.51
				c0.27,1.31,0.45,2.64,0.55,3.96C230,62.5,229.98,63.83,230.12,65.14z"/></g><path d="M157.07,81.22c0,0-4.59,4.67-1.87,8.69c2.73,4.02,5.45,0.75,7.61,1.74c2.15,0.99,8.04,6.62,12.06,5.34
			c4.02-1.29,3.73-8.69,6.03-9.17s1-5.31,0-7.08s-5.17-4.34-5.17-4.34" class="st13"/><path d="M147.89,100.69c0,0,1.46,0.3,3.7,0.72c6.25,1.18,18.62,3.28,22.42,2.33c5.17-1.29,15.07-8.53,16.36-10.14
			c-2.3,5.19-7.75,12.23-12.06,14.48c-4.31,2.25-12.92,2.41-17.51-0.97s-8.08-5.43-8.56-5.59" class="st13"/><g><path d="M141.57,104.55c1.19-2.72,2.77-5.21,4.49-7.6c0.88-1.18,1.8-2.34,2.82-3.42c1.02-1.07,2.12-2.13,3.45-2.82
				c-1.01,1.08-1.85,2.26-2.72,3.42l-2.57,3.53C145.31,100.01,143.57,102.35,141.57,104.55z"/></g><g><path d="M200.99,91.65c0.65,0.19,1.22,0.53,1.74,0.91c0.53,0.38,0.99,0.84,1.41,1.35c0.4,0.52,0.77,1.08,0.99,1.72
				c0.23,0.63,0.35,1.34,0.17,2c-0.33-0.59-0.66-1.07-1.01-1.56c-0.35-0.48-0.72-0.94-1.1-1.4
				C202.45,93.72,201.66,92.81,200.99,91.65z"/></g><g><path d="M133.25,101.67c-0.73,1.45-1.6,2.7-2.37,3.99c-0.4,0.63-0.77,1.28-1.11,1.94c-0.33,0.67-0.63,1.33-0.83,2.13
				c-0.31-0.77-0.26-1.65-0.06-2.45c0.18-0.81,0.55-1.56,0.96-2.25c0.43-0.69,0.92-1.33,1.49-1.89
				C131.9,102.57,132.52,102.05,133.25,101.67z"/></g><g><path d="M140.57,24.27c1.29-1.44,2.86-2.61,4.53-3.59c1.68-0.98,3.5-1.73,5.39-2.25c1.89-0.52,3.87-0.69,5.82-0.61
				c1.96,0.05,3.87,0.59,5.64,1.29c-1.92-0.22-3.78-0.47-5.65-0.34c-1.86,0.11-3.71,0.32-5.5,0.83
				C147.2,20.57,143.79,22.19,140.57,24.27z"/></g><g><path d="M133.25,22.66c0.69-0.83,1.34-1.71,2.13-2.46c0.77-0.77,1.64-1.46,2.56-2.06c0.94-0.58,1.94-1.1,3.04-1.37
				c1.08-0.28,2.25-0.36,3.31-0.06c-2.15,0.41-3.95,1.32-5.7,2.46c-0.88,0.55-1.74,1.16-2.61,1.76
				C135.11,21.52,134.27,22.21,133.25,22.66z"/></g><g><path d="M137.84,32.8c1.01-0.93,2.2-1.67,3.5-2.2c1.29-0.52,2.75-0.86,4.28-0.54c0.75,0.18,1.48,0.57,2.03,1.13
				c0.55,0.57,0.9,1.25,1.11,1.95c0.43,1.4,0.39,2.82,0.13,4.16c-0.24-1.35-0.49-2.68-1.02-3.82c-0.51-1.15-1.38-2-2.53-2.23
				c-1.14-0.28-2.44-0.06-3.7,0.25C140.37,31.83,139.12,32.29,137.84,32.8z"/></g><g><path d="M161.38,33.91c-0.55-1.14-0.85-2.42-0.81-3.75c0.02-0.66,0.16-1.35,0.45-2c0.3-0.65,0.82-1.24,1.46-1.61
				c1.33-0.71,2.78-0.61,4.02-0.3c1.26,0.32,2.42,0.86,3.48,1.55c-1.25-0.23-2.45-0.5-3.64-0.62c-0.59-0.05-1.18-0.09-1.74-0.02
				c-0.56,0.05-1.09,0.17-1.52,0.44c-0.89,0.48-1.37,1.51-1.58,2.65C161.3,31.42,161.31,32.65,161.38,33.91z"/></g><g><path d="M128.42,43.31c1.07-0.44,2.1-0.93,3.13-1.38c1.03-0.47,2.06-0.91,3.07-1.4c2.04-0.95,3.98-1.97,5.95-3.22
				c-0.64,0.98-1.5,1.81-2.43,2.52c-0.93,0.72-1.96,1.29-3,1.8c-1.06,0.49-2.15,0.9-3.27,1.2C130.75,43.11,129.6,43.36,128.42,43.31
				z"/></g><g><path d="M169.08,31.72c1.14,0.64,2.31,1.12,3.49,1.55c1.19,0.41,2.39,0.75,3.61,1.03c1.22,0.29,2.46,0.48,3.72,0.67l1.9,0.25
				c0.64,0.08,1.28,0.13,1.93,0.26c-0.64,0.15-1.28,0.25-1.93,0.34c-0.65,0.04-1.31,0.11-1.96,0.1c-1.31,0-2.63-0.15-3.92-0.43
				c-1.28-0.31-2.55-0.73-3.72-1.35C171.02,33.52,169.9,32.76,169.08,31.72z"/></g><path d="M148.89,127.82v14.06c0,0-8.9,0.97-11.05,0c-2.15-0.97-3.3-1.61-4.16-2.09c-0.86-0.48-2.01-7.91-6.46-11.11
			c-4.45-3.2-9.04,0.59-11.34,1.59c-2.3,1,3.01,10.01,4.88,13.07c2.27,3.71,7.63,3.16,9.45,6.89c0.56,1.14,0.81,2.44,1.05,3.72
			c1.14,6.04,2.65,12.13,2.99,18.28c0.39,7.03,0.48,15.69-2.06,22.28c-1.2,3.11-3.4,5.91-6.3,6.86c0.1,5.7,0.13,11.41,0.18,17.11" class="st13"/><path d="M178.94,128.67c0,0-3.64,14.92-3.64,17.28c0,2.36,7.46-0.64,10.91,2.15c3.44,2.79,5.93,1.93,8.8,1.93
			c2.87,0,10.72-1.07,14.73,6.22c4.02,7.29,5.97,25.74,7.87,34.54c1.89,8.8,11.27,22.31,13.38,30.46c2.1,8.15,5.17,18.88,4.21,25.1
			c-0.96,6.22-24.49,4.72-30.81-2.79s-6.89-12.23-11.67-16.09c-4.78-3.86-13.2-6.86-16.27-11.37s-2.1-6.01-4.02-7.72
			c-1.91-1.72-8.42-1.29-11.1,1.72c-2.68,3-4.98,8.15-7.65,6.44c-2.68-1.72,0.77-9.65,1.72-11.15s1.34-6.86,9.95-6.65" class="st13"/><path d="M167.83,191.86c0,0-9.18-1.93-13.39,1.72s-2.98,16.66-1.77,15.87" class="st13"/><path d="M230.98,221.25c0,0-3.25-5.36-14.16-7.08c-10.91-1.72-12.25,2.79-18.75,0c-6.51-2.79-12.44-24.67-14.54-26.6
			c-2.1-1.93-4.4-4.08-7.27-4.08c-2.87,0-12.73-1.15-16.17,1.66c-3.44,2.82-4.82,5.07-4.24,7.48" class="st13"/><path d="M175.44,146.81c0,0,3.59,3.59,5.74,12.92c2.15,9.33-2.44,16.62-6.6,17.32c-4.16,0.7-14.5-1.07-20.38-10.24
			c-5.31-8.27-5.5-8.15-5.5-8.15" class="st13"/><path d="M133.68,139.79c0,0-3.43,2.83-4.02,9.01c-0.26,2.72,7.43,2.74,8.47,5.15c0.9,2.09,8.18,5.31,13.39,4.18
			c5.21-1.13,13.3-9.49,11.72-11.58c-1.58-2.09-4.88,3.06-7.52,0c-2.64-3.06-6.83-4.67-6.83-4.67" class="st13"/><path d="M139.58,142.23c0,0,1.84,7.05-1.46,11.72" class="st13"/><path d="M122.64,145.24c0,0-7.62-0.47-11.92,11.6c-4.31,12.07-5.6,27.83-5.02,36.68c0.57,8.85-2.15,26.55-3.3,30.89
			s-0.14,20.59,1,23.81s2.58,5.31,12.92,2.9c10.33-2.41,21.24-6.27,27.99-10.78c6.75-4.5,15.5-9.81,18.51-12.71
			c3.01-2.9,13.63-11.53,13.63-11.53" class="st13"/><path d="M113.01,218.46c0,0,9.19-1.61,16.58,1.61s17.29,1.88,19.88,1.18s6.25-4.63,6.25-4.63" class="st13"/><line x1="119.91" x2="119.91" y1="250.23" y2="262.22" class="st13"/><line x1="207.03" x2="207.03" y1="245.81" y2="265.76" class="st13"/><path d="M195.67,150.02c0,0,7.61,20.82,10.34,32.57c2.73,11.74,1.02,31.72,1.02,31.72" class="st13"/><path d="M181.4,220.48c0,0,0.21,17.77,0.93,20.5c0.72,2.74,16.22,13.68,18.51,17.7c2.3,4.02,8.04,16.89,1.87,22.2
			c-6.17,5.31-14.78,0-17.94-4.83c-3.16-4.83-7.03-8.21-9.9-10.3s-10.19,0.64-12.2-1.45s-5.74-7.88-4.59-16.57
			c1.15-8.69,4.55-12.99,4-19.45" class="st13"/><path d="M106.22,82.03c-0.79,0.32-1.32-6.8-1.36-7.38c-0.43-5.84,0.33-11.29,2.93-16.42
			c4.37-8.64,12.73-14.94,21.81-13.06c8.74,1.82,17.02,10.85,19.32,20.43c0.64,2.66,0.71,5.47,0.55,8.21
			c-0.04,0.6-0.06,5.87-0.57,5.86C148.89,79.67,114.45,78.6,106.22,82.03z" class="st13"/><path d="M116.12,80.23c0,0-6.48-16.85,1.84-24.99c10.49-10.26,21.1-3.54,24.33,4.67s0.5,17.59-2.23,19.61" class="st13"/><ellipse cx="127.87" cy="67.39" rx="10.33" ry="11.58"/><path d="M178.53,71.71c-0.04-0.14-4.88-14.06-1.22-24.28c3.66-10.22,14.42-12.16,18.73-11.91s10.26,5.88,11.77,12.4
			s0,12.39,0,12.39s-20.81,10.46-23.61,13.03C181.4,75.91,179.97,77.2,178.53,71.71z" class="st13"/><path d="M176.4,52.77c1.51-8.85,11.02-15.45,18.53-10.91c3.24,1.96,5.65,5.44,6.65,9.44
			c1.13,4.56,0.1,8.65-1.39,12.92" class="st13"/><ellipse cx="188.03" cy="56.65" rx="9.58" ry="10.74"/></g></g></svg>